<?xml version="1.0" encoding="utf-8"?>
<!-- Generator: Adobe Illustrator 15.0.0, SVG Export Plug-In . SVG Version: 6.00 Build 0)  -->
<!DOCTYPE svg PUBLIC "-//W3C//DTD SVG 1.1//EN" "http://www.w3.org/Graphics/SVG/1.1/DTD/svg11.dtd">
<svg version="1.1" id="Слой_1" xmlns="http://www.w3.org/2000/svg" xmlns:xlink="http://www.w3.org/1999/xlink" x="0px" y="0px"
	 width="32px" height="32px" viewBox="0 0 32 32" enable-background="new 0 0 32 32" xml:space="preserve">
<path fill="#FFFFFF" d="M9,32H0v-6.393l11.263-12.284l1.474,1.353L2,26.385V30h5v-4h4.538l5.703-6.65l1.518,1.301L12.458,28H9V32z"
	/>
<path fill="#FFFFFF" d="M22,20v-2c4.411,0,8-3.589,8-8s-3.589-8-8-8s-8,3.589-8,8h-2c0-5.514,4.486-10,10-10c5.514,0,10,4.486,10,10
	S27.514,20,22,20z"/>
<path fill="#FFFFFF" d="M22,14c-2.206,0-4-1.795-4-4s1.794-4,4-4s4,1.795,4,4S24.206,14,22,14z M22,8c-1.104,0-2,0.896-2,2
	s0.896,2,2,2s2-0.896,2-2S23.104,8,22,8z"/>
</svg>
