<svg xmlns="http://www.w3.org/2000/svg" viewBox="0 0 533 508"><defs><style>.cls-1{fill:#fff;}.cls-2{fill:#acc8fa;}.cls-3{fill:#dde8fe;}.cls-4{fill:#fa7167;}.cls-5{fill:#050634;}.cls-6{fill:#92b5f9;}.cls-7{fill:#7c9af2;}.cls-8{fill:#fb9392;}.cls-9{fill:#060634;}.cls-10{fill:#ea6868;}.cls-11{fill:#0b0754;}.cls-12{fill:#f17878;}.cls-13{fill:#f07776;}.cls-14{fill:#f17877;}.cls-15{fill:#d9bfa8;}.cls-16{fill:#6181ce;}.cls-17{fill:#eecfba;}.cls-18{fill:#2f3cbc;}.cls-19{fill:#ed7070;}.cls-20{fill:#7d3b50;}.cls-21{fill:#17152b;}.cls-22{fill:#95b5c2;}.cls-23{fill:#ffa582;}.cls-24{fill:#ba8391;}.cls-25{fill:#5360ec;}.cls-26{fill:#464fea;}.cls-27{fill:#bacaee;}</style></defs><title>oic_question</title><g id="Layer_2" data-name="Layer 2"><g id="Layer_1-2" data-name="Layer 1"><path class="cls-1" d="M313.62.15c-4.7.4-9.65,2-12.72,5.77-2.89,3.52-3.75,8.2-3.87,12.64,5.5.1,11,0,16.51,0,.11-2-.05-4.05.74-5.92a1.71,1.71,0,0,1,3.08.44,11.61,11.61,0,0,1-2.65,10.14c-2.66,3.37-5.44,6.85-6.5,11.1-.81,2.75-.59,5.64-.63,8.47,6,.19,12,.12,18.05,0a14.3,14.3,0,0,1,.71-5.32c1.79-4.6,5.49-8,7.9-12.29,2.16-3.69,2.39-8.16,1.82-12.3a14.1,14.1,0,0,0-6.83-10.31C324.5.05,318.89-.27,313.62.15ZM2,408.47a2.46,2.46,0,0,0-1,3.46,15.06,15.06,0,0,0,3.79,3.27c1.44.95.82,3.55,2.62,4.1a26.14,26.14,0,0,1-1.66-4.16,20.55,20.55,0,0,0-.33-5.31A2.45,2.45,0,0,0,2,408.47Z"/><path class="cls-1" d="M197.76,57.67c2.47-1.93,5.83-1.9,8.8-1.59a6.94,6.94,0,0,1,6,4.68c.62,2.5.53,5.43-1.14,7.53S208,72.61,208,75.45a68.47,68.47,0,0,1-8.23,0,11.88,11.88,0,0,1,1.1-5.86c1.14-2.21,3.67-3.84,3.51-6.6a1.47,1.47,0,0,0-1.32-1.78,23.46,23.46,0,0,0-.64,3.13,69.5,69.5,0,0,1-7.36,0C195.07,61.89,195.71,59.19,197.76,57.67Z"/><path class="cls-1" d="M199.91,77c2.68-.12,5.36-.06,8,0a48.8,48.8,0,0,1-.13,8.29,40.86,40.86,0,0,1-7.9.1A80.39,80.39,0,0,1,199.91,77Z"/><path class="cls-1" d="M378.4,118.08c1.93-1.73,4.68-2.06,7.17-1.94a8.62,8.62,0,0,1,5.79,2.47c1.54,2,1.62,4.71,1.15,7.08s-2.29,3.83-3.33,5.81a9.48,9.48,0,0,0-1.11,3.68c-2.43,0-4.87,0-7.3,0a9.12,9.12,0,0,1,1.06-6.19c1.1-2.07,3.34-3.8,3-6.39.14-.69-.44-1.47-1.15-1.07-.54.79-.33,1.85-.46,2.76-2.31.11-4.63.08-6.95,0C376.21,122.1,376.67,119.65,378.4,118.08Z"/><path class="cls-1" d="M380.72,136.63c2.5-.08,5-.09,7.5,0,.07,2.75.13,5.51,0,8.26q-3.74.12-7.47,0C380.61,142.14,380.6,139.38,380.72,136.63Z"/><path class="cls-1" d="M452.58,161.55a2.06,2.06,0,0,1,3.69.1,12.46,12.46,0,0,1,.29,5.73c-.47,3.5-2.74,6.36-4.89,9-3.22,4-6.21,8.58-7,13.81l-.75.41a30.62,30.62,0,0,1-6.4-5.94,28.7,28.7,0,0,1-5.71-16c6.62.11,13.24.13,19.86,0C451.83,166.31,451.59,163.79,452.58,161.55Z"/><path class="cls-1" d="M187,232.85a11.94,11.94,0,0,1,7.74-1.38,7.7,7.7,0,0,1,5.48,2.72,9,9,0,0,1,.85,7.14c-1.09,3.16-4.56,5.22-4.38,8.85a49.05,49.05,0,0,1-8,0,12.55,12.55,0,0,1,1-5.38c.82-1.73,2.3-3,3.1-4.77a5.49,5.49,0,0,0,.15-3.33l-1.19,0c-.19.94-.38,1.89-.59,2.83-2.32,0-4.65,0-7,0A7.38,7.38,0,0,1,187,232.85Z"/><path class="cls-1" d="M188.73,251.69c2.68,0,5.35,0,8,0,.05,2.83,0,5.67,0,8.5-2.69,0-5.38,0-8.07,0C188.68,257.34,188.68,254.52,188.73,251.69Z"/><path class="cls-1" d="M461.2,268a12,12,0,0,1,7.87-1.26,7,7,0,0,1,5.11,3.27,9.75,9.75,0,0,1,.77,5.25c-.57,3.86-4.67,6.21-4.53,10.29-2.52.17-5,0-7.55.11a10,10,0,0,1,1.31-6.38c1.2-1.95,3.17-3.76,2.91-6.25.1-.63-.38-1.38-1.08-1.12-.85.66-.49,1.92-.71,2.86-2.31.1-4.62.1-6.93,0C458.4,272.28,459.07,269.5,461.2,268Z"/><path class="cls-1" d="M130.5,285.71c1.38.7,2.61-.27,3.75-1A442.08,442.08,0,0,1,149.85,350c-2.14.34-4.28.71-6.42,1.07.86-2.93,1.72-5.86,2.62-8.78a3.59,3.59,0,0,0,0-2.58c-4.79-14.16-9.49-28.35-14.29-42.49a13.24,13.24,0,0,1-.68-5.48,23.42,23.42,0,0,0-2.65,0,9.31,9.31,0,0,0-1.9,2.72c.8.61,1.66,1.14,2.46,1.75,1.31,15.68,2.7,31.35,4.05,47,0,.88.69,1.46,1.26,2,2.2,2.06,4.36,4.15,6.53,6.23l-9,1.52c-.2-1.66-.38-3.32-.52-5-.36-5.61-1.63-11.1-2.7-16.61-2.66-12.78-5.43-25.55-8.5-38.25a5.22,5.22,0,0,0,1.44-3.56c2.11.47,4.22.95,6.34,1.37C128.75,289.23,129.6,287.45,130.5,285.71Z"/><path class="cls-1" d="M462.84,287.11a58.34,58.34,0,0,1,7.71,0c0,2.73,0,5.46,0,8.2q-3.85.1-7.71,0C462.74,292.6,462.79,289.85,462.84,287.11Z"/><path class="cls-1" d="M331.63,313c.05-1.44.28-3.18,1.89-3.68a8.84,8.84,0,0,0,8.68.33c2.23.08,2.17,2.66,2.09,4.28,5.27,1.59,10.86,3.45,14.58,7.76,3.58,4.09,4.48,9.75,4.44,15-.07,5.07-1.15,10.83-5.44,14.09a41,41,0,0,1-6.45,3.09,29.18,29.18,0,0,1-17,.19c-2.75,0-5.17-1.41-7.48-2.75a41.1,41.1,0,0,1-6.27-4.79c.53-2,1.07-4,1.68-5.95,3.35.38,6.74.18,10.1.33,4.3-.13,8.77-.92,12.42-3.31a10.55,10.55,0,0,0,4.62-6.84c-1,1.9-1.66,4.06-3.38,5.47-4.19,3.65-10.07,4.44-15.44,4.38q-1.12-6.44-2.26-12.87c-2,.22-4,.62-6,1,0-.2-.1-.59-.13-.79-.88,0-1.75.13-2.63.19-.58-.41-1.12-1.24-1.94-.95s-.88,1-1.26,1.54c-.81.2-1.62.37-2.42.55l-.08,1c-.89.13-1.78.26-2.65.42.3-1,.61-2,.94-3a40.36,40.36,0,0,1,3-7c.85-1.5,2.46-2.27,3.94-3A101.09,101.09,0,0,1,331.63,313Z"/><path class="cls-1" d="M308.78,338.07l.46.21.16.88q.09.68.18,1.38c0,.14,0,.42,0,.56l-.49.87c.28.31.58.61.89.91,0,.17.05.5.07.66-.14.64-.35,1.37.4,1.69.92,4.68,1.59,9.4,2.56,14.07l2.55-.43c-1.82,4.3-3.93,8.5-6.16,12.6-2.43,4.07-5.22,8.27-9.56,10.49-1.83-.73-3.69-1.42-5.59-2-1.72-5.18.72-10.47,2.62-15.24,1.62-3.59,3.38-7.13,5.26-10.59A96.41,96.41,0,0,0,308.78,338.07Z"/><path class="cls-1" d="M339.94,355.4a26,26,0,0,0,17.1-3.94,31.26,31.26,0,0,1-1,5.75c-1.07,3.76-2.16,7.82-5.07,10.62-10.4-.38-20.81-.53-31.21-.85a21,21,0,0,1-1.89-8.51c5.13-.91,10.27-1.77,15.4-2.72a8.44,8.44,0,0,0-.16-1.67A57.79,57.79,0,0,0,339.94,355.4Z"/><path class="cls-1" d="M445.22,398.35h2.84c0,.55,0,1.1,0,1.65,0,.2,0,.59,0,.79,0,.9,0,1.81,0,2.73h-2.84c0-.9,0-1.79,0-2.68v-.48C445.21,399.67,445.21,399,445.22,398.35Z"/><path class="cls-1" d="M12.52,439.86a28.45,28.45,0,0,0,5.1-3.1c.05.76.08,1.52.12,2.29a4.88,4.88,0,0,0-2.25,2.17,25.83,25.83,0,0,0-1.37,6.92C13.59,445.38,13.07,442.61,12.52,439.86Z"/><path class="cls-1" d="M162.64,474.27c2.19-.45,4.38-.95,6.58-1.41l.91.05c.21,2.41.17,4.84.23,7.26a10.07,10.07,0,0,1-7.51,1.27C162.9,479,162.79,476.65,162.64,474.27Z"/><path class="cls-1" d="M121.36,475c3.51,0,7,0,10.5,0a27.64,27.64,0,0,1-3,.19c-.08,2.09-.18,4.18-.14,6.27a10.07,10.07,0,0,1-7.49-1.26C121.24,478.44,121.25,476.7,121.36,475Z"/><path class="cls-2" d="M313.62.15c5.27-.42,10.88-.1,15.61,2.5A14.1,14.1,0,0,1,336.06,13c.57,4.14.34,8.61-1.82,12.3-2.41,4.24-6.11,7.69-7.9,12.29a14.3,14.3,0,0,0-.71,5.32c-6,.07-12,.14-18.05,0,0-2.83-.18-5.72.63-8.47,1.06-4.25,3.84-7.73,6.5-11.1a11.61,11.61,0,0,0,2.65-10.14,1.71,1.71,0,0,0-3.08-.44c-.79,1.87-.63,4-.74,5.92-5.5,0-11,.07-16.51,0,.12-4.44,1-9.12,3.87-12.64C304,2.15,308.92.55,313.62.15Z"/><path class="cls-2" d="M307.59,46.32c.72-.06,1.44-.12,2.17-.16,5.33.13,10.67-.13,16,.16,0,1,0,2.08,0,3.12,0,5.19,0,10.39,0,15.58-6.06.12-12.11,0-18.16,0Q307.55,55.68,307.59,46.32Z"/><path class="cls-2" d="M76.64,141a33.81,33.81,0,0,1,14.23-.6c4.31.7,8.56,2.8,11,6.52a20.17,20.17,0,0,1,1.78,14.6c-1.73,6.21-7.34,10.28-9.64,16.22-.44,1.62-.29,3.34-.57,5-5.91-.18-11.83,0-17.75-.08a28.11,28.11,0,0,1,.62-8.68,25.43,25.43,0,0,1,4.79-8.8c1.59-2.1,3.46-4.13,4.17-6.74a11.84,11.84,0,0,0,.09-5.52,1.67,1.67,0,0,0-3.12-.19c-.7,1.81-.55,3.81-.75,5.73-5.41,0-10.83-.06-16.25,0A20.49,20.49,0,0,1,68,147.26,14.89,14.89,0,0,1,76.64,141Z"/><path class="cls-2" d="M437.9,151.23c5.1-4.47,12.21-5.48,18.75-5.43,6.13.08,12.71,1.24,17.42,5.45,4.23,3.78,5.89,9.68,5.73,15.2a20.86,20.86,0,0,1-3.51,12.19c-2.94,4.38-6.64,8.33-8.68,13.26-.94,2.18-.9,4.59-.94,6.91-2.24,0-4.47,0-6.69,0-5.19-.06-10.39,0-15.58,0a38.67,38.67,0,0,1,.31-8.6c.75-5.23,3.74-9.76,7-13.81,2.15-2.66,4.42-5.52,4.89-9a12.46,12.46,0,0,0-.29-5.73,2.06,2.06,0,0,0-3.69-.1c-1,2.24-.75,4.76-.87,7.15-6.62.14-13.24.12-19.86,0l-.52-.19c0-1.36.16-2.71.21-4.07C432.32,159.57,434,154.54,437.9,151.23Z"/><path class="cls-2" d="M75.68,186.59c-.18-.84,1-.58,1.43-.68,5.12,0,10.25,0,15.37,0h1.17c.09,6.24,0,12.48,0,18.72-2.39.13-4.79.09-7.18.08-3.61,0-7.22,0-10.84,0Q75.59,195.64,75.68,186.59Z"/><path class="cls-2" d="M444.36,202.9q11.17,0,22.36,0c0,7.75,0,15.49,0,23.24-7.45.12-14.9.07-22.34,0C444.29,218.41,444.25,210.65,444.36,202.9Z"/><path class="cls-3" d="M224.08,43.22c21.75-1.63,43.65-1.87,65.37.33,6.8.61,13.55,1.71,20.31,2.61-.73,0-1.45.1-2.17.16q0,9.36,0,18.72c6,0,12.1.1,18.16,0,0-5.19,0-10.39,0-15.58a213.79,213.79,0,0,1,38.82,13A134.26,134.26,0,0,1,401.4,86.61a94.12,94.12,0,0,1,29.75,68.44,86.7,86.7,0,0,0,.39,9.4c-.05,1.36-.17,2.71-.21,4.07l.52.19a28.7,28.7,0,0,0,5.71,16,30.62,30.62,0,0,0,6.4,5.94l.75-.41a38.67,38.67,0,0,0-.31,8.6c5.19,0,10.39,0,15.58,0,2.49,1.66,5.32,2.69,7.93,4.16,18.09,9.92,32.16,27.22,37.56,47.19,2.45,8.57,2.52,17.54,2.69,26.39.49,21-.8,42.22,2.45,63.1.43,2.3.52,4.73,1.58,6.87a4.63,4.63,0,0,0-3,2.68c-1,3.16-.52,6.51-.62,9.75-1,2.82-2.25,5.56-3.07,8.45-.34-2.31-.06-4.82-1.2-6.93a4.5,4.5,0,0,0-7.16-.48,4.44,4.44,0,0,0,0,5.81,31.54,31.54,0,0,0,7,5.63c-1.06,3.57-2.11,7.16-3,10.79-.1-2.57.06-5.25-.84-7.7a4.52,4.52,0,1,0-7.54,4.85,30.42,30.42,0,0,0,7.55,6c-1.11,4.65-2.23,9.3-3.14,14-.33-3.77-.51-7.63-1.77-11.23a6.43,6.43,0,0,0-12.25,3.7c.4,2.36,2.38,3.95,4.15,5.35a42.5,42.5,0,0,0,9.14,5.51c-1,5-2.08,10-2.82,15.09-.61-4.11-.87-8.32-2.35-12.24a7.44,7.44,0,0,0-8.8-4.32,7.52,7.52,0,0,0-5.38,8.85c.54,2.82,3,4.62,5.16,6.23a49.64,49.64,0,0,0,10.49,6c-.9,5.24-1.8,10.48-2.6,15.74a75,75,0,0,0-5.2-13.48,10.51,10.51,0,0,0-4.07-4.65,9.16,9.16,0,0,0-13,11.54c1,2.66,3.52,4.31,6,5.45A62.22,62.22,0,0,0,489.51,442c-.81,5.68-1.73,11.33-2.44,17A75.79,75.79,0,0,0,482,445.58a12.12,12.12,0,0,0-3.23-4.26,9.21,9.21,0,0,0-9.23-1.07,9.12,9.12,0,0,0-5.39,7.33,9,9,0,0,0,3.79,8.45,39.38,39.38,0,0,0,7.69,3.68,54.29,54.29,0,0,0,10.91,3.08c-.56,4.59-1.21,9.17-1.78,13.76-2.54-.56-5.06-1.34-7.68-1.23-2.19-2.13-4.35-4.38-7-5.85a9.28,9.28,0,0,0-11.3,2.8c-6.91-1.29-13.95-1.75-20.92-2.56-.07-.51-.12-1-.16-1.52-.06-.66-.1-1.31-.14-2l.6,0c-.31-16.89-.86-33.77-1.24-50.64h30a1.78,1.78,0,0,0,2.07-1.7c.08-6.86,0-13.73,0-20.6v-.49c-.07-2.33.1-4.67-.09-7a1.78,1.78,0,0,0-2-1.3c-4.57,0-9.13,0-13.69,0-.1-2,.26-4-.25-5.85-.77-2-3.21-1.63-4.93-1.65a34.63,34.63,0,0,0-4-10.5q1.26,0,2.52,0c1.91-17.94,2.1-36.35-2.3-54A63.82,63.82,0,0,0,437.68,296c-1.58-2.8-4.39-4.53-7-6.19-2.84-1.73-5.81-3.24-8.78-4.73-2.44-1.2-4.9-2.36-7.43-3.37-.26-.69-.57-1.35-.83-2a18,18,0,0,1,2.74-10.55c1.66-.09,3.66-.48,4.3-2.24.59-1.06-.36-1.91-.95-2.66a51.15,51.15,0,0,1,3.6-6.58A13.71,13.71,0,0,0,421.9,250c.54-.27,1.72-.74,1.2-1.54-.63-1.09-2-1.4-2.89-2.2-.9-1.31-1.21-3.29-3-3.65a13.64,13.64,0,0,0,.21,2.55,9.91,9.91,0,0,0-4.08-2.44c-.07-2.49-.22-5-.29-7.45l.57-1.06a7.35,7.35,0,0,0-1.37,1.1c-5.18,2-10,4.9-14.95,7.39a14.06,14.06,0,0,0-2,1.15,393.52,393.52,0,0,0-46,28.41c-2.44,1.86-5,3.51-7.31,5.58l1.11.32c-3.95-.43-8.4.39-11.11,3.54-2.55,2.63-2.48,6.8-5.19,9.29-1.59,1.35-3.46,2.36-4.94,3.85a193.53,193.53,0,0,0-17.06,18c-2.31,2.62-4.21,5.55-6.54,8.13,1.78-8.07,5.47-15.55,9.59-22.66A285.35,285.35,0,0,1,328,269c8.83-11.8,17.95-23.64,23.74-37.31,6.36-14.79,7.91-31.16,7.42-47.12-.54-16.17-3.93-32.54-11.92-46.75A77.54,77.54,0,0,0,320,109.65c-14.6-9-31.5-13.57-48.41-15.68a222.45,222.45,0,0,0-48.12-.39c-17.57,1.83-35.21,6.13-50.57,15.11a81.33,81.33,0,0,0-26.77,25C138.54,145,133.87,158,131.26,171.24a178,178,0,0,0-3.09,30.54c32.37.12,64.75,0,97.13.06.13-9.71-.08-19.56,2.08-29.09,1-4.07,2.92-8.78,7.31-10.12,3.77-1,8.45-.36,11,2.84,2.59,3.38,3,7.81,3.39,11.92.53,10-.1,20.28-3.7,29.72-4.33,11.5-12.17,21.16-19.8,30.62-9.07,11.53-17.75,23.51-24.18,36.74a108.66,108.66,0,0,0-9.73,30.69,168.61,168.61,0,0,0-28.77-17.71c.81-8.6,1.79-17.19,2.19-25.82a4.29,4.29,0,0,0-1.54-4c-2.61-2-6-2.58-9.17-3.11a117.47,117.47,0,0,0-23-.4c0,.33.14,1,.18,1.32-.78-.23-1.57-.46-2.33-.73a7.06,7.06,0,0,0-2.52-1.2c-3.47-.69-7,.06-10.35,1,0-.42.15-1.25.19-1.66-.33-1.11-1.76-.63-2.52-.29-3.5,1.52-5.38,5.05-7.05,8.26a25.59,25.59,0,0,0-1-3.12c-.91-.32-1.29.74-1.6,1.38a16.17,16.17,0,0,0-.43,7.09,451.58,451.58,0,0,0-51-9.61c1.93.19,2.78-1.77,3.87-3C65,243.8,73.24,233.81,79,222.31a118.91,118.91,0,0,0,7.48-17.6c2.39,0,4.79,0,7.18-.08-.07-6.24,0-12.48,0-18.72H92.48c.33-1.06.69-2.11,1-3.18.28-1.66.13-3.38.57-5,2.3-5.94,7.91-10,9.64-16.22a20.17,20.17,0,0,0-1.78-14.6c.61-1.92,1.1-3.87,1.62-5.81a217.93,217.93,0,0,1,11.37-34.25c3.49-7.48,7.33-14.86,12.4-21.4a87.83,87.83,0,0,1,29-24.95c11.94-6.32,25-10.4,38.15-13.16A242.86,242.86,0,0,1,224.08,43.22ZM197.76,57.67c-2,1.52-2.69,4.22-2.67,6.64a69.5,69.5,0,0,0,7.36,0,23.46,23.46,0,0,1,.64-3.13,1.47,1.47,0,0,1,1.32,1.78c.16,2.76-2.37,4.39-3.51,6.6a11.88,11.88,0,0,0-1.1,5.86,68.47,68.47,0,0,0,8.23,0c-.07-2.84,1.85-5,3.41-7.16s1.76-5,1.14-7.53a6.94,6.94,0,0,0-6-4.68C203.59,55.77,200.23,55.74,197.76,57.67ZM199.91,77a80.39,80.39,0,0,0,0,8.36,40.86,40.86,0,0,0,7.9-.1A48.8,48.8,0,0,0,208,77C205.27,77,202.59,76.91,199.91,77ZM378.4,118.08c-1.73,1.57-2.19,4-2.15,6.26,2.32,0,4.64.08,6.95,0,.13-.91-.08-2,.46-2.76.71-.4,1.29.38,1.15,1.07.36,2.59-1.88,4.32-3,6.39a9.12,9.12,0,0,0-1.06,6.19c2.43,0,4.87,0,7.3,0a9.48,9.48,0,0,1,1.11-3.68c1-2,2.83-3.57,3.33-5.81s.39-5.1-1.15-7.08a8.62,8.62,0,0,0-5.79-2.47C383.08,116,380.33,116.35,378.4,118.08Zm2.32,18.55c-.12,2.75-.11,5.51,0,8.26q3.74.11,7.47,0c.17-2.75.11-5.51,0-8.26C385.72,136.54,383.22,136.55,380.72,136.63Zm63.64,66.27c-.11,7.75-.07,15.51,0,23.27,7.44,0,14.89.09,22.34,0,.06-7.75,0-15.49,0-23.24Q455.53,202.89,444.36,202.9ZM187,232.85a7.38,7.38,0,0,0-2.81,6.75c2.33,0,4.66,0,7,0,.21-.94.4-1.89.59-2.83l1.19,0a5.49,5.49,0,0,1-.15,3.33c-.8,1.73-2.28,3-3.1,4.77a12.55,12.55,0,0,0-1,5.38,49.05,49.05,0,0,0,8,0c-.18-3.63,3.29-5.69,4.38-8.85a9,9,0,0,0-.85-7.14,7.7,7.7,0,0,0-5.48-2.72A11.94,11.94,0,0,0,187,232.85Zm1.73,18.84c0,2.83,0,5.65,0,8.48,2.69,0,5.38,0,8.07,0,0-2.83,0-5.67,0-8.5C194.08,251.73,191.41,251.7,188.73,251.69ZM461.2,268c-2.13,1.52-2.8,4.3-2.83,6.79,2.31.08,4.62.08,6.93,0,.22-.94-.14-2.2.71-2.86.7-.26,1.18.49,1.08,1.12.26,2.49-1.71,4.3-2.91,6.25a10,10,0,0,0-1.31,6.38c2.51-.09,5,.06,7.55-.11-.14-4.08,4-6.43,4.53-10.29a9.75,9.75,0,0,0-.77-5.25,7,7,0,0,0-5.11-3.27A12,12,0,0,0,461.2,268Zm1.64,19.13c0,2.74-.1,5.49,0,8.24q3.86.07,7.71,0c0-2.74,0-5.47,0-8.2A58.34,58.34,0,0,0,462.84,287.11Z"/><path class="cls-3" d="M129.65,262.68c.9-.57,1.79-1.17,2.7-1.73,0,.23.13.68.18.91,5.74,1,11.53,1.81,17.16,3.33-.37,5.25-3.77,9.66-7.32,13.3-2.68-1.23-5.49-2.15-8.25-3.19-.2-1.68-1-3.24-1-4.93.19-.81.8-1.63.47-2.47s-1.29-.76-1.93-1l-.59-.38C130.57,265.22,130.17,263.92,129.65,262.68Z"/><path class="cls-3" d="M43.92,269.52a419,419,0,0,0,20,48.29,271.69,271.69,0,0,0,25.18,41.95,26.61,26.61,0,0,0,3.22,3.89c0,4.41,0,8.81.22,13.21h1.38a39.27,39.27,0,0,0-2.3,9.37,6.7,6.7,0,0,0,.37,2.29,30.08,30.08,0,0,0,1.3-2.83,13.32,13.32,0,0,0,.33,4.23l.59.32a29.25,29.25,0,0,0,1.21-3.75c0,1.5.08,3,.21,4.5a8.4,8.4,0,0,0,2-3.93,45,45,0,0,0,0,4.79c.61-.43,1.37-.79,1.58-1.57.68-2.21.9-4.52,1.59-6.72,1,.94,1.84,2.22,3.31,2.36a4.69,4.69,0,0,0-.63-2.34c-1-2.18-1.62-4.53-2.63-6.72l2.25,0c4.44,4.22,8.64,8.71,13.45,12.53,0,6.67.12,13.35.12,20-6.32,2.92-12.43,6.26-18.47,9.69-5.8,3.36-11.54,6.82-17,10.68l1,.74a321.42,321.42,0,0,0,34.72,19.65q0,8.19.11,16.37c-13.07.92-26.15,1.79-39.18,3.24A9.45,9.45,0,0,0,67.11,471c-4.34.29-8.65.87-12.94,1.58q-.63-4.86-1.3-9.7a62.76,62.76,0,0,0,17.22-5.93A9.14,9.14,0,1,0,58.6,443.59c-2.92,4.68-4.56,10-6.27,15.2-.79-5.59-1.62-11.18-2.45-16.77A63.75,63.75,0,0,0,64,437.57c2.46-1.15,5.18-2.31,6.7-4.69A9.16,9.16,0,0,0,60.05,419.2a8.88,8.88,0,0,0-4.79,3.92c-2.76,4.58-4.38,9.71-6,14.76-.75-4.57-1.45-9.15-2.29-13.7a5.72,5.72,0,0,1-.14-1.88,56.72,56.72,0,0,0,10.87-6.38c1.92-1.45,4-3.11,4.55-5.59a7.47,7.47,0,0,0-13.93-5.16c-1.63,3.9-1.89,8.19-2.48,12.33-1-4.93-1.88-9.88-2.86-14.81A41.94,41.94,0,0,0,53.57,396a6.75,6.75,0,0,0,2.76-5.37,6.41,6.41,0,0,0-12.46-2.15,43.83,43.83,0,0,0-1.61,10.93c-1-4.66-2-9.33-3.2-14a31.68,31.68,0,0,0,7.56-6A4.52,4.52,0,1,0,39,374.84c-.73,2.27-.63,4.7-.71,7.07-1-3.49-2-7-3-10.5a28.3,28.3,0,0,0,7.14-5.83,4.45,4.45,0,1,0-7.6-4.52c-.77,2-.64,4.24-.88,6.37-.69-2-1.38-4.08-2.23-6.05-.48-1.19-1.15-2.39-1-3.71.1-3.27.51-6.86-1.25-9.79a15.6,15.6,0,0,0-.2-2.9c-2-11.08-3.7-22.35-2.87-33.63a65.79,65.79,0,0,1,5.12-21.15C34.73,282.79,39.19,276,43.92,269.52Z"/><path class="cls-3" d="M223.1,345.14h61a103.42,103.42,0,0,0-7,19.53H227.8A81.07,81.07,0,0,0,223.1,345.14Z"/><path class="cls-3" d="M509.52,359.28a31.75,31.75,0,0,0,4.8-3.43c1,3.35,2.49,6.54,3.22,10a4.81,4.81,0,0,0-5-.89c-2.63,1.25-4.78,3.28-7,5.16C506.72,366.43,508,362.8,509.52,359.28Z"/><path class="cls-3" d="M435.39,362.06h.4l.37.66c0,1.23.06,2.47.1,3.71l2.7.06c-1.12,3.23-2.06,6.53-3.18,9.76C435.69,371.52,435.55,366.79,435.39,362.06Z"/><path class="cls-3" d="M518.82,369.31A58.77,58.77,0,0,1,522,377c3.66,9.45,7.21,19,9.27,29,.76,3.41,1,6.89,1.69,10.32v13.13c-.22,1.24-.44,2.49-.55,3.76a69.57,69.57,0,0,1-7.66,25.54,66.91,66.91,0,0,1-13.53,17,9.49,9.49,0,0,0-3.54-5,9.08,9.08,0,0,0-10.2-.24,49.39,49.39,0,0,0-8,7.1c-1.32-.21-2.64-.45-4-.68q.89-7,1.84-14a62.1,62.1,0,0,0,17.92,3.63,9.14,9.14,0,0,0,8.88-5.24,9.24,9.24,0,0,0-1.51-10,9.1,9.1,0,0,0-9.52-2.57,21.41,21.41,0,0,0-4.7,2.55,74,74,0,0,0-10.69,8.89c.85-6,1.71-12.07,2.64-18.09a60,60,0,0,0,11.44,3,36.82,36.82,0,0,0,8.25.65A9.12,9.12,0,1,0,506,428a24.93,24.93,0,0,0-4.79,2.72,73.15,73.15,0,0,0-10.36,8.72c.88-5.78,1.86-11.55,2.84-17.32a51.17,51.17,0,0,0,15.59,1.39,7.46,7.46,0,0,0-.37-14.86,7.69,7.69,0,0,0-5.29,1.72,58.43,58.43,0,0,0-9.46,9.14c1-5.58,2-11.16,3.22-16.71a41.31,41.31,0,0,0,13.23,2.51A6.41,6.41,0,1,0,507.81,393c-3.73,1.81-6.88,4.6-9.93,7.36,1-4.88,2.13-9.75,3.3-14.59a31.78,31.78,0,0,0,9,1.6,4.52,4.52,0,1,0-1.89-8.73c-2.44,1.08-4.43,2.92-6.47,4.58,1-3.9,2.09-7.75,3.2-11.61a30.21,30.21,0,0,0,9.57,1.81A4.66,4.66,0,0,0,518.82,369.31Z"/><path class="cls-3" d="M33.54,371.91l.84-.23c1.1,3.82,2.2,7.65,3.19,11.51-1.21-1-2.39-2-3.63-2.88Q33.78,376.11,33.54,371.91Z"/><path class="cls-3" d="M406.13,389.73c.53-3.67.77-7.39,1.54-11,6.94,29.09,14.18,58.12,21.14,87.2l1.08.06c0,.32,0,.93,0,1.24-1.39.53-2.77,1.1-4.14,1.72-2.63-.81-5.4-.74-8.1-1-7.07-.52-14.13-1.13-21.2-1.47.5-2.14.59-4.35.92-6.52Q401.72,424.83,406.13,389.73Z"/><path class="cls-3" d="M446,380.35a20.34,20.34,0,0,1,3.9-.14v4.27H438.94q0-2.06.06-4.08c.74.51,2.28,1.75,2.44.07l.36-.05,1.26,1,.58-1.23.78.2A3.91,3.91,0,0,0,446,380.35Z"/><path class="cls-3" d="M33.8,386.89c1.5-.31,3-.72,4.44-1.1,1.12,4.85,2.28,9.67,3.26,14.55a50.48,50.48,0,0,0-8.94-6.87C33.82,391.57,33.37,389.05,33.8,386.89Z"/><path class="cls-3" d="M359.84,424.07c9.28-6.75,16.55-15.85,22.88-25.33q2,33.5,3.94,67c-8.44-.29-16.87-1-25.32-1.08C361.17,451.13,360.7,437.59,359.84,424.07Z"/><path class="cls-3" d="M29.68,405.36A47.42,47.42,0,0,0,42,402.84c1.1,5.51,2.22,11,3.12,16.56-3.1-3.45-6.27-6.93-10.15-9.52a7.94,7.94,0,0,0-6.15-1A21.86,21.86,0,0,1,29.68,405.36Z"/><path class="cls-3" d="M24.26,419.54a7.51,7.51,0,0,0,5.94,4,54,54,0,0,0,15.52-1.36c.92,5.74,1.93,11.46,2.82,17.2a75.38,75.38,0,0,0-12.68-10.13,10.24,10.24,0,0,0-5.7-1.78,9.17,9.17,0,0,0-8.3,5.66,10.27,10.27,0,0,0-.33,6.3,5.63,5.63,0,0,0-3.79-.38c0-.77-.07-1.53-.12-2.29,1.76-1.12,3-3.16,2.19-5.25Q22.12,425.56,24.26,419.54Z"/><path class="cls-3" d="M332.18,437.65a79.28,79.28,0,0,0,9.13-2.89q2.58,14.06,5.06,28.14c-.07.24-.19.72-.25,1-4.41-.09-8.83-.06-13.23-.37-.14-1.09-.26-2.18-.35-3.26Q332.29,448.93,332.18,437.65Z"/><path class="cls-3" d="M296.72,439.82a138.7,138.7,0,0,0,18.57.59c.72,7.55,1.54,15.09,2.4,22.63-7-.12-14-.12-21-.37Q296.74,451.24,296.72,439.82Z"/><path class="cls-3" d="M31.47,445.71A66.1,66.1,0,0,0,49,442.07c.79,6,1.78,11.95,2.56,17.94a78.76,78.76,0,0,0-11.9-9.58c-1.93-1.22-4.08-2.32-6.43-2.19a10.25,10.25,0,0,0-5.68,2.06,5.31,5.31,0,0,0-7.61.26c-1.93,2.58-2.74,5.76-3.89,8.72-.52-2.76-1-5.53-1.42-8.31,2.59-1.46,5.32-2.77,7.49-4.84a11.15,11.15,0,0,0,1.72-3A9.59,9.59,0,0,0,31.47,445.71Z"/><path class="cls-3" d="M14.24,452.21c.53,2.72.95,5.47,1.39,8.22-.86-.82-1.72-1.63-2.61-2.4A27.39,27.39,0,0,1,14.24,452.21Z"/><path class="cls-3" d="M133.86,457.4A169.68,169.68,0,0,0,155.58,464c-1.37,1-3.17.57-4.75.72-5.93.34-11.87.46-17.79.94C133.31,462.88,133.6,460.14,133.86,457.4Z"/><path class="cls-3" d="M16.4,462a39.93,39.93,0,0,0,8.05-2.57l.48,1a6.08,6.08,0,0,0-3.28,1.9c-1.89,2.53-2.6,5.67-3.87,8.51C17.2,467.89,16.89,464.9,16.4,462Z"/><path class="cls-3" d="M12.27,463c1.22-.29,2.41-.68,3.6-1.06.49,3.33,1,6.65,1.44,10a63.92,63.92,0,0,0-5.06-4.25A13.09,13.09,0,0,0,12.27,463Z"/><path class="cls-3" d="M36.8,466.32A68.78,68.78,0,0,0,52,462.91c.41,3.24.86,6.48,1.28,9.72-2.46.28-4.91.66-7.36,1a29.22,29.22,0,0,0-4.51-3.49,9.06,9.06,0,0,0-9.4.32,9.47,9.47,0,0,0-4.13,6.55,14,14,0,0,0-1.46.83c-2.62.11-5,1.3-7.49,2-.26-2.07-.55-4.14-.81-6.21a34.46,34.46,0,0,0,10-3.55,5.4,5.4,0,0,0,2.63-3.84A22.78,22.78,0,0,0,36.8,466.32Z"/><path class="cls-3" d="M13.07,474.93a44.13,44.13,0,0,0,4.5-1.25c.29,2.24.59,4.48.88,6.73-.93.23-1.86.48-2.79.73-.57-.58-1.14-1.14-1.74-1.68A18.88,18.88,0,0,0,13.07,474.93Z"/><path class="cls-3" d="M24.38,492.33c16.9,4.34,34.28,6.17,51.55,8.24A32.48,32.48,0,0,1,71,501c-11.52.18-23.2-.2-34.38-3.23C32.37,496.42,28,495.09,24.38,492.33Z"/><path class="cls-3" d="M447.93,499.56c5.6-.58,11.15-1.51,16.76-1.94a120.68,120.68,0,0,1-12.89,2.91c-22.45,4-45.27,5.23-68,6.41-11.11.71-22.24,1-33.36,1.06-5.69-.16-11.38-.26-17.08-.36a16.36,16.36,0,0,1-3.41-.46,41.4,41.4,0,0,1,6.49-.44c5.13,0,10.23-.45,15.36-.5,4.83,0,9.64-.66,14.48-.65C393.55,504.32,420.8,502.6,447.93,499.56Z"/><path class="cls-4" d="M223.47,93.58a222.45,222.45,0,0,1,48.12.39c16.91,2.11,33.81,6.67,48.41,15.68a77.54,77.54,0,0,1,27.19,28.14c8,14.21,11.38,30.58,11.92,46.75.49,16-1.06,32.33-7.42,47.12C345.9,245.33,336.78,257.17,328,269a285.35,285.35,0,0,0-20.13,29.39C303.7,305.47,300,313,298.23,321c-2,7.9-1.39,16.08-1.56,24.14-4.17,0-8.35,0-12.53,0h-61c-11,0-22,0-33,0,.11-13.33-.62-26.76,1.58-40a108.66,108.66,0,0,1,9.73-30.69c6.43-13.23,15.11-25.21,24.18-36.74,7.63-9.46,15.47-19.12,19.8-30.62,3.6-9.44,4.23-19.72,3.7-29.72-.34-4.11-.8-8.54-3.39-11.92-2.57-3.2-7.25-3.81-11-2.84-4.39,1.34-6.31,6.05-7.31,10.12-2.16,9.53-1.95,19.38-2.08,29.09-32.38-.05-64.76.06-97.13-.06a178,178,0,0,1,3.09-30.54c2.61-13.27,7.28-26.29,14.87-37.56a81.33,81.33,0,0,1,26.77-25C188.26,99.71,205.9,95.41,223.47,93.58Z"/><path class="cls-4" d="M126.55,294.49a9.31,9.31,0,0,1,1.9-2.72,23.42,23.42,0,0,1,2.65,0,13.24,13.24,0,0,0,.68,5.48c4.8,14.14,9.5,28.33,14.29,42.49a3.59,3.59,0,0,1,0,2.58c-.9,2.92-1.76,5.85-2.62,8.78l-.7,2.24-1.88-1.81c-2.17-2.08-4.33-4.17-6.53-6.23-.57-.57-1.28-1.15-1.26-2-1.35-15.67-2.74-31.34-4.05-47C128.21,295.63,127.35,295.1,126.55,294.49Z"/><path class="cls-4" d="M190.07,364.74c12.58-.19,25.16,0,37.73-.08h49.32c6.59,0,13.18-.12,19.77.09-1.9,4.77-4.34,10.06-2.62,15.24-2.54,3.6-5.26,7.45-5.66,12l1.72-1.38a18,18,0,0,0-.3,3.51c1,.06,1.42-1.31,2.1-1.9-.13,1-.22,2-.31,3,.72-.53,1.45-1.05,2.13-1.62a9.49,9.49,0,0,0-.15,3.36,14,14,0,0,0,2.89-3.47c0,2.42.05,4.84,0,7.27,0,.23,0,.7,0,.94q0,19.08,0,38.15,0,11.43,0,22.85c0,4.33,0,8.66,0,13q-53.29,0-106.57,0c-.06-4.12,0-8.24,0-12.35q0-16,0-32.06,0-10.75,0-21.5v-.62C190.1,394.33,190.13,379.53,190.07,364.74Z"/><path class="cls-5" d="M412.21,235.35a7.35,7.35,0,0,1,1.37-1.1l-.57,1.06c-1.51,2.34-3.23,4.54-4.72,6.89a22.31,22.31,0,0,1,5,.56,9.91,9.91,0,0,1,4.08,2.44,13.64,13.64,0,0,1-.21-2.55c1.83.36,2.14,2.34,3,3.65.9.8,2.26,1.11,2.89,2.2.52.8-.66,1.27-1.2,1.54a13.71,13.71,0,0,1,1.39,7.59,51.15,51.15,0,0,0-3.6,6.58c-1.13.1-2.25.24-3.36.43-.05-3.3-.21-6.58-.3-9.87a35.27,35.27,0,0,0-6.33.42c-1.12.1-2.54-.53-2.59-1.79a15.15,15.15,0,0,1,1.84-1.83c-3.4.13-6.79-.1-10.18-.22-1.42,2.62-1.88,5.57-2.6,8.43l-1.11.27a5.36,5.36,0,0,0,1.37-2.85c.15-2,.27-4,.58-6-.65-.61-1.66-1.18-1.46-2.23,0-.79.82-1.14,1.34-1.59a3.64,3.64,0,0,1-1.67-3.45,14.06,14.06,0,0,1,2-1.15,58,58,0,0,0,10.2-.47C409.05,240,410.72,237.72,412.21,235.35Z"/><path class="cls-5" d="M107,260.87c1.67-3.21,3.55-6.74,7.05-8.26.76-.34,2.19-.82,2.52.29,0,.41-.14,1.24-.19,1.66,3.34-1,6.88-1.73,10.35-1a7.06,7.06,0,0,1,2.52,1.2,4.05,4.05,0,0,1-2.64,1.57c1.06.4,2.46.5,3.07,1.57.28.9-.72,1.41-1.09,2.1a27.62,27.62,0,0,0,1.1,2.72c.52,1.24.92,2.54,1.42,3.8-1.35-2.14-2.33-4.62-4.41-6.19a49.74,49.74,0,0,0-7.43,1.27c.69,1,2.45,1.51,2,3-2.25.84-4.73.67-7.09,1.05.35.7,1,1.37.92,2.21-.08,1.17-1.06,1.95-1.76,2.78.48,2.06,1.08,4.1,1.6,6.15-1,.14-2,.33-3.06.52-1.12-1.18-2.18-2.43-3.4-3.5-.87-.75-2.16-1-2.74-2.08a16.75,16.75,0,0,1-1.75-5.44,16.17,16.17,0,0,1,.43-7.09c.31-.64.69-1.7,1.6-1.38A25.59,25.59,0,0,1,107,260.87Z"/><path class="cls-5" d="M131.36,254.13a117.47,117.47,0,0,1,23,.4c3.18.53,6.56,1.09,9.17,3.11a4.29,4.29,0,0,1,1.54,4c-.4,8.63-1.38,17.22-2.19,25.82-.95,9.66-2,19.31-2.7,29-.4,4.6.6,9.15,1.37,13.66,2.3,12.43,5.12,24.76,8,37.07l-3.87.31c-4.66.29-9.29.79-13.95.95-.27-6.17-1.05-12.3-1.92-18.41a442.08,442.08,0,0,0-15.6-65.27,43,43,0,0,0,8.12-6.26c3.55-3.64,6.95-8.05,7.32-13.3-5.63-1.52-11.42-2.31-17.16-3.33-.05-.23-.14-.68-.18-.91-.29-1.83-.53-3.67-.81-5.5C131.5,255.12,131.41,254.46,131.36,254.13Z"/><path class="cls-5" d="M38.57,254.49l1.24.62c13,12.45,26.1,24.77,39.14,37.18,7.5,7,14.86,14.24,22.45,21.19a36.45,36.45,0,0,1,11.74-15.8c2-1.59,4.13-2.93,6.23-4.34-.34-3.39-.53-6.79-.82-10.17.24.33.47.68.69,1,.31,3,.17,6.07.9,9,3.07,12.7,5.84,25.47,8.5,38.25,1.07,5.51,2.34,11,2.7,16.61.14,1.66.32,3.32.52,5,.59,5.84,1.69,11.62,2.29,17.45-5.88.57-11.82.75-17.72,1.11l-.8,0c-.27-5.21-.6-10.42-.89-15.63-2.37-.62-4.73-1.29-7.11-1.83-2.25,7.38-3.21,15.07-4.56,22.65l-2.25,0H92.51c-.21-4.4-.22-8.8-.22-13.21.18-10,.61-20,2.56-29.82a96.36,96.36,0,0,1,3.4-11.68c.89-2.7,1.8-5.37,2.87-8q-30.83-29.23-61.66-58.44C39.15,255.31,38.85,254.9,38.57,254.49Zm69.31,99.09c2.28.61,4.55,1.21,6.83,1.79-.32-5.1-.58-10.21-.9-15.32A141.41,141.41,0,0,0,107.88,353.58Z"/><path class="cls-5" d="M399.76,259.16c1.36-.67,2.32,1.61.94,2.15C399.32,262,398.28,259.69,399.76,259.16Z"/><path class="cls-5" d="M409,259.2c1.82-1.09,5.25-.09,5,2.31-1.3.76-1.67-1.62-3-1.31C410.17,260.36,408.13,260.69,409,259.2Z"/><path class="cls-5" d="M409.45,262.35c1.15-1.17,2.81.93,1.49,1.82C409.79,265.11,408.35,263.25,409.45,262.35Z"/><path class="cls-5" d="M127.78,267.65c1-.68,1.91,1.23.69,1.54A.85.85,0,0,1,127.78,267.65Z"/><path class="cls-5" d="M402.33,268.29c.81-.56,1.73.39,1.69,1.23.14,1.1-.87,2.71-2.13,2.08A2.14,2.14,0,0,1,402.33,268.29Z"/><path class="cls-5" d="M119.45,273.31c1-.51,1.7,1.15.7,1.54C119.17,275.41,118.37,273.66,119.45,273.31Z"/><path class="cls-5" d="M126,279.72c.14-2.29,2.84-4.05,5.06-3.53-.66.69-1.71.44-2.49.89A12.15,12.15,0,0,0,126,279.72Z"/><path class="cls-5" d="M404.49,284.72c1-.68,2-1.37,3-2,.88.66,1.75,1.32,2.65,1.95-.73,1.34-2,2.6-1.77,4.24q2.18,25,4.33,49.93c.25,2.09-1.59,3.57-2.44,5.32-1.5,2.37-2.91,4.8-4.47,7.13-1.18-2.55-2.31-5.11-3.46-7.66-.65-1.69-1.92-3.3-1.61-5.19q2.44-25,4.82-50.05C405.75,287,405,285.88,404.49,284.72Z"/><path class="cls-5" d="M332.26,293.05c1.06-.64,2,1.18.92,1.69C332.06,295.49,331.09,293.52,332.26,293.05Z"/><path class="cls-5" d="M341,295.17c1.08-.72,2.07,1.08,1,1.68S339.85,295.74,341,295.17Z"/><path class="cls-5" d="M322.4,328.72c2-.36,4-.76,6-1q1.13,6.43,2.26,12.87c5.37.06,11.25-.73,15.44-4.38,1.72-1.41,2.39-3.57,3.38-5.47a10.55,10.55,0,0,1-4.62,6.84c-3.65,2.39-8.12,3.18-12.42,3.31-3.36-.15-6.75,0-10.1-.33-2.06-2.4-4.61-4.32-6.59-6.79l-.84.16a8.72,8.72,0,0,0,1.11,3.73c-2.39-.34-4.7-1.07-7.09-1.3-.31-1.7-.6-3.4-.87-5.11,1.06-.23,2.13-.42,3.21-.62.87-.16,1.76-.29,2.65-.42l.53.68c2.66-.31,5.28-.88,7.93-1.35Z"/><path class="cls-5" d="M309.24,338.28c.87.28,1.76.53,2.65.81-.83,0-1.67,0-2.49.07Z"/><path class="cls-5" d="M309.58,340.54a2.37,2.37,0,0,1,2.18.91,3.58,3.58,0,0,1-2.16-.35C309.59,341,309.58,340.68,309.58,340.54Z"/><path class="cls-5" d="M310,342.88c.76.35,1.54.67,2.31,1-.76-.11-1.5-.21-2.24-.36C310.05,343.38,310,343.05,310,342.88Z"/><path class="cls-5" d="M310.47,345.23a40,40,0,0,0,10.21,1.3,41.1,41.1,0,0,0,6.27,4.79c2.31,1.34,4.73,2.78,7.48,2.75a29.18,29.18,0,0,0,17-.19,41,41,0,0,0,6.45-3.09c-.28.21-.55.45-.83.67a26,26,0,0,1-17.1,3.94,57.79,57.79,0,0,1-6.87-1.32,8.44,8.44,0,0,1,.16,1.67c-5.13.95-10.27,1.81-15.4,2.72l-2.25.4-2.55.43C312.06,354.63,311.39,349.91,310.47,345.23Z"/><path class="cls-5" d="M509.18,349.24a4.63,4.63,0,0,1,3-2.68,4.47,4.47,0,0,1,5.39,4.08c.19,2.28-1.73,3.85-3.26,5.21a31.75,31.75,0,0,1-4.8,3.43c-1.54,3.52-2.8,7.15-4,10.8,2.19-1.88,4.34-3.91,7-5.16a4.81,4.81,0,0,1,5,.89,6.9,6.9,0,0,1,1.28,3.5,4.66,4.66,0,0,1-4.22,4.11,30.21,30.21,0,0,1-9.57-1.81c-1.11,3.86-2.23,7.71-3.2,11.61,2-1.66,4-3.5,6.47-4.58a4.52,4.52,0,1,1,1.89,8.73,31.78,31.78,0,0,1-9-1.6c-1.17,4.84-2.28,9.71-3.3,14.59,3.05-2.76,6.2-5.55,9.93-7.36a6.41,6.41,0,1,1,2.81,12.33,41.31,41.31,0,0,1-13.23-2.51c-1.18,5.55-2.2,11.13-3.22,16.71a58.43,58.43,0,0,1,9.46-9.14,7.69,7.69,0,0,1,5.29-1.72,7.46,7.46,0,0,1,.37,14.86,51.17,51.17,0,0,1-15.59-1.39c-1,5.77-2,11.54-2.84,17.32a73.15,73.15,0,0,1,10.36-8.72A24.93,24.93,0,0,1,506,428a9.07,9.07,0,0,1,9.45,2,9.12,9.12,0,0,1-5.32,15.61,36.82,36.82,0,0,1-8.25-.65,60,60,0,0,1-11.44-3c-.93,6-1.79,12.06-2.64,18.09a74,74,0,0,1,10.69-8.89,21.41,21.41,0,0,1,4.7-2.55,9.1,9.1,0,0,1,9.52,2.57,9.24,9.24,0,0,1,1.51,10,9.14,9.14,0,0,1-8.88,5.24,62.1,62.1,0,0,1-17.92-3.63q-.94,7-1.84,14-.4,3.12-.78,6.24a64.27,64.27,0,0,1,4.73-5.56,49.39,49.39,0,0,1,8-7.1,9.08,9.08,0,0,1,10.2.24,9.49,9.49,0,0,1,3.54,5,9.31,9.31,0,0,1-2.74,9.25c-1.83,1.75-4.4,2.3-6.85,2.43a70.88,70.88,0,0,1-14.33-1c-1.28-.2-2.52-.77-3.82-.6a62,62,0,0,1-18.13,1,9.12,9.12,0,0,1-7.63-5.28,9.39,9.39,0,0,1,.92-9.29,9.28,9.28,0,0,1,11.3-2.8c2.7,1.47,4.86,3.72,7,5.85a77.85,77.85,0,0,1,6.81,8.12c.3-2.3.58-4.59.87-6.89.57-4.59,1.22-9.17,1.78-13.76a54.29,54.29,0,0,1-10.91-3.08,39.38,39.38,0,0,1-7.69-3.68,9,9,0,0,1-3.79-8.45,9.12,9.12,0,0,1,5.39-7.33,9.21,9.21,0,0,1,9.23,1.07,12.12,12.12,0,0,1,3.23,4.26A75.79,75.79,0,0,1,487.07,459c.71-5.69,1.63-11.34,2.44-17a62.22,62.22,0,0,1-15.59-5.11c-2.49-1.14-5-2.79-6-5.45a9.16,9.16,0,0,1,13-11.54,10.51,10.51,0,0,1,4.07,4.65,75,75,0,0,1,5.2,13.48c.8-5.26,1.7-10.5,2.6-15.74a49.64,49.64,0,0,1-10.49-6c-2.17-1.61-4.62-3.41-5.16-6.23a7.52,7.52,0,0,1,5.38-8.85,7.44,7.44,0,0,1,8.8,4.32c1.48,3.92,1.74,8.13,2.35,12.24.74-5.07,1.83-10.07,2.82-15.09a42.5,42.5,0,0,1-9.14-5.51c-1.77-1.4-3.75-3-4.15-5.35a6.43,6.43,0,0,1,12.25-3.7c1.26,3.6,1.44,7.46,1.77,11.23.91-4.7,2-9.35,3.14-14a30.42,30.42,0,0,1-7.55-6,4.52,4.52,0,1,1,7.54-4.85c.9,2.45.74,5.13.84,7.7.87-3.63,1.92-7.22,3-10.79a31.54,31.54,0,0,1-7-5.63,4.44,4.44,0,0,1,0-5.81,4.5,4.5,0,0,1,7.16.48c1.14,2.11.86,4.62,1.2,6.93.82-2.89,2.05-5.63,3.07-8.45C508.66,355.75,508.18,352.4,509.18,349.24Z"/><path class="cls-5" d="M316.13,372.91c1.2-2,2.05-4.17,3.59-5.93,10.4.32,20.81.47,31.21.85a122.7,122.7,0,0,1,5.65,24.08c1.59,10.66,2.53,21.41,3.26,32.16.86,13.52,1.33,27.06,1.5,40.6,0,4.75.16,9.5,0,14.25-.69,0-1.38.05-2.06.1-2.39.13-4.78.31-7.16.46l-2.86.17c-.95-5.59-1.93-11.17-2.9-16.75q-2.47-14.08-5.06-28.14c-1.88-10.06-3.75-20.12-5.95-30.12a52.36,52.36,0,0,0-2.28-8.17c-.82,1.87-.65,4-.8,5.95-.39,11.74-.22,23.49-.1,35.23q.12,11.3.36,22.58c.08,6.65.27,13.3.41,19.95l-2.83-.13-7.25-.34-3.2-.15q-1.05-8.25-2-16.52c-.86-7.54-1.68-15.08-2.4-22.63-1.05-10.87-2-21.76-2.46-32.68s-.25-22.34,2.89-33c-6.49,8.88-12.62,18-19,27,0-.24,0-.71,0-.94C303.12,391.4,309.68,382.2,316.13,372.91Z"/><path class="cls-5" d="M166.93,375.84c5.25,4.87,10.51,9.75,15.57,14.82l-1.07-.35q-7.2-6.81-14.38-13.64C167,376.46,167,376.05,166.93,375.84Z"/><path class="cls-5" d="M435.6,379.53c1-.92,1.91-1.87,2.93-2.74a10.74,10.74,0,0,1,.47,3.61q-.09,2-.06,4.08h-3.25A43,43,0,0,0,435.6,379.53Z"/><path class="cls-5" d="M447.91,377c1.72,0,4.16-.38,4.93,1.65.51,1.89.15,3.9.25,5.85h-3.21v-4.27a20.34,20.34,0,0,0-3.9.14c0-1,0-1.93,0-2.89.55.85.62,2.53,2,2.26A4.5,4.5,0,0,0,447.91,377Z"/><path class="cls-5" d="M443.81,378.27c.19.7.37,1.4.61,2.11l-.78-.2C443.71,379.54,443.75,378.9,443.81,378.27Z"/><path class="cls-5" d="M454.65,397.83c4.76-1.67,9.49-3.39,14.25-5.06v.49c-3.93,1.74-8.08,2.93-12.09,4.48-2.93,1-5.78,2.14-8.73,3,0-.2,0-.59,0-.79A54.27,54.27,0,0,0,454.65,397.83Z"/><path class="cls-5" d="M421.6,393.08c3.87.73,7.51,2.3,11.31,3.32,4.07,1.42,8.25,2.47,12.3,3.94v.48c-7.94-2.19-15.72-4.94-23.61-7.3Z"/><path class="cls-5" d="M2,408.47a2.45,2.45,0,0,1,3.38,1.36,20.55,20.55,0,0,1,.33,5.31,26.14,26.14,0,0,0,1.66,4.16c-1.8-.55-1.18-3.15-2.62-4.1A15.06,15.06,0,0,1,1,411.93,2.46,2.46,0,0,1,2,408.47Z"/><path class="cls-5" d="M7.63,419.8c-.19-1.7-.14-4.24,1.92-4.77a2.53,2.53,0,0,1,2.92,3.52c-1,1.62-2.74,2.65-4.27,3.75.54,1.82,1,3.66,1.58,5.48.28-1.68-.15-4,1.67-5A2.57,2.57,0,0,1,15,426c-1,1.88-3,3-4.7,4.17.59,2.37,1.11,4.77,1.64,7.16.61-2.26.25-5,1.89-6.86a3.79,3.79,0,0,1,5.95,1.08c.77,2.09-.43,4.13-2.19,5.25a28.45,28.45,0,0,1-5.1,3.1c.55,2.75,1.07,5.52,1.6,8.28a25.83,25.83,0,0,1,1.37-6.92,4.88,4.88,0,0,1,2.25-2.17,5.63,5.63,0,0,1,3.79.38,8.25,8.25,0,0,1,2.31,3.68,11.15,11.15,0,0,1-1.72,3c-2.17,2.07-4.9,3.38-7.49,4.84.4,2.78.9,5.55,1.42,8.31,1.15-3,2-6.14,3.89-8.72a5.31,5.31,0,0,1,7.61-.26,5.56,5.56,0,0,1,1.07,5.5c-.64,1.86-2.49,2.83-4.17,3.58a39.93,39.93,0,0,1-8,2.57c.49,2.95.8,5.94,1.38,8.87,1.27-2.84,2-6,3.87-8.51a6.08,6.08,0,0,1,3.28-1.9,6,6,0,0,1,4.16,1.45,5.59,5.59,0,0,1,1.65,4.38,5.4,5.4,0,0,1-2.63,3.84,34.46,34.46,0,0,1-10,3.55c.26,2.07.55,4.14.81,6.21.23,1.73.42,3.45.69,5.18a47.38,47.38,0,0,1,6.8-7.14,14,14,0,0,1,1.46-.83,5.36,5.36,0,0,1,6.29,2.59,5.47,5.47,0,0,1-1.54,6.63c-4.1,1.8-8.75.8-13,.33-2,.16-3.89.7-5.87.78-2.91,0-6.61.66-8.63-2a5.18,5.18,0,0,1,2.57-8.09c2.36-.84,4.62.59,6.27,2.16.6.54,1.17,1.1,1.74,1.68,1.14,1.15,2.19,2.4,3.3,3.6-.14-1.45-.32-2.89-.51-4.33-.29-2.25-.59-4.49-.88-6.73a44.13,44.13,0,0,1-4.5,1.25,25,25,0,0,1-6.61.71,5.14,5.14,0,0,1,0-10.19c2.19-.35,4.06,1.09,5.76,2.25A63.92,63.92,0,0,1,17.31,472c-.43-3.33-.95-6.65-1.44-10-1.19.38-2.38.77-3.6,1.06a27.39,27.39,0,0,1-7.52.93A5.13,5.13,0,1,1,7,454,24.6,24.6,0,0,1,13,458c.89.77,1.75,1.58,2.61,2.4-.44-2.75-.86-5.5-1.39-8.22,0-.36-.12-1.07-.17-1.43a29.45,29.45,0,0,1-9,.72,4.19,4.19,0,1,1,2.4-7.95c2.45,1.36,4.26,3.56,6.19,5.52-.47-3.07-1.11-6.1-1.71-9.14a23.34,23.34,0,0,1-7.71,1.35,3.61,3.61,0,1,1,1.87-6.9,25.37,25.37,0,0,1,5.55,4.08c-.59-2.72-1.2-5.43-1.85-8.13-1.93.44-4,1.24-6,.68A2.58,2.58,0,0,1,4,426.3c2.19-.72,3.85,1.39,5.45,2.52-.53-2.16-1.16-4.28-1.73-6.42-2,.46-4.13,1.31-6.2.81a2.54,2.54,0,0,1,.31-4.76c2.26-.39,3.84,1.76,5.52,2.91l-.66-2C7,419.47,7.31,419.64,7.63,419.8Z"/><path class="cls-5" d="M376.4,473.54c3.41-3,7.68-4.63,11.78-6.38,2.27,1.55,5.12,1.55,7.72,1,0,.45.09.9.14,1.35a21.4,21.4,0,0,1,.12,6.87c-5.28.38-10.58.42-15.87.68a17.16,17.16,0,0,1-5.44-.48A4.66,4.66,0,0,1,376.4,473.54Z"/><path class="cls-5" d="M425.72,468.92c1.37-.62,2.75-1.19,4.14-1.72a10.32,10.32,0,0,0,7.74,1c0,.5.09,1,.16,1.52.11,2.17.88,4.62-.09,6.66-3.6.47-7.25.34-10.87.55-3.42,0-6.92.65-10.27-.3a4.88,4.88,0,0,1,1.12-2.62C419.9,471.7,422.88,470.34,425.72,468.92Z"/><path class="cls-5" d="M330.57,486.65a24.28,24.28,0,0,1-.24,6.2c-.23,1-1.49,1.14-2.3,1.52a70.78,70.78,0,0,1-17,3.44c-1,.08-3.46-.17-2.43-1.72,1.94-2.34,4.78-3.69,7.21-5.44a5.57,5.57,0,0,0,4.41,1.06C324.05,491,327.4,488.81,330.57,486.65Z"/><path class="cls-5" d="M349.2,491.75c4-.58,7.42-2.89,10.7-5.09a33.44,33.44,0,0,1-.09,5.48c-.12.6-.19,1.39-.9,1.6a58.31,58.31,0,0,1-9.71,2.81c-3.48.65-7,1.58-10.56,1.1A.93.93,0,0,1,338,496c1.94-2.31,4.75-3.65,7.17-5.39A5.45,5.45,0,0,0,349.2,491.75Z"/><path class="cls-6" d="M397.26,242.74c5-2.49,9.77-5.36,14.95-7.39-1.49,2.37-3.16,4.62-4.75,6.92A58,58,0,0,1,397.26,242.74Z"/><path class="cls-6" d="M349.27,272.3a393.52,393.52,0,0,1,46-28.41,3.64,3.64,0,0,0,1.67,3.45c-.52.45-1.3.8-1.34,1.59-.2,1,.81,1.62,1.46,2.23-.31,2-.43,4-.58,6a5.36,5.36,0,0,1-1.37,2.85c-.3.37-.59.76-.86,1.15-10.09,14.52-20.31,28.95-30.35,43.5a14.67,14.67,0,0,0-4.52-3.21c-1.85-.86-3.86-2.14-4.18-4.34-.4-2.93,1-5.89.05-8.79-1.43-5.52-6.74-9.14-12.13-10.16l-1.11-.32C344.22,275.81,346.83,274.16,349.27,272.3Z"/><path class="cls-6" d="M39.46,255.71q30.92,29.11,61.66,58.44c-1.07,2.63-2,5.3-2.87,8a96.36,96.36,0,0,0-3.4,11.68c-1.95,9.81-2.38,19.84-2.56,29.82a26.61,26.61,0,0,1-3.22-3.89,271.69,271.69,0,0,1-25.18-41.95,419,419,0,0,1-20-48.29C42.39,264.93,40.61,260.41,39.46,255.71Z"/><path class="cls-6" d="M304.77,312.89a193.53,193.53,0,0,1,17.06-18c-2.13,3.25.23,7.22-1.24,10.61-1.9,3.61-7,3.63-8.88,7.28-1.23,2.61.81,5.12,1.2,7.67.41,1.69-1.12,2.89-1.65,4.34-.25,1.08.49,2,1,2.91-.33,1-.64,2-.94,3-1.08.2-2.15.39-3.21.62.27,1.71.56,3.41.87,5.11l-1.73.36a3.42,3.42,0,0,0,1.56,1.33,96.41,96.41,0,0,1-6.63,16.09c-1.88,3.46-3.64,7-5.26,10.59-6.59-.21-13.18,0-19.77-.09a103.42,103.42,0,0,1,7-19.53c4.18,0,8.36,0,12.53,0,.17-8.06-.4-16.24,1.56-24.14C300.56,318.44,302.46,315.51,304.77,312.89Z"/><path class="cls-6" d="M356.15,308.19a7,7,0,0,1-2.28-7,36.06,36.06,0,0,0,4.29,3.18,7.53,7.53,0,0,1,3.36,3.64c-.79,1.05-1.54,2.13-2.29,3.21C358.27,310.14,357.2,309.17,356.15,308.19Z"/><path class="cls-6" d="M107.88,353.58a141.41,141.41,0,0,1,5.93-13.53c.32,5.11.58,10.22.9,15.32C112.43,354.79,110.16,354.19,107.88,353.58Z"/><path class="cls-6" d="M107.63,354.17c2.38.54,4.74,1.21,7.11,1.83.29,5.21.62,10.42.89,15.63l.8,0c0,5.92.07,11.83.09,17.75-4.81-3.82-9-8.31-13.45-12.53C104.42,369.24,105.38,361.55,107.63,354.17Z"/><path class="cls-6" d="M315.58,358.87l2.25-.4a21,21,0,0,0,1.89,8.51c-1.54,1.76-2.39,3.95-3.59,5.93-6.45,9.29-13,18.49-19.4,27.82,0-2.43,0-4.85,0-7.27a14.22,14.22,0,0,1,1.73-4.19c.81,1,1.31,3.19,3,2.8-.62-3.36-1-6.75-1.53-10.11,4.34-2.22,7.13-6.42,9.56-10.49C311.65,367.37,313.76,363.17,315.58,358.87Z"/><path class="cls-6" d="M167.05,376.67q7.19,6.82,14.38,13.64c-4.26.65-8.6.73-12.84,1.55C168.13,386.79,167.51,381.74,167.05,376.67Z"/><path class="cls-6" d="M141.85,387.85c1.22,3.29,1.7,6.79,2.5,10.19-1.4.47-2.8.92-4.21,1.35C140.63,395.53,141.05,391.66,141.85,387.85Z"/><path class="cls-7" d="M408.29,242.2c1.49-2.35,3.21-4.55,4.72-6.89.07,2.48.22,5,.29,7.45A22.31,22.31,0,0,0,408.29,242.2Z"/><path class="cls-7" d="M39.81,255.11c4.38.49,8.77.88,13.12,1.5a451.58,451.58,0,0,1,51,9.61,16.75,16.75,0,0,0,1.75,5.44c.58,1.06,1.87,1.33,2.74,2.08,1.22,1.07,2.28,2.32,3.4,3.5-.3.86-.86,2,0,2.71,1.08,1.26,2.81,1,4.24.67a24.6,24.6,0,0,1,2.45,2.55c.29,3.38.48,6.78.82,10.17-2.1,1.41-4.26,2.75-6.23,4.34a36.45,36.45,0,0,0-11.74,15.8c-7.59-7-15-14.14-22.45-21.19C65.91,279.88,52.8,267.56,39.81,255.11Z"/><path class="cls-7" d="M364.17,305.2c10.05-14.24,20-28.57,30-42.82.53.57,1.08,1.14,1.63,1.7-.12,3.36-.08,7.27,2.46,9.82,1.24,1.34,3.24,1.33,4.66,2.33a9.22,9.22,0,0,1,0,3.27c-.23.74-.5,1.46-.71,2.21a76.61,76.61,0,0,0-7.58,3.4c-4.37,2.28-8.84,4.46-12.74,7.5-2.5,1.89-3.79,4.83-5.13,7.56a85.6,85.6,0,0,0-6.13,21.58c-1.82-1.68-4.61-2.43-5.61-4.87s.29-4.95.31-7.41A9.44,9.44,0,0,0,364.17,305.2Z"/><path class="cls-7" d="M134.12,275.3c2.76,1,5.57,2,8.25,3.19a43,43,0,0,1-8.12,6.26c-1.14.69-2.37,1.66-3.75,1-.17-.88-.73-1.8-.46-2.69,1.07-1,2.53-1.64,3.27-3A8.3,8.3,0,0,0,134.12,275.3Z"/><path class="cls-7" d="M119.24,284.2a16.24,16.24,0,0,1,2.34,5.44,5.22,5.22,0,0,1-1.44,3.56C119.41,290.27,119.55,287.2,119.24,284.2Z"/><path class="cls-7" d="M162.92,287.45a168.61,168.61,0,0,1,28.77,17.71c-2.2,13.21-1.47,26.64-1.58,40,11,0,22,0,33,0a81.07,81.07,0,0,1,4.7,19.52c-12.57,0-25.15-.11-37.73.08.06,14.79,0,29.59,0,44.39-2.33-1.43-4.48-3.21-7.06-4.15,1.89,2.16,4.6,3.39,7.07,4.77q0,10.75,0,21.5c-6.22,0-12.45-.16-18.67-.25q-1.05-19.59-2.84-39.14c4.24-.82,8.58-.9,12.84-1.55l1.07.35c-5.06-5.07-10.32-10-15.57-14.82-.42-2.79-.67-5.6-1.21-8.36l3.87-.31c-2.88-12.31-5.7-24.64-8-37.07-.77-4.51-1.77-9.06-1.37-13.66C160.89,306.76,162,297.11,162.92,287.45Z"/><path class="cls-7" d="M359.73,311.69a11.64,11.64,0,0,1,2.08-2.76,14.59,14.59,0,0,1-1.52,5.85A12.72,12.72,0,0,1,359.73,311.69Z"/><path class="cls-7" d="M363.31,336.7a13,13,0,0,0,5.74-.56,187.81,187.81,0,0,0,1.21,30.27l.56.08c-1.31,4.45-2.74,9.14-1.88,13.82a7.77,7.77,0,0,0,1.53-3.35c.2,1.65-.4,4,1.08,5.09.88-1.68,1-3.62,1.47-5.41a19.33,19.33,0,0,0,.29,6.07c1.22-1.33,1.53-3.15,2-4.82a25.32,25.32,0,0,0,.11,5.57,3.09,3.09,0,0,0,1.58-1.79c.57-2.41.67-4.92,1.15-7.36a16.4,16.4,0,0,0,3.25,2.43c.44,7.33.89,14.67,1.29,22-6.33,9.48-13.6,18.58-22.88,25.33-.73-10.75-1.67-21.5-3.26-32.16a122.7,122.7,0,0,0-5.65-24.08c2.91-2.8,4-6.86,5.07-10.62a31.26,31.26,0,0,0,1-5.75c.28-.22.55-.46.83-.67C362.16,347.53,363.24,341.77,363.31,336.7Z"/><path class="cls-7" d="M377.33,366.49h3.44a64.5,64.5,0,0,1,.37,7.74C379.71,371.73,378.84,369,377.33,366.49Z"/><path class="cls-7" d="M296.72,401.67c6.38-9,12.51-18.1,19-27-3.14,10.7-3.39,22-2.89,33s1.41,21.81,2.46,32.68a138.7,138.7,0,0,1-18.57-.59Q296.72,420.74,296.72,401.67Z"/><path class="cls-7" d="M332.28,402.42c.15-2,0-4.08.8-5.95a52.36,52.36,0,0,1,2.28,8.17c2.2,10,4.07,20.06,5.95,30.12a79.28,79.28,0,0,1-9.13,2.89C332.06,425.91,331.89,414.16,332.28,402.42Z"/><path class="cls-7" d="M140.14,399.39c1.41-.43,2.81-.88,4.21-1.35,1.94,9.51,3.89,19,5.68,28.56l-1.88-.44a12.51,12.51,0,0,1,2,1.4,19.09,19.09,0,0,1,.71,3.1c-4.73,0-9.47,0-14.2-.12C137.8,420.16,138.85,409.76,140.14,399.39Z"/><path class="cls-7" d="M98.17,419.07c6-3.43,12.15-6.77,18.47-9.69.12,6.94.06,13.88.18,20.82-11.53.12-23.06-.42-34.59-.27l0,.56-1-.74C86.63,425.89,92.37,422.43,98.17,419.07Z"/><path class="cls-8" d="M398.77,251.35c3.39.12,6.78.35,10.18.22a15.15,15.15,0,0,0-1.84,1.83c.05,1.26,1.47,1.89,2.59,1.79a35.27,35.27,0,0,1,6.33-.42c.09,3.29.25,6.57.3,9.87,1.11-.19,2.23-.33,3.36-.43.59.75,1.54,1.6.95,2.66-.64,1.76-2.64,2.15-4.3,2.24a18,18,0,0,0-2.74,10.55c-2,.62-3.89,1.61-6,1.9a44.39,44.39,0,0,1-4.76-2.06,9.22,9.22,0,0,0,0-3.27c-1.42-1-3.42-1-4.66-2.33-2.54-2.55-2.58-6.46-2.46-9.82.1-1.44.2-2.88.37-4.3C396.89,256.92,397.35,254,398.77,251.35Zm.18,4.85a.8.8,0,0,0-.55,1.38c.81,0,1.6-.19,2.41-.14.8.25,1.27,1,1.92,1.53a.8.8,0,0,0,.82-.8A3.65,3.65,0,0,0,399,256.2Zm.81,3c-1.48.53-.44,2.85.94,2.15C402.08,260.77,401.12,258.49,399.76,259.16Zm9.22,0c-.85,1.49,1.19,1.16,2,1,1.35-.31,1.72,2.07,3,1.31C414.23,259.11,410.8,258.11,409,259.2Zm-7.25,6.39c.39,1.32,2.37,2.21,3.38,1a5.13,5.13,0,0,1-2.65-.9c1.13-1.31,2.3-2.74,2.32-4.55C403.72,262.6,402.9,264.21,401.73,265.59Zm7.72-3.24c-1.1.9.34,2.76,1.49,1.82C412.26,263.28,410.6,261.18,409.45,262.35Zm-7.12,5.94a2.14,2.14,0,0,0-.44,3.31c1.26.63,2.27-1,2.13-2.08C404.06,268.68,403.14,267.73,402.33,268.29Z"/><path class="cls-8" d="M129.21,254.72c.76.27,1.55.5,2.33.73.28,1.83.52,3.67.81,5.5-.91.56-1.8,1.16-2.7,1.73a27.62,27.62,0,0,1-1.1-2.72c.37-.69,1.37-1.2,1.09-2.1-.61-1.07-2-1.17-3.07-1.57A4.05,4.05,0,0,0,129.21,254.72Z"/><path class="cls-8" d="M119.23,261.56a49.74,49.74,0,0,1,7.43-1.27c2.08,1.57,3.06,4,4.41,6.19l.59.38a5,5,0,0,0,1.46,3.51c0,1.69.8,3.25,1,4.93a8.3,8.3,0,0,1-.81,4.76c-.74,1.32-2.2,1.95-3.27,3-.27.89.29,1.81.46,2.69-.9,1.74-1.75,3.52-2.58,5.3-2.12-.42-4.23-.9-6.34-1.37a16.24,16.24,0,0,0-2.34-5.44c-.22-.35-.45-.7-.69-1a24.6,24.6,0,0,0-2.45-2.55c-1.43.33-3.16.59-4.24-.67-.86-.73-.3-1.85,0-2.71,1-.19,2-.38,3.06-.52-.52-2.05-1.12-4.09-1.6-6.15.7-.83,1.68-1.61,1.76-2.78.06-.84-.57-1.51-.92-2.21,2.36-.38,4.84-.21,7.09-1.05C121.68,263.07,119.92,262.54,119.23,261.56Zm7.61,3.77a3.1,3.1,0,0,0-1.83,3.35c1,.58,1.15-.58,1.47-1.23.31-1.07,1.61-1,2.45-1.43C129.57,264.57,127.57,265,126.84,265.33Zm.94,2.32a.85.85,0,0,0,.69,1.54C129.69,268.88,128.8,267,127.78,267.65ZM117.2,268c-1.35.73-2.2,2.67-1.3,4,1.4.22.69-1.59,1.27-2.32.58-.55,1.32-.89,1.87-1.45C118.93,267.13,117.76,267.6,117.2,268Zm7.13,2.69a4.32,4.32,0,0,0,3.54,3C126.76,272.58,125.53,271.64,124.33,270.67Zm-4.88,2.64c-1.08.35-.28,2.1.7,1.54C121.15,274.46,120.42,272.8,119.45,273.31Zm7.86,1.18a3,3,0,0,0-1.68.91C125.92,276.28,128.17,275.1,127.31,274.49Z"/><path class="cls-8" d="M333.25,287c1.76-1.42,4.09-1.74,6.09-2.73a13.12,13.12,0,0,0,2.49,4.89,57.12,57.12,0,0,1,5.07,8.06c1.09-.1,2.38-.57,3.33.24s.48,2.07-.27,2.72c-.75.87-2,.81-3,.91-2,2.59-4.47,5.13-4.76,8.57a8.84,8.84,0,0,1-8.68-.33c.16-.93.28-1.87.4-2.81a6.58,6.58,0,0,1-2.92-2.16c-1.54-2.31-1.64-5.2-1.65-7.88,0-1.25.16-2.48.28-3.72C329.43,290.17,331.52,288.49,333.25,287Zm-2.09,4.4A14,14,0,0,1,335,291c-.32-.88-1.28-.91-2.06-.84S330.92,290.31,331.16,291.38Zm10.19,1c-.1.16-.3.48-.41.64,1.26.44,2.32,1.29,3.6,1.68C344.12,293.26,342.61,292.79,341.35,292.38Zm-9.09.67c-1.17.47-.2,2.44.92,1.69C334.26,294.23,333.32,292.41,332.26,293.05Zm2.39,4.2c-.71,1.22,1.5,2.65,2.3,1.43l-1.72-.8a7.33,7.33,0,0,0,1.28-4.06C335.47,294.67,335.21,296.08,334.65,297.25Zm6.3-2.08c-1.1.57-.1,2.36,1,1.68S342,294.45,341,295.17Z"/><path class="cls-8" d="M314.93,334l.84-.16c2,2.47,4.53,4.39,6.59,6.79-.61,2-1.15,3.95-1.68,5.95a40,40,0,0,1-10.21-1.3c-.75-.32-.54-1.05-.4-1.69.74.15,1.48.25,2.24.36-.77-.35-1.55-.67-2.31-1-.31-.3-.61-.6-.89-.91l.49-.87a3.58,3.58,0,0,0,2.16.35,2.37,2.37,0,0,0-2.18-.91q-.09-.71-.18-1.38c.82,0,1.66-.06,2.49-.07-.89-.28-1.78-.53-2.65-.81l-.46-.21a3.42,3.42,0,0,1-1.56-1.33l1.73-.36c2.39.23,4.7,1,7.09,1.3A8.72,8.72,0,0,1,314.93,334Z"/><path class="cls-8" d="M370.82,366.49c2.17.05,4.34,0,6.51,0,1.51,2.47,2.38,5.24,3.81,7.74.12.83.21,1.67.29,2.51a16.4,16.4,0,0,1-3.25-2.43c-.48,2.44-.58,4.95-1.15,7.36a3.09,3.09,0,0,1-1.58,1.79,25.32,25.32,0,0,1-.11-5.57c-.5,1.67-.81,3.49-2,4.82a19.33,19.33,0,0,1-.29-6.07c-.51,1.79-.59,3.73-1.47,5.41-1.48-1.08-.88-3.44-1.08-5.09a7.77,7.77,0,0,1-1.53,3.35C368.08,375.63,369.51,370.94,370.82,366.49Z"/><path class="cls-8" d="M439,366.49c1.64,0,3.28,0,4.92,0a34.63,34.63,0,0,1,4,10.5,4.5,4.5,0,0,1,0,2.74c-1.35.27-1.42-1.41-2-2.26,0,1,0,1.92,0,2.89a3.91,3.91,0,0,1-1.56,0c-.24-.71-.42-1.41-.61-2.11-.06.63-.1,1.27-.17,1.91l-.58,1.23-1.26-1c.38-1-1.07-.81-.36.05-.16,1.68-1.7.44-2.44-.07a10.74,10.74,0,0,0-.47-3.61c-1,.87-1.95,1.82-2.93,2.74-1.56-.69-.12-2.23.18-3.28C436.9,373,437.84,369.72,439,366.49Z"/><path class="cls-8" d="M294.27,380c1.9.55,3.76,1.24,5.59,2,.57,3.36.91,6.75,1.53,10.11-1.66.39-2.16-1.76-3-2.8a14.22,14.22,0,0,0-1.73,4.19,14,14,0,0,1-2.89,3.47,9.49,9.49,0,0,1,.15-3.36c-.68.57-1.41,1.09-2.13,1.62.09-1,.18-2,.31-3-.68.59-1.14,2-2.1,1.9a18,18,0,0,1,.3-3.51L288.61,392C289,387.44,291.73,383.59,294.27,380Z"/><path class="cls-8" d="M429.89,466c2.52.11,5.05.26,7.57.27,0,.65.08,1.3.14,2a10.32,10.32,0,0,1-7.74-1C429.87,466.89,429.88,466.28,429.89,466Z"/><path class="cls-8" d="M388.18,466.44c2.53.25,5.08.38,7.6.76l.12,1c-2.6.5-5.45.5-7.72-1Z"/><path class="cls-8" d="M352.13,479.48c2.38-.15,4.77-.33,7.16-.46.23,2.54.46,5.09.61,7.64-3.28,2.2-6.72,4.51-10.7,5.09a5.45,5.45,0,0,1-4.08-1.1,25.54,25.54,0,0,0,6-5.14C352.48,483.8,352,481.49,352.13,479.48Z"/><path class="cls-8" d="M322.87,479.71l7.25.34c.14,2.2.32,4.4.45,6.6-3.17,2.16-6.52,4.36-10.36,5.06a5.57,5.57,0,0,1-4.41-1.06,26.41,26.41,0,0,0,6-5.08C323.08,483.92,322.71,481.67,322.87,479.71Z"/><path class="cls-9" d="M399,256.2a3.65,3.65,0,0,1,4.6,2,.8.8,0,0,1-.82.8c-.65-.49-1.12-1.28-1.92-1.53-.81-.05-1.6.16-2.41.14A.8.8,0,0,1,399,256.2Z"/><path class="cls-9" d="M126.84,265.33c.73-.38,2.73-.76,2.09.69-.84.41-2.14.36-2.45,1.43-.32.65-.49,1.81-1.47,1.23A3.1,3.1,0,0,1,126.84,265.33Z"/><path class="cls-9" d="M117.2,268c.56-.38,1.73-.85,1.84.26-.55.56-1.29.9-1.87,1.45-.58.73.13,2.54-1.27,2.32C115,270.65,115.85,268.71,117.2,268Z"/><path class="cls-10" d="M394.2,261.2c.27-.39.56-.78.86-1.15l1.11-.27c-.17,1.42-.27,2.86-.37,4.3-.55-.56-1.1-1.13-1.63-1.7C394.18,262.09,394.19,261.49,394.2,261.2Z"/><path class="cls-10" d="M131.66,266.86c.64.28,1.67.21,1.93,1s-.28,1.66-.47,2.47A5,5,0,0,1,131.66,266.86Z"/><path class="cls-10" d="M327.63,293.7a12.52,12.52,0,0,1,.8-1.32l1.2.36c-.12,1.24-.23,2.47-.28,3.72C328.59,295.7,327.47,294.92,327.63,293.7Z"/><path class="cls-11" d="M363.85,304.7c10-14.55,20.26-29,30.35-43.5,0,.29,0,.89,0,1.18-10,14.25-19.95,28.58-30,42.82a9.44,9.44,0,0,1,1.13,4.27c0,2.46-1.17,5-.31,7.41s3.79,3.19,5.61,4.87a9.4,9.4,0,0,1,3,7,8.58,8.58,0,0,1-4.59,7.36,13,13,0,0,1-5.74.56c0-5.27-.86-10.93-4.44-15-3.72-4.31-9.31-6.17-14.58-7.76.08-1.62.14-4.2-2.09-4.28.29-3.44,2.75-6,4.76-8.57,1-.1,2.25,0,3-.91.75-.65,1.21-2,.27-2.72s-2.24-.34-3.33-.24a57.12,57.12,0,0,0-5.07-8.06,13.12,13.12,0,0,1-2.49-4.89c-2,1-4.33,1.31-6.09,2.73s-3.82,3.19-3.62,5.76l-1.2-.36a12.52,12.52,0,0,0-.8,1.32c-.16,1.22,1,2,1.72,2.76,0,2.68.11,5.57,1.65,7.88a6.58,6.58,0,0,0,2.92,2.16c-.12.94-.24,1.88-.4,2.81-1.61.5-1.84,2.24-1.89,3.68a101.09,101.09,0,0,0-12.43,4.7c-1.48.75-3.09,1.52-3.94,3a40.36,40.36,0,0,0-3,7c-.48-.89-1.22-1.83-1-2.91.53-1.45,2.06-2.65,1.65-4.34-.39-2.55-2.43-5.06-1.2-7.67,1.87-3.65,7-3.67,8.88-7.28,1.47-3.39-.89-7.36,1.24-10.61,1.48-1.49,3.35-2.5,4.94-3.85,2.71-2.49,2.64-6.66,5.19-9.29,2.71-3.15,7.16-4,11.11-3.54,5.39,1,10.7,4.64,12.13,10.16.94,2.9-.45,5.86-.05,8.79.32,2.2,2.33,3.48,4.18,4.34A14.67,14.67,0,0,1,363.85,304.7Zm-7.7,3.49c1.05,1,2.12,1.95,3.08,3,.75-1.08,1.5-2.16,2.29-3.21a7.53,7.53,0,0,0-3.36-3.64,36.06,36.06,0,0,1-4.29-3.18A7,7,0,0,0,356.15,308.19Zm3.58,3.5a12.72,12.72,0,0,0,.56,3.09,14.59,14.59,0,0,0,1.52-5.85A11.64,11.64,0,0,0,359.73,311.69Z"/><path class="cls-11" d="M331.16,291.38c-.24-1.07,1-1.08,1.75-1.18s1.74,0,2.06.84A14,14,0,0,0,331.16,291.38Z"/><path class="cls-11" d="M341.35,292.38c1.26.41,2.77.88,3.19,2.32-1.28-.39-2.34-1.24-3.6-1.68C341.05,292.86,341.25,292.54,341.35,292.38Z"/><path class="cls-11" d="M421.65,386.17a1.58,1.58,0,0,1,1.63-1.64c4.13-.14,8.27,0,12.41,0h17.4c4.56,0,9.12,0,13.69,0a1.78,1.78,0,0,1,2,1.3c.19,2.31,0,4.65.09,7-4.76,1.67-9.49,3.39-14.25,5.06a54.27,54.27,0,0,1-6.57,2.16c0-.55,0-1.1,0-1.65h-2.84c0,.66,0,1.32,0,2-4-1.47-8.23-2.52-12.3-3.94-3.8-1-7.44-2.59-11.31-3.32C421.64,390.78,421.52,388.47,421.65,386.17Z"/><path class="cls-11" d="M456.8,397.74c4-1.55,8.16-2.74,12.09-4.48,0,6.87.05,13.74,0,20.6a1.78,1.78,0,0,1-2.07,1.7h-30c-4.52-.05-9,.07-13.54-.05a1.77,1.77,0,0,1-1.67-2.12c0-6.62,0-13.25,0-19.88,7.89,2.36,15.67,5.11,23.61,7.3,0,.89,0,1.78,0,2.68h2.84c0-.92,0-1.83,0-2.73C451,399.88,453.87,398.7,456.8,397.74Z"/><path class="cls-12" d="M401.73,265.59c1.17-1.38,2-3,3-4.43,0,1.81-1.19,3.24-2.32,4.55a5.13,5.13,0,0,0,2.65.9C404.1,267.8,402.12,266.91,401.73,265.59Z"/><path class="cls-13" d="M124.33,270.67c1.2,1,2.43,1.91,3.54,3A4.32,4.32,0,0,1,124.33,270.67Z"/><path class="cls-14" d="M127.31,274.49c.86.61-1.39,1.79-1.68.91A3,3,0,0,1,127.31,274.49Z"/><path class="cls-15" d="M402.18,281.71c.21-.75.48-1.47.71-2.21a44.39,44.39,0,0,0,4.76,2.06c2.06-.29,4-1.28,6-1.9.26.69.57,1.35.83,2,0,.34.07,1,.09,1.34l-.78-.19c-.63,1-1.25,1.93-1.89,2.89-.57-.36-1.13-.73-1.67-1.1-.9-.63-1.77-1.29-2.65-1.95-1,.66-2,1.35-3,2l-1,.57a5.34,5.34,0,0,1-1.34-2.36C402.14,282.63,402.17,282,402.18,281.71Z"/><path class="cls-16" d="M394.6,285.11a76.61,76.61,0,0,1,7.58-3.4c0,.31,0,.92-.05,1.22q-.64,16.79-1.25,33.55c-.22,4.76-.23,9.52-.61,14.27-1-1.83-1.07-3.91-1.44-5.9q-2-11.6-4-23.19c1.19-.51,2.39-1,3.59-1.5-.51-2.78-1.31-5.48-1.92-8.24A41.66,41.66,0,0,0,394.6,285.11Z"/><path class="cls-16" d="M414.43,281.7c2.53,1,5,2.17,7.43,3.37-1.4,5-2.51,10-3.72,15.05,1.17.51,2.35,1,3.54,1.48-.71,5.41-1.85,10.75-2.69,16.15-.92,4.87-1.56,9.79-2.64,14.63-.73-16.44-1.26-32.89-1.83-49.34C414.5,282.7,414.45,282,414.43,281.7Z"/><path class="cls-16" d="M399.9,343.18l2.47.42c1.15,2.55,2.28,5.11,3.46,7.66,1.56-2.33,3-4.76,4.47-7.13,2.15-.24,4.28-.6,6.4-1,.17,6.49.55,13,.65,19.45,0,.35,0,1.17.6,1.06,5.82-.32,11.6-1.32,17.44-1.54.16,4.73.3,9.46.39,14.19-.3,1.05-1.74,2.59-.18,3.28a43,43,0,0,1,.09,5c-4.14,0-8.28-.09-12.41,0a1.58,1.58,0,0,0-1.63,1.64c-.13,2.3,0,4.61,0,6.91v.44c0,6.63,0,13.26,0,19.88a1.77,1.77,0,0,0,1.67,2.12c4.51.12,9,0,13.54.05.38,16.87.93,33.75,1.24,50.64l-.6,0c-2.52,0-5-.16-7.57-.27l-1.08-.06c-7-29.08-14.2-58.11-21.14-87.2-.77,3.64-1,7.36-1.54,11q-4.38,35.1-8.79,70.19c-.33,2.17-.42,4.38-.92,6.52a6.9,6.9,0,0,0-.38,3.12c-.05-.45-.1-.9-.14-1.35l-.12-1c-2.52-.38-5.07-.51-7.6-.76l-1.47-.18c0-.13,0-.39,0-.51q-1.91-33.51-3.94-67c-.4-7.33-.85-14.67-1.29-22-.08-.84-.17-1.68-.29-2.51a64.5,64.5,0,0,0-.37-7.74c-.13-1.51-.18-3-.19-4.54,6.2.31,12.35,1.3,18.54,1.63C399.46,356.78,399.64,350,399.9,343.18Z"/><path class="cls-17" d="M413.74,282.85l.78.19c.57,16.45,1.1,32.9,1.83,49.34.06,3.57.25,7.14.35,10.71-2.12.44-4.25.8-6.4,1,.85-1.75,2.69-3.23,2.44-5.32q-2.17-25-4.33-49.93c-.25-1.64,1-2.9,1.77-4.24.54.37,1.1.74,1.67,1.1C412.49,284.78,413.11,283.81,413.74,282.85Z"/><path class="cls-17" d="M402.13,282.93a5.34,5.34,0,0,0,1.34,2.36l1-.57c.47,1.16,1.26,2.32,1.09,3.64q-2.41,25-4.82,50.05c-.31,1.89,1,3.5,1.61,5.19l-2.47-.42c.1-4.15.34-8.29.37-12.43.38-4.75.39-9.51.61-14.27Q401.51,299.71,402.13,282.93Z"/><path class="cls-18" d="M381.86,292.61c3.9-3,8.37-5.22,12.74-7.5a41.66,41.66,0,0,1,1.91,6.81c.61,2.76,1.41,5.46,1.92,8.24-1.2.49-2.4,1-3.59,1.5q2,11.59,4,23.19c.37,2,.48,4.07,1.44,5.9,0,4.14-.27,8.28-.37,12.43-.26,6.8-.44,13.6-.78,20.4-6.19-.33-12.34-1.32-18.54-1.63,0,1.51.06,3,.19,4.54h-3.44c-2.17,0-4.34.05-6.51,0l-.56-.08a187.81,187.81,0,0,1-1.21-30.27,8.58,8.58,0,0,0,4.59-7.36,9.4,9.4,0,0,0-3-7,85.6,85.6,0,0,1,6.13-21.58C378.07,297.44,379.36,294.5,381.86,292.61Zm3,17.45a98,98,0,0,0-2.13,13.43c-.9,8.3-1.41,16.64-1.94,25-.09,4.47-.67,8.94-.47,13.42a1.16,1.16,0,0,0,.58-1.1c.54-12.61,1.26-25.22,2.57-37.77a88,88,0,0,1,2.33-13.82C385.26,308.38,385,309.6,384.88,310.06Z"/><path class="cls-18" d="M418.14,300.12c1.21-5,2.32-10.08,3.72-15.05,3,1.49,5.94,3,8.78,4.73,2.65,1.66,5.46,3.39,7,6.19a63.82,63.82,0,0,1,6.42,16.49c4.4,17.62,4.21,36,2.3,54q-1.26,0-2.52,0c-1.64,0-3.28,0-4.92,0l-2.7-.06c0-1.24-.08-2.48-.1-3.71.21-4.33-.51-8.63-.79-12.94A311.84,311.84,0,0,0,430.71,316a52.78,52.78,0,0,0-1.85-7l-.58.05c3.06,10.88,4.41,22.13,5.67,33.33.77,6.54,1.15,13.12,1.84,19.66h-.4c-5.84.22-11.62,1.22-17.44,1.54-.59.11-.57-.71-.6-1.06-.1-6.49-.48-13-.65-19.45-.1-3.57-.29-7.14-.35-10.71,1.08-4.84,1.72-9.76,2.64-14.63.84-5.4,2-10.74,2.69-16.15C420.49,301.12,419.31,300.63,418.14,300.12Z"/><path class="cls-18" d="M21.82,351.14a4.37,4.37,0,0,1,4-4.63,5.07,5.07,0,0,1,3.7,1.37c1.76,2.93,1.35,6.52,1.25,9.79-.19,1.32.48,2.52,1,3.71.85,2,1.54,4,2.23,6.05.24-2.13.11-4.34.88-6.37a4.45,4.45,0,1,1,7.6,4.52,28.3,28.3,0,0,1-7.14,5.83c1,3.5,1.94,7,3,10.5.08-2.37,0-4.8.71-7.07a4.52,4.52,0,1,1,7.66,4.56,31.68,31.68,0,0,1-7.56,6c1.16,4.63,2.17,9.3,3.2,14a43.83,43.83,0,0,1,1.61-10.93,6.41,6.41,0,0,1,12.46,2.15A6.75,6.75,0,0,1,53.57,396,41.94,41.94,0,0,1,43,402.69c1,4.93,1.91,9.88,2.86,14.81.59-4.14.85-8.43,2.48-12.33a7.47,7.47,0,0,1,13.93,5.16c-.54,2.48-2.63,4.14-4.55,5.59A56.72,56.72,0,0,1,46.8,422.3a5.72,5.72,0,0,0,.14,1.88c.84,4.55,1.54,9.13,2.29,13.7,1.65-5.05,3.27-10.18,6-14.76a8.88,8.88,0,0,1,4.79-3.92,9.16,9.16,0,0,1,10.66,13.68c-1.52,2.38-4.24,3.54-6.7,4.69A63.75,63.75,0,0,1,49.88,442c.83,5.59,1.66,11.18,2.45,16.77,1.71-5.2,3.35-10.52,6.27-15.2a9.14,9.14,0,1,1,11.49,13.32,62.76,62.76,0,0,1-17.22,5.93q.68,4.85,1.3,9.7c.48,3.59.88,7.19,1.39,10.78A74.75,74.75,0,0,1,67.11,471a9.45,9.45,0,0,1,10.75-1.21,9.34,9.34,0,0,1,4.59,8.57A9.07,9.07,0,0,1,75,486.69a59.84,59.84,0,0,1-15-.11c-2-.14-3.94-1.08-5.93-.57a60,60,0,0,1-12,1.42c-3.16,0-6.47.16-9.42-1.16a5.47,5.47,0,0,0,1.54-6.63,5.36,5.36,0,0,0-6.29-2.59A9.47,9.47,0,0,1,32,470.5a9.06,9.06,0,0,1,9.4-.32,29.22,29.22,0,0,1,4.51,3.49,76.41,76.41,0,0,1,8.71,9.45c-.48-3.5-.89-7-1.35-10.49-.42-3.24-.87-6.48-1.28-9.72a68.78,68.78,0,0,1-15.18,3.41,22.78,22.78,0,0,1-6.06-.08,5.59,5.59,0,0,0-1.65-4.38,6,6,0,0,0-4.16-1.45l-.48-1c1.68-.75,3.53-1.72,4.17-3.58a5.56,5.56,0,0,0-1.07-5.5,10.25,10.25,0,0,1,5.68-2.06c2.35-.13,4.5,1,6.43,2.19A78.76,78.76,0,0,1,51.56,460c-.78-6-1.77-11.95-2.56-17.94a66.1,66.1,0,0,1-17.53,3.64,9.59,9.59,0,0,1-7.63-2.6,8.25,8.25,0,0,0-2.31-3.68,10.27,10.27,0,0,1,.33-6.3,9.17,9.17,0,0,1,8.3-5.66,10.24,10.24,0,0,1,5.7,1.78,75.38,75.38,0,0,1,12.68,10.13c-.89-5.74-1.9-11.46-2.82-17.2a54,54,0,0,1-15.52,1.36,7.51,7.51,0,0,1-5.94-4,7.67,7.67,0,0,1,.5-7.6,8.41,8.41,0,0,1,4.09-3.07,7.94,7.94,0,0,1,6.15,1c3.88,2.59,7,6.07,10.15,9.52-.9-5.55-2-11-3.12-16.56a47.42,47.42,0,0,1-12.35,2.52,6.66,6.66,0,0,1-4.29-1.2,6.44,6.44,0,0,1,7.17-10.69,50.48,50.48,0,0,1,8.94,6.87c-1-4.88-2.14-9.7-3.26-14.55-1.47.38-2.94.79-4.44,1.1-2.44.37-5.48,1.21-7.46-.77a4.57,4.57,0,0,1,1.24-7.36c2.22-1.15,4.58.22,6.36,1.55,1.24.92,2.42,1.91,3.63,2.88-1-3.86-2.09-7.69-3.19-11.51l-.84.23c-3,.8-6,1.68-9.13,1.47a4.44,4.44,0,1,1,2.53-8.44,30.27,30.27,0,0,1,6.73,5,71.7,71.7,0,0,0-3.78-10.65,33.54,33.54,0,0,1-6.23-4.75A5.19,5.19,0,0,1,21.82,351.14Z"/><path class="cls-18" d="M143.43,351.09c2.14-.36,4.28-.73,6.42-1.07.87,6.11,1.65,12.24,1.92,18.41,4.66-.16,9.29-.66,13.95-.95.54,2.76.79,5.57,1.21,8.36,0,.21.1.62.12.83.46,5.07,1.08,10.12,1.54,15.19q1.78,19.54,2.84,39.14c.47,6.91.54,13.84,1.09,20.74.15,4,.21,8.05.41,12.08.08,2.74.2,5.47.24,8.21-1.32.26-2.64.54-3.95.83-2.2.46-4.39,1-6.58,1.41-1.08.23-2.16.48-3.24.73-.81-3.55-1.38-7.14-2.09-10.72q-3.19-16.81-6.46-33.62a19.09,19.09,0,0,0-.71-3.1,12.51,12.51,0,0,0-2-1.4l1.88.44c-1.79-9.54-3.74-19.05-5.68-28.56-.8-3.4-1.28-6.9-2.5-10.19-.8,3.81-1.22,7.68-1.71,11.54-1.29,10.37-2.34,20.77-3.49,31.15-1,9-1.85,17.91-2.79,26.86-.26,2.74-.55,5.48-.82,8.22-.46,3.11-.32,6.33-1.18,9.36-3.5,0-7-.05-10.5,0l-4.27,0c0-2.81,0-5.63,0-8.44q-.06-8.19-.11-16.37c-.11-6.64.08-13.29-.11-19.94-.12-6.94-.06-13.88-.18-20.82,0-6.68-.08-13.36-.12-20,0-5.92-.1-11.83-.09-17.75,5.9-.36,11.84-.54,17.72-1.11-.6-5.83-1.7-11.61-2.29-17.45l9-1.52,1.88,1.81Z"/><path class="cls-19" d="M334.65,297.25c.56-1.17.82-2.58,1.86-3.43a7.33,7.33,0,0,1-1.28,4.06l1.72.8C336.15,299.9,333.94,298.47,334.65,297.25Z"/><path class="cls-20" d="M337.85,303.32c-2-.36-4.53-.85-5.53-2.86a26,26,0,0,0,4.91,2C337.39,302.71,337.7,303.11,337.85,303.32Z"/><path class="cls-21" d="M384.88,310.06c.1-.46.38-1.68.94-.86A88,88,0,0,0,383.49,323c-1.31,12.55-2,25.16-2.57,37.77a1.16,1.16,0,0,1-.58,1.1c-.2-4.48.38-8.95.47-13.42.53-8.34,1-16.68,1.94-25A98,98,0,0,1,384.88,310.06Z"/><path class="cls-21" d="M428.28,309.07l.58-.05a52.78,52.78,0,0,1,1.85,7,311.84,311.84,0,0,1,4.66,33.75c.28,4.31,1,8.61.79,12.94l-.37-.66c-.69-6.54-1.07-13.12-1.84-19.66C432.69,331.2,431.34,320,428.28,309.07Z"/><path class="cls-21" d="M115,482.41a30.78,30.78,0,0,1,6.22-2.23,10.07,10.07,0,0,0,7.49,1.26c.09,2.74.55,5.52-.15,8.23-4.27.11-8.55,0-12.82-.06-2.83-.07-5.74.19-8.46-.79a5.24,5.24,0,0,1,1.18-2.45A22.4,22.4,0,0,1,115,482.41Z"/><path class="cls-21" d="M162.85,481.44a10.07,10.07,0,0,0,7.51-1.27,41.71,41.71,0,0,1,8.89,3.53c2.09,1.17,4.68,2.49,5,5.16a17.2,17.2,0,0,1-5.33.73c-5.31,0-10.61.19-15.91.09C162.3,487,162.75,484.18,162.85,481.44Z"/><path class="cls-22" d="M317.7,327.17c.82-.29,1.36.54,1.94.95.88-.06,1.75-.15,2.63-.19,0,.2.1.59.13.79v.84c-2.65.47-5.27,1-7.93,1.35l-.53-.68.08-1c.8-.18,1.61-.35,2.42-.55C316.82,328.19,317,327.36,317.7,327.17Z"/><path class="cls-23" d="M93.89,376.86h6.93c1,2.19,1.59,4.54,2.63,6.72a4.69,4.69,0,0,1,.63,2.34c-1.47-.14-2.34-1.42-3.31-2.36-.69,2.2-.91,4.51-1.59,6.72-.21.78-1,1.14-1.58,1.57a45,45,0,0,1,0-4.79,8.4,8.4,0,0,1-2,3.93c-.13-1.5-.16-3-.21-4.5a29.25,29.25,0,0,1-1.21,3.75l-.59-.32a13.32,13.32,0,0,1-.33-4.23,30.08,30.08,0,0,1-1.3,2.83,6.7,6.7,0,0,1-.37-2.29A39.27,39.27,0,0,1,93.89,376.86Z"/><path class="cls-24" d="M441.44,380.47c-.71-.86.74-1.06.36-.05Z"/><path class="cls-25" d="M183,405c2.58.94,4.73,2.72,7.06,4.15v.62C187.63,408.37,184.92,407.14,183,405Z"/><path class="cls-26" d="M82.23,429.93c11.53-.15,23.06.39,34.59.27.19,6.65,0,13.3.11,19.94a321.42,321.42,0,0,1-34.72-19.65Z"/><path class="cls-26" d="M136.65,430.54c4.73.1,9.47.17,14.2.12q3.27,16.8,6.46,33.62l-1.73-.32a169.68,169.68,0,0,1-21.72-6.56C134.8,448.45,135.7,439.5,136.65,430.54Z"/><path class="cls-26" d="M171.43,431c6.22.09,12.45.21,18.67.25q0,16,0,32.06c-5.72.14-11.45.29-17.17.51-.2-4-.26-8.06-.41-12.08C172,444.84,171.9,437.91,171.43,431Z"/><path class="cls-27" d="M332.54,460.23c.09,1.08.21,2.17.35,3.26,4.4.31,8.82.28,13.23.37.06-.24.18-.72.25-1,1,5.58,1.95,11.16,2.9,16.75l2.86-.17c-.11,2,.35,4.32-1,6a25.54,25.54,0,0,1-6,5.14c-2.42,1.74-5.23,3.08-7.17,5.39a.93.93,0,0,0,.69,1.61c3.54.48,7.08-.45,10.56-1.1a58.31,58.31,0,0,0,9.71-2.81c.71-.21.78-1,.9-1.6a33.44,33.44,0,0,0,.09-5.48c-.15-2.55-.38-5.1-.61-7.64.68,0,1.37-.08,2.06-.1.15-4.75,0-9.5,0-14.25,8.45.05,16.88.79,25.32,1.08,0,.12,0,.38,0,.51l1.47.18v.72c-4.1,1.75-8.37,3.43-11.78,6.38a4.66,4.66,0,0,0-1.55,3.09,17.16,17.16,0,0,0,5.44.48c5.29-.26,10.59-.3,15.87-.68a21.4,21.4,0,0,0-.12-6.87,6.9,6.9,0,0,1,.38-3.12c7.07.34,14.13.95,21.2,1.47,2.7.27,5.47.2,8.1,1-2.84,1.42-5.82,2.78-8.07,5.08a4.88,4.88,0,0,0-1.12,2.62c3.35.95,6.85.33,10.27.3,3.62-.21,7.27-.08,10.87-.55,1-2,.2-4.49.09-6.66,7,.81,14,1.27,20.92,2.56a9.39,9.39,0,0,0-.92,9.29,9.12,9.12,0,0,0,7.63,5.28,62,62,0,0,0,18.13-1c1.3-.17,2.54.4,3.82.6a70.88,70.88,0,0,0,14.33,1c-2.12,2.1-5,3-7.77,4-9.49,3.1-19.44,4.31-29.21,6.24-5.61.43-11.16,1.36-16.76,1.94-27.13,3-54.38,4.76-81.65,6-4.84,0-9.65.63-14.48.65-5.13.05-10.23.51-15.36.5a41.4,41.4,0,0,0-6.49.44c-7.93-.24-15.85.3-23.78.34-66.67,1-133.41.29-199.94-4.43-10.11-.69-20.2-1.71-30.3-2.52-17.27-2.07-34.65-3.9-51.55-8.24-3.63-1.44-7.81-2.09-10.67-4.95,2-.08,3.9-.62,5.87-.78,4.28.47,8.93,1.47,13-.33,3,1.32,6.26,1.2,9.42,1.16a60,60,0,0,0,12-1.42c2-.51,3.94.43,5.93.57a59.84,59.84,0,0,0,15,.11,9.07,9.07,0,0,0,7.45-8.37,9.34,9.34,0,0,0-4.59-8.57c13-1.45,26.11-2.32,39.18-3.24,0,2.81,0,5.63,0,8.44l4.27,0c-.11,1.73-.12,3.47-.14,5.21a30.78,30.78,0,0,0-6.22,2.23,22.4,22.4,0,0,0-6.54,4,5.24,5.24,0,0,0-1.18,2.45c2.72,1,5.63.72,8.46.79,4.27,0,8.55.17,12.82.06.7-2.71.24-5.49.15-8.23,0-2.09.06-4.18.14-6.27a27.64,27.64,0,0,0,3-.19c.86-3,.72-6.25,1.18-9.36,5.92-.48,11.86-.6,17.79-.94,1.58-.15,3.38.28,4.75-.72l1.73.32c.71,3.58,1.28,7.17,2.09,10.72,1.08-.25,2.16-.5,3.24-.73.15,2.38.26,4.77.21,7.17-.1,2.74-.55,5.53.16,8.24,5.3.1,10.6-.09,15.91-.09a17.2,17.2,0,0,0,5.33-.73c-.32-2.67-2.91-4-5-5.16a41.71,41.71,0,0,0-8.89-3.53c-.06-2.42,0-4.85-.23-7.26l-.91-.05c1.31-.29,2.63-.57,3.95-.83,0-2.74-.16-5.47-.24-8.21,5.72-.22,11.45-.37,17.17-.51,0,4.11,0,8.23,0,12.35q53.3,0,106.57,0c0-4.33,0-8.66,0-13,7,.25,14,.25,21,.37q.94,8.26,2,16.52l3.2.15c-.16,2,.21,4.21-1.1,5.86a26.41,26.41,0,0,1-6,5.08c-2.43,1.75-5.27,3.1-7.21,5.44-1,1.55,1.38,1.8,2.43,1.72a70.78,70.78,0,0,0,17-3.44c.81-.38,2.07-.5,2.3-1.52a24.28,24.28,0,0,0,.24-6.2c-.13-2.2-.31-4.4-.45-6.6l2.83.13C332.81,473.53,332.62,466.88,332.54,460.23Z"/><path class="cls-27" d="M54.17,472.54c4.29-.71,8.6-1.29,12.94-1.58a74.75,74.75,0,0,0-11.55,12.36C55.05,479.73,54.65,476.13,54.17,472.54Z"/><path class="cls-27" d="M45.9,473.67c2.45-.38,4.9-.76,7.36-1,.46,3.49.87,7,1.35,10.49A76.41,76.41,0,0,0,45.9,473.67Z"/><path class="cls-27" d="M477,475.32c2.62-.11,5.14.67,7.68,1.23-.29,2.3-.57,4.59-.87,6.89A77.85,77.85,0,0,0,477,475.32Z"/><path class="cls-27" d="M485.59,476.89c1.31.23,2.63.47,4,.68a64.27,64.27,0,0,0-4.73,5.56Q485.19,480,485.59,476.89Z"/><path class="cls-27" d="M18.91,479.84c2.5-.66,4.87-1.85,7.49-2A47.38,47.38,0,0,0,19.6,485C19.33,483.29,19.14,481.57,18.91,479.84Z"/><path class="cls-27" d="M15.66,481.14c.93-.25,1.86-.5,2.79-.73.19,1.44.37,2.88.51,4.33C17.85,483.54,16.8,482.29,15.66,481.14Z"/><path class="cls-20" d="M130,276.74a12.09,12.09,0,0,1-2.31,2.87c-.73.52-1.79.38-2.38,1.13C127.52,281,130,279,130,276.74Z"/></g></g></svg>