<svg xmlns="http://www.w3.org/2000/svg" viewBox="0 0 774 771"><defs><style>.cls-1{fill:#f4fbff;}</style></defs><title>pic_left_2</title><g id="Layer_2" data-name="Layer 2"><g id="Layer_1-2" data-name="Layer 1"><path class="cls-1" d="M612.31,554.44c91.52-58.8,128.93-85.64,160-187.05a42.06,42.06,0,0,0,1.52-9.35C778.86,164,648.94,59,521.71,69.37a38.88,38.88,0,0,1-25.61-7.09C469,43.22,432.85,42.71,404.77,64l-.31.23c-15.53,11.9-36.56,10.93-50.77-2.79C327,35.73,297.17,15.36,254.46,1.25A45.51,45.51,0,0,0,248.6.13C30.67-6.19-57.28,221,38.39,369.23c.17.25.33.5.49.76,16.74,25.7,22.32,57.89,15.61,88.49-26,118.43,27.74,256.43,178,310.66a27.77,27.77,0,0,0,8.67,1.67c98.49,3,110.34-29,216.78-99.14"/></g></g></svg>