<svg xmlns="http://www.w3.org/2000/svg" viewBox="0 0 215 130"><defs><style>.cls-1{fill:#e4eefd;}.cls-1,.cls-7{fill-rule:evenodd;}.cls-2{fill:#b9caef;}.cls-3{fill:#131375;}.cls-4{fill:#7c9af2;}.cls-5{fill:#009b3a;}.cls-6,.cls-7{fill:#10002b;}</style></defs><title>pic_n_5_logo</title><g id="Layer_2" data-name="Layer 2"><g id="Layer_1-2" data-name="Layer 1"><path class="cls-1" d="M107,0c44.15,0,66.3,23.63,67.3,71.59,1.36,65.65-30.13,45.85-67.3,45.85s-68.56,13.48-67.3-45.85C40.67,24.62,60.83,0,107,0Z"/><path class="cls-2" d="M24.46,123c0,3.89,36.95,7,82.51,7s82.52-3.16,82.52-7-37-7-82.52-7-82.51,3.16-82.51,7Z"/><path class="cls-3" d="M25.49,104.65C-.31,81.33,16,42.28,21.55,30.86a.93.93,0,0,0-.22-1.21c-.34-.21-.82,0-1,.48C17.88,35,12.1,48,10.38,62.75c-1.29,11-.1,20.65,3.5,28.85C12.62,89.37,8.6,83.41,3,86.08c.35,1.69,1.45,5.79,4.37,7.43,1.92,1.08,4.32.93,7.14-.45a42.72,42.72,0,0,0,9.91,13.15.52.52,0,0,0,.19.11.77.77,0,0,0,.88-.39A1,1,0,0,0,25.49,104.65Z"/><path class="cls-3" d="M14.46,44.23l.17-.8c0-.17,2.35-12-3.7-14.68-.72,1.75-2.26,6.21-1.3,10A7.86,7.86,0,0,0,14.46,44.23Z"/><path class="cls-4" d="M18.6,38.21l-.4.71a7.83,7.83,0,0,0,7.22-.87c3.22-2.22,5-6.59,5.61-8.37C24.72,27.66,18.69,38.06,18.6,38.21Z"/><path class="cls-4" d="M25.71,23.85c.17-.08,9.6-4.65,9.83-13a12.79,12.79,0,0,0-7.83,4.61,14.52,14.52,0,0,0-2.64,8.66Z"/><path class="cls-3" d="M20.42,29.28l.16-.79c0-.18,2.35-12-3.7-14.69-.71,1.75-2.25,6.21-1.3,10A7.86,7.86,0,0,0,20.42,29.28Z"/><path class="cls-3" d="M10.53,60.59l0-.79c0-.17-.46-11.73-7.19-12C3,49.59,2.5,54.19,4.37,57.32,5.6,59.38,7.67,60.48,10.53,60.59Z"/><path class="cls-4" d="M13.57,82.64l-.26.78a9.31,9.31,0,0,0,7.13-3c2.81-3.05,3.71-7.62,4-9.46C17.59,71,13.63,82.45,13.57,82.64Z"/><path class="cls-3" d="M9.8,75.81c-.05-.16-2.92-10.7-9.8-8.9.07,1.8.52,6.2,3.06,8.51,1.68,1.53,4,1.9,6.92,1.11Z"/><path class="cls-4" d="M14.26,52.63l-.4.71a7.82,7.82,0,0,0,7.23-.88c3.23-2.23,5-6.58,5.61-8.37C20.39,42.08,14.35,52.47,14.26,52.63Z"/><path class="cls-4" d="M12.21,67.7l-.38.73a8,8,0,0,0,7.24-1.24c3.16-2.37,4.79-6.79,5.35-8.6C18,56.93,12.31,67.51,12.21,67.7Z"/><path class="cls-4" d="M28.08,88c-6.53,1.56-7.21,13.68-7.22,13.84l0,.82a8.59,8.59,0,0,0,6-4.53C28.72,94.54,28.34,89.87,28.08,88Z"/><path class="cls-3" d="M189.51,104.65c25.8-23.32,9.54-62.37,3.94-73.79a.93.93,0,0,1,.22-1.21c.34-.21.82,0,1.05.48,2.4,4.9,8.18,17.89,9.9,32.62,1.29,11,.1,20.65-3.5,28.85,1.26-2.23,5.28-8.19,10.84-5.52-.35,1.69-1.45,5.79-4.37,7.43-1.92,1.08-4.32.93-7.14-.45a42.72,42.72,0,0,1-9.91,13.15.52.52,0,0,1-.19.11.77.77,0,0,1-.88-.39A1,1,0,0,1,189.51,104.65Z"/><path class="cls-3" d="M200.54,44.23l-.17-.8c0-.17-2.35-12,3.7-14.68.72,1.75,2.26,6.21,1.3,10A7.86,7.86,0,0,1,200.54,44.23Z"/><path class="cls-4" d="M196.4,38.21l.4.71a7.83,7.83,0,0,1-7.22-.87c-3.22-2.22-5-6.59-5.61-8.37C190.28,27.66,196.31,38.06,196.4,38.21Z"/><path class="cls-4" d="M189.29,23.85c-.17-.08-9.6-4.65-9.83-13a12.79,12.79,0,0,1,7.83,4.61,14.52,14.52,0,0,1,2.64,8.66Z"/><path class="cls-3" d="M194.58,29.28l-.16-.79c0-.18-2.35-12,3.7-14.69.71,1.75,2.25,6.21,1.3,10A7.86,7.86,0,0,1,194.58,29.28Z"/><path class="cls-3" d="M204.47,60.59l0-.79c0-.17.46-11.73,7.19-12,.31,1.84.82,6.44-1.05,9.57C209.4,59.38,207.33,60.48,204.47,60.59Z"/><path class="cls-4" d="M201.43,82.64l.26.78a9.31,9.31,0,0,1-7.13-3c-2.81-3.05-3.71-7.62-4-9.46C197.41,71,201.37,82.45,201.43,82.64Z"/><path class="cls-3" d="M205.2,75.81c.05-.16,2.92-10.7,9.8-8.9-.07,1.8-.52,6.2-3.06,8.51-1.68,1.53-4,1.9-6.92,1.11Z"/><path class="cls-4" d="M200.74,52.63l.4.71a7.82,7.82,0,0,1-7.23-.88c-3.23-2.23-5-6.58-5.61-8.37C194.61,42.08,200.65,52.47,200.74,52.63Z"/><path class="cls-4" d="M202.79,67.7l.38.73a8,8,0,0,1-7.24-1.24c-3.16-2.37-4.79-6.79-5.35-8.6C197,56.93,202.69,67.51,202.79,67.7Z"/><path class="cls-4" d="M186.92,88c6.53,1.56,7.21,13.68,7.22,13.84l0,.82a8.59,8.59,0,0,1-6-4.53C186.28,94.54,186.66,89.87,186.92,88Z"/><path class="cls-5" d="M121.49,71.7l-6.66,1.19a2,2,0,0,0,.72,4l6.66-1.19a2.65,2.65,0,0,1,1.92,4.84l-9.78,6.3a2.89,2.89,0,0,1-3,.11,2.85,2.85,0,0,1-1.52-2.53V68.89a7,7,0,0,0-10.75-5.81L74.52,78.92a6.7,6.7,0,0,0,4.85,12.21l21.48-3.84a2,2,0,0,0-.72-4L78.65,87.15a2.65,2.65,0,0,1-1.92-4.84l24.6-15.84a2.9,2.9,0,0,1,4.48,2.42V84.4a6.81,6.81,0,0,0,3.64,6.08,6.88,6.88,0,0,0,7.11-.27l9.78-6.29A6.53,6.53,0,0,0,129,75.83a6.6,6.6,0,0,0-7.45-4.13m34.4,4.13a6.61,6.61,0,0,0-7.45-4.13l-6.67,1.2a2,2,0,0,0,.72,4l6.67-1.19a2.56,2.56,0,0,1,3,1.64,2.53,2.53,0,0,1-1,3.2l-9.78,6.3a2.9,2.9,0,0,1-3,.11,2.86,2.86,0,0,1-1.52-2.53V64a2,2,0,0,0-4.06,0V84.4a6.81,6.81,0,0,0,3.64,6.08,6.9,6.9,0,0,0,7.12-.27l9.78-6.29a6.54,6.54,0,0,0,2.6-8.09"/><path class="cls-6" d="M121.73,35.67a.77.77,0,0,0-.67.44,1.8,1.8,0,0,1-3.37-.57v-.07a8.55,8.55,0,0,1,0-1.6,1.67,1.67,0,0,1,1.73-1.61h.06a1.64,1.64,0,0,1,1.58,1,.79.79,0,0,0,.67.43.67.67,0,0,0,.73-.61.28.28,0,0,0,0-.09,1.52,1.52,0,0,0-.22-.69,3.33,3.33,0,0,0-6.06,1.38,13.75,13.75,0,0,0,0,2,3.07,3.07,0,0,0,3.27,2.84,3,3,0,0,0,2.79-1.47,1.4,1.4,0,0,0,.21-.69.67.67,0,0,0-.64-.7h-.09ZM93.15,38.4h3a2.85,2.85,0,0,0,3.12-2.56,2.81,2.81,0,0,0,0-.58,2.77,2.77,0,0,0-2.56-3,2.62,2.62,0,0,0-.56,0H93.53V29.87H98a.74.74,0,0,0,.8-.64v-.1a.71.71,0,0,0-.71-.72H93.15a1.07,1.07,0,0,0-1.18.93,1,1,0,0,0,0,.25v7.63a1.07,1.07,0,0,0,.93,1.18Zm.38-4.73H96a1.46,1.46,0,0,1,1.68,1.22,1.07,1.07,0,0,1,0,.4A1.48,1.48,0,0,1,96.41,37a1.34,1.34,0,0,1-.4,0H93.53V33.67Zm18-2.86a6,6,0,0,0-2.81.71c-.34.21-.38.37-.38.95v7.68a.72.72,0,0,0,.63.79H109a.73.73,0,0,0,.77-.67.49.49,0,0,0,0-.12v-2a4.37,4.37,0,0,0,1.81.39,3,3,0,0,0,3.11-2.83,14.16,14.16,0,0,0,0-2.06,3,3,0,0,0-3.19-2.83Zm1.73,4.66a1.63,1.63,0,0,1-1.67,1.61h-.11a3.33,3.33,0,0,1-1.63-.42v-4a3.33,3.33,0,0,1,1.63-.42,1.65,1.65,0,0,1,1.78,1.5v.11a8.66,8.66,0,0,1,0,1.61Zm-9.73-4.66a5.61,5.61,0,0,0-2.1.41c-.41.16-.59.4-.59.72a.65.65,0,0,0,.63.65h0a1.73,1.73,0,0,0,.55-.15,3.84,3.84,0,0,1,1.38-.26c1.16,0,1.63.43,1.63,1.33v.6a6.76,6.76,0,0,0-1.84-.26c-1.91,0-2.84,1.08-2.84,2.27,0,1.37,1,2.4,2.89,2.4a5.52,5.52,0,0,0,3-.77.59.59,0,0,0,.29-.56V33.54c0-1.88-1.09-2.74-3-2.74ZM105,36.86a3.8,3.8,0,0,1-1.65.41c-1,0-1.58-.42-1.58-1.15s.52-1.17,1.57-1.17a5.16,5.16,0,0,1,1.66.27Zm-17.28.31-2.61-2.6,2.48-2.46a.88.88,0,0,0,.29-.6.63.63,0,0,0-.61-.63h0a.75.75,0,0,0-.59.29l-2.52,2.5a.68.68,0,0,1-.48.21h-.52V31.67a.7.7,0,0,0-.63-.79h-.12a.72.72,0,0,0-.76.68v6.11a.73.73,0,0,0,.64.8h.12a.71.71,0,0,0,.76-.67V35.27h.43a.67.67,0,0,1,.48.21l2.68,2.67a.87.87,0,0,0,.63.31.66.66,0,0,0,.68-.62v-.05a.87.87,0,0,0-.31-.63Zm-7.27.56a1.33,1.33,0,0,0-.1-.48l-2.8-7.59c-.34-.93-.83-1.32-1.61-1.32s-1.27.39-1.61,1.32l-2.82,7.59a1.34,1.34,0,0,0-.1.49.73.73,0,0,0,.73.72h0a.79.79,0,0,0,.78-.62l.91-2.58H78l.92,2.59a.76.76,0,0,0,.76.61.73.73,0,0,0,.76-.7Zm-6.11-3.85L75.72,30c.06-.14.1-.19.21-.19s.14.05.19.19l1.4,3.92Z"/><path class="cls-7" d="M71.87,53.64c.21,0,.38-.07.43-.4l1.33-9c0-.26.1-.34.24-.34s.18.06.24.3l2.08,8.42c.18.74.53,1,1.11,1s.9-.29,1.09-1l2.1-8.43c.06-.24.13-.3.24-.3s.21.08.25.34l1.36,9c0,.27.16.41.44.41s.45-.13.45-.38a1,1,0,0,0,0-.24l-1.37-9a1.1,1.1,0,0,0-2.17-.13l-2.09,8.58c0,.21-.11.3-.26.3s-.2-.1-.25-.3L75,43.89A1,1,0,0,0,73.91,43a1,1,0,0,0-1.12,1L71.43,53.1a.44.44,0,0,0,0,.16C71.41,53.51,71.62,53.64,71.87,53.64Zm16.5-7.83a3.16,3.16,0,0,0-3.26,3,11.55,11.55,0,0,0,0,2,3.15,3.15,0,0,0,3.32,3,5,5,0,0,0,2.28-.49c.23-.13.43-.28.42-.5a.36.36,0,0,0-.36-.38,1.12,1.12,0,0,0-.43.12,4.8,4.8,0,0,1-1.91.39A2.3,2.3,0,0,1,86,50.71c0-.17,0-.35,0-.54H90.8c.59,0,.68-.1.68-.72V48.9A2.92,2.92,0,0,0,88.37,45.81Zm2.24,3.56H85.94c0-.19,0-.37,0-.54a2.29,2.29,0,0,1,2.4-2.16C89.8,46.67,90.75,47.61,90.61,49.37Zm9.89,3.36h-.68v-6c0-.65-.18-.84-.84-.84H95.55c-.65,0-.84.19-.84.84v1.78c0,2.45-.29,4.2-1.24,4.2h-.08a.41.41,0,0,0-.43.46v1.64a.43.43,0,1,0,.86,0V53.58h6.25v1.25a.4.4,0,0,0,.43.46c.28,0,.43-.16.43-.46V53.19A.4.4,0,0,0,100.5,52.73Zm-4.92-4.21V46.75H99v6h-4.2C95.43,51.94,95.58,50.38,95.58,48.52Z"/></g></g></svg>