<svg xmlns="http://www.w3.org/2000/svg" viewBox="0 0 1062 1156"><defs><style>.cls-1{fill:#dde8fe;}</style></defs><title>pic_right</title><g id="Layer_2" data-name="Layer 2"><g id="Layer_1-2" data-name="Layer 1"><path class="cls-1" d="M1038.39,478.71c31.19-155.32,41.08-221.39-31.36-349a53.54,53.54,0,0,0-8-10.27C806.07-64.4,569.63-17.08,453.52,133.29a61.53,61.53,0,0,1-32.73,21.83,121.66,121.66,0,0,0-89.16,102.7c0,.18-.05.36-.07.55-3.32,28.13-25.27,50.51-53.4,53.63-52.83,5.86-103.33,20.18-160.25,54.49a70.79,70.79,0,0,0-7,5.46C-112.54,607.35,31.59,913.47,278,943.74l1.27.15A150,150,0,0,1,385,1007.94c94.89,137.57,289.11,204.9,494.06,88.43a45,45,0,0,0,10.34-8.07c101.13-106.27,80.28-148.79,114.78-331"/></g></g></svg>