<svg xmlns="http://www.w3.org/2000/svg" viewBox="0 0 192 121"><defs><style>.cls-1{fill:#d9e7ff;}.cls-2{fill:#b5d1fa;}.cls-3{fill:#80b5fa;}.cls-4{fill:#040156;}.cls-5{fill:#ff7367;}.cls-6{fill:#ff5f56;}.cls-7{fill:#ff928d;}.cls-8{fill:#ff9391;}.cls-9{fill:#ff6868;}.cls-10{fill:#01011c;}.cls-11{fill:#fff;}.cls-12{fill:#4250f0;}.cls-13{fill:#ff8181;}.cls-14{fill:#010131;}.cls-15{fill:#395f74;}.cls-16{fill:#fd4d4d;}.cls-17{fill:#6e9af4;}.cls-18{fill:#2e46d7;}.cls-19{fill:#a0c7fa;}.cls-20{fill:#5f90e2;}</style></defs><title>pic_n_2</title><g id="Layer_2" data-name="Layer 2"><g id="Layer_1-2" data-name="Layer 1"><path class="cls-1" d="M165.83,117.37h5.43c11.19,0,18-13.85,19.86-24.94C193.41,79,192,56.37,177.4,50.28c-3.31-1.38-6.84-2.14-10.16-3.49-17.1-6.91-15.12-23.92-26.33-35.68-23.69-24.88-55.51-.82-81.56,3.48-16.26,2.69-34.77-1.3-48.06,11.06C5.23,31.3,1.9,39.44.72,47.67c-3.24,22.44,4.6,46.5,21.9,61.36,5.28,4.54,12.64,8.79,19.16,6.36Z"/><ellipse class="cls-2" cx="98.88" cy="116.07" rx="85.98" ry="4.93"/><path class="cls-2" d="M166,32.66c2.66.55,5.06,2.48,5.34,6.69.25,4-1.91,7.92-.84,11.86s4.23,5.43,3.09,10.43a22.44,22.44,0,0,0-1,5.39c.07,3.92,2.79,6.32,4.12,9.39a14.12,14.12,0,0,1-1.2,12.7c-4.35,6.21-11.73,4-17.21,3.39-3.19-.34-6.07-2.63-6.87-7.29-.92-5.39,1.5-8,3-12.27s-.34-9.05-.39-13.69c-.05-5.19,2.94-8,3.48-12.8.4-3.45-1-7,.39-10.26A5.71,5.71,0,0,1,161.37,33,9.1,9.1,0,0,1,166,32.66Z"/><rect class="cls-3" x="164.11" y="57.5" width="0.63" height="48.97"/><polygon class="cls-3" points="164.14 79.59 158.8 67.84 159.37 67.57 164.72 79.33 164.14 79.59"/><polygon class="cls-3" points="164.69 88.14 164.17 87.77 169.43 80.17 169.95 80.53 164.69 88.14"/><path class="cls-3" d="M157.9,104.67h12.77a0,0,0,0,1,0,0v3.76a6.39,6.39,0,0,1-6.39,6.39h0a6.39,6.39,0,0,1-6.39-6.39v-3.76A0,0,0,0,1,157.9,104.67Z"/><polygon class="cls-4" points="63.88 103.02 60.7 114.02 58.08 114.02 59.06 103.02 63.88 103.02"/><polygon class="cls-4" points="49.58 102.37 46.41 113.36 43.78 113.36 44.77 102.37 49.58 102.37"/><path class="cls-5" d="M143.21,70.41l-1.81-4.77a6.1,6.1,0,0,0-5.7-3.94H38.55a6,6,0,0,0-5.94,7.09l4.55,26.64A10,10,0,0,0,47,103.77h97.18l10.29-30.85h-7.62A3.89,3.89,0,0,1,143.21,70.41Z"/><path class="cls-6" d="M48.36,72.9a3.89,3.89,0,0,1-3.63-2.51l-1.81-4.77a6.09,6.09,0,0,0-5.05-3.9,6,6,0,0,0-5.26,7l4.55,26.64A10,10,0,0,0,47,103.75H66.64L56,72.9Z"/><path class="cls-7" d="M143.38,103.77H65.43a10.5,10.5,0,0,1-10-7.82L50.57,78.54a4.59,4.59,0,0,1,3-5.66A4.41,4.41,0,0,1,59.09,76l4.13,14.9A5,5,0,0,0,68,94.61h73a5,5,0,0,0,4.69-3.53l4.73-15.2a4.41,4.41,0,0,1,5.58-3,4.62,4.62,0,0,1,2.86,5.77l-5.48,17.59A10.47,10.47,0,0,1,143.38,103.77Z"/><rect class="cls-6" x="60.16" y="89.35" width="89.15" height="8.48" rx="4.24"/><path class="cls-8" d="M147.12,106.87s-.07,4.57,0,4.63a3,3,0,0,1-.34.64l-1.43.26-1.3-.61s.11-4.24,0-4.91S147.12,106.87,147.12,106.87Z"/><path class="cls-4" d="M144,111.79a3.7,3.7,0,0,0,3.06-.38s5.49,2.07,5.32,3.65c0,0,.24.47-2.14.37s-6.08-.21-6.18-.27S143.51,115.36,144,111.79Z"/><path class="cls-8" d="M133.25,106.87s-.06,4.57,0,4.63-.33.64-.33.64l-1.43.26-1.31-.61s.12-4.24,0-4.91S133.25,106.87,133.25,106.87Z"/><path class="cls-4" d="M130.15,111.79a3.7,3.7,0,0,0,3.06-.38s5.5,2.07,5.33,3.65c0,0,.23.47-2.15.37s-6.08-.21-6.18-.27S129.65,115.36,130.15,111.79Z"/><path class="cls-9" d="M120,53.63s.44-.52.7-.26c.68.66-.14,1.33-.66,1.44Z"/><path class="cls-8" d="M120.39,51.58h0l0-.18a4.58,4.58,0,1,0-8.91.9c.3,1.11.58,2.07.88,2.87a6.54,6.54,0,0,1,.17,4.17l-.3,1.08c2.63,1.81,4.06.56,4.06.56l.27-2a.51.51,0,0,1,.53-.44h0C120.6,58.68,120.21,53.15,120.39,51.58Z"/><path class="cls-10" d="M115.44,53.46a.43.43,0,0,0-.85-.1.43.43,0,1,0,.85.1Z"/><path class="cls-10" d="M119.28,53.12a.42.42,0,0,0-.84-.1.42.42,0,1,0,.84.1Z"/><path class="cls-10" d="M114,52.63l-.12-.05a.27.27,0,0,1-.05-.36,1.34,1.34,0,0,1,1.86-.22.25.25,0,1,1-.27.42.83.83,0,0,0-1.19.11A.25.25,0,0,1,114,52.63Z"/><path class="cls-10" d="M118,52.4a.21.21,0,0,1-.13,0,.24.24,0,0,1,0-.35,1.33,1.33,0,0,1,1.85-.23.25.25,0,0,1-.27.43.85.85,0,0,0-1.19.1A.22.22,0,0,1,118,52.4Z"/><polygon class="cls-10" points="110.87 50.66 111.76 53.89 112.61 53.82 113.54 49.88 110.87 50.66"/><path class="cls-8" d="M112.75,53.73a.75.75,0,0,0-.32-.36,1.14,1.14,0,0,0-1.26,0c-.62.5.34,2.11,1.53,1.5C112.7,54.85,113.05,54.56,112.75,53.73Z"/><path class="cls-9" d="M117.44,55.24a.83.83,0,0,1-.77-.11.08.08,0,0,1,0-.1.08.08,0,0,1,.11,0,.69.69,0,0,0,.83,0,.29.29,0,0,0,.12-.14c0-.05,0-.12-.12-.22a2.21,2.21,0,0,1-.47-1.41.08.08,0,0,1,.08-.08.07.07,0,0,1,.07.07,2,2,0,0,0,.44,1.33c.09.13.16.22.15.34a.41.41,0,0,1-.18.23A1,1,0,0,1,117.44,55.24Z"/><path class="cls-11" d="M115.65,55.83a6.33,6.33,0,0,0,2.85,0s-.41,1.31-1.43,1.3S115.65,55.83,115.65,55.83Z"/><path class="cls-4" d="M119.85,49.72s.6.54.46,3.33c0,0,.56-3.07.26-3.45S119.85,49.72,119.85,49.72Z"/><path class="cls-10" d="M110.68,49.62a4.75,4.75,0,0,1,.72-1.89,1.27,1.27,0,0,1-.94-.13c-.25-.19-.25-.7.07-.77s.36.09.55.12c.42.06.73-.4.86-.8s.26-.89.64-1.08A.91.91,0,0,1,113,45a2.36,2.36,0,0,1-.21,1.48A5.93,5.93,0,0,1,114.63,45a2.33,2.33,0,0,1,1.79-.29c.13.48-.67.71-.77,1.2a10.47,10.47,0,0,1,3.25-.3,2.27,2.27,0,0,1,.82.17.87.87,0,0,1,.5.65.68.68,0,0,1-.7.69,7,7,0,0,1,1.55.89,2.35,2.35,0,0,1,.87,1.52,2.41,2.41,0,0,1-1.14-.29.84.84,0,0,1,.32.87.65.65,0,0,1-.58.36,1.9,1.9,0,0,1-.71-.13l-3.5-1.14a4,4,0,0,1,1,1.76,5.45,5.45,0,0,1-2.89-1.27,5.59,5.59,0,0,1-.5,1.44.41.41,0,0,1-.15.19c-.24.13-.42-.23-.64-.39a.87.87,0,0,0-.93,0c-.49.27-.84.67-1.22.08A2.19,2.19,0,0,1,110.68,49.62Z"/><path class="cls-3" d="M141.34,84.2s5.32.43,7,7.24c1,4,.6,16.84.6,16.84l-6.89,1.09s.62-14.4-4.72-18.84c0,0,1.08,2.93-2.83,19.57h-5.11l-1.71-17s-12,.41-15.65-2.62a10.91,10.91,0,0,1-4-6.64l17-2.6Z"/><path class="cls-12" d="M110.78,61.05s.34-2.58.87-2.45a52.2,52.2,0,0,0,5.75.9c.47-.09,0,2.19,0,2.19s5.35.49,6.68,2.78,4.45,11,5.59,11.7a38.66,38.66,0,0,1,3.38,2.8L123.8,84.2,115,83.79s-6.33,3.81-11.28.84-4.08-18.57.6-21.32S110.78,61.05,110.78,61.05Z"/><path class="cls-4" d="M126.35,81.81s0,0,0,0c-2.67-1.16-4.09-12.74-4.15-13.23a0,0,0,0,1,0-.06s0,0,.06,0,1.48,12,4.08,13.14a.05.05,0,0,1,0,.07A.05.05,0,0,1,126.35,81.81Z"/><path class="cls-4" d="M115,83.84a.05.05,0,0,1-.05,0,.07.07,0,0,1,0-.08l1.94-.85-.27-3.39c-.54-.11-6-1.18-8.61-1.48,0,0,0,0,0-.06,0-.26-.09-6.4.31-7.31a.05.05,0,0,1,.07,0s0,0,0,.08c-.37.84-.3,6.61-.29,7.21,2.75.33,8.54,1.47,8.6,1.48s0,0,0,.06l.27,3.47a0,0,0,0,1,0,.06l-2,.87Z"/><path class="cls-4" d="M137.35,90.59a0,0,0,0,1,0,0,7,7,0,0,0-1.78-3.07c-1.37-1.45-4.05-3.24-9.09-3.61a.06.06,0,0,1-.06-.06s0-.06.06-.06c5.08.37,7.8,2.19,9.18,3.65a7,7,0,0,1,1.8,3.13.08.08,0,0,1,0,.07Z"/><path class="cls-13" d="M118.56,79.92h.35c1.1,0,4.38.15,4.76.28s-.92,3-.92,3-3.94.22-5.21-.63S118.56,79.92,118.56,79.92Z"/><path class="cls-13" d="M122.23,83.27s2.2,1,2.4.78-1.73-1.33-1.73-1.33Z"/><path class="cls-13" d="M122.83,82.56s3.26,1.35,3.51.9S123,81.83,123,81.83Z"/><path class="cls-13" d="M123.27,81.77s3.36,1,3.57.58S123.35,81,123.35,81Z"/><path class="cls-13" d="M123.44,80.92s3.14,1,3.33.55-3.25-1.29-3.25-1.29Z"/><polygon class="cls-13" points="119.31 80.01 116.83 79.7 117.06 82.52 118.33 82.8 119.31 80.01"/><polygon class="cls-10" points="147.38 71.29 129.24 71.27 123.53 84.61 141.67 84.63 147.38 71.29"/><rect class="cls-10" x="120.61" y="78.12" width="0.81" height="12.15" transform="translate(36.65 205.1) rotate(-89.92)"/><path class="cls-11" d="M136.45,77.75a.8.8,0,0,1,.8-.8.79.79,0,0,1,.8.79.8.8,0,0,1-.79.81A.8.8,0,0,1,136.45,77.75Z"/><path class="cls-8" d="M81.2,64.63s1.2,9.28,1.66,9.54,3.87-7.92,3.87-7.92l2.33.64s-2.38,12.55-6.67,12.28-4.7-10.32-4.7-10.32Z"/><path class="cls-8" d="M90.24,107.29s-.51,3.55.75,5.33,3.87,4.32,3.2,5-8.16-3.13-8-4,1.34-4.32,1.09-6.35Z"/><path class="cls-14" d="M86.65,111.92c-.21.78-.39,1.41-.45,1.72-.17.84,7.32,4.65,8,4,.5-.5-.81-2-2-3.5C91.47,114.54,89.73,115,86.65,111.92Z"/><path class="cls-8" d="M82.84,107.87s-.5,3.55.76,5.33,3.87,4.31,3.2,5-8.17-3.13-8-4,1.35-4.31,1.1-6.34Z"/><path class="cls-4" d="M79.35,44.5a6.16,6.16,0,0,1,2.79,5.56c-.13,1.78-1,3.55-.55,5.26a15.66,15.66,0,0,0,.83,1.82,6.17,6.17,0,0,1,.42,3.37,3.49,3.49,0,0,1-1,2.08,4.72,4.72,0,0,1-1.42.75,10.19,10.19,0,0,1-3.38.77A4.54,4.54,0,0,1,73.81,63c-.57-.55-1-1.31-1.77-1.5a2.67,2.67,0,0,0-.8,0,11.29,11.29,0,0,0-3.07.46,17.84,17.84,0,0,1-3.07,1.22A3.62,3.62,0,0,1,61.28,61a3.66,3.66,0,0,1,1.29-4.22c1-.7,2.51-.91,3.11-2,.5-.93.16-2.11.51-3.1.61-1.73,2.89-2.12,4.14-3.46s1.62-3.06,3.24-4A6,6,0,0,1,79.35,44.5Z"/><path class="cls-10" d="M65.1,78.76s-1.77,8.65,1.05,9.87S78.46,92,79,93.74s0,16,0,16l4.51.14S85,93.78,84.82,92.22c-.3-3.59-1.29-4.49-1.29-4.49a6.82,6.82,0,0,1,2.66,4.43c.25,1.38.26,16.25.26,16.25l4.51.13S94.05,88.69,90.6,86s-12.9-6.68-12.9-6.68Z"/><path class="cls-11" d="M75.7,58.4s3.62.84,5.22,3S83.53,68,83.53,68l-3.45,1.1s-.17,2.54-1.77,3.22a16,16,0,0,0,0,7.36s-8.5,2.54-13.71,0l-.43-11.51L61,66.86s1.68-7.36,5.64-8.46A14.82,14.82,0,0,1,75.7,58.4Z"/><path class="cls-8" d="M61.74,67.18l4.41,1.75s-1,4.76-.58,6.58c.52,2.38,6.35,7.29,7.56,7.89l-1.21,1.78s-9.21-3.46-10.3-9A18.47,18.47,0,0,1,61.74,67.18Z"/><path class="cls-15" d="M80.08,69.2h0a.06.06,0,0,1-.06-.06,6.18,6.18,0,0,0-1-2.8.06.06,0,0,1,0-.08.07.07,0,0,1,.09,0,6.16,6.16,0,0,1,1.06,2.86A.06.06,0,0,1,80.08,69.2Z"/><path class="cls-15" d="M71.51,70.62a4.79,4.79,0,0,1-3.17-1.31.06.06,0,0,1,0-.08.05.05,0,0,1,.08,0c2.83,2.43,5.25.63,5.27.61a.06.06,0,0,1,.08,0,.06.06,0,0,1,0,.09A4,4,0,0,1,71.51,70.62Z"/><path class="cls-15" d="M66.74,69.2h0L66.13,69a.06.06,0,0,1,0-.08,0,0,0,0,1,.07,0l.53.19L68,64.85a.06.06,0,0,1,.07,0,.07.07,0,0,1,0,.08l-1.31,4.27a0,0,0,0,1,0,0S66.75,69.2,66.74,69.2Z"/><path class="cls-9" d="M80,52.05s.49-.46.72-.16c.59.74-.38,1.3-.9,1.34Z"/><path class="cls-8" d="M77,44.32a4.57,4.57,0,0,0-5.14,3.19,4.64,4.64,0,0,0-.11,2.15,19.26,19.26,0,0,0,.85,4.13,4.64,4.64,0,0,1,0,3.34l-.17.43a.92.92,0,0,0,.34,1.11,3.28,3.28,0,0,0,2.52.66.89.89,0,0,0,.69-.67l.51-2.14h0c2.87.35,3.74-4.91,4.11-6.44h0c0-.06,0-.12,0-.17A4.57,4.57,0,0,0,77,44.32Z"/><path class="cls-4" d="M75.61,48.77a17.71,17.71,0,0,0-1.92,1.43,5,5,0,0,0-1.64,1.89,5.93,5.93,0,0,1-1-2.57,4.32,4.32,0,0,1-.12-1.29,4.66,4.66,0,0,1,.63-1.71,5.06,5.06,0,0,1,1.39-1.89,4,4,0,0,1,1.45-.56,6.37,6.37,0,0,1,3.59.26,4.63,4.63,0,0,1,2.58,2.45,8.17,8.17,0,0,1,0,4.65A4.69,4.69,0,0,0,80,49.52a4,4,0,0,0-.68-1.11,21.23,21.23,0,0,1-1.6-1.48A5.45,5.45,0,0,1,75.61,48.77Z"/><path class="cls-8" d="M72.82,51.23a.68.68,0,0,0-.27-.39,1.15,1.15,0,0,0-1.25-.19c-.67.42.07,2.13,1.33,1.68C72.63,52.33,73,52.09,72.82,51.23Z"/><path class="cls-10" d="M79.24,51.92a.39.39,0,0,0-.24-.51.4.4,0,1,0-.26.75A.38.38,0,0,0,79.24,51.92Z"/><path class="cls-10" d="M75.5,51.44a.4.4,0,0,0-.25-.51.4.4,0,0,0-.26.76A.41.41,0,0,0,75.5,51.44Z"/><path class="cls-16" d="M77.72,54.52s-.28-.31-.49-.29a.62.62,0,0,0-.37.24.45.45,0,0,0-.31-.31,5.63,5.63,0,0,0-1,0s.44,1.16,1.2,1.11a1,1,0,0,0,.92-.73Z"/><path class="cls-10" d="M77,54.82a2.38,2.38,0,0,1-1.58-.76s0-.05,0-.08a.06.06,0,0,1,.08,0s1.13,1.25,2.25.45a.05.05,0,0,1,.08,0,.06.06,0,0,1,0,.08A1.54,1.54,0,0,1,77,54.82Z"/><path class="cls-4" d="M74.36,50.57a.13.13,0,0,1-.1-.09.17.17,0,0,1,.08-.22,2,2,0,0,1,1.33,0,.17.17,0,0,1,.1.21.17.17,0,0,1-.21.1,1.61,1.61,0,0,0-1.09,0Z"/><path class="cls-4" d="M78.45,50.86a.15.15,0,0,1-.08-.11.16.16,0,0,1,.12-.2,1.92,1.92,0,0,1,1.31.22.17.17,0,0,1,.06.23.15.15,0,0,1-.22.06,1.69,1.69,0,0,0-1.07-.19A.17.17,0,0,1,78.45,50.86Z"/><path class="cls-9" d="M77.06,53.26a1.2,1.2,0,0,1-.4,0,.06.06,0,0,1,0-.07.05.05,0,0,1,.07,0c.55.16.73-.18.76-.27a2.3,2.3,0,0,1-.06-1.46.07.07,0,0,1,.07,0,.07.07,0,0,1,0,.08,2.19,2.19,0,0,0,.07,1.39,0,0,0,0,1,0,0A.62.62,0,0,1,77.06,53.26Z"/><path class="cls-8" d="M71.92,85.18a2.38,2.38,0,0,0,1,.61c.57.19,2.32.5,2.59.62a14.18,14.18,0,0,0,1.78,1c.29,0-1-1.38-1-1.38s1.29,1,1.54.85-1-1.4-1-1.4,1.36.86,1.53.64-1.14-1.08-1.14-1.08,1.3.58,1.44.4S76.9,84,76.06,83.84s-3.53-.52-3.53-.52Z"/><path class="cls-14" d="M79.26,112.49c-.21.78-.4,1.42-.46,1.72-.17.85,7.32,4.65,8,4,.5-.51-.81-2-2-3.51C84.08,115.11,82.34,115.58,79.26,112.49Z"/><path class="cls-8" d="M86.25,66.16A6,6,0,0,1,87.78,64a1.78,1.78,0,0,1,1.53-.36l.94-.59s.54,3-1.71,4.33A12.12,12.12,0,0,1,86.25,66.16Z"/><path class="cls-10" d="M87.57,59.77l3.28,1a.07.07,0,0,1,.05.09L89,67.51a.08.08,0,0,1-.09,0l-3.28-1a.07.07,0,0,1,0-.08l1.92-6.7A.07.07,0,0,1,87.57,59.77Z"/><path class="cls-8" d="M90.65,63.86a.38.38,0,0,0,.28-.11.42.42,0,0,0,0-.58l-.69-.75a.42.42,0,0,0-.61.57l.7.74A.39.39,0,0,0,90.65,63.86Z"/><path class="cls-8" d="M90.38,64.55a.41.41,0,0,0,.28-.11.42.42,0,0,0,0-.59l-.7-.74a.4.4,0,0,0-.58,0,.42.42,0,0,0,0,.58l.69.75A.39.39,0,0,0,90.38,64.55Z"/><path class="cls-8" d="M90.11,65.18a.38.38,0,0,0,.28-.11.42.42,0,0,0,0-.58l-.69-.75a.42.42,0,0,0-.61.57l.7.74A.39.39,0,0,0,90.11,65.18Z"/><path class="cls-8" d="M89.67,65.6a.26.26,0,0,0,.18-.07.27.27,0,0,0,0-.38l-.63-.75a.27.27,0,0,0-.39,0,.28.28,0,0,0,0,.39l.63.75A.26.26,0,0,0,89.67,65.6Z"/><path class="cls-8" d="M114.52,96.79a4.74,4.74,0,0,1,.32-2.09,1.46,1.46,0,0,1,1-.83l.12-.48s1.82,1.66.69,3.46A9.65,9.65,0,0,1,114.52,96.79Z"/><path class="cls-8" d="M119.47,112.27s0,3.11,0,3.15-.23.43-.23.43l-1,.18-.89-.41s.07-2.89,0-3.35S119.47,112.27,119.47,112.27Z"/><path class="cls-4" d="M117.36,115.62a2.53,2.53,0,0,0,2.08-.26s3.75,1.41,3.63,2.48c0,0,.16.32-1.46.26s-4.14-.15-4.21-.18S117,118.05,117.36,115.62Z"/><path class="cls-8" d="M124,112.27s0,3.11,0,3.15-.22.43-.22.43l-1,.18-.89-.41s.08-2.89,0-3.35S124,112.27,124,112.27Z"/><path class="cls-4" d="M121.88,115.62a2.56,2.56,0,0,0,2.09-.26s3.74,1.41,3.63,2.48c0,0,.16.32-1.47.26s-4.14-.15-4.21-.18S121.54,118.05,121.88,115.62Z"/><path class="cls-3" d="M100,92.28s-4.34,1.65-5.47,3.86-1.41,7.43-1.41,7.43H96.6s1.93,7.86,5.13,10.32l9.52-8.52.43-7.29s-2.31-5.44-4.29-5.8A48.05,48.05,0,0,0,100,92.28Z"/><path class="cls-10" d="M106.46,113.89s-1.18,2.58,2.41,2.93c4.89.48,9.55-9.08,9.55-9.08s1.6,5.81,3.48,6.84H124s1.88-2.2.75-6.84-3.11-10.9-6.6-10.61-8.39,13.81-8.39,13.81Z"/><path class="cls-10" d="M115.76,91.2l-11,1s0,0,0,0l.67,7.77a0,0,0,0,0,0,0l11-1a.05.05,0,0,0,0,0l-.67-7.77A0,0,0,0,0,115.76,91.2Z"/><path class="cls-4" d="M101.73,113.89s3.11,3.51,6.69,3,5.28-9.19,5.28-9.19,1.75,5.81,3.64,6.84h2.13s1.67-2.2.54-6.84-3.11-10.9-6.59-10.61S105,110.94,105,110.94Z"/><path class="cls-8" d="M93.85,103.57s.63,5.59,5,5.25c3.14-.25,7.45-8.19,7.45-8.19l-1.56-1.53-5.07,5.48a.82.82,0,0,1-1.38-.33l-.2-.68Z"/><path class="cls-9" d="M106,85.25s.39-.53.67-.3c.69.62-.08,1.31-.57,1.45Z"/><path class="cls-8" d="M106.31,83.22h0c0-.06,0-.12,0-.18a4.47,4.47,0,1,0-8.64,1.36c.81,2.44,1.29,4.12,2.49,5a.76.76,0,0,1,.31.67l-.06,1.13a1.53,1.53,0,0,1-.7,1.21h0c2.4,1.09,3.5.2,3.5.2h0a1.64,1.64,0,0,1-.52-1.3l0-.62a.77.77,0,0,1,.7-.73h0C107.72,89.5,106.23,84.77,106.31,83.22Z"/><path class="cls-14" d="M101.72,85.46a.41.41,0,1,0-.43.38A.41.41,0,0,0,101.72,85.46Z"/><path class="cls-14" d="M105.62,85a.41.41,0,1,0-.43.39A.4.4,0,0,0,105.62,85Z"/><path class="cls-14" d="M98.84,86s1.52-2.83,1.47-4.39l-2.81-.41a5.41,5.41,0,0,0,.59,4.47Z"/><path class="cls-9" d="M103.49,87a.69.69,0,0,1-.26-.07.09.09,0,0,1,0-.12.08.08,0,0,1,.12,0h0a.47.47,0,0,0,.35,0,.51.51,0,0,0,.29-.33s0,0-.1-.12-.57-.4-.64-1.35a.09.09,0,0,1,.08-.1.11.11,0,0,1,.1.09c.06.86.37,1.08.56,1.21s.23.16.16.34a.7.7,0,0,1-.39.43A.66.66,0,0,1,103.49,87Z"/><path class="cls-14" d="M104.26,83.9a.15.15,0,0,1-.12-.07.14.14,0,0,1,.07-.18,1.89,1.89,0,0,1,1.36,0,.14.14,0,0,1,.08.18.13.13,0,0,1-.17.08,1.72,1.72,0,0,0-1.16,0A.07.07,0,0,1,104.26,83.9Z"/><path class="cls-14" d="M100.38,84.67a.12.12,0,0,1-.1,0,.13.13,0,0,1,0-.19,1.87,1.87,0,0,1,1.3-.42.14.14,0,0,1,.12.15.15.15,0,0,1-.15.12,1.7,1.7,0,0,0-1.1.36A.16.16,0,0,1,100.38,84.67Z"/><path class="cls-14" d="M103.22,88.19a3.87,3.87,0,0,1-1.19-.28.1.1,0,0,1,0-.12.09.09,0,0,1,.12-.05c2,.8,2.71-.38,2.74-.43a.09.09,0,0,1,.12,0,.09.09,0,0,1,0,.12A1.92,1.92,0,0,1,103.22,88.19Z"/><path class="cls-8" d="M99,85.74a.63.63,0,0,0-.33-.33,1.12,1.12,0,0,0-1.23,0c-.58.53.45,2,1.58,1.38C99,86.83,99.31,86.53,99,85.74Z"/><path class="cls-14" d="M97.29,80.64A2.25,2.25,0,0,1,97,79.21a.62.62,0,0,1,.68.28,1.78,1.78,0,0,1,.23.75A2,2,0,0,1,99,78.81a5.13,5.13,0,0,1,2-.88,12.16,12.16,0,0,1,3.07.17c.76,0,1.52.18,2.27.23l.43,0c.22,0,.66,0,.63.29a1.22,1.22,0,0,1-.56.89,3.22,3.22,0,0,1-1,.41,1.77,1.77,0,0,1,.56.08,5.46,5.46,0,0,1,.67.26.51.51,0,0,1,.29.25.39.39,0,0,1,0,.21c-.08.65-.86,1.07-1.41,1.24-1.78.53-3.68,0-5.54-.06a8.57,8.57,0,0,1-2.63-.09,2.79,2.79,0,0,1-1.12-.92.19.19,0,0,1,.17-.27A1.71,1.71,0,0,0,97.29,80.64Z"/><path class="cls-14" d="M105.75,82.08a5.8,5.8,0,0,1,.58,1.72,5.08,5.08,0,0,0,0-2.1C106,81.18,105.75,82.08,105.75,82.08Z"/><path class="cls-8" d="M116.63,93.92a.35.35,0,0,0,.16-.18.34.34,0,0,0-.2-.43l-.77-.28a.33.33,0,0,0-.42.2.35.35,0,0,0,.2.43l.77.28A.33.33,0,0,0,116.63,93.92Z"/><path class="cls-8" d="M116.69,94.51a.35.35,0,0,0,.16-.18.32.32,0,0,0-.2-.43l-.76-.28a.34.34,0,0,0-.43.2.35.35,0,0,0,.2.43l.77.28A.33.33,0,0,0,116.69,94.51Z"/><path class="cls-8" d="M116.72,95.07a.28.28,0,0,0,.16-.19.32.32,0,0,0-.19-.42l-.77-.28a.33.33,0,1,0-.23.62l.77.28A.3.3,0,0,0,116.72,95.07Z"/><path class="cls-8" d="M116.56,95.53a.32.32,0,0,0,.11-.12.23.23,0,0,0-.12-.29l-.73-.3a.22.22,0,0,0-.29.12.22.22,0,0,0,.12.29l.73.3A.23.23,0,0,0,116.56,95.53Z"/><path class="cls-8" d="M104.62,99.8a17.1,17.1,0,0,1,.38-2.16c.19-.57,0-1.26.31-1.26s.43,1.14.43,1.14.87-.84,1.09-1.14.78-.73,1-.58-1,1.51-1,1.51,1.12-1,1.36-1-1,1.64-1,1.64a9.76,9.76,0,0,1,1.31-1.19c.17,0,.2.2-.11.72a5.78,5.78,0,0,1-.74,1,12.34,12.34,0,0,1,1-.82c.14-.06.37,0-.16.68s-1.68,2.38-3.19,2.75Z"/><rect class="cls-3" x="29.37" y="27.75" width="0.91" height="73.1"/><rect class="cls-2" x="14.41" y="21.94" width="30.83" height="10.53"/><path class="cls-3" d="M33.68,33a.44.44,0,0,0-.44-.44.45.45,0,0,0,0,.89A.45.45,0,0,0,33.68,33Z"/><path class="cls-3" d="M33.68,34a.44.44,0,0,0-.44-.44.43.43,0,0,0-.44.44.44.44,0,0,0,.44.44A.44.44,0,0,0,33.68,34Z"/><path class="cls-3" d="M33.68,35a.45.45,0,0,0-.44-.45.45.45,0,1,0,.44.45Z"/><path class="cls-3" d="M33.68,36a.44.44,0,0,0-.44-.44.45.45,0,0,0,0,.89A.45.45,0,0,0,33.68,36Z"/><path class="cls-3" d="M33.68,37a.44.44,0,0,0-.44-.44.45.45,0,0,0,0,.89A.45.45,0,0,0,33.68,37Z"/><path class="cls-3" d="M33.68,37.93a.45.45,0,0,0-.44-.45.45.45,0,1,0,.44.45Z"/><path class="cls-3" d="M33.68,38.91a.45.45,0,0,0-.44-.45.45.45,0,1,0,.44.45Z"/><path class="cls-3" d="M33.68,39.88a.44.44,0,0,0-.44-.44.45.45,0,0,0,0,.89A.45.45,0,0,0,33.68,39.88Z"/><ellipse class="cls-3" cx="63.69" cy="25.49" rx="8.29" ry="8.34"/><ellipse class="cls-11" cx="63.53" cy="25.43" rx="6.6" ry="6.63"/><path class="cls-17" d="M64.26,25.36a.74.74,0,0,0-1.48,0,.74.74,0,1,0,1.48,0Z"/><path class="cls-17" d="M63.52,25.51h-.15a.14.14,0,0,1-.14-.15.14.14,0,0,1,.14-.14h0V20.64l-.18.27a.16.16,0,0,1-.2,0,.15.15,0,0,1,0-.21l.45-.66a.14.14,0,0,1,.16,0,.13.13,0,0,1,.11.14v5.19A.15.15,0,0,1,63.52,25.51Z"/><path class="cls-17" d="M64,20.93a.16.16,0,0,1-.12-.06l-.49-.61a.15.15,0,0,1,0-.21.14.14,0,0,1,.2,0l.5.62a.16.16,0,0,1,0,.21A.16.16,0,0,1,64,20.93Z"/><path class="cls-17" d="M60.87,26a.16.16,0,0,1-.11,0l-.43-.45a.12.12,0,0,1,0-.16.14.14,0,0,1,.13-.09h3.44a.15.15,0,0,1,.15.15v.14a.15.15,0,1,1-.3,0H60.78l.19.2A.15.15,0,0,1,61,26,.21.21,0,0,1,60.87,26Z"/><path class="cls-17" d="M60.43,25.53a.16.16,0,0,1-.09,0,.15.15,0,0,1,0-.21l.4-.5A.15.15,0,1,1,61,25l-.41.5A.12.12,0,0,1,60.43,25.53Z"/><rect class="cls-3" x="22.25" y="85.12" width="25.17" height="28.88"/><rect class="cls-2" x="19.41" y="82.99" width="30.56" height="3.09"/><rect class="cls-2" x="23.83" y="88.71" width="21.5" height="9.64"/><rect class="cls-2" x="23.83" y="100.06" width="21.5" height="9.64"/><rect class="cls-3" x="32.14" y="89.62" width="4.72" height="0.98"/><rect class="cls-3" x="32.14" y="100.99" width="4.72" height="0.98"/><path class="cls-12" d="M31.72,76.29H18.92v.37h6.56a1.2,1.2,0,0,1,1.2,1.2h0a1.2,1.2,0,0,1-1.2,1.21H18.92v.34h12.8a1.56,1.56,0,0,0,1.55-1.56h0A1.56,1.56,0,0,0,31.72,76.29Z"/><path class="cls-18" d="M27.27,77.85h0a1.56,1.56,0,0,0-1.56-1.56H18.92v.37h6.56a1.2,1.2,0,0,1,1.2,1.2h0a1.2,1.2,0,0,1-1.2,1.21H18.92v.34h6.79A1.56,1.56,0,0,0,27.27,77.85Z"/><path class="cls-11" d="M25.48,76.66H18.92A1.2,1.2,0,0,1,20,77.86h0a1.2,1.2,0,0,1-1.06,1.2h6.56a1.2,1.2,0,0,0,1.2-1.21h0A1.2,1.2,0,0,0,25.48,76.66Z"/><path class="cls-19" d="M26.68,77.85a1.2,1.2,0,0,0-1.2-1.2H18.92a1.19,1.19,0,0,1,.77.42c1.31-.11,5.23-.23,5.64,2h.15A1.19,1.19,0,0,0,26.68,77.85Z"/><path class="cls-17" d="M21,79.41H34.4v.43H27.52a1.32,1.32,0,0,0-1.25,1.38h0a1.32,1.32,0,0,0,1.25,1.38H34.4V83H21a1.71,1.71,0,0,1-1.63-1.79h0A1.72,1.72,0,0,1,21,79.41Z"/><path class="cls-20" d="M25.66,81.21h0a1.72,1.72,0,0,1,1.62-1.8H34.4v.43H27.52a1.32,1.32,0,0,0-1.25,1.38h0a1.32,1.32,0,0,0,1.25,1.38H34.4V83H27.28A1.71,1.71,0,0,1,25.66,81.21Z"/><path class="cls-11" d="M27.52,79.84H34.4a1.34,1.34,0,0,0-1.11,1.37h0A1.35,1.35,0,0,0,34.4,82.6H27.52a1.32,1.32,0,0,1-1.25-1.39h0A1.32,1.32,0,0,1,27.52,79.84Z"/><path class="cls-19" d="M26.27,81.21a1.32,1.32,0,0,1,1.25-1.38H34.4a1.21,1.21,0,0,0-.81.47c-1.37-.12-5.48-.26-5.91,2.28h-.16A1.32,1.32,0,0,1,26.27,81.21Z"/><path class="cls-11" d="M14.92,63.53a2.91,2.91,0,0,0,.56.6l1.33,1.16A3,3,0,0,1,18,66.92a6.59,6.59,0,0,0,.08,1.48,1.57,1.57,0,0,0,1.26.82c.52.07,1.05,0,1.56.08a1.51,1.51,0,0,1,1.31,1c.09.28.07.57.45.55a.77.77,0,0,0,.61-.59A1.51,1.51,0,0,0,23,69.11c-.22-.34-.5-.62-.74-1a3.58,3.58,0,0,1-.65-1.9c0-.86.22-1.8-.24-2.52a3,3,0,0,0-1.18-.93c-.86-.46-1.8-1-2-2a2.52,2.52,0,0,0-.27-1.17,1.15,1.15,0,0,0-.85-.38.78.78,0,0,0-.78.26c-.14.22-.05.51-.07.78C16.16,61,15.35,61.38,15,62A1.51,1.51,0,0,0,14.92,63.53Zm1.18-1a.75.75,0,0,1,.81-.33.63.63,0,0,1,.27.16,1.87,1.87,0,0,1,.25.41,1.19,1.19,0,0,0,.5.47,2.27,2.27,0,0,0,.93.18c.5,0,1.48.16,1.46.88,0,.42-.43.53-.78.55a3.42,3.42,0,0,1-1.43-.41c-.62-.25-1.36-.3-1.83-.83A1,1,0,0,1,16.1,62.5Z"/><rect class="cls-5" x="19.96" y="70.33" width="4.91" height="5.96" transform="translate(44.82 146.61) rotate(180)"/><path class="cls-5" d="M18.42,74.84h1.9a.34.34,0,1,0,0-.68H18.76V71.9h1.38a.34.34,0,0,0,0-.68H18.42a.34.34,0,0,0-.34.34V74.5A.34.34,0,0,0,18.42,74.84Z"/><path class="cls-11" d="M145.72,38.92H127.18a1.65,1.65,0,0,0-1.65,1.66v8.24a1.65,1.65,0,0,0,1.65,1.66H129v3.2l2-3.2h14.76a1.65,1.65,0,0,0,1.65-1.66V40.58A1.65,1.65,0,0,0,145.72,38.92Z"/><path class="cls-2" d="M131,43.51a1.89,1.89,0,1,0-1.89,1.9A1.9,1.9,0,0,0,131,43.51Z"/><rect class="cls-2" x="133.01" y="41.61" width="5.9" height="0.5" rx="0.25"/><rect class="cls-2" x="133.01" y="43.37" width="12.72" height="0.5" rx="0.25"/><rect class="cls-2" x="133.01" y="44.7" width="9.79" height="0.5" rx="0.25"/><path class="cls-2" d="M131.41,48.44a.6.6,0,1,0-.6.6A.6.6,0,0,0,131.41,48.44Z"/><circle class="cls-2" cx="134.51" cy="48.44" r="0.59"/><path class="cls-2" d="M137.91,49a.6.6,0,0,0,0-1.2.6.6,0,1,0,0,1.2Z"/><path class="cls-11" d="M103.34,36H84.8a1.66,1.66,0,0,0-1.65,1.66v8.24a1.65,1.65,0,0,0,1.65,1.66h1.81v3.2l2-3.2h14.77A1.65,1.65,0,0,0,105,45.89V37.65A1.66,1.66,0,0,0,103.34,36Z"/><path class="cls-2" d="M88.62,40.58a1.9,1.9,0,1,0-1.89,1.9A1.9,1.9,0,0,0,88.62,40.58Z"/><rect class="cls-2" x="90.63" y="38.68" width="5.9" height="0.5" rx="0.25"/><rect class="cls-2" x="90.63" y="40.45" width="12.72" height="0.5" rx="0.25"/><rect class="cls-2" x="90.63" y="41.78" width="9.79" height="0.5" rx="0.25"/><path class="cls-2" d="M89,45.51a.59.59,0,1,0-1.18,0,.59.59,0,1,0,1.18,0Z"/><circle class="cls-2" cx="92.12" cy="45.51" r="0.59"/><path class="cls-2" d="M95.52,46.11a.6.6,0,0,0,.6-.6.59.59,0,0,0-.6-.59.58.58,0,0,0-.59.59A.59.59,0,0,0,95.52,46.11Z"/><path class="cls-5" d="M60.37,41.31H56.76a1.36,1.36,0,0,0-1.36,1.37v3.63a1.37,1.37,0,0,0,1.36,1.37h.91a.41.41,0,0,1,.39.29l.51,1.75L59.11,48a.41.41,0,0,1,.39-.28h.87a1.37,1.37,0,0,0,1.36-1.37V42.68A1.36,1.36,0,0,0,60.37,41.31Z"/><path class="cls-11" d="M60.45,43.49c-.83-1.08-1.93.25-1.93.25s-1.09-1.33-1.92-.25,1.92,3.16,1.92,3.16S61.28,44.57,60.45,43.49Z"/><path class="cls-5" d="M126.4,26h-3.62a1.37,1.37,0,0,0-1.36,1.37V31a1.36,1.36,0,0,0,1.36,1.36h.92a.41.41,0,0,1,.39.3l.5,1.75.55-1.76a.41.41,0,0,1,.39-.29h.87A1.36,1.36,0,0,0,127.76,31V27.35A1.37,1.37,0,0,0,126.4,26Z"/><path class="cls-11" d="M126.48,28.17c-.83-1.08-1.93.24-1.93.24s-1.1-1.32-1.93-.24,1.93,3.16,1.93,3.16S127.31,29.25,126.48,28.17Z"/><path class="cls-4" d="M96.92,68.49H93.31A1.37,1.37,0,0,0,92,69.86v3.63a1.36,1.36,0,0,0,1.36,1.37h.92a.39.39,0,0,1,.38.3l.51,1.75.55-1.76a.4.4,0,0,1,.38-.29h.87a1.36,1.36,0,0,0,1.36-1.37V69.86A1.36,1.36,0,0,0,96.92,68.49Z"/><path class="cls-11" d="M97.1,70.54a1,1,0,1,0-1,1A1,1,0,0,0,97.1,70.54Z"/><path class="cls-11" d="M94.71,73.07h2.81a1.43,1.43,0,0,0-2.81,0Z"/><path class="cls-11" d="M93.66,70.66v.64h.62v.17h-.62v.65h-.18v-.65h-.61V71.3h.61v-.64Z"/><path class="cls-4" d="M145.8,55.83h-3.62a1.36,1.36,0,0,0-1.36,1.37v3.63a1.37,1.37,0,0,0,1.36,1.37h.92a.41.41,0,0,1,.39.29l.5,1.75.55-1.76a.4.4,0,0,1,.39-.28h.87a1.37,1.37,0,0,0,1.36-1.37V57.2A1.36,1.36,0,0,0,145.8,55.83Z"/><path class="cls-11" d="M146,57.88a1,1,0,1,0-1,1A1,1,0,0,0,146,57.88Z"/><path class="cls-11" d="M143.58,60.41h2.81a1.43,1.43,0,0,0-2.81,0Z"/><path class="cls-11" d="M142.53,58v.65h.62v.16h-.62v.65h-.17V58.8h-.62v-.16h.62V58Z"/><ellipse class="cls-11" cx="108.03" cy="27.56" rx="3.25" ry="3.26"/><path class="cls-11" d="M113.85,24.05a1.08,1.08,0,0,1-.74-.3,7.28,7.28,0,0,0-5.25-2.33,7.59,7.59,0,0,0-4.75,2.27,1.09,1.09,0,0,1-1.53.08,1.1,1.1,0,0,1-.08-1.54,9.67,9.67,0,0,1,6.25-3,9.29,9.29,0,0,1,6.84,2.92,1.09,1.09,0,0,1-.74,1.88Z"/><path class="cls-11" d="M117.22,19.33a1.05,1.05,0,0,1-.74-.29c-2.84-2.69-5.79-4-8.78-3.87a12.71,12.71,0,0,0-8,3.8,1.06,1.06,0,0,1-1.52.08,1.09,1.09,0,0,1-.09-1.53A14.59,14.59,0,0,1,107.59,13c3.6-.15,7.09,1.35,10.37,4.45A1.09,1.09,0,0,1,118,19,1.08,1.08,0,0,1,117.22,19.33Z"/><path class="cls-11" d="M120.77,14.74a1.08,1.08,0,0,1-.75-.3c-4-3.81-8.22-5.65-12.49-5.48-6.63.27-11.29,5.37-11.33,5.42a1.08,1.08,0,0,1-1.53.08,1.09,1.09,0,0,1-.08-1.54c.21-.23,5.28-5.81,12.83-6.13,4.88-.21,9.62,1.84,14.09,6.07a1.11,1.11,0,0,1,0,1.54A1.13,1.13,0,0,1,120.77,14.74Z"/></g></g></svg>