<svg xmlns="http://www.w3.org/2000/svg" viewBox="0 0 219 166"><defs><style>.cls-1{fill:#e2e8f4;fill-rule:evenodd;}.cls-2{fill:#dde8fe;}.cls-3{fill:#a7c0e8;}.cls-4{fill:#7c9af2;}.cls-5{fill:#050634;}.cls-6{fill:#92b5f9;}.cls-7{fill:#bacaee;}</style></defs><title>pic_banner</title><g id="Layer_2" data-name="Layer 2"><g id="Layer_1-2" data-name="Layer 1"><path class="cls-1" d="M0,166a109.5,109.5,0,1,1,219,0"/><path class="cls-2" d="M175.93,83.42c3.49,3.07,7.21,6.06,11.58,7.86-5.17-.44-10.21-1.91-15.27-3.07C173.47,86.61,174.71,85,175.93,83.42Z"/><path class="cls-3" d="M134,74.45c4.61-.34,9.61-1.35,14,1.07,3.69,1.75,5.81,5.33,7,8.92a29.25,29.25,0,0,1-.4,4.77c-2.23-1.8-5.18-3-8-2.48a8.65,8.65,0,0,0-6.24,4.7C138.67,85.65,136.91,79.85,134,74.45Z"/><path class="cls-4" d="M58.28,1.89Q76.73,34.11,95.16,66.36c-12-4.4-24.09-8.77-36.11-13.2A4,4,0,0,0,55.86,53a85.69,85.69,0,0,0,8.81,3.47c10,3.68,20.1,7.32,30.14,11,1.36.32,1.92,1.63,2.56,2.68,6.36,11.35,13,22.56,19.3,33.95a76.25,76.25,0,0,0-15.46-8.62C88.11,90,73.91,88.36,60,87.87c-5-19.53-5.68-39.66-4.6-59.41A259.36,259.36,0,0,1,58.28,1.89Z"/><path class="cls-4" d="M27.3,90.47C32.77,92,37.81,94.69,43,96.89c11.11,4.68,22.07,9.68,33.21,14.28-.08.25-.26.75-.34,1a27.7,27.7,0,0,1,7.75,2.26c9.53,4.22,19.12,8.3,28.68,12.45a8.45,8.45,0,0,0,2.94,9.67,55.1,55.1,0,0,0,13.14,6.15,64.66,64.66,0,0,1-7.25,4.14,41.32,41.32,0,0,1-27.9,1.57c-13.84-3.88-25.61-12.72-35.91-22.25A204.51,204.51,0,0,1,27.3,90.47Z"/><path class="cls-5" d="M58.28,0a8.85,8.85,0,0,1,1.43,1.9C76.85,32.08,94.19,62.18,111.4,92.34c.16-11.64-.12-23.3-.18-34.95.1-.87-.37-2.36,1.11-2,.37,12.73.2,25.46.42,38.19A7.23,7.23,0,0,0,114,96.94c1.91,3.29,3.86,6.55,5.61,9.91-1-.92-2-1.83-2.94-2.78-6.29-11.39-12.94-22.6-19.3-33.95-.64-1.05-1.2-2.36-2.56-2.68-10-3.68-20.1-7.32-30.14-11A85.69,85.69,0,0,1,55.86,53a4,4,0,0,1,3.19.19c12,4.43,24.07,8.8,36.11,13.2Q76.77,34.1,58.28,1.89C57.66,1.16,57.65.52,58.28,0Z"/><path class="cls-4" d="M185.8,71.4c-2.87,3.36-5.66,6.78-8.43,10.21a47.87,47.87,0,0,1,10.19-1.83A6.59,6.59,0,0,1,192,81a5.68,5.68,0,0,1,1.3,8.07c-1.14,1.57-3.21,2.08-5.13,2.3l-.65-.11c-4.37-1.8-8.09-4.79-11.58-7.86-1.22,1.6-2.46,3.19-3.69,4.79a82.65,82.65,0,0,0-5.1,7c4.06-1.47,8.17-3.08,12.6-3.41,4-.3,7.74,3.3,7.53,7.08,0,4.06-4.46,7.28-8.59,5.94-4.87-1.63-9.21-4.51-13.29-7.53q-4.56,6.19-9,12.48c5.35-1.46,10.82-2.92,16.5-2.92a8.85,8.85,0,0,1,8.5,7.26,7.83,7.83,0,0,1-6.53,8.88c-2.78.62-5.57-.69-8-2.09A64.25,64.25,0,0,1,155,111.78c-3.16,4.34-6.16,8.78-9.21,13.2,5.49-1.5,11.11-3,16.93-2.86,5.15.27,9.18,5.67,7.82,10.3-1,4.59-6.74,7.34-11.32,5.23a57.85,57.85,0,0,1-14.85-10.53C141,132,137.67,137,134.4,142c5.2-2.06,10.49-4.3,16.23-4.79,5.25-.35,10,4.84,9,9.7-.57,4.53-5.77,7.72-10.43,6.23a58.1,58.1,0,0,1-15.4-8.27c-1.56-1.21-3.57-1.51-5.4-2.13a55.1,55.1,0,0,1-13.14-6.15,8.45,8.45,0,0,1-2.94-9.67,8.62,8.62,0,0,1,8.47-4.72,9,9,0,0,1,7.14,4.64,57.56,57.56,0,0,1,4.75,12.28c.23,1,.44,1.93.67,2.9,3.32-5.13,6.75-10.19,10.16-15.25-1.3-1-2.59-2-3.83-3-3.48-3.11-7-6.29-9.51-10.2a7.74,7.74,0,0,1,3.65-11c2.44-1.15,5.36-.76,7.87.28,2,1.39,3.88,3.29,4.3,5.69.91,5.06.11,10.13-.38,15.13q4.2-6.16,8.51-12.26a66,66,0,0,1-12-11.31,8.84,8.84,0,0,1-1.78-8.66,8.65,8.65,0,0,1,6.24-4.7c2.87-.57,5.82.68,8,2.48a10.38,10.38,0,0,1,2.27,5c.6,4.7,0,9.39-.54,14,2.78-3.69,5.43-7.46,8.16-11.18a58.19,58.19,0,0,1-8.17-11.73c-1.34-3.29-.12-7.36,3.33-8.73,4-1.91,9.59,1.06,10,5.42.24,3.76-1.27,7.29-2.23,10.83,2.64-3.25,5.21-6.55,7.75-9.86a38.92,38.92,0,0,1-6.9-10.88,5.46,5.46,0,0,1,4.17-7.19c3.38-.8,7.25,1.85,7.49,5.23.07,3.55-1.51,6.79-2.6,10.07,2.63-3.14,5.21-6.32,7.84-9.45A26.54,26.54,0,0,1,181,62.55,3.84,3.84,0,0,1,184.69,58,4.41,4.41,0,0,1,189.42,62c-.16,2.15-1.22,4.09-1.95,6.08,2.11-2.3,4.21-4.62,6.36-6.89-1.55-2.5-3.24-5-3.86-7.88A3.8,3.8,0,0,1,193.43,49a4.38,4.38,0,0,1,4.82,3.82c-.05,2-1,3.82-1.68,5.67q2-2,4.18-3.85c3.22-2.38,3.24-7,6.43-9.39a4.31,4.31,0,0,1,5.93,1.46,3.67,3.67,0,0,1-1.24,5.07c-2.64,1.46-5.85,1.38-8.74,2.16-2.88,1.8-5,4.45-7.52,6.7,3.29-.54,7-2.26,10.23-.46,3.4,2.15,1.43,7.64-2.54,7.14-3.47-.79-6.1-3.42-8.74-5.6-2.45,2.58-4.84,5.21-7.2,7.87,3.17-.45,6.94-2.13,9.85.13"/><path class="cls-6" d="M59.71,1.9C65.64,5.1,71,9.22,76.53,13c19.08,13.88,37.34,29.63,50.29,49.05.27.42.55.84.82,1.27a89.63,89.63,0,0,1,6.4,11.1c2.87,5.4,4.63,11.2,6.27,17a8.84,8.84,0,0,0,1.78,8.66l-.39,2.75c-2.51-1-5.43-1.43-7.87-.28a7.74,7.74,0,0,0-3.65,11c2.48,3.91,6,7.09,9.51,10.2-1.11,2.79-2.31,5.56-3.57,8.29-1.12,2.36-1.37,5.19-3.43,7a57.56,57.56,0,0,0-4.75-12.28,9,9,0,0,0-7.14-4.64,8.62,8.62,0,0,0-8.47,4.72c-9.56-4.15-19.15-8.23-28.68-12.45a27.7,27.7,0,0,0-7.75-2.26c.08-.24.26-.74.34-1-11.14-4.6-22.1-9.6-33.21-14.28C37.81,94.69,32.77,92,27.3,90.47l-.54-.17a7.13,7.13,0,0,1,1.91-.68A247.5,247.5,0,0,1,60,87.87c13.93.49,28.13,2.17,41.23,7.58a76.25,76.25,0,0,1,15.46,8.62c1,1,1.94,1.86,2.94,2.78-1.75-3.36-3.7-6.62-5.61-9.91a7.23,7.23,0,0,1-1.25-3.37c-.22-12.73,0-25.46-.42-38.19-1.48-.35-1,1.14-1.11,2,.06,11.65.34,23.31.18,35C94.19,62.18,76.85,32.08,59.71,1.9Z"/><path class="cls-7" d="M155,84.44l1.32.84A58.19,58.19,0,0,0,164.49,97c-2.73,3.72-5.38,7.49-8.16,11.18.53-4.64,1.14-9.33.54-14a10.38,10.38,0,0,0-2.27-5A29.25,29.25,0,0,0,155,84.44Z"/><path class="cls-7" d="M142.09,100.09a66,66,0,0,0,12,11.31q-4.31,6.1-8.51,12.26c.49-5,1.29-10.07.38-15.13-.42-2.4-2.28-4.3-4.3-5.69Z"/><path class="cls-7" d="M139.69,123.73c1.24,1,2.53,2,3.83,3-3.41,5.06-6.84,10.12-10.16,15.25-.23-1-.44-1.94-.67-2.9,2.06-1.86,2.31-4.69,3.43-7C137.38,129.29,138.58,126.52,139.69,123.73Z"/></g></g></svg>