<svg width="1033" height="973" viewBox="0 0 1033 973" fill="none" xmlns="http://www.w3.org/2000/svg">
<path d="M752.065 799.354C890.006 752.81 947.132 730.323 1015.4 614.039C1017.35 610.54 1018.86 606.817 1019.9 602.953C1077.55 364.917 931.25 198.492 758.229 175.179C745.964 173.53 734.577 167.903 725.817 159.161C710.058 143.431 689.96 132.765 668.099 128.53C646.239 124.296 623.612 126.685 603.118 135.393C602.974 135.475 602.808 135.518 602.648 135.59C578.735 145.872 550.839 138.687 535.431 117.734C506.493 78.3819 471.893 44.7717 418.434 15.2373C415.98 14.0594 413.455 13.0367 410.873 12.1752C120.862 -57.494 -56.5358 197.866 32.5941 407.877L33.0582 408.956C40.752 426.97 44.518 446.417 44.1054 466.001C43.6928 485.585 39.111 504.856 30.6654 522.53C-35.2184 661.257 0.437634 846.762 187.299 956.354C190.783 958.398 194.547 959.922 198.472 960.875C329.513 992.529 353.772 956.399 514.634 900.134" fill="#DDE8FE"/>
</svg>
