<svg xmlns="http://www.w3.org/2000/svg" viewBox="0 0 974 701"><defs><style>.cls-1{fill:#dde8fe;}.cls-2,.cls-3{fill:#bacaee;}.cls-3{fill-rule:evenodd;}.cls-4{fill:#4250f0;}.cls-5{fill:#010131;}.cls-6{fill:#fff;}.cls-7{fill:#050634;}.cls-8{fill:#fb9392;}.cls-9{fill:#ea7677;}.cls-10{fill:#ee7171;}.cls-11{fill:#0b0754;}.cls-12{fill:#060634;}.cls-13{fill:#ea6868;}.cls-14{fill:#191880;}.cls-15{fill:#f17978;}.cls-16{fill:#fa7167;}.cls-17{fill:#ee7272;}.cls-18{fill:#ee7b7a;}.cls-19{fill:#fdf3f3;}.cls-20{fill:#ef7c7c;}.cls-21{fill:#4851ec;}.cls-22{fill:#f07777;}.cls-23{fill:#fa7267;}.cls-24{fill:#7c9af2;}.cls-25{fill:#17152b;}.cls-26{fill:#6a86cf;}.cls-27{fill:#1f1b29;}</style></defs><title>pic_banner_main</title><g id="Layer_2" data-name="Layer 2"><g id="Layer_1-2" data-name="Layer 1"><path class="cls-1" d="M849.52,401.72c-3.73-85.21-53.36-158.53-124.81-195.93A243.74,243.74,0,0,1,654.17,150a233.36,233.36,0,0,0-355.72,4.84c-26.82,32.46-62.07,56.83-101.45,71.82C110.73,259.5,49.71,343.43,51.06,441.4c1.69,122.9,102.17,222.4,225.27,223.14l331-19.91C743.31,649.94,855.47,537.42,849.52,401.72Z"/><ellipse class="cls-2" cx="883.47" cy="666.11" rx="76.88" ry="11.85"/><ellipse class="cls-2" cx="769.12" cy="666.11" rx="47.76" ry="5.93"/><path class="cls-3" d="M398.41,617.08c140.23,0,253.91,18.79,253.91,42s-113.68,42-253.91,42S144.5,682.21,144.5,659,258.18,617.08,398.41,617.08Z"/><path class="cls-4" d="M603.78,439.9v58.34s-28.91-7.57-28.91-32.51S603.78,439.9,603.78,439.9Z"/><path class="cls-5" d="M602.3,497.6a39.81,39.81,0,0,1-13-30.15c0-15.32,7.23-23.26,14.46-27.37v58S603.23,497.91,602.3,497.6Z"/><ellipse class="cls-4" cx="528.17" cy="555.46" rx="124.97" ry="96.2"/><path class="cls-4" d="M652.76,533.19h21.73a0,0,0,0,1,0,0V588a0,0,0,0,1,0,0H652.76a7.63,7.63,0,0,1-7.63-7.63V540.82A7.63,7.63,0,0,1,652.76,533.19Z" transform="translate(1319.63 1121.16) rotate(180)"/><path class="cls-5" d="M664.71,559.24c0-6.76,1-12.24,2.22-12.24s2.22,5.48,2.22,12.24-1,12.25-2.22,12.25S664.71,566,664.71,559.24Z"/><path class="cls-5" d="M611.56,544a7.9,7.9,0,1,1,7.89,7.91A7.9,7.9,0,0,1,611.56,544Z"/><path class="cls-4" d="M570.87,441v58.34S542,491.77,542,466.83,570.87,441,570.87,441Z"/><path class="cls-5" d="M569.39,498.71a39.85,39.85,0,0,1-13-30.16c0-15.32,7.23-23.26,14.46-27.36v58S570.32,499,569.39,498.71Z"/><path class="cls-5" d="M488.15,473.14h.06c28.07-6.37,43.74-2.71,43.9-2.67a.29.29,0,0,0,.35-.22.28.28,0,0,0-.21-.35c-.16,0-16-3.73-44.17,2.67a.28.28,0,0,0-.22.35A.29.29,0,0,0,488.15,473.14Z"/><rect class="cls-4" x="572.31" y="624.38" width="39.25" height="39.3" transform="translate(1183.87 1288.06) rotate(180)"/><rect class="cls-4" x="446.01" y="624.38" width="39.25" height="39.3" transform="translate(931.26 1288.06) rotate(180)"/><path class="cls-4" d="M397.29,530.3a3.86,3.86,0,0,0,.58,0c3.3-.36,5.55-3.35,6.31-6.15a21.78,21.78,0,0,0,.08-8.47l.66.19c1.61.48,4.53,1.71,6,4.42a16.37,16.37,0,0,1,1.17,3.48c.5,2,1,4.06,2.69,5.38a.44.44,0,0,0,.55-.69c-1.43-1.14-1.9-3-2.39-4.91a16.7,16.7,0,0,0-1.24-3.67,10.58,10.58,0,0,0-6.49-4.86c-.35-.11-.7-.2-1.05-.28a7,7,0,0,0-.56-2.05c-1.11-2.3-3.81-3-6.55-3.46l-11.91-1.92a.44.44,0,1,0-.14.87l11.91,1.92c2.51.4,5,1,5.9,3a5.51,5.51,0,0,1,.43,1.48,12.22,12.22,0,0,0-7.82,1.19,8.91,8.91,0,0,0-4.69,8.47A7,7,0,0,0,397.29,530.3Zm6-14.86c.36,2.68.74,5.69,0,8.44-.66,2.43-2.68,5.19-5.56,5.51s-5.83-2.22-6.19-5.31a8,8,0,0,1,4.23-7.6A11.47,11.47,0,0,1,403.34,515.44Z"/><path class="cls-6" d="M215.24,126.46c9-1.52,15.95,5.16,22.33,10.42,6.65,5.81,16,3.81,23.62,1.32s16.58-3.73,23.22,1.47c5.95,5.57,2,14.19,2.8,21.19,2.06,5.66,8.39,9.51,8.25,16-.24,3.83-4.43,4.65-7.35,5.61-8.39,1.91-17.07.9-25.59.7-17.14-1.16-34.16,2-51.27,2.39-19.72.74-39.83,1-59-4.24-5-1.52-11-4-12.47-9.59-1.06-4.13,2.2-7.82,5.68-9.5,8.82-3.45,18.61,1.9,27.36-1.78,7.76-3.91,12.23-11.76,17.71-18.15C196.8,134.64,204.9,127.33,215.24,126.46Z"/><path class="cls-6" d="M687.71,179.41c15.66-2,32.63-1.37,46.63,6.73,5.8,3.3,7.54,10.75,13.21,14.1,9.46,2.6,19.27-2.49,28.79,0,4.62,1.5,9.35,4.46,11.27,9.12,2.34,7.13-2.93,14.91-9.85,16.72-14.59,3.83-29.79-.91-44.46,2.17-15.33,3-28.55,13-44.33,14.27-18.37,1.92-36.56-2.68-54.64-5.23-14.56-2.61-31.2-3.3-42.2-14.61-10-9.71-10.13-28.44,2-36.56,14.48-9.33,32.58-5.64,48.7-4.48C657.79,183.68,672.83,181.49,687.71,179.41Z"/><path class="cls-6" d="M128.42,364c12.86-1.81,25.62,2.35,38.5,1.22,13.8-1.15,27.83-4.46,41.58-1.11,6.21,1.5,12,4.9,15.46,10.41,3.51,6.49,11.61,3.52,17.48,3.38,6.35-1,14.57,2.21,15.42,9.35a11.35,11.35,0,0,1-8.32,9.54c-10.61,2.36-21.62-.74-32.23,1.67-9.5,2.09-17.72,7.93-27.34,9.56-13,2.58-26.13-.74-39-2.58-10-1.7-20.61-2.43-29.67-7.46-8.56-4.8-13.06-17.07-7.31-25.63C116.2,367,122.55,364.84,128.42,364Z"/><path class="cls-6" d="M798.17,1.36C811-.46,823.8,3.7,836.67,2.57c13.8-1.15,27.84-4.46,41.59-1.11,6.21,1.5,12,4.9,15.46,10.41,3.51,6.49,11.61,3.52,17.48,3.38,6.35-1,14.57,2.21,15.42,9.35a11.36,11.36,0,0,1-8.32,9.54c-10.61,2.36-21.62-.74-32.23,1.67-9.5,2.09-17.72,7.93-27.34,9.56-13,2.58-26.13-.74-39-2.58-10-1.7-20.61-2.43-29.67-7.46-8.56-4.8-13.06-17.07-7.32-25.63C786,4.31,792.31,2.19,798.17,1.36Z"/><path class="cls-6" d="M5.22,54.24a35.79,35.79,0,0,1,24.4-9.32c22.35-.32,44,10.32,66.48,5.73a19.72,19.72,0,0,1-1.89,20C88.31,79.86,75.78,81.52,66,78.51c-7.83-1.83-13.45-8.82-21.51-9.87-10.8-.74-20,7.09-30.72,6.84C8.17,75.64,3.65,71.4.73,67-1.51,62.28,1.83,57.36,5.22,54.24Z"/><path class="cls-6" d="M665,345a35.79,35.79,0,0,1,24.4-9.32c22.36-.32,44,10.32,66.49,5.73a19.75,19.75,0,0,1-1.9,20c-5.9,9.23-18.43,10.89-28.19,7.88-7.83-1.83-13.44-8.82-21.51-9.87-10.79-.74-20,7.09-30.72,6.84-5.62.16-10.13-4.08-13.06-8.46C658.25,353,661.59,348.08,665,345Z"/><path class="cls-6" d="M405.45,169.8c4.37,1.94,8.73,4,13.49,4.9-2.94,2.28-7.28,2.83-10.38.57C406.65,174.07,406.09,171.78,405.45,169.8Z"/><path class="cls-6" d="M428.68,192.48c5.28.9,10.88-.24,15.95,1.67a60.58,60.58,0,0,0,7.08,15.11c-2.23,1.31-4.72,2.06-7,3.3-.77,7.68,1,15.38.41,23.08-.33.2-1,.59-1.36.78-10.1-.06-20.19,0-30.27-.32a52.67,52.67,0,0,1,3.13-5.58c3.17,0,7-.91,8.06-4.37.87-1.87-1-3.13-2-4.33,2.35-4.63,4.88-9.17,7.53-13.63C432.12,203.08,430.63,197.38,428.68,192.48Z"/><path class="cls-6" d="M383.8,228.76c4.65,1,9.33,2,13.87,3.52A8.3,8.3,0,0,1,386.06,235C383.65,233.84,383.75,231,383.8,228.76Z"/><path class="cls-6" d="M281.37,277.58l2,.14c2.37,2,5.3,4.29,4.93,7.79-.68,7.39-6,13.13-10.68,18.51C278.73,295.19,280.16,286.4,281.37,277.58Z"/><path class="cls-6" d="M246.26,280.06l.54-.13c9.86,8.17,20.31,15.61,30.07,23.9-8.6-1.57-17.21-3.58-25.19-7.23-3.49-1.73-7.31-3.83-8.93-7.56C241.3,285.59,243.8,282.27,246.26,280.06Z"/><path class="cls-6" d="M365,285.67c4.37.62,8.77,1.1,13.1,2a33.37,33.37,0,0,0,.93,6.42c-6.37,1.91-12.71,4.13-19.37,4.75C360.7,294.16,362.86,289.88,365,285.67Z"/><path class="cls-6" d="M419.4,293.25c1.54,0,3.09,0,4.65-.1l-1,.64c.33,1.79.7,3.6,1.08,5.4L418.25,301C418.68,298.45,419.13,295.85,419.4,293.25Z"/><path class="cls-6" d="M287.56,393.9c5.16-1.15,10.35-2,15.56-2.91-.66,2.84-1.7,6.23-4.84,7.2C294.18,399.31,290.37,396.56,287.56,393.9Z"/><path class="cls-6" d="M255.76,422.83c7.22-2.92,14.87-5.32,22.71-5.5,5.47,1.78,11.72,3.09,17,0a65.29,65.29,0,0,1,14.64,7.55,31.73,31.73,0,0,1,10.79,11,169.92,169.92,0,0,1,8.73,25c-2.11,1-4.21,2-6.38,2.82a58.32,58.32,0,0,1-8.93,1c.91,19.56,1.07,39.54,6.89,58.43l-1.34,1.06c-5.82,5-13.81,5.77-21.18,5.57-10.13-.06-20.21-1.09-30.33-1.37-3.61-.26-6.86,1.48-10.2,2.53l-2.36.73a96.57,96.57,0,0,1-1.15-12.37c-.8-12.42-1.55-24.84-2.07-37.27-.21-4.72-.11-9.46-.76-14.15-5.18-.27-9.95-2.48-14.22-5.27-.83-.52-1.64-1.06-2.45-1.59,2.72-9.74,5.87-19.46,11-28.22,2.73,3.84,5.36,7.93,9.42,10.54-.32-1.19-.64-2.37-1-3.54,1.76,1.17,3.55,2.29,5.4,3.31a34.83,34.83,0,0,0-3.47-6.59,42,42,0,0,0,5.9,4.9q-1-3-2.2-6a15.69,15.69,0,0,0,5.8,4.35c-1.21-4.45-4.43-7.86-7.11-11.47a49.93,49.93,0,0,0,5.8-1.26C262.82,424.24,258.6,424.38,255.76,422.83Z"/><path class="cls-6" d="M349.73,635.21h14.34c-.38,3.63-.87,7.26-.91,10.92-5.39,1.43-10.92.78-16.4.65C349.13,643.44,348.83,639.05,349.73,635.21Z"/><path class="cls-6" d="M433.34,635.21h16a74.05,74.05,0,0,0,2.42,10.91c-5.22,1.4-10.61.93-15.91.54C436.11,642.67,434.38,639,433.34,635.21Z"/><path class="cls-6" d="M260.33,645.14q2.6.06,5.19.18c1.85.16,3.67.43,5.51.68,0,2.47,0,4.94,0,7.43-3.51,1.71-7.43,1.75-11.2,1.12l.11-1C260.15,650.72,260.23,647.92,260.33,645.14Z"/><path class="cls-6" d="M301.72,647.77h10.83c-.1,1.37-.2,2.76-.3,4.16,0,.37,0,1.1,0,1.48-3.4,1.81-7.27,1.74-11,1.16C301.45,652.3,301.59,650,301.72,647.77Z"/><path class="cls-6" d="M328,662c12.57-.31,25.15-.65,37.74-.91-.59,1.63-.59,4.61-2.92,4.74-10.41.65-20.91-.69-31.3.37A43,43,0,0,0,328,662Z"/><path class="cls-6" d="M411.64,662.08c14.26-.29,28.52-.75,42.78-1-.35,1.54-.55,3.29-1.73,4.47-7,.76-14.05.08-21.07.21-6-.26-12.15.52-18.06-.85C412.17,664.66,412,663.16,411.64,662.08Z"/><path class="cls-1" d="M299.72,336.54a93,93,0,0,1,5,9.48c-1.62-.1-3.22-.18-4.82-.26C299.78,342.69,299.68,339.61,299.72,336.54Z"/><path class="cls-1" d="M306,354.07a9,9,0,0,1,3-1.26c.14.53.44,1.63.59,2.18A5.6,5.6,0,0,1,306,354.07Z"/><path class="cls-1" d="M319.87,524.09l1.34-1.06c1.26,5.46,2.38,11,4.45,16.22l-3.79.67C321.32,534.63,320.48,529.37,319.87,524.09Z"/><path class="cls-7" d="M406.75,138.46a3,3,0,0,1,3-2.45c5.8-.49,11.58,1,16.84,3.39-.52-1.3-1-2.59-1.43-3.91,5.67,2.11,7.86,8.17,11.2,12.69a56.86,56.86,0,0,0-12.16.66c-3.3.5-7.32,1.11-10-1.41-1.49-1.62.42-2.74,1.44-3.87-1.53-.32-3.06-.66-4.55-1.09C409.38,141.5,407.06,140.64,406.75,138.46Z"/><path class="cls-7" d="M402.88,157.14c1.53-2.19,5.82-2.21,7.19.17C407.67,157.26,405.27,157.21,402.88,157.14Z"/><path class="cls-7" d="M404.56,159.2c2.33-1.61,4.66,2.47,2.07,3.67C404.31,164.2,402.28,160.41,404.56,159.2Z"/><path class="cls-7" d="M423.17,161.52a7.31,7.31,0,0,1,6.91,3.59A15.56,15.56,0,0,1,423.17,161.52Z"/><path class="cls-7" d="M423.77,165.34c2.47-.9,3.89,3,1.45,4C422.63,170.48,421,166.09,423.77,165.34Z"/><path class="cls-7" d="M389.23,180c6-.37,11.27,4.85,17.33,2.2,4.06-1,9.16-2.61,12.65.59,1.68,2.62,3.55,5.14,6.45,6.53a18.21,18.21,0,0,1,3,3.18c1.95,4.9,3.44,10.6,1.51,15.71-2.65,4.46-5.18,9-7.53,13.63-2.11.06-4.19.28-6.28.52-.07-4.11-.22-8.22-.41-12.32-3.19-2.43-6-5.68-10-6.77-4.47-.89-8.39,2.47-12.8,2.3-4-.86-7.57-5-11.95-3-1.54,3.16-2,6.7-2.72,10.11.13-3.13.28-6.25.46-9.38-3.22-1.24-3-4.77-4-7.48-1.34-1.14-3-1.86-4.27-3.06a5.19,5.19,0,0,1,.42-6.91c1.83-1.71,4.46-1.94,6.83-2.13A18.31,18.31,0,0,0,389.23,180Z"/><path class="cls-7" d="M383.21,207.18c3.4-1.47,8.51.35,8.93,4.35-2.57,1.73-3.61-2.93-6.28-2.17-1.63-.11-4.31,1.09-4-1.57Z"/><path class="cls-7" d="M384.21,212.9c1.87-2,5.15,1,3.28,2.94C385.65,218.12,382,214.89,384.21,212.9Z"/><path class="cls-7" d="M403.38,218.19c2.31-2,5.3,2,2.64,3.48C403.86,223.21,401.24,219.84,403.38,218.19Z"/><path class="cls-7" d="M273.47,236.83c2.08-1.31,4.15,2.22,2,3.39C273.24,241.84,271,237.89,273.47,236.83Z"/><path class="cls-7" d="M411.09,247.13a33.19,33.19,0,0,1,2.43-11c10.08.31,20.17.26,30.27.32-.94,9.85-2.3,20.36-9.09,28.12-6.39,8.07-11.55,17.92-10.43,28.53l-.22.08c-1.56.07-3.11.07-4.65.1.1-3.84,1.42-7.58,1.23-11.42-3.19.4-4.06,4-5.5,6.29-3-4.6-4.25-10.28-8.21-14.22.26-6.34,3-12.06,5.5-17.75C412.32,253.08,411,250.19,411.09,247.13Z"/><path class="cls-7" d="M367.71,245.54c3.35-3.76,8-6,12.27-8.49,2.4,3.71,6.73,4.82,10.61,6.24,1.36,3.61.08,7.78-.23,11.56-2.72,1.09-5.77,2.41-6.83,5.38-3.62,8.72-3.44,18.34-5.4,27.43-4.33-.89-8.73-1.37-13.1-2l-2.28-.32A224.82,224.82,0,0,1,363.91,259C364.66,254.44,365,249.45,367.71,245.54Z"/><path class="cls-7" d="M294.15,308.37c4.09,1.86,8,4.82,9.92,9,2.23,6.31,1.12,14.72-5.14,18.35,2-2.53,4.58-4.88,5.17-8.21.62-4,.72-8.51-1.75-11.92C300.23,312.54,296.88,310.76,294.15,308.37Z"/><path class="cls-7" d="M265.58,335.51c4.63-1.72,6.84-6.29,9.42-10.1-1.89,6.27-7.74,12.22-14.76,11.45a20.79,20.79,0,0,1-11.43-4.93C253.94,334.4,259.74,337.88,265.58,335.51Z"/><path class="cls-7" d="M278,346.33c7.07-2.38,14.61-.62,21.88-.57,1.6.08,3.2.16,4.82.26,2.74.14,5.49.28,8.23.51a9,9,0,0,1-3.93,6.28,9,9,0,0,0-3,1.26,5.6,5.6,0,0,0,3.57.92,8.46,8.46,0,0,1,3.69,1.84,21.88,21.88,0,0,1-.61,3.75c-1.37,1-2.72,2.06-4.08,3.08.26,3,.26,6.07.29,9.11-1.14-2.64-2.21-5.32-3.47-7.9-8.88,2.23-18,.5-27,.68-.79,6.41-3,12.53-5.39,18.49a35.17,35.17,0,0,0-6.54-2.05,30.21,30.21,0,0,1-3-17.09q-2-2.06-3.85-4.2l2.91-.66a34.05,34.05,0,0,1-1.94-7.63,6.66,6.66,0,0,1,5,4C268.22,351.58,273.08,348.46,278,346.33Z"/><path class="cls-7" d="M297.23,374c1.89-2.78,5.75-2,8.53-1.48C303.55,374.55,300,373.07,297.23,374Z"/><path class="cls-7" d="M278.58,379.17c.65-2.92,5.33-4.91,7.72-3A31.75,31.75,0,0,0,278.58,379.17Z"/><path class="cls-7" d="M298.69,529.66c7.37.2,15.36-.6,21.18-5.57.61,5.28,1.45,10.54,2,15.83,2.09,19.5,3.16,39.19,1.51,58.76A317.67,317.67,0,0,1,316,647.76H298.6c1.06-26.66,1.88-53.37.75-80-.48-8.11-.8-16.33-2.85-24.23-.7-2-1.47-5.3-4.22-5-3,.32-3.51,4-4,6.39-1.15,7.57-1.31,15.25-2,22.87-1.07,13.63-2.86,27.18-5,40.68-2.23,12.43-4.71,24.83-7.75,37.11-2.64-.13-5.29-.19-7.93-.24q-2.59-.12-5.19-.18l-2.64-.09c1-24.75,1.65-49.53,1.5-74.3,0-1,0-2,0-3-.05-12.31-.31-24.64-1.07-36.93,3.34-1.05,6.59-2.79,10.2-2.53C278.48,528.57,288.56,529.6,298.69,529.66Z"/><path class="cls-7" d="M346.76,646.78c5.48.13,11,.78,16.4-.65,1.43,4.86,2.79,9.81,2.58,14.93-12.59.26-25.17.6-37.74.91-1.09-.86-2.22-1.67-3.37-2.42C330.9,653.62,339,650.26,346.76,646.78Z"/><path class="cls-7" d="M451.75,646.12c1.79,4.77,3.05,9.83,2.67,15-14.26.25-28.52.71-42.78,1,5.75-8,15.6-11.35,24.2-15.42C441.14,647.05,446.53,647.52,451.75,646.12Z"/><path class="cls-8" d="M404.8,148.24c1.67-2.33,4-4,6.27-5.77,1.49.43,3,.77,4.55,1.09-1,1.13-2.93,2.25-1.44,3.87,2.66,2.52,6.68,1.91,10,1.41a56.86,56.86,0,0,1,12.16-.66A25.21,25.21,0,0,1,439,169.43c1.39,1.44,4,3,2.56,5.33-1.36,3-5,3.21-7.85,3.35-3.42,3.12-7.9,6-8,11.19-2.9-1.39-4.77-3.91-6.45-6.53-3.49-3.2-8.59-1.57-12.65-.59-2.78-2.24-5.88-4.42-7.45-7.73-2-4-1.64-8.72-.58-12.95.62-1.94,1.32-3.84,1.88-5.79C402,153.3,403.09,150.58,404.8,148.24Zm-1.92,8.9c2.39.07,4.79.12,7.19.17C408.7,154.93,404.41,155,402.88,157.14Zm1.68,2.06c-2.28,1.21-.25,5,2.07,3.67C409.22,161.67,406.89,157.59,404.56,159.2Zm18.61,2.32a15.56,15.56,0,0,0,6.91,3.59A7.31,7.31,0,0,0,423.17,161.52Zm.6,3.82c-2.78.75-1.14,5.14,1.45,4C427.66,168.39,426.24,164.44,423.77,165.34Zm-12.79.88c-1.17.71-.79,3.38.75,3.05.51-.77.34-1.79.89-2.56C413.34,165.54,411.42,165.47,411,166.22Zm-5.53,3.58c.64,2,1.2,4.27,3.11,5.47,3.1,2.26,7.44,1.71,10.38-.57C414.18,173.81,409.82,171.74,405.45,169.8Z"/><path class="cls-8" d="M374.79,156.36a48.63,48.63,0,0,1,5.16,6.86c.75-1.28,1.5-2.55,2.27-3.82,1.1,4,2.66,7.83,3,12,.12,3.3,2.3,6,4,8.6a18.31,18.31,0,0,1-11.3,3.75q-.92-5.35-1.4-10.74a42.58,42.58,0,0,1-9.17-9.87l2.84.61q-.87-2.29-1.69-4.6l3.56,2.11c-.16-1-.46-3-.61-4,1.34,1.23,2.69,2.49,4,3.77C375.23,159.49,375,157.92,374.79,156.36Z"/><path class="cls-8" d="M459,189.45c2.63-3.9,4.9-8,7.43-12,.31,1.47.62,2.94.94,4.42a58.33,58.33,0,0,1,7-5c-.46,1.22-.93,2.44-1.4,3.67,1.5-.65,3-1.29,4.49-1.91-.59,1.27-1.19,2.55-1.78,3.84,1.3-.68,2.61-1.34,3.92-2l-2.15,4.41c.53.15,1.6.42,2.13.56a40.44,40.44,0,0,1-12.84,7.28c-3.2,7-8.91,12.2-15,16.61a60.58,60.58,0,0,1-7.08-15.11C449.67,193.75,454.94,192.58,459,189.45Z"/><path class="cls-8" d="M381.22,202.58c4.38-2,7.92,2.11,11.95,3,4.41.17,8.33-3.19,12.8-2.3,4,1.09,6.81,4.34,10,6.77.19,4.1.34,8.21.41,12.32,2.09-.24,4.17-.46,6.28-.52,1.09,1.2,2.92,2.46,2,4.33-1,3.46-4.89,4.34-8.06,4.37a52.67,52.67,0,0,0-3.13,5.58,33.19,33.19,0,0,0-2.43,11c-.12,3.06,1.23,6,1.33,9-6.93,2.87-16.22,4.69-22.06-1.3.31-3.78,1.59-7.95.23-11.56-3.88-1.42-8.21-2.53-10.61-6.24-2.59-4.83-2.57-10.38-2.88-15.68.53-2.58,1-5.17,1.28-7.78,0-.22.09-.67.12-.9C379.22,209.28,379.68,205.74,381.22,202.58Zm2,4.6-1.38.61c-.28,2.66,2.4,1.46,4,1.57,2.67-.76,3.71,3.9,6.28,2.17C391.72,207.53,386.61,205.71,383.21,207.18Zm18.8,6.16c-.31,2.39,2.78.67,4,1.1,2.21-.39,3.4,1.88,4.85,3.07,2.79-1.71-.18-4.44-2.14-5.21C406.64,211.52,403.42,211.31,402,213.34Zm-17.8-.44c-2.17,2,1.44,5.22,3.28,2.94C389.36,213.91,386.08,210.89,384.21,212.9Zm4.51,11.45c.74,3,4.24,3,6.67,2.6-1.67-.71-3.37-1.29-5-2,.94-3,4.94-5.21,3.58-8.79C392.58,219.1,390.43,221.59,388.72,224.35Zm14.66-6.16c-2.14,1.65.48,5,2.64,3.48C408.68,220.21,405.69,216.22,403.38,218.19ZM383.8,228.76c-.05,2.26-.15,5.08,2.26,6.25a8.3,8.3,0,0,0,11.61-2.73C393.13,230.79,388.45,229.8,383.8,228.76Z"/><path class="cls-8" d="M255.52,228.81a31.06,31.06,0,0,0,5.59-10.19c4,1.94,8.48,2.77,12,5.48,3.68,3.18,8,6.81,7.59,12.2.21,2.56.37,5.12.45,7.69.08,7.65-1.25,17.55-9.69,20.39.61,3.89.22,8.09,1.79,11.75,2.14,1.9,5.45,1,8.08,1.45-1.21,8.82-2.64,17.61-3.75,26.44l-.08.31-.67-.5c-9.76-8.29-20.21-15.73-30.07-23.9,3.17-.51,6.93-1.88,7.47-5.5,1.4-8.5-4.45-15.43-9.41-21.58-2.05-.34-4.44-.18-6-1.81-1.39-1.26-2.61-3.68-1.13-5.3,1.87-2.18,5-1.1,7.38-.83A102.57,102.57,0,0,1,255.52,228.81Zm14.69,3.77c2.62.2,5.26.22,7.87.66-.77-2.11-3.2-2.34-5.11-2.3C272.05,231.12,269.47,230.89,270.21,232.58Zm-20.28,7.28c2.69-.87,5.09-2.46,7.72-3.5C255,234.1,251.08,237.23,249.93,239.86Zm23.54-3c-2.44,1.06-.23,5,2,3.39C277.62,239.05,275.55,235.52,273.47,236.83Zm-4.73,9.39c-1.11,1-2.23,1.93-3.31,2.91,2,.11,5.28-.26,5.06-2.94a57.55,57.55,0,0,0-3.25-8.18C265.11,240.55,267.81,243.71,268.74,246.22ZM255,241.12c-1.87,1.48.65,4.75,2.47,3C259.89,242.84,256.92,239.09,255,241.12Zm15.88,9.4c-2.42.66-5.49.73-6.71,3.34h0l.2,1.36a7.5,7.5,0,0,0,5.93,2.8c2.2-.26,3.4-2.24,4.16-4.09l-1.41.6c.59-1.09,1.17-2.2,1.72-3.32C273.48,250.73,272.22,250,270.87,250.52Z"/><path class="cls-8" d="M404.76,273.33l2.16.57c4,3.94,5.23,9.62,8.21,14.22,1.44-2.32,2.31-5.89,5.5-6.29.19,3.84-1.13,7.58-1.23,11.42-.27,2.6-.72,5.2-1.15,7.78-.07.46-.2,1.36-.25,1.81,5.77,7.3,12.05,14.21,18.07,21.31,0-2.14.09-4.27.15-6.41,8.86.09,18-.26,26.46,2.86-.72,11.21-1.21,22.57-4.24,33.47-1.32,4.32-2.85,9.06-6.63,11.9-3.22,2.27-7.32.62-10.36-1.11-6.33-4.56-11.09-10.87-15.37-17.3a188.48,188.48,0,0,1-16.7-32.8c-1.66-4-2.69-8.42-5.31-12-4.06-6.13-8.42-12.63-9-20.18a63.38,63.38,0,0,1,4.42,5c-1.11-3.19-2.12-6.57-1.22-9.94a58,58,0,0,1,5.62,8.74,50,50,0,0,1-2.65-10.63A27.57,27.57,0,0,1,407,282,76.31,76.31,0,0,1,404.76,273.33Z"/><path class="cls-8" d="M311.74,304.93c2-1.5,4.05-3,6.08-4.49,5.25,7.43,10.56,14.82,15.82,22.24-3.95,2.85-7.91,5.69-12,8.37C318.3,322.36,315,313.63,311.74,304.93Z"/><path class="cls-8" d="M315.6,359.36a100.8,100.8,0,0,0,14.59-7.74c4.18,5.61,9.34,10.39,14.11,15.49q0,9.34,0,18.69C333.89,378,323.25,370,315.6,359.36Z"/><path class="cls-8" d="M278.39,365.55c9-.18,18.15,1.55,27-.68,1.26,2.58,2.33,5.26,3.47,7.9s3,5.31,4.27,8.06c-4.42,5.05-1.94,12.7-6.44,17.69-2.87,4-8,4.6-12.22,6.21-1.91.76-1.94,3.2-2,4.94-.09,2.83,1.42,5.34,2.93,7.63-5.28,3.12-11.53,1.81-17,0a14.75,14.75,0,0,0,2.31-13.64c-3.81-3.56-7.44-7.32-9.74-12.07-2.64-1.05-6.19-1.86-6.81-5.12-.67-1.9,1.28-3.16,2.23-4.51A35.17,35.17,0,0,1,273,384C275.43,378.08,277.6,372,278.39,365.55ZM297.23,374c2.72-.93,6.32.55,8.53-1.48C303,372,299.12,371.22,297.23,374Zm-18.65,5.17a31.75,31.75,0,0,1,7.72-3C283.91,374.26,279.23,376.25,278.58,379.17ZM301,377.31c-2.06,2.17,2.2,5,3.42,2.28C305.66,377.57,302.45,375.24,301,377.31ZM282.51,380c-2.72,1.1-.36,5.33,2,3.6C286.6,382.32,284.73,378.89,282.51,380Zm14.41,8c-1.06.5-2.11,1-3.15,1.57,1.93.28,4.17.32,4.61-2a47.66,47.66,0,0,1-4.05-7.07C293.35,383.35,295.48,385.69,296.92,388Zm-9.36,5.92c2.81,2.66,6.62,5.41,10.72,4.29,3.14-1,4.18-4.36,4.84-7.2C297.91,391.85,292.72,392.75,287.56,393.9Z"/><path class="cls-8" d="M214.4,367.87c5.51.82,11.06,1.45,16.56,2.35,3.66,10.12,7.25,20.26,11.3,30.24,2.45,7,5.3,13.87,8.19,20.71,1.78.52,3.56,1.05,5.31,1.66,2.84,1.55,7.06,1.41,9,4.13a49.93,49.93,0,0,1-5.8,1.26c2.68,3.61,5.9,7,7.11,11.47a15.69,15.69,0,0,1-5.8-4.35q1.25,2.91,2.2,6a42,42,0,0,1-5.9-4.9A34.83,34.83,0,0,1,260,443c-1.85-1-3.64-2.14-5.4-3.31.33,1.17.65,2.35,1,3.54-4.06-2.61-6.69-6.7-9.42-10.54-2-4.68-5.24-8.69-8.22-12.78-.36.12-1.09.4-1.45.53,0-4.57-3.7-7.81-5.72-11.6C223.29,396.18,215.54,382.83,214.4,367.87Z"/><path class="cls-8" d="M237.6,462.49c4.27,2.79,9,5,14.22,5.27a26.81,26.81,0,0,0-1.83,6.81c-2,15.43-4.15,30.89-4.54,46.47,0,2.92-.09,6,1.42,8.65,2.87,5.36,5.63,11,5.95,17.23-1.63-1.56-3.19-3.18-4.73-4.82-1.31,3.79-.9,8.48-4,11.43-.27-2-.46-3.95-.63-5.91q-1.5,2.85-3.11,5.65-.34-3.28-.61-6.55a51.12,51.12,0,0,1-1.95,5.44c-1.2-1.52-1.23-3.53-1.61-5.32-.8.6-1.61,1.19-2.4,1.79-.07-6.89,3.67-13.3,2.87-20.21A228.32,228.32,0,0,1,237.6,462.49Z"/><path class="cls-8" d="M314.32,464.6a58.32,58.32,0,0,0,8.93-1c.56,16.82,1.76,33.67,4.92,50.23.58,2.67,1,5.68,3.15,7.6,4.14,4.09,9.84,6.55,12.87,11.72-1.35-.38-2.67-.75-4-1.14,1.33,1.74,2.57,3.54,3.75,5.41a17.11,17.11,0,0,1-5.89-2.76c1.09,1.29,2.16,2.62,3.14,4l-.07,1.37c-1.85-.85-3.68-1.71-5.51-2.6.95,1.76,3.7,3.55,2.59,5.66-3.71-1.77-6.53-4.87-9.78-7.31.18,2.25.33,4.52.38,6.79a7.52,7.52,0,0,1-3.14-3.39c-2.07-5.24-3.19-10.76-4.45-16.22C315.39,504.14,315.23,484.16,314.32,464.6Z"/><path class="cls-8" d="M237.65,567.76c7.19,0,14.39.08,21.58,0,0,1,0,2,0,3-2,7.41-2.92,15-4.28,22.56-2.09,13.28-4.29,26.59-4.78,40,.05,3.4-.33,7.18,1.65,10.18a85.72,85.72,0,0,0,6.43,8c-1.6,1.83-3.73,3.59-6.35,2.7-7.41-1.76-13.4-6.85-19.39-11.27.38-6.23.78-12.45,1-18.69C233.94,605.36,236,586.57,237.65,567.76Z"/><path class="cls-8" d="M286.23,567.77q6.56.06,13.12,0c1.13,26.67.31,53.38-.75,80h3.12c-.13,2.26-.27,4.53-.4,6.8-5.41-1.81-10.43-4.54-15.59-6.9-1.29-13.11-3.09-26.15-4.53-39.22C283.37,595,285.16,581.4,286.23,567.77Z"/><path class="cls-9" d="M396.75,157.66c.48-1.66,2.21-1.76,3.66-1.95-.56,1.95-1.26,3.85-1.88,5.79A25.19,25.19,0,0,1,396.75,157.66Z"/><path class="cls-10" d="M411,166.22c.44-.75,2.36-.68,1.64.49-.55.77-.38,1.79-.89,2.56C410.19,169.6,409.81,166.93,411,166.22Z"/><path class="cls-11" d="M249.31,206.39c9-2.49,18.59-.15,26.79,3.84,7.52,3.56,14.56,8.9,18.29,16.49A22.8,22.8,0,0,1,296.26,243c-1,4.72-3,9.86-.74,14.52,2.62,4.85,8.5,6.95,10.81,12.06,2.93,5.81,1.83,13-2,18.1-3.85-7.64-13.29-9.17-20.95-10l-2-.14c-2.63-.46-5.94.45-8.08-1.45-1.57-3.66-1.18-7.86-1.79-11.75,8.44-2.84,9.77-12.74,9.69-20.39a18.62,18.62,0,0,0,3.33-3.82c.85-1.62-.58-3.15-1.08-4.61l-2.7.74c.44-5.39-3.91-9-7.59-12.2-3.56-2.71-8.08-3.54-12-5.48a31.06,31.06,0,0,1-5.59,10.19,102.57,102.57,0,0,0-10.38,16.1c-2.43-.27-5.51-1.35-7.38.83-1.48,1.62-.26,4,1.13,5.3,1.53,1.63,3.92,1.47,6,1.81,5,6.15,10.81,13.08,9.41,21.58-.54,3.62-4.3,5-7.47,5.5l-.54.13c-6.38,1.38-12.78,3.45-18.08,7.35-3,2.13-4.33,5.67-5.49,9a138.09,138.09,0,0,0-4.76,21.47c-8.4-.08-15.1-7.82-15.23-15.92s4.81-15.21,11.09-19.76c2.9-2.22,6.65-3.72,8.4-7.11,1.75-3.79,0-7.94-1.43-11.51-2.13-4.8-3.76-10.41-1.77-15.52,1.21-3.43,5.08-4.8,6.8-7.85,1.26-3.63.78-7.59,1.83-11.28A32.57,32.57,0,0,1,249.31,206.39Z"/><path class="cls-11" d="M270.21,232.58c-.74-1.69,1.84-1.46,2.76-1.64,1.91,0,4.34.19,5.11,2.3C275.47,232.8,272.83,232.78,270.21,232.58Z"/><path class="cls-11" d="M249.93,239.86c1.15-2.63,5.08-5.76,7.72-3.5C255,237.4,252.62,239,249.93,239.86Z"/><path class="cls-11" d="M232.47,642.92c6,4.42,12,9.51,19.39,11.27,2.62.89,4.75-.87,6.35-2.7.57.66,1.13,1.33,1.71,2l-.11,1a100.52,100.52,0,0,0-1.13,10.81c-7.83-2.75-16.12-4.69-23.17-9.26C231.21,653.24,232.57,647.28,232.47,642.92Z"/><path class="cls-11" d="M285.73,647.67c5.16,2.36,10.18,5.09,15.59,6.9a61,61,0,0,0-1,8.31c-3.89-1.11-8.14-1.73-11.45-4.18C286.3,655.66,286.34,651.38,285.73,647.67Z"/><path class="cls-11" d="M312.25,651.93c1.54-.16,2.36,1.35,3.05,2.48a6.72,6.72,0,0,1-3-1C312.27,653,312.26,652.3,312.25,651.93Z"/><path class="cls-12" d="M402,213.34c1.41-2,4.63-1.82,6.75-1,2,.77,4.93,3.5,2.14,5.21-1.45-1.19-2.64-3.46-4.85-3.07C404.79,214,401.7,215.73,402,213.34Z"/><path class="cls-12" d="M255,241.12c1.93-2,4.9,1.72,2.47,3C255.64,245.87,253.12,242.6,255,241.12Z"/><path class="cls-12" d="M301,377.31c1.44-2.07,4.65.26,3.42,2.28C303.21,382.27,299,379.48,301,377.31Z"/><path class="cls-12" d="M282.51,380c2.22-1.09,4.09,2.34,2,3.6C282.15,385.31,279.79,381.08,282.51,380Z"/><path class="cls-13" d="M374.4,216c.6-1.7,2.55-1.84,4-2.44-.3,2.61-.75,5.2-1.28,7.78C375.9,219.8,373.82,218.27,374.4,216Z"/><path class="cls-13" d="M280.74,236.3l2.7-.74c.5,1.46,1.93,3,1.08,4.61a18.62,18.62,0,0,1-3.33,3.82C281.11,241.42,281,238.86,280.74,236.3Z"/><path class="cls-14" d="M451.61,615.44c-.57-11-4.15-62.3-4.74-72l0,0c-2.41-34.76-5.55-84.5-7.65-118-15.58,4.14-31.83,5.25-47.9,4.94a243.31,243.31,0,0,1-44.93-5.33c.48,37.49.34,75,.19,112.46q-.19,48.82-.59,97.64h18.11c1.33,0,2.67,0,4,0,.15-1.38.32-2.75.48-4.11,3.86-30.7,9-66.63,13-97.31,3-22.05,5.71-44.14,9-66.14,5.29,22.27,10.47,44.57,15.73,66.86,1.42,6.11,18.58,79,22.47,95.7h0c.39,1.66.79,3.33,1.18,5l3.36,0h19.55C452.48,628.61,452,622,451.61,615.44Z"/><path class="cls-15" d="M388.72,224.35c1.71-2.76,3.86-5.25,5.24-8.24,1.36,3.58-2.64,5.75-3.58,8.79,1.64.76,3.34,1.34,5,2C393,227.31,389.46,227.33,388.72,224.35Z"/><path class="cls-16" d="M283.37,277.72c7.66.82,17.1,2.35,20.95,10a166,166,0,0,1,7.42,17.22c3.3,8.7,6.56,17.43,9.92,26.12,2.73,6.8,5.24,13.86,9.75,19.75l-1.22.82a100.8,100.8,0,0,1-14.59,7.74c-1,.4-2,.79-2.92,1.22a21.88,21.88,0,0,0,.61-3.75A8.46,8.46,0,0,0,309.6,355c-.15-.55-.45-1.65-.59-2.18a9,9,0,0,0,3.93-6.28c-2.74-.23-5.49-.37-8.23-.51a93,93,0,0,0-5-9.48c0,3.07.06,6.15.17,9.22-7.27-.05-14.81-1.81-21.88.57-4.93,2.13-9.79,5.25-12.47,10.05a6.66,6.66,0,0,0-5-4,34.05,34.05,0,0,0,1.94,7.63l-2.91.66q1.88,2.15,3.85,4.2a30.21,30.21,0,0,0,3,17.09c-.95,1.35-2.9,2.61-2.23,4.51.62,3.26,4.17,4.07,6.81,5.12,2.3,4.75,5.93,8.51,9.74,12.07a14.75,14.75,0,0,1-2.31,13.64c-7.84.18-15.49,2.58-22.71,5.5-1.75-.61-3.53-1.14-5.31-1.66-2.89-6.84-5.74-13.7-8.19-20.71,3.08-6.67,6.3-13.28,10-19.65,2.57-4,4-9.17,1.95-13.75-3.6-8.12-7.66-16-11.37-24.07a37.06,37.06,0,0,0-3.81-7.21c-2.94,11.42-5.33,23-8.09,34.44-5.5-.9-11.05-1.53-16.56-2.35l-1.22-.23a482.59,482.59,0,0,1,4.75-49.78,138.09,138.09,0,0,1,4.76-21.47c1.16-3.31,2.53-6.85,5.49-9,5.3-3.9,11.7-6,18.08-7.35-2.46,2.21-5,5.53-3.51,9,1.62,3.73,5.44,5.83,8.93,7.56,8,3.65,16.59,5.66,25.19,7.23l.67.5.08-.31c4.64-5.38,10-11.12,10.68-18.51C288.67,282,285.74,279.7,283.37,277.72Zm10.78,30.65c2.73,2.39,6.08,4.17,8.2,7.2,2.47,3.41,2.37,7.95,1.75,11.92-.59,3.33-3.15,5.68-5.17,8.21,6.26-3.63,7.37-12,5.14-18.35C302.15,313.19,298.24,310.23,294.15,308.37Zm-28.57,27.14c-5.84,2.37-11.64-1.11-16.77-3.58a20.79,20.79,0,0,0,11.43,4.93c7,.77,12.87-5.18,14.76-11.45C272.42,329.22,270.21,333.79,265.58,335.51Z"/><path class="cls-16" d="M306.72,398.52c4.5-5,2-12.64,6.44-17.69a82.62,82.62,0,0,1,8.1,28.72c.87,8.76-.15,17.53-.36,26.3a31.73,31.73,0,0,0-10.79-11,65.29,65.29,0,0,0-14.64-7.55c-1.51-2.29-3-4.8-2.93-7.63,0-1.74,0-4.18,2-4.94C298.76,403.12,303.85,402.48,306.72,398.52Z"/><path class="cls-16" d="M236.5,420.43c.36-.13,1.09-.41,1.45-.53,3,4.09,6.18,8.1,8.22,12.78-5.15,8.76-8.3,18.48-11,28.22.81.53,1.62,1.07,2.45,1.59a228.32,228.32,0,0,0-1,65.93c.8,6.91-2.94,13.32-2.87,20.21.79-.6,1.6-1.19,2.4-1.79.38,1.79.41,3.8,1.61,5.32a51.12,51.12,0,0,0,1.95-5.44q.27,3.27.61,6.55,1.6-2.81,3.11-5.65c.17,2,.36,3.94.63,5.91,3.11-2.95,2.7-7.64,4-11.43,1.54,1.64,3.1,3.26,4.73,4.82-.32-6.19-3.08-11.87-5.95-17.23-1.51-2.63-1.46-5.73-1.42-8.65.39-15.58,2.56-31,4.54-46.47a26.81,26.81,0,0,1,1.83-6.81c.65,4.69.55,9.43.76,14.15.52,12.43,1.27,24.85,2.07,37.27a96.57,96.57,0,0,0,1.15,12.37l2.36-.73c.76,12.29,1,24.62,1.07,36.93-7.19.09-14.39,0-21.58,0h-6.74c.18-6.22.4-12.45.58-18.68C233,506.19,234.05,463.28,236.5,420.43Z"/><path class="cls-16" d="M288.25,544.9c.52-2.38,1-6.07,4-6.39,2.75-.31,3.52,3,4.22,5,2.05,7.9,2.37,16.12,2.85,24.23q-6.56.09-13.12,0C286.94,560.15,287.1,552.47,288.25,544.9Z"/><path class="cls-16" d="M259.81,654.55c3.77.63,7.69.59,11.2-1.12a64.9,64.9,0,0,1,14.93,8.12c2,1.39,3.1,3.63,4.09,5.79-6.53,1.25-13.12,0-19.67-.3-3.91-.32-8-.07-11.68-1.68A100.52,100.52,0,0,1,259.81,654.55Z"/><path class="cls-16" d="M301.32,654.57c3.69.58,7.56.65,11-1.16a6.72,6.72,0,0,0,3,1c3.11,1.68,6.3,3.29,9.33,5.14,1.15.75,2.28,1.56,3.37,2.42a43,43,0,0,1,3.52,4.2c-2.39,2.49-6,1.71-9,1.62-7.36-.58-14.72-.93-22.06-1.65-.05-1.1-.08-2.18-.09-3.26A61,61,0,0,1,301.32,654.57Z"/><path class="cls-17" d="M268.74,246.22c-.93-2.51-3.63-5.67-1.5-8.21a57.55,57.55,0,0,1,3.25,8.18c.22,2.68-3.08,3.05-5.06,2.94C266.51,248.15,267.63,247.18,268.74,246.22Z"/><path class="cls-18" d="M270.87,250.52c1.35-.55,2.61.21,3.85.69a85.83,85.83,0,0,1-10.56,2.65C265.38,251.25,268.45,251.18,270.87,250.52Z"/><path class="cls-19" d="M264.16,253.86a85.83,85.83,0,0,0,10.56-2.65c-.55,1.12-1.13,2.23-1.72,3.32-2.67,1.59-5.78.93-8.68.69l-.2-1.36Z"/><path class="cls-20" d="M264.32,255.22c2.9.24,6,.9,8.68-.69l1.41-.6c-.76,1.85-2,3.83-4.16,4.09A7.5,7.5,0,0,1,264.32,255.22Z"/><path class="cls-21" d="M383.53,260.23c1.06-3,4.11-4.29,6.83-5.38,5.84,6,15.13,4.17,22.06,1.3-2.53,5.69-5.24,11.41-5.5,17.75l-2.16-.57A76.31,76.31,0,0,0,407,282a27.57,27.57,0,0,0-5.69-6.26,50,50,0,0,0,2.65,10.63,58,58,0,0,0-5.62-8.74c-.9,3.37.11,6.75,1.22,9.94a63.38,63.38,0,0,0-4.42-5c.54,7.55,4.9,14.05,9,20.18,2.62,3.58,3.65,8,5.31,12a188.48,188.48,0,0,0,16.7,32.8c4.28,6.43,9,12.74,15.37,17.3-.07,20,.4,39.94.14,59.91l-2.4.73c-15.58,4.14-31.83,5.25-47.9,4.94a243.31,243.31,0,0,1-44.93-5.33l-2.13-.49c.17-12.94,0-25.88.08-38.82q0-9.35,0-18.69,0-21.76,0-43.55c-2.37,1.36-4.71,2.76-7,4.16-1.22-1.68-2.42-3.35-3.62-5-5.26-7.42-10.57-14.81-15.82-22.24-.62-.9-1.2-1.79-1.8-2.69,7.05-7.47,14.07-15,21.68-21.88,7.8-6.83,15.76-14.45,26.21-16.85a224.82,224.82,0,0,0-1.16,26.33l2.28.32c-2.17,4.21-4.33,8.49-5.34,13.16,6.66-.62,13-2.84,19.37-4.75a33.37,33.37,0,0,1-.93-6.42C380.09,278.57,379.91,269,383.53,260.23Z"/><path class="cls-21" d="M424.27,293.07c-1.12-10.61,4-20.46,10.43-28.53,6.59,3,13.39,6,19,10.69,3.94,3.16,5.44,8.19,6.73,12.86,2.78,10.7,3.75,21.77,4.66,32.76l-2.42-.25c-8.45-3.12-17.6-2.77-26.46-2.86-.06,2.14-.11,4.27-.15,6.41-6-7.1-12.3-14-18.07-21.31.05-.45.18-1.35.25-1.81l5.84-1.84c-.38-1.8-.75-3.61-1.08-5.4l1-.64Z"/><path class="cls-22" d="M296.92,388c-1.44-2.29-3.57-4.63-2.59-7.53a47.66,47.66,0,0,0,4.05,7.07c-.44,2.35-2.68,2.31-4.61,2C294.81,389,295.86,388.48,296.92,388Z"/><ellipse class="cls-23" cx="507.59" cy="376.63" rx="46.98" ry="47.45" transform="translate(-14.73 20.71) rotate(-2.3)"/><path class="cls-6" d="M511.21,387.28a20.19,20.19,0,1,0,0-40.38H496.48a3.5,3.5,0,0,0-3.53,3.46,3.41,3.41,0,0,0,.11.85,3.49,3.49,0,0,0-.11.86v28.28h-1.88a3.47,3.47,0,1,0,0,6.93H493v4.48h-1.88a3.47,3.47,0,1,0,0,6.93H493v6.05a3.53,3.53,0,0,0,7.05,0v-6.05h10.41a3.47,3.47,0,1,0,0-6.93H500v-4.48ZM500,353.82h11.21a13.27,13.27,0,1,1,0,26.53H500Z"/><ellipse class="cls-23" cx="557.36" cy="287.05" rx="24.19" ry="24.44" transform="translate(-11.09 22.64) rotate(-2.3)"/><path class="cls-6" d="M559.23,292.54a10.4,10.4,0,1,0,0-20.8h-7.59a1.8,1.8,0,0,0-1.81,1.79,1.61,1.61,0,0,0,.06.44,1.56,1.56,0,0,0-.06.44V289h-1a1.79,1.79,0,1,0,0,3.57h1v2.31h-1a1.78,1.78,0,1,0,0,3.56h1v3.12a1.82,1.82,0,0,0,3.63,0v-3.12h5.36a1.78,1.78,0,1,0,0-3.56h-5.36v-2.31Zm-5.77-17.23h5.77a6.83,6.83,0,1,1,0,13.66h-5.77Z"/><ellipse class="cls-23" cx="481" cy="241.67" rx="20.8" ry="21.01" transform="translate(-9.33 19.53) rotate(-2.3)"/><path class="cls-6" d="M482.6,246.38a8.94,8.94,0,1,0,0-17.87h-6.52a1.54,1.54,0,0,0-1.56,1.53,1.58,1.58,0,0,0,.05.38,1.5,1.5,0,0,0-.05.37v12.53h-.84a1.53,1.53,0,1,0,0,3.06h.84v2h-.84a1.54,1.54,0,1,0,0,3.07h.84v2.68a1.56,1.56,0,0,0,3.12,0v-2.68h4.61a1.54,1.54,0,1,0,0-3.07h-4.61v-2Zm-5-14.81h5a5.88,5.88,0,1,1,0,11.75h-5Z"/><path class="cls-24" d="M835.43,241.48c9.37-6.37,20.88-8.35,32-9.09,13-.68,26.56.82,38.35,6.72a38.1,38.1,0,0,1,15.36,13.61c4.55,7.28,6.06,16.17,5.18,24.64-1.42,14.64-8.55,28.28-8.45,43.13-.06,8.1,3.17,15.86,7.76,22.4,5.25,7.77,12.46,14.15,16.71,22.59a28,28,0,0,1,2.34,18c-1.84,9.08-6.56,17.29-8.35,26.38a33.5,33.5,0,0,0,3.3,22.73c6.16,11.87,16.69,20.56,24.45,31.29,13.49,18,12.71,43.9,1,62.57-6.84,10.84-17.34,19.08-29,24.2-12.24,5.34-25.63,7.44-38.9,8-7.13.31-14.27.1-21.41-.23,0-12.13,0-24.27,0-36.4,0-1.62-.05-3.37,1-4.73,12.69-18.4,25.67-36.64,38.24-55.12,1.72-1.56-1.54-3.67-2.26-1.49-12.45,17.45-24.44,35.24-36.89,52.7-.11-74.24,0-148.49-.07-222.73a1.47,1.47,0,1,0-2.78,0c-.17,52.3.08,104.61-.13,156.92-12.56-27-24.75-54.22-37.27-81.26-.57-2.36-4.11-1-2.54,1.09,12.89,28.6,26,57.08,39.08,85.62a11.39,11.39,0,0,1,.83,4.73q-.07,50.22,0,100.44c-15.13-1-30.17-2.93-45.27-4.14-11.81-1-23.7-4.37-33.3-11.52-18-12.78-24.74-38.91-15.5-58.91,5.65-12.58,14.81-23.2,20.69-35.66a47.2,47.2,0,0,0,3.28-11.14c2-16.54-3.46-32.61-5.76-48.81-1.24-8.35-1.7-17,.5-25.24,2.47-9.95,7.92-18.75,13-27.53.15-.26.43-.78.57-1,4.61-7.68,8.8-15.79,10.66-24.62,3.65-16.08-4-32.37-.26-48.43A32.49,32.49,0,0,1,835.43,241.48Z"/><path class="cls-25" d="M872.94,290.65a1.47,1.47,0,1,1,2.78,0c.11,74.24,0,148.49.07,222.73,12.45-17.46,24.44-35.25,36.89-52.7.72-2.18,4-.07,2.26,1.49-12.57,18.48-25.55,36.72-38.24,55.12-1,1.36-1,3.11-1,4.73.07,12.13,0,24.27,0,36.4v88c-.1,3.67.26,7.36-.16,11-.33,1.48-2.81.94-2.61-.5-.25-3.5,0-7-.09-10.53V558.19q0-50.22,0-100.44a11.39,11.39,0,0,0-.83-4.73c-13-28.54-26.19-57-39.08-85.62-1.57-2,2-3.45,2.54-1.09,12.52,27,24.71,54.24,37.27,81.26C873,395.26,872.77,343,872.94,290.65Z"/><path class="cls-26" d="M748.26,417.88c6.56-4.53,14.81-5.55,22.6-5.67,9.13.05,19.07,2,25.74,8.73,4.24,4.14,5.74,10.15,6.19,15.88A47.2,47.2,0,0,1,799.51,448c-5.88,12.46-15,23.08-20.69,35.66-9.24,20-2.54,46.13,15.5,58.91,9.6,7.15,21.49,10.55,33.3,11.52,6.59,14.1,1.75,32.22-10.77,41.4-12.46,9.65-29.09,10.53-44.22,9.77.17-7.8-.35-15.64.22-23.4,5.29-8.58,11.51-16.62,17.13-25,2.09-3.34,5-6.23,6.29-10-1.42-.43-2.33.43-3,1.51-6.88,9.86-13.67,19.79-20.63,29.58q0-60.89,0-121.77a89.69,89.69,0,0,0-.21-10.11c.38-1.38-2.44-.35-1.84.65-.21,30.66.06,61.33-.13,92-6.16-13.36-12.25-26.76-18.38-40.14-1.27-2.67-2.22-5.52-4-7.93l-1.49.29c1.55,5.49,4.6,10.42,6.75,15.68,5.36,11.67,10.64,23.37,16.06,35,1.5,2.93,1,6.31,1.09,9.47,0,18,0,36.06,0,54.08-9-.64-18.06-1.76-27.1-2.48-8-.73-16.13-3.53-22-9.17a29.38,29.38,0,0,1-8-27.7c2.91-11.63,13.22-19.83,15.66-31.63,2-12.59-3.81-24.67-3.85-37.2-.13-7.07,2.76-13.74,6.28-19.72,4.54-7.71,9.68-15.77,9.6-25.05C741,445,738.92,438,740,430.85A19.27,19.27,0,0,1,748.26,417.88Z"/><path class="cls-27" d="M770.58,446.64c-.6-1,2.22-2,1.84-.65a89.69,89.69,0,0,1,.21,10.11q0,60.88,0,121.77c7-9.79,13.75-19.72,20.63-29.58.67-1.08,1.58-1.94,3-1.51-1.25,3.8-4.2,6.69-6.29,10-5.62,8.39-11.84,16.43-17.13,25-.57,7.76-.05,15.6-.22,23.4q0,20.56,0,41.11c-.16,5.8.3,11.65-.2,17.43l-1.6,1.37c-.66-6.25-.19-12.53-.32-18.79V605.09c0-18,0-36.05,0-54.08-.06-3.16.41-6.54-1.09-9.47-5.42-11.64-10.7-23.34-16.06-35-2.15-5.26-5.2-10.19-6.75-15.68l1.49-.29c1.73,2.41,2.68,5.26,4,7.93,6.13,13.38,12.22,26.78,18.38,40.14C770.64,508,770.37,477.3,770.58,446.64Z"/></g></g></svg>