<svg xmlns="http://www.w3.org/2000/svg" viewBox="0 0 620 378"><defs><style>.cls-1{fill:#bacaee;fill-rule:evenodd;}.cls-2{fill:#89b4fd;}.cls-3{fill:#18142d;}.cls-4{fill:#7798f8;}.cls-5{fill:#080435;}.cls-6{fill:#fb9391;}.cls-7{fill:#060633;}.cls-8{fill:#fa7267;}.cls-9{fill:#ea6868;}.cls-10{fill:#240d39;}.cls-11{fill:#272035;}.cls-12{fill:#1b2e9e;}.cls-13{fill:#2f3dbc;}.cls-14{fill:#e57a7a;}</style></defs><title>pic_woman</title><g id="Layer_2" data-name="Layer 2"><g id="Layer_1-2" data-name="Layer 1"><path class="cls-1" d="M253.68,294.06c140.1,0,253.68,18.79,253.68,42s-113.58,42-253.68,42S0,359.21,0,336,113.58,294.06,253.68,294.06Z"/><path class="cls-2" d="M326.84,129.68c9.18,1.36,17.46,6.12,18.4,16.46.89,9.79-6.57,19.48-2.88,29.17,3.79,10,14.59,13.36,10.65,25.67-1.41,4.39-3.67,8.66-3.56,13.26.24,9.65,9.64,15.54,14.23,23.1,5.93,9.77,3.73,23.22-4.16,31.25-15,15.26-40.44,9.78-59.37,8.33-11-.84-20.91-6.48-23.66-17.92-3.19-13.28,5.16-19.68,10.39-30.19,5.08-10.22-1.18-22.26-1.33-33.68-.17-12.76,10.12-19.77,12-31.5,1.37-8.49-3.4-17.22,1.35-25.24,2.51-4.24,7.16-6.86,11.95-8a43.65,43.65,0,0,1,16-.71Z"/><path class="cls-3" d="M321.42,324.71a.66.66,0,0,1-.65-.65V155.79a.65.65,0,0,1,1.3,0V324.06a.66.66,0,0,1-.65.65Z"/><path class="cls-3" d="M321.42,231.89a.64.64,0,0,1-.59-.38L302.39,191.1a.65.65,0,1,1,1.18-.54L322,231a.65.65,0,0,1-.32.86.66.66,0,0,1-.27.06Z"/><path class="cls-3" d="M321.42,261.07a.63.63,0,0,1-.37-.12.63.63,0,0,1-.16-.9L339,233.92a.64.64,0,0,1,.9-.16.63.63,0,0,1,.16.9L322,260.79a.66.66,0,0,1-.53.28Z"/><path class="cls-4" d="M186.78.79c17,2.52,32.29,11.31,34,30.44,1.65,18.11-12.15,36-5.32,54,7,18.41,27,24.71,19.69,47.49-2.6,8.11-6.78,16-6.57,24.53.44,17.84,17.83,28.74,26.32,42.73,11,18.07,6.91,43-7.69,57.8-27.75,28.22-74.82,18.09-109.83,15.41-20.34-1.55-38.69-12-43.77-33.15-5.91-24.57,9.55-36.41,19.22-55.84,9.4-18.91-2.18-41.18-2.46-62.3-.31-23.62,18.73-36.58,22.22-58.28,2.53-15.7-6.29-31.86,2.48-46.68,4.65-7.85,13.25-12.7,22.12-14.8A80.9,80.9,0,0,1,186.78.79Z"/><path class="cls-3" d="M176.75,333.93a1.15,1.15,0,0,1-1.2-1.09V49a1.21,1.21,0,0,1,2.4,0V332.84A1.15,1.15,0,0,1,176.75,333.93Z"/><path class="cls-3" d="M176.75,189.86a1.2,1.2,0,0,1-1.09-.7l-34.11-74.75a1.21,1.21,0,0,1,.59-1.59,1.19,1.19,0,0,1,1.59.59l34.11,74.75a1.2,1.2,0,0,1-.59,1.59A1.25,1.25,0,0,1,176.75,189.86Z"/><path class="cls-3" d="M176.75,243.84a1.24,1.24,0,0,1-.69-.21,1.2,1.2,0,0,1-.29-1.67l33.58-48.34a1.19,1.19,0,0,1,1.67-.3,1.21,1.21,0,0,1,.3,1.67l-33.59,48.34A1.19,1.19,0,0,1,176.75,243.84Z"/><path class="cls-2" d="M87.38,342.9s42.43,2.36,51.25-.73,18-18.87,11.2-26.46c-5.53-6.21-12.63-.7-16.59-6s9.48-23.41-19.38-20.39S100.39,314.65,92.92,312C78.29,306.67,58.14,330.9,87.38,342.9Z"/><rect class="cls-5" x="193.61" y="300.3" width="117.71" height="7.33"/><rect class="cls-5" x="193.61" y="261.62" width="98.04" height="23.65"/><rect class="cls-5" x="196.45" y="278.3" width="2.48" height="59.44"/><rect class="cls-5" x="214.7" y="305.06" width="2.48" height="32.68"/><rect class="cls-5" x="286.92" y="278.3" width="2.48" height="59.44"/><rect class="cls-5" x="305.17" y="305.06" width="2.48" height="32.68"/><path class="cls-1" d="M548.81,344c37.23,0,67.41,4.93,67.41,11S586,366,548.81,366s-67.42-4.92-67.42-11S511.58,344,548.81,344Z"/><path class="cls-6" d="M349.73,165.34s-8.17,8.09-11.48,16.52-6.11,37.58-6.11,37.58l8-2.44s4.54-28.09,17.93-42.19Z"/><path class="cls-6" d="M339.33,215.24a66.16,66.16,0,0,1,3.63,8.13c.62,2.34,3,4.14,1.8,4.94s-4-2.87-4-2.87-1,4.81-1.13,6.33-1,4.21-2.09,4.23-.15-7.28-.15-7.28-1.42,6.06-2.45,6.3-.36-7.74-.36-7.74-1.2,6.54-1.74,7-1.12-.24-1.25-2.66a23.12,23.12,0,0,1,.34-4.93,52.54,52.54,0,0,1-1.52,5c-.33.49-1.15.93-1-2.67s1.83-11.33,4.22-14.86Z"/><path class="cls-6" d="M429.84,239.5c1.51.3,3.32-2.06,4.74-1.5.88,0,1.77.09,2.65.19a8.74,8.74,0,0,1,1.55.36c-.24-1.66-.37-4.35-.37-4.35s2.75,6.56,3.72,5.47-.79-5.92-2-8.11-5.92-8.8-5.92-8.8l-6.08,1.15c-1.35,3.7-1.14,9.07-.62,12.65C428.4,236.47,429,239.32,429.84,239.5Z"/><path class="cls-6" d="M341.25,313.46s-18.51,7.28-19.81,10c-.74,1.55,5.21,24.63,8.41,24.13s.9-18.9,5.9-22.21a37.11,37.11,0,0,1,10.4-4.64Z"/><path class="cls-7" d="M328,319.21c-1.5,13.52,1.9,16.57,4.22,17.12-.54,5.51-.66,11-2.39,11.25-3.21.5-9.15-22.58-8.41-24.14C321.91,322.45,324.69,320.85,328,319.21Z"/><path class="cls-6" d="M398.21,329s1,11.47,1.23,13.59-1.09,8.72.63,9.59,20.32,9.76,21.89,6.78-14.11-14.39-14.36-17.26-.82-14.71-.82-14.71Z"/><path class="cls-7" d="M415.36,350.16c3.79,3.61,7.39,7.26,6.6,8.77-1.57,3-20.17-5.92-21.89-6.78-1.56-.79-.6-6.3-.6-8.9C407.14,352,412.94,351.09,415.36,350.16Z"/><path class="cls-6" d="M406,179.76s11.15,29.64,23,47.9l5.8-3.39s-17.4-43.82-19.66-61.47l-10.66,3.51Z"/><path class="cls-7" d="M371.23,198.38s-8.61,17-10.22,32.08-3.15,47-4.15,51.83-22,31.83-22,31.83l6.72,12.32s34.21-25.8,38.44-43.18,9.06-51,9.06-51,4.47,43,6.25,54.57,0,48.9,0,48.9H413.7s5-23.15,4-58.41-14.26-83-14.26-83Z"/><path class="cls-7" d="M411.76,144c-1.93-2-4.12-4.13-4.63-6.72-.79-4,2.73-7.17,1.87-11.13-.69-3.15-3.87-5.48-5.3-8.48-1.33-2.77-1-5.77-1.68-8.67-2.1-9.47-12.18-13.83-20.24-12.86a16.21,16.21,0,0,0-3.48.81,11.32,11.32,0,0,0-7.46,8.12c-.57,2.73-.14,6.12-2.34,8-2,1.71-5.14,1.13-7.7,1.59a8,8,0,0,0-6.28,4.87c-1.12,3.14-.07,7.48-2.47,9.64-1.72,1.55-4.42,1.31-6.59,2a9.37,9.37,0,0,0-5.71,4.52c-2.06,3.92-.8,9.81,3.34,13a17.1,17.1,0,0,0,7,2.93,40.07,40.07,0,0,0,13.85.61c4.39-.6,8.67-2,13.26-1.21,4,.66,7.74,2.87,11.58,4.54s7.76,2.83,11.2,5.26c1.53,1.09,2.92,2.4,4.48,3.43a7.81,7.81,0,0,0,5.06,1.6,3,3,0,0,0,2.73-3.45c-.16-.8-.63-1.56-.84-2.36-.92-3.59,3.58-5.49,3.95-9C415.63,148.49,413.69,146,411.76,144Z"/><path class="cls-8" d="M377.64,137.93c-8.06.7-18.31,5.39-27,17.21a99.15,99.15,0,0,0-12.37,22.59l15.69,7.56,6.46-8.18s5.57,21.59,10.15,23.16,7.4-1.87,10.08-2.3,11.48,1.83,18.55-.62,7.1-7.84,7.69-14.16,1.5-12.05,1.5-12.05l9.48-3.69s-7.79-24.78-16.89-27S377.64,137.93,377.64,137.93Z"/><path class="cls-9" d="M398.85,118.27s1.2-1.46,1.95-.74c1.92,1.83-.55,3.75-2,4.07Z"/><path class="cls-6" d="M387.65,98a12.84,12.84,0,0,0-13.08,10.81,12.69,12.69,0,0,0,.49,6c1.31,4.61,2.4,8.33,3.94,11.11a12.76,12.76,0,0,1,1.3,9.23l-.79,3.16c7,4.45,10.66,1.08,10.66,1.08l.75-7.41h0c8.11-.14,8.54-15,9-19.39h0l.06-.49A12.79,12.79,0,0,0,387.65,98Z"/><path class="cls-7" d="M385.42,110.85a54.25,54.25,0,0,0-4.78,4.69c-1.63,1.72-3.31,3.56-3.86,5.86a16.42,16.42,0,0,1-3.87-6.71,12,12,0,0,1-.84-3.52,13.33,13.33,0,0,1,1.1-5c.75-2.08,1.55-4.24,3.17-5.74a10.52,10.52,0,0,1,3.82-2.11,18.07,18.07,0,0,1,10.08-.66,13,13,0,0,1,8.12,5.8c2.23,3.79,2,8.47,1.79,12.86a12.88,12.88,0,0,0-2.32-5.08,10.65,10.65,0,0,0-2.31-2.81c-1.64-1.28-2.15-1.09-5-3.49C389.43,107.58,387.57,109.07,385.42,110.85Z"/><path class="cls-6" d="M378.58,118.74a1.85,1.85,0,0,0-.9-1c-.84-.45-2.35-1-3.53,0-1.72,1.4,1,5.86,4.33,4.12C378.48,121.84,379.45,121,378.58,118.74Z"/><path class="cls-7" d="M396.73,118.18a1.12,1.12,0,1,0-1.31.87A1.11,1.11,0,0,0,396.73,118.18Z"/><path class="cls-7" d="M386.12,118.29a1.12,1.12,0,1,0-1.31.87A1.12,1.12,0,0,0,386.12,118.29Z"/><path class="cls-9" d="M393.5,126s-.92-.74-1.5-.61a1.68,1.68,0,0,0-.92.81,1.29,1.29,0,0,0-1-.75,16.39,16.39,0,0,0-2.66.4s1.66,3,3.76,2.61a2.79,2.79,0,0,0,2.28-2.36Z"/><path class="cls-10" d="M391.5,127.07c-2.4.4-4.63-1.46-4.66-1.48a.16.16,0,0,1,0-.23.16.16,0,0,1,.22,0c.15.12,3.63,3,6.45.37a.16.16,0,1,1,.21.23A4.11,4.11,0,0,1,391.5,127.07Z"/><path class="cls-7" d="M382.63,116.33a.49.49,0,0,1-.33-.22.47.47,0,0,1,.16-.64,5.59,5.59,0,0,1,3.69-.55.46.46,0,0,1,.36.55.47.47,0,0,1-.54.36,4.62,4.62,0,0,0-3,.44A.57.57,0,0,1,382.63,116.33Z"/><path class="cls-7" d="M394.13,115.55a.46.46,0,0,1,0-.87,5.48,5.48,0,0,1,3.73.12.46.46,0,0,1,.26.6.48.48,0,0,1-.61.26,4.56,4.56,0,0,0-3.05-.11A.5.5,0,0,1,394.13,115.55Z"/><path class="cls-9" d="M390.7,123a2,2,0,0,0,2-1.57.45.45,0,0,0-.06-.28,5.77,5.77,0,0,1-.7-3.67.39.39,0,0,0-.77-.13,6.54,6.54,0,0,0,.72,4.08c-.11.3-.49,1-1.74.76a.39.39,0,0,0-.44.33.4.4,0,0,0,.33.45A3.3,3.3,0,0,0,390.7,123Z"/><path class="cls-11" d="M408.37,171.24a.11.11,0,0,0,.1-.1c.25-6-4.77-14.11-4.82-14.19a.1.1,0,0,0-.14,0,.11.11,0,0,0,0,.15c0,.08,5,8.17,4.78,14.07a.1.1,0,0,0,.1.11Z"/><path class="cls-11" d="M375.6,176.82a18.72,18.72,0,0,0,9.26-3.43.12.12,0,0,0,0-.15.12.12,0,0,0-.15,0c-.08.07-7.92,6-15.17,2.05a.12.12,0,0,0-.14,0,.11.11,0,0,0,0,.15A11.45,11.45,0,0,0,375.6,176.82Z"/><path class="cls-12" d="M592.5,275s5.2-10.38,6.55-9.08c1.68,1.61.92,5.17.4,8S592.5,275,592.5,275Z"/><path class="cls-12" d="M584.28,311.91s8.31,25.11,18.48,33L600,348.05s-28.56-11.42-30.74-24S584.28,311.91,584.28,311.91Z"/><path class="cls-12" d="M602.76,344.89s3.31-1.54,5.63-.45-1.14,4.24-3.23,4.63-5.18-1-5.18-1Z"/><path class="cls-12" d="M537.2,329.44s-7.27,9.53-27.09,7a8.14,8.14,0,0,0-6.45,1.93l-7.89,6.92-2.56-3.48,7.71-12.92a4.74,4.74,0,0,1,1.89-1.77c2.72-1.39,9.27-5.35,9.33-11.17C512.24,306,544.78,315.87,537.2,329.44Z"/><path class="cls-12" d="M495.77,345.25a6.1,6.1,0,0,1-1,4.6c-1.57,2.28-3.63,2.1-4.23,1.29s-.49-3.86-.58-5.29,3.24-4.08,3.24-4.08Z"/><path class="cls-13" d="M591.31,288s-2.67,1.37-9.07,4a82.14,82.14,0,0,0-9.29,3.9c-7,3.81-7.39,4.59-16.53,6.52-5.77,1.21-23.5-.46-29-.22-27.65,1.16-14.39,28.14-1.53,31.18s53,5.38,64.27-9.66c4.35-5.8,9.63-13.6,11.83-20.43,0,0,.67-6.76.71-8.45C602.82,289.58,600.12,288.67,591.31,288Z"/><path class="cls-13" d="M586.66,275.66s1.84-6.43,5.84-10.74c1.09-1.17,2.44.61,2.66,2.19.32,2.22-.62,6.44-.9,8C593.73,277.93,586.66,275.66,586.66,275.66Z"/><path class="cls-8" d="M610.11,288.08s3.74,0,4.46,1.46.39,4.35-1.3,4.67-2.08-1.69-1.69-2.53-2.76-1.7-2.76-1.7-9.53-1.37-9.72-2.93S610.11,288.08,610.11,288.08Z"/><path class="cls-13" d="M595.71,271.55a7.86,7.86,0,0,1,7.51,3.77,8.79,8.79,0,0,0,6.35,4.49c5.58.6,7.66,1.36,8,2.4.23.63-1.11,2.36-2.2,3.62a5.93,5.93,0,0,1-3.31,1.93,15.28,15.28,0,0,1-6.78-.24s1.4,1.49,6.67,2.31a.71.71,0,0,1,.46,1.22,3.85,3.85,0,0,1-1.87.76c-2.74.49-7.13,2.42-7.83,4.07a15.19,15.19,0,0,0-.73,4.54L584.81,292s3.61-2.09,2-3.49c-3.39-2.86-3.58-9.25-.11-12.85A15.63,15.63,0,0,1,595.71,271.55Z"/><path class="cls-13" d="M521.27,310.49s-8.82-12.89-3-26.43c2.25-5.22-3.68-10.24-8.6-7.37a22,22,0,0,0-6.53,6c-9.15,12.26,1.25,31.51,12.64,30.78S521.27,310.49,521.27,310.49Z"/><path class="cls-13" d="M539.45,323.59s-3.15,13-23.18,18.78a5.74,5.74,0,0,0-3.64,3.13l-4.34,9.61-3.77-2.1L506,339.42a3.72,3.72,0,0,1,1-2.13c2.28-2.49,8.49-10.26,7.18-19.8C512.94,308.48,540.73,308.1,539.45,323.59Z"/><path class="cls-13" d="M508.29,355.11a6.15,6.15,0,0,1,1,4.61c-.49,2.72-2.44,3.4-3.31,2.92s-2.05-3.31-2.73-4.58,1.26-5.05,1.26-5.05Z"/><path class="cls-8" d="M586.77,288.51a22.78,22.78,0,0,0,16,7.37l-.79,7.41s-17.25-5.81-19.73-11.29Z"/><path class="cls-13" d="M589.79,309.71s13.68,19.5,24.49,23.65l-1.58,3.44s-27.58-2.45-32.73-12.73S589.79,309.71,589.79,309.71Z"/><path class="cls-13" d="M614.28,333.36s2.46-2.19,4.73-1.85.12,3.95-1.57,4.83-4.74.46-4.74.46Z"/><path class="cls-7" d="M585,290.49c-.16.05-13.32,4.23-43.17,4.23-7.45,0-15.94-.26-25.52-.91a76.73,76.73,0,0,1-33.87-10.89,113.46,113.46,0,0,1-25.11-20.56,153,153,0,0,1-17.09-22.21c-1-1.56-1.8-2.91-2.42-4,0-.54.1-1.12.19-1.63.63,1.12,1.63,2.83,3,5A152.61,152.61,0,0,0,458,261.71a112.73,112.73,0,0,0,24.88,20.38,75.72,75.72,0,0,0,33.42,10.74c47.77,3.24,68.13-3.21,68.33-3.27Z"/><path class="cls-7" d="M432.89,275.32a9,9,0,0,1-6.86-3.17c-7.89-8.88-5-24.57-3.26-29.87,2.85-8.52,8.41-6.86,8.46-6.84l-.29.93c-.2-.06-4.71-1.35-7.24,6.22-1.72,5.15-4.51,20.38,3.06,28.91a8.14,8.14,0,0,0,11.15,1.16c.57-.48,2.32-2.19.79-4.12-16.76-21.27-9.55-30.18-9.31-30.57l.55,1.34c-.05.09-6.75,8,9.53,28.62,1.36,1.72,1,3.87-.93,5.48A9.08,9.08,0,0,1,432.89,275.32Z"/><path class="cls-14" d="M441.07,239.34l-.12.18a1.62,1.62,0,0,1-.75.63,2.72,2.72,0,0,1-2.27-.5c-.53,1.2-3.42.53-3.42.53-1,.6-2.82-.61-2.82-.61a1.64,1.64,0,0,1-2,0c-1-.83-.09-7,1-6.7s.65,4.64,1,4.64.5-5.1,1.4-4.92,1.28,5,1.31,5.42c0-.48-.14-6.09,1.09-5.78.36.09.68.58,1,1.23.13.31.26.67.38,1.05h0a33.15,33.15,0,0,1,.84,3.69s0-.93.12-2c0-.54.1-1.12.19-1.63.15-.93.38-1.67.73-1.7C439.65,232.77,441.07,239.34,441.07,239.34Z"/><path class="cls-7" d="M601.77,279.34a1,1,0,1,1,2-.4,1,1,0,1,1-2,.4Z"/><path class="cls-7" d="M613.91,280.46s3.34-.35,4,.39c.51.56,0,2.21-.92,2.88A4.45,4.45,0,0,1,613.91,280.46Z"/></g></g></svg>