<svg xmlns="http://www.w3.org/2000/svg" viewBox="0 0 169 131"><defs><style>.cls-1{fill:#e4eefd;}.cls-2{fill:#b5d1fa;}.cls-3{fill:#3a94ea;}.cls-4{fill:#ff9391;}.cls-5{fill:#0b0b78;}.cls-6{fill:#80b5fa;}.cls-7{fill:#ff6868;}.cls-8{fill:#01011c;}.cls-9{fill:#fff;}.cls-10{fill:#ff7367;}.cls-11{fill:#010131;}.cls-12{fill:#040156;}.cls-13{fill:#f9f9fb;}.cls-14{fill:#6e9af4;}.cls-15{fill:#4250f0;}</style></defs><title>pic_n_3</title><g id="Layer_2" data-name="Layer 2"><g id="Layer_1-2" data-name="Layer 1"><path class="cls-1" d="M152.55,125c6.16-12.3,10.79-25.67,11-39.44s-4.41-28-14.44-37.4c-2.94-2.75-6.28-5.05-9-8-6.16-6.53-8.63-15.45-14.1-22.45A44.49,44.49,0,0,0,105.87,3.54a64.55,64.55,0,0,0-44.76,1,76.76,76.76,0,0,0-35,29.08c-4.34,6.68-5.27,14.17-7.5,21.76A117.92,117.92,0,0,1,8.4,80.44C6.57,83.67,4.55,86.9,3.8,90.53c-.86,4.16,0,8.46-.24,12.7-.26,4.44-1.72,9-.29,13.24,1.59,4.66,6,8,10.27,10.35Z"/><ellipse class="cls-2" cx="84.66" cy="124.96" rx="82.53" ry="6.04"/><polygon class="cls-2" points="63.52 83.04 10.59 58.35 1.07 78.89 54 103.58 63.52 83.04"/><path class="cls-3" d="M0,79.28l10.2-22L64.59,82.65l-10.2,22ZM11,59.42,2.13,78.5l51.48,24,8.85-19.08Z"/><ellipse class="cls-3" cx="32.69" cy="80.93" rx="9.27" ry="9.3"/><path class="cls-3" d="M47,87.87a2.12,2.12,0,1,0-2.81,1A2.13,2.13,0,0,0,47,87.87Z"/><path class="cls-3" d="M21.41,75.94a2.13,2.13,0,0,0-1-2.82,2.12,2.12,0,1,0,1,2.82Z"/><path class="cls-4" d="M65.43,111.24s1.27,7.43,1.32,7.52-.47.89-.47.89l-2,.36-1.82-.84s-1.06-6-1.25-6.92S65.43,111.24,65.43,111.24Z"/><path class="cls-5" d="M62.46,119.17a5.17,5.17,0,0,0,4.27-.53s7.68,2.88,7.44,5.08c0,0,.33.65-3,.51s-8.5-.29-8.64-.37S61.75,124.14,62.46,119.17Z"/><path class="cls-4" d="M42.64,111.24s-2,7.43-1.91,7.52-.46.89-.46.89l-2,.36-1.82-.84s1-6.11.8-7S42.64,111.24,42.64,111.24Z"/><path class="cls-5" d="M36.45,119.17a5.17,5.17,0,0,0,4.27-.53s7.68,2.88,7.44,5.08c0,0,.33.65-3,.51s-8.49-.29-8.63-.37S35.74,124.14,36.45,119.17Z"/><path class="cls-5" d="M63.37,64.79l4,50.86H60.49S53.2,75.46,52.17,75.28s-8.42,40.37-8.42,40.37H35.84l4-52.18Z"/><path class="cls-6" d="M47.82,25.16s10.52,1.24,12.75,2.77S63.38,54.6,63.38,54.6l.35,11.16s-13.82,4.7-25.07,0L38.07,54.6s-5.26-25.49-1.62-26.54S47.82,25.16,47.82,25.16Z"/><path class="cls-7" d="M53.49,15.18s.42-.77.82-.51c1,.67.16,1.73-.47,2Z"/><path class="cls-4" d="M53.46,12.48h0c0-.08,0-.16,0-.23A5.93,5.93,0,1,0,42.36,15.7c.68,1.33,1.27,2.48,1.87,3.41a8.55,8.55,0,0,1,1.28,5.24l-.11,1.44c3.81,1.61,5.3-.34,5.3-.34l-.17-2.62a.66.66,0,0,1,.56-.7h0C55.56,21.43,53.65,14.52,53.46,12.48Z"/><path class="cls-8" d="M47.66,16.15a.55.55,0,0,0-1.1.1.56.56,0,0,0,.6.5A.55.55,0,0,0,47.66,16.15Z"/><path class="cls-8" d="M52.46,14.72a.56.56,0,0,0-.6-.5.55.55,0,0,0-.5.6.54.54,0,0,0,.6.5A.55.55,0,0,0,52.46,14.72Z"/><path class="cls-8" d="M45.61,15.47a.45.45,0,0,1-.16,0,.33.33,0,0,1-.16-.44,1.74,1.74,0,0,1,2.31-.76.32.32,0,0,1,.18.42.33.33,0,0,1-.42.18,1.07,1.07,0,0,0-1.48.45A.34.34,0,0,1,45.61,15.47Z"/><path class="cls-8" d="M50.69,14.14a.33.33,0,0,1-.17,0,.32.32,0,0,1-.15-.43,1.74,1.74,0,0,1,2.3-.77.33.33,0,0,1-.23.61A1.1,1.1,0,0,0,51,14,.32.32,0,0,1,50.69,14.14Z"/><polygon class="cls-5" points="41.14 13.79 43.11 17.65 44.16 17.34 44.34 12.11 41.14 13.79"/><path class="cls-4" d="M44.32,17.19a.92.92,0,0,0-.5-.37,1.49,1.49,0,0,0-1.61.3c-.66.79,1,2.59,2.33,1.5C44.54,18.62,44.92,18.17,44.32,17.19Z"/><path class="cls-7" d="M50.67,17.89a1.15,1.15,0,0,1-1,.06.11.11,0,0,1,0-.13.09.09,0,0,1,.13,0,.9.9,0,0,0,1-.26.34.34,0,0,0,.12-.2c0-.06-.09-.14-.21-.25a2.86,2.86,0,0,1-1-1.67.1.1,0,0,1,.19,0,2.61,2.61,0,0,0,.9,1.57c.15.13.26.24.27.39a.48.48,0,0,1-.16.33A1.9,1.9,0,0,1,50.67,17.89Z"/><path class="cls-9" d="M48.54,19.09a8.09,8.09,0,0,0,3.63-.72s-.2,1.76-1.49,2S48.54,19.09,48.54,19.09Z"/><path class="cls-5" d="M52.3,10.27s.91.52,1.44,4.1c0,0-.07-4-.56-4.44S52.3,10.27,52.3,10.27Z"/><path class="cls-5" d="M42.68,6.36C43.86,5,46,5.15,47.43,4.06a8.44,8.44,0,0,1-1.8,2.43l6.23-1.82a13.07,13.07,0,0,1-2.1,1.76,26.41,26.41,0,0,0,4.87,0,1,1,0,0,1-.06.85C54,8.76,53.22,10.42,51.71,11a4.57,4.57,0,0,1-1.47.29c-2,.11-4.19-.38-5.84.74-.76.53-1.71,2.34-2.79,2.08S39,10.47,42.68,6.36Z"/><ellipse class="cls-10" cx="59.35" cy="44.21" rx="14.7" ry="15.16" transform="translate(-0.56 0.77) rotate(-0.74)"/><path class="cls-4" d="M39.54,46.75s3-.89,4.15-1.12,2-1.27,2.37-.71-1.45,1.82-1.45,1.82,2.22.62,2.94.7,2,.57,1.93,1.1-3.42-.13-3.42-.13,2.8.84,2.89,1.33-3.65,0-3.65,0a19.8,19.8,0,0,1,3.23,1c.18.27-.15.52-1.29.52a10.91,10.91,0,0,1-2.3-.29,24.1,24.1,0,0,1,2.32.85c.22.17.41.56-1.28.38s-5.19-1.1-6.78-2.32Z"/><path class="cls-6" d="M36.45,28.06c-.37.24-.73.51-1.1.8-6,4.79-12.06,17.88-10.71,20.93,1.43,3.24,17,2.52,17,2.52V44.76s-8.81,2-8.21-.17S37.89,37,37.89,37Z"/><path class="cls-4" d="M69.61,33.1s-1.49,2.28-1.2,2.53,1.85-1.25,1.83-1.22-1.38,1.86-1.1,2.33,2-1.34,2-1.34-1.4,1.62-1.2,1.93,1.72-1.1,1.82-1-1.29,1.21-1.06,1.6,2.26-1.09,2.22-1.61a.66.66,0,0,0-.57-.59s-.16-.87-.62-1c0,0-.63-1-1.13-.84C70.58,33.91,70.45,32.87,69.61,33.1Z"/><rect class="cls-2" x="108.48" y="94.22" width="58.38" height="22.65" transform="translate(-12.81 19.24) rotate(-7.64)"/><path class="cls-3" d="M109.54,121.55l-3.2-24,59.45-8,3.21,24Zm-1.4-22.66,2.78,20.85,56.28-7.55-2.78-20.85Z"/><ellipse class="cls-3" cx="137.98" cy="105.3" rx="9.27" ry="9.3"/><path class="cls-3" d="M153.75,103.43a2.12,2.12,0,1,0-1.82,2.39A2.11,2.11,0,0,0,153.75,103.43Z"/><path class="cls-3" d="M125.8,107.18a2.12,2.12,0,1,0-1.82,2.39A2.12,2.12,0,0,0,125.8,107.18Z"/><polygon class="cls-2" points="140.67 49.77 102.3 96.17 120.2 111.05 158.56 64.65 140.67 49.77"/><path class="cls-6" d="M120.31,112.21,101.14,96.27,140.56,48.6l19.17,15.95ZM103.47,96.06l16.62,13.82L157.4,64.76,140.78,50.94Z"/><ellipse class="cls-6" cx="130.5" cy="80.01" rx="9.54" ry="9.57"/><path class="cls-6" d="M141.13,67.55a2.18,2.18,0,1,0,.29,3.08A2.18,2.18,0,0,0,141.13,67.55Z"/><path class="cls-6" d="M122.6,90a2.19,2.19,0,0,0-2.79,3.37,2.17,2.17,0,0,0,3.07-.28A2.2,2.2,0,0,0,122.6,90Z"/><path class="cls-2" d="M132.13,79.62A3.65,3.65,0,0,0,133,76.9a4,4,0,0,0-4.12-3,3.6,3.6,0,0,0-2.32,1.63l-2.66,3.64,4.53,3.33-.91,1.24,1.06.78.91-1.25,1,.75-.91,1.24,1.06.78.91-1.25,1.8,1.32.92-1.26-1.8-1.32,2.49-3.4-1.06-.78-2.49,3.4-1-.74Zm-6.27-1,1.43-2a2.82,2.82,0,0,1,1.59-1.25,2,2,0,0,1,1.65.45,2,2,0,0,1,.93,1.45,2.84,2.84,0,0,1-.7,1.89l-1.43,2Z"/><path class="cls-11" d="M125.32,18.77c.09,1.39-.45,2.83-.06,4.18.51,1.78,2.45,2.77,3.28,4.43s.41,4,1.63,5.53c.43.54,1,.91,1.5,1.43a3.7,3.7,0,0,1,.29,4.42,5.55,5.55,0,0,1-4.71,2c-1.77,0-3.53-.43-5.3-.35s-3.55.69-5.35.63a9.1,9.1,0,0,1-6.45-3.36A16.65,16.65,0,0,1,107,31a14.34,14.34,0,0,1-.48-2.82c-.2-3.7,1.67-7.2,3.83-10.21a10.13,10.13,0,0,1,3.64-3.46C117.41,12.83,125,13.93,125.32,18.77Z"/><path class="cls-4" d="M108,111.45s.63,6.26-.65,7c-2.31,1.29-6.57,2.52-6.21,3.62s10.57,1.15,10.85.14-.86-4.09.35-10.09Z"/><path class="cls-12" d="M111.92,119.93a9,9,0,0,1,.1,2.25c-.28,1-10.49,1-10.85-.14-.27-.82,2-1.74,4.13-2.66C105.81,120.23,106.88,121.56,111.92,119.93Z"/><path class="cls-4" d="M127.18,111.27s1.69,6.06.55,7c-2.06,1.66-6,3.6-5.51,4.63s10.61-.67,10.72-1.72-1.54-3.88-1.37-10Z"/><path class="cls-12" d="M132.46,119a9.38,9.38,0,0,1,.48,2.2c-.11,1-10.18,2.75-10.72,1.72-.4-.76,1.67-2.06,3.62-3.33C126.48,120.3,127.77,121.43,132.46,119Z"/><path class="cls-12" d="M109.22,55.91a25.14,25.14,0,0,0-4,7.31c-1.25,3.94,2.07,50.67,2.07,50.67h5.54s2.94-41.61,2.94-42c0-1.45,10.91,42,10.91,42h5.54s-3-50.86-10-58l-6.5.4Z"/><path class="cls-11" d="M109.22,54.16v1.75s3.3,3.22,13,0l0-1.75-8.54-.54Z"/><path class="cls-9" d="M112.52,33.08s-3.44-.13-5.19,1.08c-1.25.86-4,5.75-4,5.75l3.17,2.7A3.93,3.93,0,0,0,108.68,47l.54,7.13s5.54,3.23,13,0c0,0,1.83-12.54,2.73-11a10.41,10.41,0,0,0,.94,1.37l6-3.81s-5.2-7-7-7.86a8.7,8.7,0,0,0-7.66-.08Z"/><path class="cls-4" d="M111,22.14s-.38-.74-.77-.5c-1,.61-.12,1.68.47,2Z"/><path class="cls-4" d="M117.78,14.39a5.69,5.69,0,0,1,3.86,8.49,24.81,24.81,0,0,1-2.76,4.46,5.66,5.66,0,0,0-1.43,3.88l0,1.45c-3.47,1.27-4.82.4-4.82.4l.48-4.23h0c-3.5-.83-2.28-7.34-2.06-9.28h0c0-.07,0-.14,0-.22A5.68,5.68,0,0,1,117.78,14.39Z"/><path class="cls-11" d="M117.57,20.16a23,23,0,0,1,2.36,4c.07.16.52,1.33.34,1.44A7.28,7.28,0,0,0,122.58,23a5.93,5.93,0,0,0-4.17-8.88,6.24,6.24,0,0,0-5.79,1.6c-1.36,1.47-1.64,3.5-2,5.39.39-2.12,3.44-3.39,5.25-3.95,0,0,1.07,2,1.13,2.1C117.19,19.59,117.38,19.87,117.57,20.16Z"/><path class="cls-4" d="M119.74,24.27a.89.89,0,0,1,.48-.35,1.41,1.41,0,0,1,1.53.32c.62.78-1,2.46-2.26,1.38C119.49,25.62,119.15,25.18,119.74,24.27Z"/><path class="cls-11" d="M111.94,22.3a.5.5,0,0,1,.5-.49.5.5,0,1,1,0,1A.49.49,0,0,1,111.94,22.3Z"/><path class="cls-11" d="M116.52,23.36a.49.49,0,0,1,.5-.49.5.5,0,1,1,0,1A.48.48,0,0,1,116.52,23.36Z"/><path class="cls-10" d="M112.43,25.78s.65-.47.9-.39a.75.75,0,0,1,.38.39.58.58,0,0,1,.47-.3c.31,0,.94.86.94.86s-.91,1.33-1.84,1.13-.84-1.62-.84-1.62Z"/><path class="cls-11" d="M118.07,22.79a.17.17,0,0,0,.16-.06.2.2,0,0,0,0-.29,2.49,2.49,0,0,0-1.5-.69.21.21,0,0,0-.22.19.21.21,0,0,0,.19.23,2.06,2.06,0,0,1,1.23.55A.24.24,0,0,0,118.07,22.79Z"/><path class="cls-11" d="M113.34,21.33a.21.21,0,0,0,.15-.09.21.21,0,0,0-.06-.29,2.4,2.4,0,0,0-1.62-.31.2.2,0,0,0-.17.23.2.2,0,0,0,.23.17,2.11,2.11,0,0,1,1.34.25A.22.22,0,0,0,113.34,21.33Z"/><path class="cls-7" d="M114.09,25a.87.87,0,0,1-.7-.87.21.21,0,0,1,0-.12,2.58,2.58,0,0,0,.65-1.52.17.17,0,0,1,.18-.17.18.18,0,0,1,.16.18,2.9,2.9,0,0,1-.69,1.71c0,.14.12.46.68.49a.19.19,0,0,1,.16.19.18.18,0,0,1-.19.16A1.34,1.34,0,0,1,114.09,25Z"/><path class="cls-13" d="M112.43,25.78l2.69.56a3.18,3.18,0,0,1-1.74.56C112.65,26.79,112.43,25.78,112.43,25.78Z"/><path class="cls-14" d="M117.75,46.05a4.16,4.16,0,0,0,3.57-2.55.09.09,0,0,0,0-.12.1.1,0,0,0-.12,0,4,4,0,0,1-3.4,2.43,3.75,3.75,0,0,1-3.33-1.76.08.08,0,0,0-.12,0,.09.09,0,0,0,0,.12A3.92,3.92,0,0,0,117.75,46.05Z"/><path class="cls-14" d="M106.49,42.7a.09.09,0,0,0,.09-.08,5.36,5.36,0,0,1,1.52-2.93.1.1,0,0,0,0-.13.09.09,0,0,0-.13,0,5.45,5.45,0,0,0-1.58,3,.1.1,0,0,0,.08.1Z"/><path class="cls-2" d="M112.16,56.42a1.64,1.64,0,1,1,1.64,1.64A1.64,1.64,0,0,1,112.16,56.42Zm.75,0a.9.9,0,1,0,.89-.9A.9.9,0,0,0,112.91,56.42Z"/><ellipse class="cls-10" cx="111.64" cy="47.2" rx="14.8" ry="15.26" transform="matrix(1, -0.01, 0.01, 1, -0.6, 1.45)"/><path class="cls-4" d="M101,35.6s1.5,2.3,1.21,2.55-1.86-1.26-1.85-1.23,1.39,1.88,1.11,2.35-2-1.35-2-1.35,1.41,1.64,1.2,1.95-1.72-1.11-1.82-1,1.3,1.23,1.06,1.62-2.27-1.1-2.23-1.62a.67.67,0,0,1,.57-.6s.16-.87.62-1c0,0,.63-1,1.14-.85C100,36.42,100.12,35.38,101,35.6Z"/><path class="cls-4" d="M131.45,41s3.46,4.72,3.79,6.17c.67,3-11.26,7-11.26,7L122.43,52s7.12-4.62,6.95-5.12a31.92,31.92,0,0,0-2.25-3.13Z"/><path class="cls-15" d="M67.66,71V84.81s6.81-1.79,6.81-7.68S67.66,71,67.66,71Z"/><path class="cls-11" d="M68,84.66a9.41,9.41,0,0,0,3.06-7.12c0-3.62-1.7-5.5-3.4-6.47V84.76Z"/><ellipse class="cls-15" cx="85.48" cy="98.32" rx="29.47" ry="22.72"/><path class="cls-15" d="M57.45,93.06h.45a0,0,0,0,1,0,0V106a0,0,0,0,1,0,0h-.45A6.47,6.47,0,0,1,51,99.53v0A6.47,6.47,0,0,1,57.45,93.06Z"/><path class="cls-11" d="M53.29,99.21c0-1.59-.24-2.89-.53-2.89s-.52,1.3-.52,2.89.23,2.9.52,2.9S53.29,100.81,53.29,99.21Z"/><path class="cls-11" d="M65.82,95.61A1.86,1.86,0,1,0,64,97.48,1.86,1.86,0,0,0,65.82,95.61Z"/><path class="cls-15" d="M75.42,71.29V85.07s6.81-1.79,6.81-7.68S75.42,71.29,75.42,71.29Z"/><path class="cls-11" d="M75.76,84.92a9.37,9.37,0,0,0,3.06-7.12c0-3.62-1.7-5.5-3.4-6.47V85Z"/><path class="cls-11" d="M94.92,78.88h0c-6.62-1.51-10.32-.64-10.35-.63a.07.07,0,1,1,0-.14s3.77-.88,10.42.63a.07.07,0,0,1,0,.09A.08.08,0,0,1,94.92,78.88Z"/><rect class="cls-15" x="65.82" y="114.6" width="9.26" height="9.28"/><rect class="cls-15" x="95.6" y="114.6" width="9.26" height="9.28"/><path class="cls-15" d="M116.35,92.38h-.14a1.9,1.9,0,0,1-1.49-1.45,5,5,0,0,1,0-2l-.16,0A2.39,2.39,0,0,0,113.14,90a3.43,3.43,0,0,0-.27.82,2.21,2.21,0,0,1-.64,1.27.1.1,0,0,1-.14,0,.1.1,0,0,1,0-.14,2.06,2.06,0,0,0,.57-1.16,3.71,3.71,0,0,1,.29-.87,2.5,2.5,0,0,1,1.53-1.15,1.83,1.83,0,0,1,.25-.06,1.49,1.49,0,0,1,.13-.49,1.92,1.92,0,0,1,1.54-.82l2.81-.45a.1.1,0,0,1,.12.09.11.11,0,0,1-.09.12l-2.8.45a1.76,1.76,0,0,0-1.4.7,1.4,1.4,0,0,0-.1.35,2.94,2.94,0,0,1,1.85.28,2.1,2.1,0,0,1,1.1,2A1.66,1.66,0,0,1,116.35,92.38Zm-1.43-3.51a5.33,5.33,0,0,0,0,2,1.71,1.71,0,0,0,1.32,1.3,1.42,1.42,0,0,0,1.46-1.25,1.9,1.9,0,0,0-1-1.79A2.67,2.67,0,0,0,114.92,88.87Z"/><path class="cls-10" d="M93.07,61.33a6.55,6.55,0,1,0-6.45,6.84A6.66,6.66,0,0,0,93.07,61.33Z"/><path class="cls-2" d="M32.85,82.61a3.43,3.43,0,0,0,2.72.12,3.91,3.91,0,0,0,1.77-4.57,3.48,3.48,0,0,0-2.09-1.75l-4-1.56-1.94,5-1.37-.54-.46,1.18,1.38.53-.44,1.12L27,81.64l-.46,1.17,1.38.54-.77,2,1.39.55.77-2,3.76,1.46.46-1.17-3.77-1.47.44-1.12Zm-.68-6,2.16.83a2.75,2.75,0,0,1,1.54,1.17,2,2,0,0,1,0,1.65,1.94,1.94,0,0,1-1.11,1.22,2.75,2.75,0,0,1-1.92-.19l-2.16-.83Z"/><path class="cls-9" d="M113.35,49.07a5,5,0,0,0,3.72-1.26,4.82,4.82,0,0,0,1.25-3.55,4.78,4.78,0,0,0-1.25-3.54,5,5,0,0,0-3.72-1.27h-6.23v7.8H105v1.82h2.13v1.74H105v1.82h2.13v3.1h2.16v-3.1h5.83V50.81h-5.83V49.07Zm-4.07-7.79h3.34a4,4,0,0,1,2.69.76,3.31,3.31,0,0,1,0,4.45,4,4,0,0,1-2.69.76h-3.34Z"/><path class="cls-9" d="M62.15,45.74a5.26,5.26,0,0,0,3.91-1.33,5.06,5.06,0,0,0,1.31-3.71A5.07,5.07,0,0,0,66.06,37a5.26,5.26,0,0,0-3.91-1.33H55.62v8.18H53.39v1.91h2.23v1.82H53.39v1.91h2.23v3.25h2.26V49.47H64V47.56H57.88V45.74Zm-4.27-8.18h3.51a4.11,4.11,0,0,1,2.82.81,2.94,2.94,0,0,1,.89,2.33A3,3,0,0,1,64.21,43a4.17,4.17,0,0,1-2.82.8H57.88Z"/><path class="cls-9" d="M87.49,62.24a2.2,2.2,0,0,0,1.64-.56,2.49,2.49,0,0,0,0-3.12A2.2,2.2,0,0,0,87.49,58H84.75v3.44h-.94v.8h.94V63h-.94v.81h.94v1.36h1V63.81h2.57V63H85.7v-.76ZM85.7,58.81h1.47a1.78,1.78,0,0,1,1.19.33,1.25,1.25,0,0,1,.37,1,1.24,1.24,0,0,1-.37,1,1.78,1.78,0,0,1-1.19.34H85.7Z"/><ellipse class="cls-10" cx="81.1" cy="35.81" rx="5.63" ry="5.81" transform="translate(-0.46 1.05) rotate(-0.74)"/><path class="cls-9" d="M82,36.73a2.07,2.07,0,0,0,1.52-.51,2.29,2.29,0,0,0,0-2.88A2.07,2.07,0,0,0,82,32.83H79.43V36h-.87v.74h.87v.71h-.87v.74h.87v1.25h.87V38.18h2.37v-.74H80.3v-.71ZM80.3,33.57h1.36a1.58,1.58,0,0,1,1.09.31,1.16,1.16,0,0,1,.35.9,1.13,1.13,0,0,1-.35.9,1.58,1.58,0,0,1-1.09.31H80.3Z"/><path class="cls-2" d="M139.58,106.2a3.37,3.37,0,0,0,2-1.69,3.26,3.26,0,0,0-.08-2.52,3.2,3.2,0,0,0-1.63-1.9,3.33,3.33,0,0,0-2.63.11l-3.88,1.51,1.88,4.86-1.33.52.44,1.14,1.33-.52.42,1.09-1.33.51.44,1.14,1.32-.52.75,1.93,1.35-.52-.75-1.93,3.64-1.42-.44-1.13-3.64,1.41-.42-1.08Zm-4.42-3.87,2.08-.81a2.65,2.65,0,0,1,1.87-.18,2.21,2.21,0,0,1,1.07,2.77,2.64,2.64,0,0,1-1.5,1.13l-2.08.81Z"/></g></g></svg>