<svg xmlns="http://www.w3.org/2000/svg" viewBox="0 0 271 312"><defs><style>.cls-1{fill:#6e9bf6;}.cls-2{fill:#fff;}.cls-3{fill:#e6effe;}.cls-4{fill:#dde8fe;}.cls-5{fill:#010232;}.cls-6{fill:#050156;}.cls-7{fill:#ff9492;}.cls-8{fill:#fe6d6d;}.cls-9{fill:#ff6769;}.cls-10{fill:#ff7369;}.cls-11{fill:#fbfbfd;}.cls-12{fill:#01011d;}.cls-13{fill:#b6d1fc;}.cls-14{fill:#5f8bd4;}.cls-15{fill:#81b6fc;}.cls-16{fill:#fd7171;}.cls-17{fill:#3149d1;}.cls-18{fill:#111078;}</style></defs><title>Asset 22</title><g id="Layer_2" data-name="Layer 2"><g id="Layer_1-2" data-name="Layer 1"><path class="cls-1" d="M196.61,184.94a19.68,19.68,0,0,1,2.66,0A49.47,49.47,0,0,1,216,189.22a35.41,35.41,0,0,1,9.43,6.52l.17.1a83.31,83.31,0,0,1,7.68,10.66c3.4,5.41,6.68,11.07,8.06,17.38a20.35,20.35,0,0,1-1.86,14.36,26.19,26.19,0,0,1-5.12,6.59L233.12,246a30.92,30.92,0,0,0-11.8,2.06q0-11,0-22.06a23.11,23.11,0,0,1,9.7-2.26c-3.27-1-6.68.56-9.71,1.75,0-2.61.11-5.23-.06-7.83-.1-.1-.29-.31-.38-.42-2.26-.17-4.54,0-6.8-.07-.68-2.39-.69-5-1.83-7.25.25,2.46.94,4.83,1.38,7.25H171.27c.13-2,.43-4,.38-6-.85,1.87-.46,4-.81,6.06a38.46,38.46,0,0,0-4.8.1,2.86,2.86,0,0,0-.27,1.59q0,3.49,0,7a56.31,56.31,0,0,0-8.45-3.12,2.9,2.9,0,0,0-1.49-.08,78,78,0,0,1,9.94,3.69c0,9.34,0,18.69,0,28a41.32,41.32,0,0,1-10.31-3.11,24.09,24.09,0,0,1-9.33-8.47,21.47,21.47,0,0,1-2.4-9.38c-.18-6.74,2.31-13.13,4.48-19.39.61-1.23,1.29-2.41,1.89-3.64a43.23,43.23,0,0,1,12.74-15.82,46.08,46.08,0,0,1,18.85-8.36,8,8,0,0,0,.61,2.14C187.29,189.48,192.52,187.88,196.61,184.94Z"/><path class="cls-2" d="M191.82,232.24a3.55,3.55,0,1,1-1.52,5.95A3.57,3.57,0,0,1,191.82,232.24Z"/><path class="cls-3" d="M66.08,223.24c1.7-.35,3.25-1.3,5-1.33.32,1.62.62,3.25.91,4.88-2.28-.44-4.58-.74-6.87-1.08-.08-.62-.17-1.23-.25-1.83a14,14,0,0,1-4.09-.35A22.75,22.75,0,0,0,66.08,223.24Z"/><ellipse class="cls-4" cx="172.16" cy="288.84" rx="98.84" ry="23.16"/><path class="cls-5" d="M141.68,19.12a6,6,0,0,1,4.46,1c.61.76-.58,1.07-1,.65a6.68,6.68,0,0,0-3.74-.51C141.25,19.84,141,19.16,141.68,19.12Z"/><path class="cls-5" d="M142.53,22.5a1.35,1.35,0,1,1-.09,2.15A1.37,1.37,0,0,1,142.53,22.5Z"/><path class="cls-5" d="M154.34,22.17a5.37,5.37,0,0,1,4.72,2.14l-.54.67a9.89,9.89,0,0,0-4.15-1.9C154.36,22.85,154.35,22.4,154.34,22.17Z"/><path class="cls-5" d="M154.91,25.23a1.35,1.35,0,1,1-.3,2.16A1.36,1.36,0,0,1,154.91,25.23Z"/><path class="cls-5" d="M127.22,77.36c.66-3,1.95-6.46,4.81-8a33.16,33.16,0,0,0-2.76,3.8c-.92,1.59-1.22,3.44-2,5.11C127.27,78.06,127.24,77.59,127.22,77.36Z"/><path class="cls-5" d="M166.08,80.82c.29-.47.52-1.06,1.12-1.19a11.24,11.24,0,0,1-6.74,6.79,11.05,11.05,0,0,1-10.53-2.37,5.83,5.83,0,0,1-1.87-2.7,19.06,19.06,0,0,1,2.26,2.32,10.55,10.55,0,0,0,9.26,2.43A10.42,10.42,0,0,0,166.08,80.82Z"/><path class="cls-5" d="M134.67,108.53a38.12,38.12,0,0,0,9,3,5,5,0,0,0-.65,5,20.49,20.49,0,0,1-8.32-3.36C134.69,111.62,134.7,110.07,134.67,108.53Z"/><path class="cls-5" d="M150.9,112.33a46.87,46.87,0,0,0,18.74-3.83c-.08,1.54-.09,3.08-.06,4.62A72.87,72.87,0,0,1,150.72,117,5.23,5.23,0,0,0,150.9,112.33Z"/><path class="cls-5" d="M146.25,112.23a2.37,2.37,0,1,1-1,3.89A2.39,2.39,0,0,1,146.25,112.23Z"/><path class="cls-5" d="M172.72,143.38c1.15-.27,2.17-.91,3.29-1.26,1.75.15,3.36,1.28,5.19.85a7.33,7.33,0,0,1,3.21,1.07,7.89,7.89,0,0,1,2.46-.32c1.68-.17,1.29,2.12,2.27,2.92.63.49,1.51.75,1.84,1.55a4,4,0,0,1,.07,2.36,4.39,4.39,0,0,1,.83,2.2c.08,2.67.34,5.34.52,8a6.94,6.94,0,0,0-2.9,2.3c-1.28-2.09-2.65-4.11-4-6.15a6.52,6.52,0,0,1-3.91-.28,4.25,4.25,0,0,1-4.19,1.33c-1.12-.31-1.07-1.78-1.59-2.63-.76,1.16-.71,2.61-1.32,3.83-.71,1-2.05.78-3.11.91-.81,2.28-3.32,4.17-5.77,3.21l-.88.48c-.83.38-2.09.48-2.54-.5-.41-1.16-.85-2.31-1.28-3.46-.31-1.33.69-2.37,1.54-3.23a4.3,4.3,0,0,1-.34-2.39c.23-.93,1.08-1.48,1.77-2.05a3.74,3.74,0,0,1,.11-2.64c.9-1.63,2.95-1.79,4.4-2.69.35-.64.56-1.36.95-2C170.2,143.89,171.55,143.72,172.72,143.38Z"/><path class="cls-5" d="M179.57,163.18c.54-1.12,2-1.24,3.13-1.37.93.05,2.33-.09,2.75.95-.11,1.09-1.29.54-1.94.51a5.44,5.44,0,0,0-3.38.74Z"/><path class="cls-5" d="M182.88,164.23a1,1,0,1,1-.23,1.9A1,1,0,0,1,182.88,164.23Z"/><path class="cls-5" d="M67.51,164.8c.7-.35,1,.62,1.42,1,16.33,24.27,32.85,48.4,49.27,72.6-1-10.75-2.13-21.49-3-32.25a1,1,0,0,1,.92,1.07q1.52,15.83,3,31.67a3.61,3.61,0,0,0,.74,2c2.88,4.2,5.73,8.41,8.6,12.61l.15,1.81Q116.88,238,105.14,220.74c-.66-.84-1.09-2.11-2.29-2.27-10.83-2.64-21.68-5.26-32.51-7.93l.16-.82c10.84,2.56,21.64,5.27,32.46,7.87-11.65-17.14-23.24-34.33-35-51.41C67.77,165.74,67.41,165.31,67.51,164.8Z"/><path class="cls-5" d="M170.77,165.05c.66-.44,1.77.27,1.12,1a8.81,8.81,0,0,0-2.42,1.34c-.54.4-.91,1.29-1.71,1.05a.76.76,0,0,1-.11-1.17A6.45,6.45,0,0,1,170.77,165.05Z"/><path class="cls-5" d="M170.43,167.55c.94-1,2.48.58,1.48,1.5S169.44,168.47,170.43,167.55Z"/><path class="cls-5" d="M179.3,176.17c1.65-.37,2.59-1.87,3.92-2.76a6,6,0,0,1-4,3.29c-1.17.18-2.82.23-3.44-1C176.89,176.05,178.1,176.62,179.3,176.17Z"/><path class="cls-5" d="M212.25,209.91c1.14,2.24,1.15,4.86,1.83,7.25,2.26.05,4.54-.1,6.8.07.09.11.28.32.38.42.17,2.6,0,5.22.06,7.83,3-1.19,6.44-2.71,9.71-1.75a23.11,23.11,0,0,0-9.7,2.26q0,11,0,22.06c-2.56,1-5.23,2-7.35,3.8-2,1.64-3.88,3.32-5.83,5-13.62-.21-27.24,0-40.85-.09-.46-.12-1.4.13-1.43-.57a9.28,9.28,0,0,1-.1-1.48v-.28c.05-9.35,0-18.7,0-28a78,78,0,0,0-9.94-3.69,2.9,2.9,0,0,1,1.49.08,56.31,56.31,0,0,1,8.45,3.12q0-3.49,0-7a2.86,2.86,0,0,1,.27-1.59,38.46,38.46,0,0,1,4.8-.1c.35-2,0-4.19.81-6.06,0,2-.25,4-.38,6h42.36C213.19,214.74,212.5,212.37,212.25,209.91Zm-20.43,22.33a3.55,3.55,0,1,0,4.35,4.49A3.58,3.58,0,0,0,191.82,232.24Z"/><path class="cls-5" d="M217.72,293.58c2.31-3,4.27-6.24,6.83-9,3.64,1.14,7.77.92,11,3.23,1.87,1.42,3.73,3.22,4.35,5.56.43,1.78-1.06,3.28-2.59,3.88a13.29,13.29,0,0,1-9.82.31C224.19,296.32,221,295,217.72,293.58Z"/><path class="cls-5" d="M167.72,287.59c.68-.33,1.37-.63,2.07-.92a82.7,82.7,0,0,0,7,8.5c-4.69,2-9.38,4.07-14.16,5.85a13.36,13.36,0,0,1-9.5-.23c-1.67-.6-3.36-2.2-2.79-4.14A11.41,11.41,0,0,1,155,291c3.77-2.32,8.41-2,12.49-3.44Z"/><path class="cls-6" d="M148.35.48a27.82,27.82,0,0,1,15.1,1.44c4.28,1.63,8.45,4.35,10.57,8.54s1.22,9.48,3.19,13.89a19.56,19.56,0,0,0,5.84,7.06c3.17,2.52,7.45,4.7,8.17,9.11.86,5.06-1.8,10-.76,15.08.63,3.13,3.4,5.2,4.34,8.19a7.27,7.27,0,0,1,0,3.47C189.54,62.2,184.33,57,178.41,52.67a23.42,23.42,0,0,0-21.55-1.54c-.13-3.13-.39-6.41.85-9.38,1.14-3.28,3.86-5.59,5.67-8.46,2.43.64,5.56-1.31,5.17-4-.86-2.11-3.6-1.83-5.34-1.11-2.32-5.37-6.29-9.79-9-14.93-.59-1.09-1.19-2.17-1.8-3.23-4.36,1.53-8.92,3.3-12.06,6.85-1.35,1.39-1,3.5-1.32,5.26a1.72,1.72,0,0,0-2.76,1.08c-.33,1.73,1.17,3,2.39,3.93.09,3.73.22,7.73,2.34,11a7.8,7.8,0,0,0,4.21,3c-.43,3.73-.83,7.48-1.3,11.22a31.24,31.24,0,0,0-11.75,1.53,38.4,38.4,0,0,0-7-16.92,10.36,10.36,0,0,1-2.18-8.1,17.18,17.18,0,0,1,9.12-13.07,11.18,11.18,0,0,0,4.53-3.38c2.27-3.13,4.45-6.34,7-9.25A8.29,8.29,0,0,1,148.35.48Z"/><path class="cls-6" d="M145.38,254.14a29.86,29.86,0,0,1,10.07-2.87,41.32,41.32,0,0,0,10.31,3.11v.28a9.28,9.28,0,0,0,.1,1.48c0,.7,1,.45,1.43.57,13.61.05,27.23-.12,40.85.09-2,1.79-3.8,3.69-5.61,5.63-2.89,3-7.07,3.93-10.77,5.48s-7.65,2.45-10.5,5.27c-3.65,3.29-7.29,6.59-11,9.8a7.84,7.84,0,0,0-1.21,1.3,4.22,4.22,0,0,0,.75,2.39c-.7.29-1.39.59-2.07.92l-.19,0a74.4,74.4,0,0,1-17.75-6.27,32.58,32.58,0,0,1-8.13-5.83,13.86,13.86,0,0,1-4-7.83A14.09,14.09,0,0,1,145.38,254.14Z"/><path class="cls-6" d="M115.44,286.37a65.8,65.8,0,0,1,8.79-4.13,7.07,7.07,0,0,0,5,3.32c4.33.61,8.64-.65,12.75-1.88.13,2.05.61,4.14.23,6.18a6.06,6.06,0,0,1-2.94,1.1,77.81,77.81,0,0,1-13.56.64,51.88,51.88,0,0,1-10.48-1.12c-.78-.27-1.82-.46-2.1-1.35C113.18,287.8,114.45,287,115.44,286.37Z"/><path class="cls-6" d="M209.22,287.86c4.88-1.65,10.21-1.29,14.95-3.4l.38.1c-2.56,2.78-4.52,6-6.83,9l-2.14,2.92c-6.1-1.4-12.18-2.88-18.2-4.58C201.26,290.39,205.26,289.16,209.22,287.86Z"/><path class="cls-7" d="M140.34,16.87c3.14-3.55,7.7-5.32,12.06-6.85.61,1.06,1.21,2.14,1.8,3.23,2.72,5.14,6.69,9.56,9,14.93,1.74-.72,4.48-1,5.34,1.11.39,2.69-2.74,4.64-5.17,4-1.81,2.87-4.53,5.18-5.67,8.46-1.24,3-1,6.25-.85,9.38-4,1.64-8.71,2.7-13,1.2.47-3.74.87-7.49,1.3-11.22a7.8,7.8,0,0,1-4.21-3c-2.12-3.23-2.25-7.23-2.34-11-1.22-.93-2.72-2.2-2.39-3.93A1.72,1.72,0,0,1,139,22.13C139.32,20.37,139,18.26,140.34,16.87Zm1.34,2.25c-.7,0-.43.72-.33,1.14a6.68,6.68,0,0,1,3.74.51c.47.42,1.66.11,1-.65A6,6,0,0,0,141.68,19.12Zm.85,3.38a1.35,1.35,0,1,0,2.12,1A1.35,1.35,0,0,0,142.53,22.5Zm11.81-.33c0,.23,0,.68,0,.91a9.89,9.89,0,0,1,4.15,1.9l.54-.67A5.37,5.37,0,0,0,154.34,22.17Zm-6.9,3.07a13.91,13.91,0,0,1-1.6,3.29,2.56,2.56,0,0,0,3,2.3c.71-1.29-2.39-.93-1.83-2.24.87-1.59,1.87-3.26,1.53-5.16C147.61,23.48,147.71,24.55,147.44,25.24Zm7.47,0a1.35,1.35,0,1,0,2,1.53A1.36,1.36,0,0,0,154.91,25.23ZM143.81,33l-.51-.08c.06.19.17.57.22.76-.52,1.6.72,3.85,2.55,3.78A5.13,5.13,0,0,0,149.91,35l-.58.12c.35-.25.68-.51,1-.77l-1-.26.74-.08a4.54,4.54,0,0,0-1.88-2l-1.51.35C145.81,31.56,144.11,31.68,143.81,33Z"/><path class="cls-7" d="M79.89,51.18c.58-.62,1.4-1.33,2.28-.84s.72,1.37.75,2.12a3.11,3.11,0,0,1,1,2.31,2.42,2.42,0,0,1,.9,2.28c.36.35.9.67.88,1.26A21.48,21.48,0,0,1,83,61.74c.46,1.58.91,3.15,1.35,4.73a10.8,10.8,0,0,1-2.19-2.76c-.78-1.42-1.06-3.2-2.49-4.16-.07-.47-.13-.93-.2-1.39-.29-.34-.59-.67-.89-1V55.8c-.44-.55-1.2-1.12-.91-1.93A15.67,15.67,0,0,1,79.89,51.18Z"/><path class="cls-7" d="M88,67.84C91,67,93.87,66,96.87,65.39a32.39,32.39,0,0,0,3.79,4.33c2.56,2.57,5.1,5.28,8.26,7.12,1.94,1.21,4.24.08,5.94-1a19.54,19.54,0,0,0,4.72-4.44l.19-.29a73.3,73.3,0,0,0,7.45,6.29c0,.23,0,.7.06.93a11.55,11.55,0,0,0,1.25,7c-4.61,4.51-10.69,8.34-17.39,7.88-4.52-.57-8-3.91-11-7.1A92.59,92.59,0,0,1,88,67.84Z"/><path class="cls-7" d="M184,80.62c3.64-3.67,7.28-7.34,11-10.92,4,4.63,7.86,9.5,10.18,15.19.85,2.13,1.36,4.58.37,6.76a44.88,44.88,0,0,1-5.77,9.57A217.26,217.26,0,0,1,184,119.62c-1.31,1.4-3,2.78-3.14,4.83.23,2.66,1.87,4.86,2.81,7.27a15.83,15.83,0,0,1-.63,7.69c-.26.43-.27,1.45-1,1.17a20.74,20.74,0,0,1-.43-2.81,15.24,15.24,0,0,1-1.06,4.16c-1.15-1.14-.77-2.88-1-4.34-.48,1.35-.18,3.61-1.89,4.09a35.81,35.81,0,0,1-.53-5,41.71,41.71,0,0,1-1.34,4.68c-1.06-1.37-.61-3.25-.79-4.86.17-2.86-1.39-5.36-2.45-7.9a51.25,51.25,0,0,1-1.94,5.09l-.79.45a29.51,29.51,0,0,1,.3-6.84,37,37,0,0,1,3.72-7.55c4.44-7.4,9.12-14.66,13.68-22,1-1.73,2.18-3.41,3.06-5.23.62-1.1-.06-2.32-.53-3.33A53.07,53.07,0,0,0,184,80.62Z"/><path class="cls-7" d="M174.5,159.17c.61-1.22.56-2.67,1.32-3.83.52.85.47,2.32,1.59,2.63a4.25,4.25,0,0,0,4.19-1.33,6.52,6.52,0,0,0,3.91.28c1.34,2,2.71,4.06,4,6.15a6.94,6.94,0,0,1,2.9-2.3c.84.13,2,.19,2.29,1.16a4.09,4.09,0,0,1-2.54,5,45.78,45.78,0,0,0,4.46,18c-4.09,2.94-9.32,4.54-14.32,3.41a8,8,0,0,1-.61-2.14c-.24-1.3-.49-2.59-.75-3.88a8.61,8.61,0,0,1-4.87-.51c-3.07-1.49-5-4.53-6.57-7.42-.7-1.36-1.32-2.77-1.93-4.17-.91-2.17-1.76-4.36-2.82-6.46l.88-.48c2.45,1,5-.93,5.77-3.21C172.45,160,173.79,160.13,174.5,159.17Zm5.07,4,.56.83a5.44,5.44,0,0,1,3.38-.74c.65,0,1.83.58,1.94-.51-.42-1-1.82-.9-2.75-.95C181.6,161.94,180.11,162.06,179.57,163.18Zm3.31,1a1,1,0,1,0,1.32,1A1,1,0,0,0,182.88,164.23Zm-12.11.82a6.45,6.45,0,0,0-3.12,2.24.76.76,0,0,0,.11,1.17c.8.24,1.17-.65,1.71-1.05a8.81,8.81,0,0,1,2.42-1.34C172.54,165.32,171.43,164.61,170.77,165.05Zm5.38,1.4a14.1,14.1,0,0,1-.2,5.89c1.28.83,3.44.79,4-.9-1,.49-2.15,1.06-3.33.67C176.91,170.28,177.63,168,176.15,166.45Zm-5.72,1.1c-1,.92.55,2.41,1.48,1.5S171.37,166.52,170.43,167.55Zm8.87,8.62c-1.2.45-2.41-.12-3.55-.45.62,1.21,2.27,1.16,3.44,1a6,6,0,0,0,4-3.29C181.89,174.3,181,175.8,179.3,176.17Z"/><path class="cls-7" d="M131.93,267.64c1.9,0,3.79,0,5.69,0a13.86,13.86,0,0,0,4,7.83c0,2.74,0,5.49.32,8.22-4.11,1.23-8.42,2.49-12.75,1.88a7.07,7.07,0,0,1-5-3.32,26.47,26.47,0,0,0,6.09-3c1.21-1.66,1.26-3.83,1.5-5.8S132,269.56,131.93,267.64Z"/><path class="cls-8" d="M147.44,25.24c.27-.69.17-1.76,1.15-1.81.34,1.9-.66,3.57-1.53,5.16-.56,1.31,2.54.95,1.83,2.24a2.56,2.56,0,0,1-3-2.3A13.91,13.91,0,0,0,147.44,25.24Z"/><path class="cls-9" d="M166.5,173a1.81,1.81,0,0,1,1.06-2.78c.61,1.4,1.23,2.81,1.93,4.17C168.43,174.14,167.15,174,166.5,173Z"/><path class="cls-10" d="M143.81,33c.3-1.32,2-1.44,2.87-.6l1.51-.35a4.54,4.54,0,0,1,1.88,2l-.74.08C147.49,33.72,145.66,33.27,143.81,33Z"/><path class="cls-10" d="M146.07,37.46c-1.83.07-3.07-2.18-2.55-3.78.49.89,1.1,1.93,2.19,2.14a7.6,7.6,0,0,0,3.62-.71l.58-.12A5.13,5.13,0,0,1,146.07,37.46Z"/><path class="cls-10" d="M156.86,51.13a23.42,23.42,0,0,1,21.55,1.54c5.92,4.32,11.13,9.53,16.41,14.59.45.45.89.92,1.33,1.39l-1.18,1c-3.73,3.58-7.37,7.25-11,10.92l-1.23,1.23a44.59,44.59,0,0,0-6.34-6.25c-1.83,2.13-2.26,5-2.93,7.65a247.29,247.29,0,0,0-3.82,25.25,46.87,46.87,0,0,1-18.74,3.83,4.62,4.62,0,0,0-7.27-.79,38.12,38.12,0,0,1-9-3c-.4-6.33-.93-12.65-1.4-19a12.63,12.63,0,0,1-4.74-4.29,11.55,11.55,0,0,1-1.25-7c.77-1.67,1.07-3.52,2-5.11a33.16,33.16,0,0,1,2.76-3.8c-2.86,1.52-4.15,5-4.81,8a73.3,73.3,0,0,1-7.45-6.29l-.19.29c-.4-.56-.64-1.18-.15-1.76a109.12,109.12,0,0,1,8.09-12.3,10,10,0,0,1,4.63-3.44,31.24,31.24,0,0,1,11.75-1.53C148.15,53.83,152.82,52.77,156.86,51.13Zm9.22,29.69a10.42,10.42,0,0,1-6.5,5.28,10.55,10.55,0,0,1-9.26-2.43,19.06,19.06,0,0,0-2.26-2.32,5.83,5.83,0,0,0,1.87,2.7,11.05,11.05,0,0,0,10.53,2.37,11.24,11.24,0,0,0,6.74-6.79C166.6,79.76,166.37,80.35,166.08,80.82Z"/><path class="cls-11" d="M143.3,32.92l.51.08c1.85.27,3.68.72,5.52,1.08l1,.26c-.34.26-.67.52-1,.77a7.6,7.6,0,0,1-3.62.71c-1.09-.21-1.7-1.25-2.19-2.14C143.47,33.49,143.36,33.11,143.3,32.92Z"/><path class="cls-12" d="M78.11,44.77c4-1.09,8-2.3,12-3.44C92.12,48.13,94,55,96,61.75a16.3,16.3,0,0,1,.84,3.64C93.87,66,91,67,88,67.84l-3,.86c-.23-.75-.45-1.49-.67-2.23-.44-1.58-.89-3.15-1.35-4.73a21.48,21.48,0,0,0,2.74-3.43c0-.59-.52-.91-.88-1.26a2.42,2.42,0,0,0-.9-2.28,3.11,3.11,0,0,0-1-2.31c0-.75.11-1.77-.75-2.12s-1.7.22-2.28.84C79.32,49,78.63,46.92,78.11,44.77Z"/><path class="cls-13" d="M5.16,55a6.41,6.41,0,0,1,6.94,3.1,42,42,0,0,1,3.57,9.42c.42,1.42.39,3.08,1.5,4.2,2.68,3.08,5,6.44,7.5,9.66-.55-3.71-2.5-7.69-.79-11.36s6.67-4.66,9.85-2.4a7.14,7.14,0,0,1,2.69,4.91c.21,2.71-1.46,5-2.76,7.24a48.35,48.35,0,0,1-5.29,7c2.89,4.55,5.84,9.07,8.68,13.66-1-3.77-2.13-7.56-2-11.5a7.55,7.55,0,0,1,4.63-4.74,6.74,6.74,0,0,1,8.63,4.63c.87,3-.9,5.83-2.41,8.27a51.14,51.14,0,0,1-6,7.93c1.62,3.1,3.54,6,5.22,9.13,1.71,2.8,3.07,5.82,5,8.51-1-5.3-2.37-10.61-2-16a9.56,9.56,0,0,1,19,.86c.15,2.6-1.08,5-2.48,7.09A66.8,66.8,0,0,1,52.91,128c1.29,3,3.06,5.76,4.51,8.69,2,3.68,3.8,7.48,5.87,11.14-1-5.79-2.21-11.61-1.92-17.52a11,11,0,0,1,6-9.19,11.25,11.25,0,0,1,11.44.82,11.08,11.08,0,0,1,3.4,14.38,61.47,61.47,0,0,1-7.62,10.26,56.38,56.38,0,0,1-8,7.65c1.86,4.65,4.67,8.88,6.41,13.58-.71-.37-1.42-.76-2.15-1.11a18.09,18.09,0,0,0-1.42-3.4c-1.53-2.91-2.88-5.91-4.47-8.79A64.46,64.46,0,0,1,53.87,160a47.64,47.64,0,0,1-11.69,3.42,11.13,11.13,0,0,1-3.79-21.79c3.44-1.11,7,.09,10.17,1.44a107.39,107.39,0,0,1,14.49,7.69c-1.22-2.9-2.76-5.65-4.21-8.43-2.4-4.57-4.79-9.14-7.25-13.68-2.07,1.31-4.05,2.77-6.19,4a59.48,59.48,0,0,1-10.82,5A9.49,9.49,0,0,1,28,137.5a9.61,9.61,0,0,1-2.94-16,9.41,9.41,0,0,1,8-2.36,47.25,47.25,0,0,1,8.84,2.63c2.65,1,5.19,2.23,7.75,3.42-3.51-6.54-7.1-13-11-19.34l-.61.44a48.74,48.74,0,0,1-9.33,5.08,7.73,7.73,0,0,1-6,.45,6.74,6.74,0,0,1,3.25-13c3.66.59,7.06,2.16,10.47,3.56a16.87,16.87,0,0,0-1.65-3c-2.5-4-5-8-7.69-12A48.48,48.48,0,0,1,15,93.94a6.6,6.6,0,0,1-7-1.76A6.72,6.72,0,0,1,6.78,85a6.61,6.61,0,0,1,6.53-3.91c4.26.49,8,2.66,12,4A131.84,131.84,0,0,0,16,72.46c-.66-1-2-1-3-1.33A43.77,43.77,0,0,1,3.23,67,6.48,6.48,0,0,1,5.16,55Z"/><path class="cls-13" d="M143.63,111.54a4.62,4.62,0,0,1,7.27.79,5.23,5.23,0,0,1-.18,4.64,4.85,4.85,0,0,1-4.37,1.88,5.19,5.19,0,0,1-3.37-2.32A5,5,0,0,1,143.63,111.54Zm2.62.69a2.37,2.37,0,1,0,3,3A2.39,2.39,0,0,0,146.25,112.23Z"/><path class="cls-13" d="M84,144.34a13.69,13.69,0,0,1,17,.27c5.4,4.24,6.63,12.79,2.48,18.3S93.32,172.1,88,176.33C84.39,174.1,80.73,172,77,170c.33-6.27.63-12.63,2.3-18.72A13.07,13.07,0,0,1,84,144.34Z"/><path class="cls-13" d="M46.3,168.53c3.45-.87,7,.09,10.3,1a109.65,109.65,0,0,1,11,4q-.23,7.47,0,14.93c-2.35,1.23-4.7,2.45-7.1,3.57-4.3,1.84-8.93,4.14-13.73,3.07a13.64,13.64,0,0,1-.41-26.6Z"/><path class="cls-13" d="M94.91,175.16a13.64,13.64,0,0,1,24,12c-.78,3.18-3.14,5.57-5.37,7.82A176.45,176.45,0,0,0,92.6,179.26,44.46,44.46,0,0,1,94.91,175.16Z"/><path class="cls-13" d="M49.33,210.17a13.71,13.71,0,0,1,11.91-13.68,20.64,20.64,0,0,1,6.72.74,191.4,191.4,0,0,0,3.14,24.68c-1.77,0-3.32,1-5,1.33a22.75,22.75,0,0,1-5.28.29A13.74,13.74,0,0,1,49.33,210.17Z"/><path class="cls-1" d="M68.93,165.8c.66.28,1.32.56,2,.87s1.44.74,2.15,1.11L77,170c3.7,2,7.36,4.14,11,6.37,1.55.95,3.1,1.92,4.62,2.93a176.45,176.45,0,0,1,20.94,15.67,156.39,156.39,0,0,1,12,11.89c.38,4.56.59,9.14.9,13.71.59,11,1.42,22,2,33-2.87-4.2-5.72-8.41-8.6-12.61a3.61,3.61,0,0,1-.74-2q-1.48-15.84-3-31.67a1,1,0,0,0-.92-1.07c.88,10.76,2,21.5,3,32.25C101.78,214.2,85.26,190.07,68.93,165.8Z"/><path class="cls-1" d="M27.7,224.88c.68,0,1.36,0,2,0q-.72.1-1.44.27c1.72,1.16,3.61,2,5.42,3,12.45,6.75,25,13.38,37.37,20.21-7.35-.1-14.7-.75-22.06-.72.4.66,1.17.64,1.85.68,6.8.23,13.6.56,20.4.8a6.54,6.54,0,0,1,3.47,1.13c11.8,6.47,23.74,12.68,35.48,19.24-10.22.67-20.46,1.24-30.69,1.86a2,2,0,0,0-1.45.65,29.9,29.9,0,0,0,3.14,0c9.92-.62,19.85-1.17,29.77-1.81a5.29,5.29,0,0,1,2.41.92c2.1,1.22,4.34,2.22,6.35,3.59-14.13,1.8-28.31,3.75-42,7.63-12-5.87-21.47-15.7-29.86-25.89A173.32,173.32,0,0,1,27.7,224.88Z"/><path class="cls-14" d="M68,166.18c11.74,17.08,23.33,34.27,35,51.41-10.82-2.6-21.62-5.31-32.46-7.87l-.16.82c10.83,2.67,21.68,5.29,32.51,7.93,1.2.16,1.63,1.43,2.29,2.27q11.72,17.31,23.48,34.58c.36,4.08.49,8.17.85,12.25l2.46.07c0,1.92,0,3.84-.11,5.76-3.59.34-7.18.76-10.77,1.14a42.32,42.32,0,0,0-7.57-24.28c-6.51-9.48-16.67-15.85-27.37-19.64A104.15,104.15,0,0,0,72,226.79c-.29-1.63-.59-3.26-.91-4.88A191.4,191.4,0,0,1,68,197.23c-.19-2.91-.33-5.83-.42-8.74q-.2-7.47,0-14.93C67.64,171.1,67.71,168.63,68,166.18Z"/><path class="cls-15" d="M124.56,130.77a66.57,66.57,0,0,1,10.1-17.6,20.49,20.49,0,0,0,8.32,3.36,5.19,5.19,0,0,0,3.37,2.32,4.85,4.85,0,0,0,4.37-1.88,72.87,72.87,0,0,0,18.86-3.85,29,29,0,0,1,4.3,6.67,37,37,0,0,0-3.72,7.55,29.51,29.51,0,0,0-.3,6.84l.79-.45a51.25,51.25,0,0,0,1.94-5.09c1.06,2.54,2.62,5,2.45,7.9.18,1.61-.27,3.49.79,4.86a41.71,41.71,0,0,0,1.34-4.68,35.81,35.81,0,0,0,.53,5c1.71-.48,1.41-2.74,1.89-4.09.22,1.46-.16,3.2,1,4.34.21.34.41.69.62,1-1.83.43-3.44-.7-5.19-.85-1.12.35-2.14,1-3.29,1.26s-2.52.51-3.37,1.46c-.39.61-.6,1.33-.95,2-1.45.9-3.5,1.06-4.4,2.69a3.74,3.74,0,0,0-.11,2.64c-.69.57-1.54,1.12-1.77,2.05a4.3,4.3,0,0,0,.34,2.39c-.85.86-1.85,1.9-1.54,3.23.43,1.15.87,2.3,1.28,3.46.45,1,1.71.88,2.54.5,1.06,2.1,1.91,4.29,2.82,6.46A1.81,1.81,0,0,0,166.5,173c.65,1,1.93,1.13,3,1.39,1.6,2.89,3.5,5.93,6.57,7.42a8.61,8.61,0,0,0,4.87.51c.26,1.29.51,2.58.75,3.88a46.08,46.08,0,0,0-18.85,8.36,51.69,51.69,0,0,1-1.64-5.75c-2.31-8.9-4.62-17.8-7.05-26.66a49.38,49.38,0,0,0-1.93-6.16c-.89,11.78-1.65,23.58-2.5,35.36-.47,7.56-1.19,15.1-1.51,22.67-2.17,6.26-4.66,12.65-4.48,19.39a21.47,21.47,0,0,0,2.4,9.38c-.29,3.78-.67,7.55-.74,11.34a14.09,14.09,0,0,0-7.76,13.49c-1.9,0-3.79,0-5.69,0l-2.46-.07c-.36-4.08-.49-8.17-.85-12.25l-.15-1.81c-.62-11-1.45-22-2-33-.31-4.57-.52-9.15-.9-13.71-.94-21.75-2.45-43.5-2.31-65.27C123.36,137.93,123.17,134.18,124.56,130.77Z"/><path class="cls-16" d="M176.15,166.45c1.48,1.52.76,3.83.44,5.66,1.18.39,2.28-.18,3.33-.67-.53,1.69-2.69,1.73-4,.9A14.1,14.1,0,0,0,176.15,166.45Z"/><path class="cls-17" d="M29.73,224.84a182.2,182.2,0,0,1,35.41.87c2.29.34,4.59.64,6.87,1.08a104.15,104.15,0,0,1,14.1,3.83c10.7,3.79,20.86,10.16,27.37,19.64a42.32,42.32,0,0,1,7.57,24.28l-1.3.14c-2-1.37-4.25-2.37-6.35-3.59a5.29,5.29,0,0,0-2.41-.92c-9.92.64-19.85,1.19-29.77,1.81a29.9,29.9,0,0,1-3.14,0,2,2,0,0,1,1.45-.65c10.23-.62,20.47-1.19,30.69-1.86-11.74-6.56-23.68-12.77-35.48-19.24a6.54,6.54,0,0,0-3.47-1.13c-6.8-.24-13.6-.57-20.4-.8-.68,0-1.45,0-1.85-.68,7.36,0,14.71.62,22.06.72-12.4-6.83-24.92-13.46-37.37-20.21-1.81-1-3.7-1.88-5.42-3Q29,224.95,29.73,224.84Z"/><path class="cls-18" d="M233.12,246l1.23-1.16c0,.4-.1.8-.14,1.2a16.2,16.2,0,0,1,14.09,11.08c1.14,3.95-.65,8-3.18,11-3.88,4.74-9.3,7.77-13.83,11.79a35.74,35.74,0,0,1-7.12,4.52c-4.74,2.11-10.07,1.75-14.95,3.4-4,1.3-8,2.53-11.84,4.06-3.52.92-6.73,2.66-10.16,3.82q-3.67,1.32-7.36,2.6c-1-1-2.05-2.1-3.05-3.17a82.7,82.7,0,0,1-7-8.5,4.22,4.22,0,0,1-.75-2.39,7.84,7.84,0,0,1,1.21-1.3c3.72-3.21,7.36-6.51,11-9.8,2.85-2.82,6.9-3.77,10.5-5.27s7.88-2.52,10.77-5.48c1.81-1.94,3.65-3.84,5.61-5.63,2-1.63,3.87-3.31,5.83-5,2.12-1.82,4.79-2.79,7.35-3.8A30.92,30.92,0,0,1,233.12,246Z"/></g></g></svg>