<svg xmlns="http://www.w3.org/2000/svg" viewBox="0 0 536 388"><defs><style>.cls-1{fill:#bacaee;fill-rule:evenodd;}.cls-2{fill:#a4c6ff;}.cls-3{fill:#18142d;}.cls-4{fill:#89b4fd;}.cls-5{fill:#7798f8;}.cls-6{fill:#4c4bf4;}.cls-7{fill:#1d1183;}.cls-8{fill:#180c7a;}.cls-9{fill:#080435;}.cls-10{fill:#ff8b8d;}.cls-11{fill:#fff;}.cls-12{fill:#ff6760;}.cls-13{fill:#060423;}.cls-14{fill:#fa5d63;}</style></defs><title>pic_man</title><g id="Layer_2" data-name="Layer 2"><g id="Layer_1-2" data-name="Layer 1"><path class="cls-1" d="M67.42,360.07c37.23,0,67.42,4.91,67.42,11s-30.19,11-67.42,11S0,377.11,0,371,30.18,360.07,67.42,360.07Z"/><path class="cls-1" d="M282.3,304.2C422.42,304.2,536,323,536,346.1S422.42,388,282.3,388,28.61,369.24,28.61,346.1,142.19,304.2,282.3,304.2Z"/><path class="cls-2" d="M131.91,163.45c7.05,1,13.41,4.68,14.13,12.59.68,7.5-5,14.91-2.21,22.34C146.74,206,155,208.6,152,218c-1.08,3.36-2.82,6.63-2.73,10.16.18,7.38,7.4,11.89,10.93,17.68,4.56,7.48,2.87,17.77-3.19,23.92-11.53,11.68-31.08,7.48-45.62,6.37-8.45-.64-16.08-5-18.19-13.71-2.45-10.17,4-15.07,8-23.11,3.9-7.83-.91-17-1-25.78-.13-9.78,7.77-15.14,9.23-24.12,1-6.49-2.62-13.18,1-19.32,1.93-3.24,5.5-5.25,9.18-6.12a33.82,33.82,0,0,1,12.29-.54Z"/><path class="cls-3" d="M127.74,312.73a.49.49,0,0,1-.5-.49V183.43a.5.5,0,0,1,.5-.5.51.51,0,0,1,.5.5V312.24a.5.5,0,0,1-.5.49Z"/><path class="cls-3" d="M127.74,241.68a.5.5,0,0,1-.46-.29l-14.16-30.93a.49.49,0,0,1,.24-.66.5.5,0,0,1,.66.25L128.19,241a.51.51,0,0,1-.25.66.45.45,0,0,1-.2,0Z"/><path class="cls-3" d="M127.74,264a.52.52,0,0,1-.29-.09.49.49,0,0,1-.12-.69l14-20a.49.49,0,0,1,.69-.12.5.5,0,0,1,.13.69l-13.95,20a.51.51,0,0,1-.41.21Z"/><path class="cls-4" d="M380.24,106.21c10.3,1.52,19.59,6.83,20.65,18.4,1,11-7.37,21.79-3.23,32.63,4.25,11.13,16.38,14.94,11.95,28.71-1.58,4.9-4.12,9.68-4,14.83.27,10.79,10.82,17.38,16,25.84,6.65,10.92,4.19,26-4.67,34.94-16.84,17.07-45.41,10.94-66.66,9.32-12.34-.94-23.48-7.25-26.57-20-3.58-14.86,5.8-22,11.67-33.76,5.7-11.44-1.32-24.9-1.49-37.67-.19-14.28,11.36-22.12,13.48-35.24,1.54-9.49-3.82-19.26,1.51-28.22,2.82-4.75,8-7.68,13.42-9a49.22,49.22,0,0,1,17.95-.79Z"/><path class="cls-3" d="M374.15,324.33a.73.73,0,0,1-.73-.73V135.41a.73.73,0,1,1,1.45,0V323.6a.73.73,0,0,1-.72.73Z"/><path class="cls-3" d="M374.15,220.52a.74.74,0,0,1-.67-.43l-20.7-45.19a.74.74,0,0,1,.36-1,.73.73,0,0,1,1,.36l20.7,45.19a.74.74,0,0,1-.36,1,.66.66,0,0,1-.3.07Z"/><path class="cls-3" d="M374.15,253.16a.8.8,0,0,1-.42-.13.74.74,0,0,1-.18-1l20.38-29.22a.73.73,0,0,1,1.2.83l-20.39,29.22a.7.7,0,0,1-.59.32Z"/><path class="cls-5" d="M250.71.74c16,2.36,30.4,10.61,32,28.56,1.55,17-11.44,33.8-5,50.62,6.59,17.27,25.42,23.18,18.54,44.54-2.44,7.61-6.39,15-6.19,23,.42,16.73,16.79,27,24.79,40.08,10.32,16.95,6.5,40.3-7.24,54.22-26.14,26.48-70.46,17-103.42,14.46-19.15-1.46-36.43-11.25-41.22-31.1-5.56-23,9-34.15,18.09-52.38,8.86-17.74-2-38.63-2.3-58.44-.3-22.16,17.63-34.32,20.92-54.67,2.38-14.72-5.93-29.89,2.33-43.79C206.42,8.5,214.52,4,222.87,2A76.45,76.45,0,0,1,250.71.74Z"/><path class="cls-3" d="M241.26,313.25a1.09,1.09,0,0,1-1.13-1V46a1.13,1.13,0,0,1,2.26,0V312.22A1.09,1.09,0,0,1,241.26,313.25Z"/><path class="cls-3" d="M241.26,178.1a1.14,1.14,0,0,1-1-.66l-32.11-70.12a1.13,1.13,0,1,1,2-.93l32.12,70.11a1.14,1.14,0,0,1-1,1.6Z"/><path class="cls-3" d="M241.26,228.73a1.12,1.12,0,0,1-.93-1.77L272,181.62a1.13,1.13,0,0,1,1.85,1.29l-31.62,45.34A1.11,1.11,0,0,1,241.26,228.73Z"/><path class="cls-4" d="M246.64,326.19s46.6,2.59,56.3-.8,19.72-20.64,12.3-28.94c-6.08-6.81-13.88-.77-18.22-6.54s10.4-25.62-21.29-22.32-14.8,27.69-23,24.74C236.66,286.55,214.52,313.06,246.64,326.19Z"/><path class="cls-4" d="M150.91,313s29.7,1.65,35.88-.51,12.57-13.16,7.84-18.45c-3.88-4.34-8.85-.49-11.61-4.17s6.63-16.33-13.57-14.23-9.43,17.66-14.67,15.77C144.54,287.68,130.43,304.58,150.91,313Z"/><path class="cls-6" d="M395.7,325.36h.06A.27.27,0,0,0,396,325c-5.15-41-11.18-70.25-17-82.53a5.24,5.24,0,0,1-.25-.57.29.29,0,0,0-.55.18,5.49,5.49,0,0,0,.28.63c5.78,12.23,11.79,41.47,16.93,82.36A.3.3,0,0,0,395.7,325.36Z"/><path class="cls-6" d="M374,239.61c.7,1.38,4.88,4.41,5.28,4.22s.45-5.36-.25-6.75a2.82,2.82,0,0,0-5,2.53Z"/><path class="cls-6" d="M382.21,244.84c-.7,1.42-.61,6.7-.21,6.9s4.67-2.93,5.37-4.35a2.88,2.88,0,0,0-5.16-2.55Z"/><path class="cls-6" d="M375.25,252.87c1.55.36,6.68-.92,6.79-1.36s-3.91-3.87-5.46-4.23a2.87,2.87,0,1,0-1.33,5.59Z"/><path class="cls-6" d="M391.25,272.92c-1.43,2.25-2.23,11.07-1.59,11.48s8.31-4,9.75-6.3a4.83,4.83,0,0,0-8.16-5.18Z"/><path class="cls-6" d="M378.19,285.06c2.52.89,11.31-.31,11.56-1s-5.82-7.17-8.34-8.06a4.82,4.82,0,1,0-3.22,9.09Z"/><path class="cls-6" d="M396.45,283.82c-2.32,2.3-5.66,12.61-5,13.27s11-2.6,13.33-4.9a5.9,5.9,0,1,0-8.33-8.37Z"/><path class="cls-6" d="M378.05,299.49c3.18.77,13.73-1.81,13.95-2.71s-8-8-11.17-8.76a5.9,5.9,0,1,0-2.78,11.47Z"/><path class="cls-6" d="M398.53,297.24c-2.31,2.3-5.65,12.61-5,13.27s11-2.6,13.34-4.9a5.91,5.91,0,1,0-8.34-8.37Z"/><path class="cls-6" d="M380.14,312.91c3.17.77,13.73-1.81,13.95-2.71s-8-8-11.18-8.76a5.9,5.9,0,1,0-2.77,11.47Z"/><path class="cls-6" d="M405.12,314.77c-3,1.24-10.05,9.51-9.69,10.37s11.18,1.78,14.2.54a5.9,5.9,0,1,0-4.51-10.91Z"/><path class="cls-6" d="M381.76,326.11c3.05,1.15,13.85-.08,14.18-.95s-6.93-8.93-10-10.09a5.9,5.9,0,1,0-4.19,11Z"/><path class="cls-6" d="M385,253.58c-.72,1.44-.63,6.8-.21,7s4.74-3,5.45-4.43a2.92,2.92,0,1,0-5.24-2.58Z"/><path class="cls-6" d="M378.11,261.87c1.57.37,6.78-.93,6.89-1.38s-4-3.94-5.55-4.31a2.92,2.92,0,1,0-1.34,5.69Z"/><path class="cls-6" d="M388.44,261.84c-1.18,2-1.67,9.56-1.11,9.9s7.06-3.66,8.24-5.63a4.16,4.16,0,0,0-7.13-4.27Z"/><path class="cls-6" d="M377.65,273.45c2.23.53,9.64-1.32,9.79-1.95s-5.65-5.59-7.88-6.12a4.15,4.15,0,1,0-1.91,8.07Z"/><path class="cls-7" d="M428.32,330.54l.09,0a.49.49,0,0,0,.54-.44c6.93-70,8-120.92,3-143.5-.11-.5-.19-.87-.21-1a.48.48,0,0,0-.53-.44.48.48,0,0,0-.44.53c0,.23.1.58.22,1.16,5,22.48,3.89,73.33-3,143.2A.5.5,0,0,0,428.32,330.54Z"/><path class="cls-7" d="M424.76,179.91c.63,2.57,6.43,9.18,7.17,9s2.78-8.73,2.14-11.3a4.79,4.79,0,0,0-9.31,2.3Z"/><path class="cls-7" d="M436.37,191.69c-1.71,2.09-3.55,10.89-2.95,11.38s8.85-3.11,10.56-5.21a4.9,4.9,0,1,0-7.61-6.17Z"/><path class="cls-7" d="M421.77,202.4c2.44,1.19,11.45,1,11.79.31s-5-7.91-7.47-9.1a4.9,4.9,0,1,0-4.32,8.79Z"/><path class="cls-7" d="M440.76,241.75c-3.23,3.19-7.9,17.54-7,18.47s15.35-3.6,18.58-6.79a8.23,8.23,0,1,0-11.59-11.68Z"/><path class="cls-7" d="M414.47,257c3.84,2.42,18.91,3.73,19.6,2.64s-7-14.11-10.81-16.53A8.22,8.22,0,1,0,414.47,257Z"/><path class="cls-7" d="M445.27,261.81c-4.72,2.94-14.17,18.82-13.33,20.16s19.29-.16,24-3.11a10.06,10.06,0,1,0-10.68-17.05Z"/><path class="cls-7" d="M408.78,280.92c5,2.47,23.49,2.16,24.2.74s-10.26-16.29-15.25-18.76a10.06,10.06,0,1,0-9,18Z"/><path class="cls-7" d="M443.66,284.89c-4.72,2.94-14.17,18.82-13.33,20.17s19.29-.17,24-3.11a10.06,10.06,0,1,0-10.68-17.06Z"/><path class="cls-7" d="M407.17,304c5,2.47,23.49,2.17,24.2.75s-10.26-16.3-15.25-18.77a10.06,10.06,0,1,0-8.95,18Z"/><path class="cls-7" d="M448,316.5c-5.49.92-20.29,12-20,13.58s17.9,7.17,23.39,6.24A10.05,10.05,0,1,0,448,316.5Z"/><path class="cls-7" d="M404.86,326.54c4.64,3.07,23,5.08,23.92,3.76s-8.14-17.45-12.78-20.52a10.06,10.06,0,1,0-11.14,16.76Z"/><path class="cls-7" d="M437.67,207.25c-1.73,2.13-3.61,11.07-3,11.56s9-3.16,10.74-5.29a5,5,0,1,0-7.74-6.27Z"/><path class="cls-7" d="M423.11,218.43c2.47,1.2,11.63,1,12,.31s-5.11-8-7.58-9.25a5,5,0,1,0-4.39,8.94Z"/><path class="cls-7" d="M440.29,222.28c-2.71,2.81-6.4,15.26-5.59,16s13.11-3.43,15.81-6.25a7.07,7.07,0,1,0-10.22-9.78Z"/><path class="cls-7" d="M418,237.5c3.51,1.72,16.52,1.44,17,.44s-7.27-11.41-10.78-13.13A7.07,7.07,0,1,0,418,237.5Z"/><polygon class="cls-8" points="32.91 339.17 28.76 338.61 45.39 217.82 49.53 218.39 32.91 339.17"/><path class="cls-9" d="M54.8,213.61a4.52,4.52,0,1,1,4.51,4.5A4.5,4.5,0,0,1,54.8,213.61Z"/><polygon class="cls-8" points="38.41 223.52 37.01 219.6 56.51 212.69 57.92 216.61 38.41 223.52"/><path class="cls-10" d="M89.41,336s-.39,13.91-.5,14.1.93,2,.93,2l4.37,1,4.1-1.67s.2-12.93.7-14.95-9.6-.43-9.6-.43Z"/><path class="cls-11" d="M98.31,351.42s-5.15,1.56-9.37-1.55c0,0-17.17,5.59-16.86,10.41,0,0-.78,1.4,6.56,1.4s18.74.15,19,0,1.71.67.62-10.26Z"/><path class="cls-10" d="M129.06,338.86s3.67,13.11,3.6,13.33a13.79,13.79,0,0,0,.6,2.2l4.48-.07,3.59-2.58s-2.85-12.62-2.84-14.7-9.43,1.82-9.43,1.82Z"/><path class="cls-11" d="M141.37,351.42s-5.15,1.56-9.36-1.55c0,0-17.18,5.59-16.87,10.41,0,0-.78,1.4,6.56,1.4s18.74.15,19,0,1.71.67.62-10.26Z"/><path class="cls-12" d="M93,233.33A292.91,292.91,0,0,0,82.82,286c-3.13,30.44,2.57,52.86,2.57,52.86s8.91,2,17,0c0,0,0-41.82,6.8-58.22s9-19.51,9-19.51-5.62,15.09-3.79,36.17,11.25,43,11.25,43,8.7,1.93,14.35-2c0,0-7.29-34.57.29-61,4.35-15.12,11.08-40.49,11.08-40.49Z"/><path class="cls-9" d="M144.3,254.12a9.54,9.54,0,0,0,2.17-.21.41.41,0,0,0,.29-.5.42.42,0,0,0-.51-.29c-.51.13-12.64,3.09-18.77-16.75a.4.4,0,0,0-.51-.27.41.41,0,0,0-.27.52c4.8,15.56,13.55,17.5,17.6,17.5Z"/><path class="cls-9" d="M89.33,249.11h.1c.11,0,10.77-2.82,11.56-15.71a.41.41,0,0,0-.82,0c-.75,12.28-10.52,14.86-10.94,15a.4.4,0,0,0-.3.49.41.41,0,0,0,.4.31Z"/><path class="cls-11" d="M118.94,140.36s-8.06,3.58-11.34,3.35-12.41,3-24.35,24.47S54,207.56,54,207.56l8,10.25s22.25-7.92,32.55-21.2c0,0-3.51,31.4-7,40.75a184.57,184.57,0,0,0,18.74,6.09c9.83,2.56,34.89,0,34.89,0l3-6.09,3.86,5.86,8.9-2v-30s24.48-10.72,12.3-35.42-31.06-35.51-50.26-35.51Z"/><path class="cls-13" d="M94.79,171.48l10.91-2.12a.3.3,0,0,1,.35.23l4.53,23.1a.29.29,0,0,1-.24.34l-10.91,2.12a.3.3,0,0,1-.35-.23l-4.53-23.1a.3.3,0,0,1,.24-.34Z"/><path class="cls-10" d="M118,185.37a65.2,65.2,0,0,0-6.25-6.21c-2-1.4-2.79-4.19-3.93-3.41s1.22,4.73,1.22,4.73-4.82-.74-6.27-1.19-4.24-.6-4.66.42,6.69,2.72,6.69,2.72-6.12-.84-6.7,0,7.05,3.06,7.05,3.06-6.49-1.2-7.08-.85-.17,1.11,2,2.09a23,23,0,0,0,4.69,1.42s-4.62-.5-5.2-.37-1.27.73,2.13,1.84S112.86,192,117,191l1-5.64Z"/><path class="cls-9" d="M151.57,211.88a26,26,0,0,0,5.36-.49l-.05-.2a32,32,0,0,1-13.2-.41c-7.05-1.58-17.43-6.12-26.83-18.76l1.38-6.93c1.23-.33,20.28-5.29,37.37-2.83l0-.2c-17.62-2.54-37.32,2.79-37.52,2.85h-.06V185l-1.42,7.09,0,0c9.46,12.72,19.9,17.28,27,18.87a36,36,0,0,0,7.92.9Z"/><path class="cls-9" d="M143.1,181.5l.2-.06a131.46,131.46,0,0,0-8.2-18.67l-.19.1a129,129,0,0,1,8.19,18.63Z"/><path class="cls-14" d="M96.85,123.87s-1.28-1.39-2-.63c-1.82,1.92.58,3.66,2,3.91l0-3.28Z"/><path class="cls-10" d="M95.48,118.24h0c0-.17-.07-.33-.09-.49a12.82,12.82,0,1,1,25,1.35,83.25,83.25,0,0,1-2.11,8.08,18.18,18.18,0,0,0,.06,11.57l1,2.95c-7.13,5.33-11.29,2.05-11.29,2.05l-1-5.54a1.43,1.43,0,0,0-1.53-1.15h0c-9.76.88-9.37-14.51-10.06-18.83Z"/><path class="cls-9" d="M98.74,122.4a.93.93,0,1,1,1.06.77.92.92,0,0,1-1.06-.77Z"/><path class="cls-9" d="M110.15,123a.93.93,0,0,1,1.84-.29.91.91,0,0,1-.77,1.06.93.93,0,0,1-1.07-.77Z"/><path class="cls-9" d="M113.51,120.32a.58.58,0,0,0,.34-.15.69.69,0,0,0,.09-1,3.76,3.76,0,0,0-5.23-.39.69.69,0,0,0-.17,1,.7.7,0,0,0,1,.16,2.39,2.39,0,0,1,3.35.15.67.67,0,0,0,.64.24Z"/><path class="cls-9" d="M102.17,120.22a.67.67,0,0,0,.34-.16.7.7,0,0,0,.09-1,3.77,3.77,0,0,0-5.24-.39.7.7,0,0,0,.82,1.14,2.36,2.36,0,0,1,3.35.15.69.69,0,0,0,.64.24Z"/><path class="cls-9" d="M103.52,131.62c2.51.77,5-1.16,5.08-1.19a.2.2,0,0,0,0-.29.2.2,0,0,0-.28,0c-.15.12-3.68,2.8-6.32.11a.21.21,0,0,0-.29,0,.2.2,0,0,0,0,.29,4.27,4.27,0,0,0,1.79,1.12Z"/><path class="cls-6" d="M120.65,105a8.82,8.82,0,0,0-1.36-1.89,7.74,7.74,0,0,0-5.29-1.84c-1.91,0-3.82.28-5.73.23s-3.92-.5-5.8,0a2.8,2.8,0,0,0-1.14.54,7.15,7.15,0,0,0-.82,1c-1.14,1.4-3.11,1.76-4.9,2l-3.11.45a4.36,4.36,0,0,0-2.47.91,4.88,4.88,0,0,0-1,2.75,3.36,3.36,0,0,1-1.38,2.54c-.3.16-.67.26-.82.57a.9.9,0,0,0-.05.49,2.88,2.88,0,0,0,3,2.47,6.23,6.23,0,0,1,1.06-.07c1.26.17,1.65,1.88,2.73,2.56a2.81,2.81,0,0,0,2.29.17,16.42,16.42,0,0,0,2.15-1,10.18,10.18,0,0,1,2.7-.83,4,4,0,0,1,2,.06c.33.11.63.29,1,.4a4.11,4.11,0,0,0,3.46-.71c1-.66,1.9-1.53,3-2.12a3.55,3.55,0,0,1,3.48-.19A14.63,14.63,0,0,1,115,115c1.4,1.2,3.45,1.16,5.29,1a1.86,1.86,0,0,0,1.09-.29,1.6,1.6,0,0,0,.44-.67c1.37-3.14.47-7.23-1.16-10.07Z"/><polygon class="cls-6" points="121.97 114.69 119.92 123.55 117.54 123.45 114.43 112.67 121.97 114.69 121.97 114.69"/><path class="cls-10" d="M117.14,123.24a2,2,0,0,1,.85-1c.82-.48,2.3-1.11,3.53-.22,1.8,1.31-.69,5.9-4.1,4.34,0,0-1-.74-.28-3.07Z"/><path class="cls-14" d="M104.19,128a2.41,2.41,0,0,0,2.14-.4.21.21,0,0,0-.27-.32,2,2,0,0,1-2.35,0c-.2-.14-.32-.26-.34-.36s.11-.34.3-.63a6,6,0,0,0,1.13-4,.21.21,0,0,0-.41,0,5.63,5.63,0,0,1-1.06,3.74c-.24.35-.43.63-.37.94a1.06,1.06,0,0,0,.53.62,2.64,2.64,0,0,0,.7.34Z"/><path class="cls-10" d="M55.59,209.65s-4.61.51-7.49,2.5-3.16,3.84-3,4.51a66.13,66.13,0,0,1,8-1.49c1.86,0,6,1.39,6.19-.73Z"/><path class="cls-9" d="M29.34,375.78a19.43,19.43,0,1,1,19.52-19.43A19.5,19.5,0,0,1,29.34,375.78Zm0-34.93a15.5,15.5,0,1,0,15.57,15.5A15.56,15.56,0,0,0,29.34,340.85Z"/><path class="cls-9" d="M177.21,375.38a14.2,14.2,0,1,1,14.27-14.2A14.25,14.25,0,0,1,177.21,375.38Zm0-25.28a11.08,11.08,0,1,0,11.13,11.08A11.12,11.12,0,0,0,177.21,350.1Z"/><path class="cls-8" d="M64.44,364.46,53.34,334a12.47,12.47,0,0,0-8.77-7.88l-11.33-2.78.92-3.71,11.33,2.79A16.25,16.25,0,0,1,56.94,332.7l11.11,30.46Z"/><rect class="cls-8" x="56.08" y="361.55" width="103.22" height="7.76" rx="3.88"/><path class="cls-8" d="M157.28,365.46h-.07a1.92,1.92,0,0,1-1.85-2,30.77,30.77,0,0,1,1.9-8.69c2.32-6.19,6.38-10.59,11.75-12.7,7.56-3,13.49-1.65,17.13,0a18.73,18.73,0,0,1,6.23,4.46,1.89,1.89,0,0,1-.24,2.68,1.92,1.92,0,0,1-2.7-.23c-.28-.33-7.1-8.06-19-3.36-10.57,4.18-11.22,17.86-11.22,18A1.92,1.92,0,0,1,157.28,365.46Z"/><ellipse class="cls-9" cx="38.23" cy="221.84" rx="4.88" ry="4.86"/><polygon class="cls-9" points="25.7 373.45 24.34 373.11 32.98 339.25 34.33 339.6 25.7 373.45"/><polygon class="cls-9" points="46.18 361.32 12.15 352.73 12.49 351.38 46.52 359.98 46.18 361.32"/><polygon class="cls-9" points="37.72 371.72 19.76 341.7 20.96 340.99 38.91 371.01 37.72 371.72"/><polygon class="cls-9" points="14.61 365.88 13.9 364.69 44.06 346.82 44.78 348.02 14.61 365.88"/><polygon class="cls-9" points="172.97 372.21 172.1 371.84 181.46 350.15 182.32 350.52 172.97 372.21"/><polygon class="cls-9" points="187.93 366.26 166.13 356.96 166.5 356.1 188.3 365.4 187.93 366.26"/><polygon class="cls-9" points="181.18 372.31 172.38 350.4 173.25 350.05 182.05 371.96 181.18 372.31"/><polygon class="cls-9" points="166.38 365.99 166.03 365.12 188.05 356.37 188.4 357.24 166.38 365.99"/><path class="cls-10" d="M59.31,214.44s-.64,2-4.23,3.26-3.79,1.05-2.42-1A43.5,43.5,0,0,1,55.34,213Z"/><ellipse class="cls-12" cx="29.34" cy="356.35" rx="5.39" ry="5.37"/><path class="cls-8" d="M157.28,369.36a1.56,1.56,0,0,1-.5-3l19.94-6.62a1.56,1.56,0,1,1,1,3l-19.93,6.62A1.49,1.49,0,0,1,157.28,369.36Z"/><path class="cls-12" d="M173.87,361.18a3.34,3.34,0,1,1,3.34,3.33A3.33,3.33,0,0,1,173.87,361.18Z"/><path class="cls-8" d="M50.29,346.72a1.72,1.72,0,0,1-1.44-.77c-4.82-7.48-11.4-11.27-19.58-11.27h-.09a28.64,28.64,0,0,0-11,2.29,1.7,1.7,0,1,1-1.48-3.05,32,32,0,0,1,12.49-2.62h.09c6.5,0,15.63,2.23,22.45,12.82a1.68,1.68,0,0,1-1.42,2.6Z"/></g></g></svg>