<svg xmlns="http://www.w3.org/2000/svg" viewBox="0 0 179 129"><defs><style>.cls-1{fill:#dde7fe;}.cls-2{fill:#7c9af2;}.cls-3{fill:#91b5f8;}.cls-4{fill:#060633;}.cls-5{fill:#b9caef;}.cls-6{fill:#131375;}.cls-7{fill:#fff;}.cls-8{fill:#fa7267;}.cls-9{fill:#e54f48;}.cls-10{fill:#fb9391;}.cls-11{fill:#ea6868;}.cls-12{fill:#bdd1f9;}.cls-13{fill:#e8f0fd;}.cls-14{fill:#0b0755;}.cls-15{fill:#94b5c2;}.cls-16{fill:#17152b;}.cls-17{fill:#050521;}.cls-18{fill:#6986d1;}</style></defs><title>pic_n_1</title><g id="Layer_2" data-name="Layer 2"><g id="Layer_1-2" data-name="Layer 1"><path class="cls-1" d="M165.85,118c0-2.65,27.58-30.44,2.83-50.3-8.63-6.92,14.76-61-72.43-56.94-11.17.52-22.43,3-31.72,9.28-6.69,4.48-11,11.47-16.92,16.77-6.52,5.84-15.26,7.1-22.11,12.29C19.31,53.76,5.85,60.5,4.43,78c-1.33,16.42,7.94,33.12,16.69,39.13Z"/><path class="cls-2" d="M102.05,69.74h0a.18.18,0,0,1-.09-.24c11.15-23.56,20.52-40,26.4-46.2a2.75,2.75,0,0,0,.27-.29.18.18,0,0,1,.29.22,4.31,4.31,0,0,1-.29.32c-5.86,6.2-15.21,22.57-26.34,46.1A.19.19,0,0,1,102.05,69.74Z"/><path class="cls-2" d="M131.89,22.54a9.06,9.06,0,0,1-4,1.49,9.09,9.09,0,0,1,1.48-4,1.77,1.77,0,1,1,2.5,2.51Z"/><path class="cls-2" d="M126,24.07a9.37,9.37,0,0,1-1.24,4.18,9.33,9.33,0,0,1-2.35-3.68,1.81,1.81,0,1,1,3.59-.5Z"/><path class="cls-2" d="M128.55,30.26a9.42,9.42,0,0,1-3.79-2.15,9.2,9.2,0,0,1,4.1-1.47,1.82,1.82,0,0,1-.31,3.62Z"/><path class="cls-2" d="M115,39.14c.42,1.63-.84,7.09-1.31,7.21s-4.16-4.08-4.57-5.71a3,3,0,1,1,5.88-1.5Z"/><path class="cls-2" d="M120.45,49c-1.68,0-6.69-2.42-6.7-2.91s4.89-3.15,6.57-3.19a3.05,3.05,0,0,1,.13,6.1Z"/><path class="cls-2" d="M109.8,44.66c.93,1.83.89,8.69.36,9s-6.06-3.73-7-5.57a3.72,3.72,0,1,1,6.63-3.38Z"/><path class="cls-2" d="M117.69,57.7c-2-.17-7.84-3.8-7.79-4.38s6.35-3.23,8.39-3.06a3.73,3.73,0,0,1-.6,7.44Z"/><path class="cls-2" d="M105.91,52.3c.93,1.84.89,8.69.36,9s-6.06-3.74-7-5.57a3.72,3.72,0,1,1,6.63-3.39Z"/><path class="cls-2" d="M113.8,65.34c-2-.17-7.84-3.79-7.79-4.38s6.35-3.22,8.39-3.05a3.73,3.73,0,0,1-.6,7.43Z"/><path class="cls-2" d="M98.52,61.53c1.56,1.34,4.12,7.69,3.74,8.14s-7-1.14-8.58-2.48a3.72,3.72,0,0,1,4.84-5.66Z"/><path class="cls-2" d="M110.23,73c-2,.09-8.25-2.79-8.28-3.37s5.9-4,8-4.09a3.73,3.73,0,0,1,.33,7.46Z"/><path class="cls-2" d="M122.6,28.76c.14,1-1,4.21-1.26,4.25s-2.24-2.72-2.38-3.73a1.84,1.84,0,1,1,3.64-.52Z"/><path class="cls-2" d="M125.07,35.1c-1-.09-3.87-1.9-3.84-2.19s3.15-1.58,4.16-1.49a1.85,1.85,0,0,1-.32,3.68Z"/><path class="cls-2" d="M118.91,33c.31,1.41-.89,6.07-1.29,6.17s-3.49-3.6-3.81-5a2.62,2.62,0,1,1,5.1-1.16Z"/><path class="cls-2" d="M123.06,42.14c-1.44-.12-5.49-2.69-5.46-3.1s4.47-2.24,5.91-2.12a2.62,2.62,0,0,1-.45,5.22Z"/><path class="cls-2" d="M63.59,93.59S87.72,55.16,15.7,25C15.7,25,14.52,105.62,63.59,93.59Z"/><path class="cls-3" d="M15.61,24.82,65.75,88.29C69.47,76.81,71.65,48.32,15.61,24.82Z"/><path class="cls-4" d="M63.63,85.74a.11.11,0,0,1-.1,0l-48-60.78a.14.14,0,0,1,.21-.17l48,60.79a.12.12,0,0,1,0,.18A.11.11,0,0,1,63.63,85.74Z"/><path class="cls-4" d="M40.68,56.69h0L19.48,53.14a.12.12,0,0,1-.1-.15.13.13,0,0,1,.15-.11L40.7,56.43a.13.13,0,0,1,.11.15A.14.14,0,0,1,40.68,56.69Z"/><path class="cls-4" d="M51,69.71a.13.13,0,0,1-.13-.11L47.3,48.75a.13.13,0,0,1,.11-.15.13.13,0,0,1,.15.1L51.1,69.56a.13.13,0,0,1-.11.15Z"/><path class="cls-3" d="M65.23,101.2S63.49,63.43,0,77.17C0,77.17,37.42,132.83,65.23,101.2Z"/><path class="cls-2" d="M0,77.17l65.23,24S43.36,135.42,0,77.17Z"/><path class="cls-3" d="M112.88,102.32S114.42,68.81,170.76,81C170.76,81,137.56,130.39,112.88,102.32Z"/><path class="cls-2" d="M170.76,81l-57.88,21.32S132.29,132.69,170.76,81Z"/><path class="cls-5" d="M168.68,115.89c0-7.24-34.25-13.12-76.49-13.12S15.7,108.65,15.7,115.89,50,129,92.19,129s76.49-5.87,76.49-13.11Z"/><path class="cls-6" d="M106.32,44.81h-.55A4.84,4.84,0,0,1,100.94,40V37.86H76.75V40a4.83,4.83,0,0,1-4.82,4.84h-.55A8.42,8.42,0,0,0,63,53.24v49.29a8.41,8.41,0,0,0,8.4,8.43h34.94a8.41,8.41,0,0,0,8.4-8.43V53.24A8.42,8.42,0,0,0,106.32,44.81Z"/><rect class="cls-6" x="73.54" y="35.07" width="30.61" height="5.38" rx="0.6"/><path class="cls-2" d="M77.72,23.12h21A1.87,1.87,0,0,1,100.57,25V35.07a0,0,0,0,1,0,0H76.92a0,0,0,0,1,0,0V23.93A.81.81,0,0,1,77.72,23.12Z"/><rect class="cls-7" x="97.4" y="24.42" width="1.45" height="9.74" rx="0.72"/><rect class="cls-7" x="93.05" y="24.42" width="1.45" height="9.74" rx="0.72"/><rect class="cls-7" x="88.09" y="24.42" width="1.45" height="9.74" rx="0.72"/><rect class="cls-7" x="83.75" y="24.42" width="1.45" height="9.74" rx="0.72"/><rect class="cls-7" x="78.87" y="24.42" width="1.45" height="9.74" rx="0.72"/><rect class="cls-3" x="66.95" y="61.67" width="43.03" height="24.58"/><path class="cls-8" d="M47.24,2.87A1.77,1.77,0,0,0,46,4.48V20a9.84,9.84,0,0,0,4,8l9.11,5.86a1.91,1.91,0,0,0,2,0L70.31,28a9.82,9.82,0,0,0,4-8V4.52a1.76,1.76,0,0,0-1.27-1.63C62-.91,57.58-1,47.24,2.87Z"/><path class="cls-9" d="M73.07,2.89C67.69,1,63.88.07,60.19,0V34.17a1.91,1.91,0,0,0,1-.29L70.31,28a9.82,9.82,0,0,0,4-8V4.52A1.76,1.76,0,0,0,73.07,2.89Z"/><rect class="cls-7" x="57.31" y="5.38" width="5.65" height="19.81"/><rect class="cls-7" x="57.78" y="5.42" width="5.67" height="19.73" transform="translate(75.9 -45.32) rotate(90)"/><path class="cls-7" d="M96.82,112.38a5.22,5.22,0,1,0-7.16,1.79A5.25,5.25,0,0,0,96.82,112.38Z"/><path class="cls-1" d="M94.88,105.46h0a.87.87,0,0,0-1.2.3l-4.07,6.79a.89.89,0,0,0,.3,1.21h0a.89.89,0,0,0,1.21-.3l4.06-6.79A.89.89,0,0,0,94.88,105.46Z"/><path class="cls-7" d="M120,11.75h0a2.78,2.78,0,0,0-3.92-.31l-5.22,4.48a2.8,2.8,0,0,0-.31,3.94h0a2.78,2.78,0,0,0,3.92.3l5.23-4.48A2.8,2.8,0,0,0,120,11.75Z"/><path class="cls-8" d="M120,11.75a2.78,2.78,0,0,0-3.92-.31l-2.61,2.24L117,17.92l2.62-2.24A2.8,2.8,0,0,0,120,11.75Z"/><path class="cls-7" d="M161.47,97.41h0a2.27,2.27,0,0,0-.33,3.19l3.52,4.35a2.25,2.25,0,0,0,3.18.34h0a2.27,2.27,0,0,0,.33-3.19l-3.52-4.36A2.26,2.26,0,0,0,161.47,97.41Z"/><path class="cls-8" d="M161.47,97.41a2.27,2.27,0,0,0-.33,3.19l1.76,2.17,3.51-2.85-1.76-2.18A2.26,2.26,0,0,0,161.47,97.41Z"/><path class="cls-7" d="M84.23,112.17h0a2.38,2.38,0,0,0-2.38-2.4l-5.91,0a2.41,2.41,0,0,0-2.4,2.4h0a2.4,2.4,0,0,0,2.39,2.4h5.91A2.38,2.38,0,0,0,84.23,112.17Z"/><path class="cls-8" d="M84.23,112.17a2.38,2.38,0,0,0-2.38-2.4h-3v4.8h3A2.38,2.38,0,0,0,84.23,112.17Z"/><path class="cls-7" d="M75.33,106.08h0A2.39,2.39,0,0,0,72,106l-4.26,4.11a2.4,2.4,0,0,0-.07,3.39h0a2.38,2.38,0,0,0,3.38.07l4.26-4.1A2.4,2.4,0,0,0,75.33,106.08Z"/><path class="cls-8" d="M75.33,106.08A2.39,2.39,0,0,0,72,106l-2.13,2.06,3.31,3.46,2.13-2A2.4,2.4,0,0,0,75.33,106.08Z"/><path class="cls-10" d="M138.43,110.27s0,3.82,0,3.87.28.54.28.54l1.2.21,1.1-.5s-.1-3.56,0-4.12S138.43,110.27,138.43,110.27Z"/><path class="cls-4" d="M141,114.39a3.14,3.14,0,0,1-2.57-.32s-4.61,1.73-4.47,3.05c0,0-.19.39,1.8.31s5.1-.18,5.19-.22S141.45,117.37,141,114.39Z"/><path class="cls-10" d="M152.51,110.27s.05,3.82,0,3.87.28.54.28.54l1.2.21,1.1-.5s-.1-3.56,0-4.12S152.51,110.27,152.51,110.27Z"/><path class="cls-4" d="M155.11,114.39a3.14,3.14,0,0,1-2.57-.32s-4.61,1.73-4.47,3.05c0,0-.19.39,1.8.31s5.1-.18,5.19-.22S155.53,117.37,155.11,114.39Z"/><polygon class="cls-4" points="153.68 69.43 155.3 113.76 152.19 113.64 144.98 83.94 141.22 114.07 137.96 113.76 136.53 71.4 140.61 69.81 153.68 69.43"/><path class="cls-10" d="M127.52,57.43a18.5,18.5,0,0,0,0-2.49c-.1-.66.28-1.39-.1-1.46s-.7,1.19-.7,1.19-.81-1.11-1-1.49-.73-1-1-.84.78,1.88.78,1.88-1-1.39-1.33-1.33.78,2,.78,2a10.61,10.61,0,0,0-1.23-1.57c-.19,0-.25.19,0,.82a6.58,6.58,0,0,0,.64,1.21,13.05,13.05,0,0,0-1-1.1c-.14-.09-.4-.11.05.79a10.5,10.5,0,0,0,2.76,3.31Z"/><path class="cls-11" d="M143.39,42.62s-.25-.55-.54-.39c-.75.41-.19,1.19.23,1.4Z"/><path class="cls-10" d="M143.54,40.76h0a.78.78,0,0,0,0-.16,4.11,4.11,0,1,1,7.49,2.91c-.53.89-1,1.65-1.45,2.27a6,6,0,0,0-1.13,3.56v1c-2.7.93-3.64-.49-3.64-.49l.24-1.8a.45.45,0,0,0-.35-.51h0C141.66,46.84,143.32,42.16,143.54,40.76Z"/><path class="cls-4" d="M147.37,43.57a.39.39,0,0,1,.44-.32.38.38,0,0,1-.12.76A.39.39,0,0,1,147.37,43.57Z"/><path class="cls-4" d="M144.13,42.35a.37.37,0,0,1,.44-.31.38.38,0,1,1-.44.31Z"/><path class="cls-4" d="M149.07,42.74a.25.25,0,0,0,.12,0,.22.22,0,0,0,.14-.28,1.2,1.2,0,0,0-1.51-.74.23.23,0,0,0-.16.28.22.22,0,0,0,.27.16.76.76,0,0,1,1,.44A.22.22,0,0,0,149.07,42.74Z"/><path class="cls-4" d="M145.7,41.45a.25.25,0,0,0,.12,0,.22.22,0,0,0,.12-.29,1.19,1.19,0,0,0-1.55-.64.22.22,0,0,0,.13.43.76.76,0,0,1,1,.38A.2.2,0,0,0,145.7,41.45Z"/><polygon class="cls-4" points="151.99 42.25 150.44 44.83 149.73 44.56 149.86 40.94 151.99 42.25"/><path class="cls-11" d="M145.21,44.63a.79.79,0,0,0,.69.09.07.07,0,0,0,0-.09.08.08,0,0,0-.09,0,.6.6,0,0,1-.71-.22c0-.06-.08-.11-.07-.14s.06-.1.15-.17A1.92,1.92,0,0,0,146,43a.07.07,0,0,0,0-.08.06.06,0,0,0-.08.05,1.85,1.85,0,0,1-.7,1,.45.45,0,0,0-.21.25.4.4,0,0,0,.1.24A1,1,0,0,0,145.21,44.63Z"/><path class="cls-4" d="M144.44,39.29s-.64.31-1.18,2.76c0,0,.24-2.79.59-3S144.44,39.29,144.44,39.29Z"/><path class="cls-4" d="M147.79,44.88A1.25,1.25,0,1,1,149,43.63,1.25,1.25,0,0,1,147.79,44.88Zm0-2.43A1.18,1.18,0,1,0,149,43.63,1.18,1.18,0,0,0,147.79,42.45Z"/><path class="cls-4" d="M144.5,43.67a1.26,1.26,0,1,1,1.25-1.26A1.26,1.26,0,0,1,144.5,43.67Zm0-2.43a1.18,1.18,0,1,0,1.18,1.17A1.18,1.18,0,0,0,144.5,41.24Z"/><path class="cls-4" d="M146.57,43.36a.62.62,0,0,0-.31-.4.92.92,0,0,0-.64,0l0-.07a1,1,0,0,1,.7,0,.66.66,0,0,1,.35.44Z"/><polygon class="cls-4" points="149.99 44.26 148.88 44.19 148.88 44.11 150 44.18 149.99 44.26"/><path class="cls-10" d="M149.63,44.45a.61.61,0,0,1,.36-.23,1,1,0,0,1,1.1.28c.42.58-.8,1.74-1.68.92C149.41,45.42,149.17,45.1,149.63,44.45Z"/><path class="cls-12" d="M148.73,49.87l-4.08-.29-2.06,6.76-.9,13.17a10.47,10.47,0,0,0,8.71,0L150,54Z"/><path class="cls-7" d="M148.73,49.87s6,3,7.07,4.8.95.14,3.57,9.08a3.63,3.63,0,0,1-.68,3.32,2.37,2.37,0,0,1-1.18.78l-3.26,1L155.3,94.9h-7.12Z"/><path class="cls-7" d="M144.65,49.58s-6.34,2.19-7.67,3.79-1.9,41-1.9,41h6Z"/><polygon class="cls-8" points="147.35 50.54 146.55 51.72 146.85 69.16 144.29 72.74 142.84 68.79 145.69 51.55 145.25 50.29 146.69 49.87 147.35 50.54"/><polygon class="cls-12" points="148.73 49.87 148.47 49.17 146.5 49.71 144.96 48.87 144.65 49.58 144.9 50.87 146.41 50.02 147.75 51.15 148.73 49.87"/><path class="cls-4" d="M150.93,37.22c-.11-.12-.31-.24-.42-.11a.28.28,0,0,0,0,.2,1.69,1.69,0,0,0,.1.58,3.71,3.71,0,0,0-2.83-1.25c-1.06-.06-2.13.1-3.18,0-.42,0-.92-.12-1.19.21a.74.74,0,0,0,0,.83,1.29,1.29,0,0,0,.71.5.58.58,0,0,0-.66.1.6.6,0,0,0-.12.66,1.13,1.13,0,0,0,.93.48,30.93,30.93,0,0,0,3.46.34l-.53.37a.41.41,0,0,0-.16.16.33.33,0,0,0,0,.29.88.88,0,0,0,.65.39,4.21,4.21,0,0,0,.79,0,5.43,5.43,0,0,1,1.14,0,.86.86,0,0,1,.23,0,.81.81,0,0,1,.21.24,3.39,3.39,0,0,0,1.6,1c.19.07.43.12.55,0a.32.32,0,0,0,.06-.21,5.12,5.12,0,0,0-.45-2.7.29.29,0,0,0,.52.06c.18-.3-.18-.58-.39-.72s-.37-.16-.51-.36S151.2,37.54,150.93,37.22Z"/><path class="cls-7" d="M146.17,45.7,144.05,45s0,1.2.82,1.26A1.67,1.67,0,0,0,146.17,45.7Z"/><polygon class="cls-13" points="151.05 51.14 149.5 56.05 150.67 56.64 148.5 66.33 148.73 49.87 151.05 51.14"/><path class="cls-7" d="M138.58,52.19a7,7,0,0,0-3.15,3.42c-1,2.43-2.52,6.22-4.18,6.7C129.93,62.69,128,57,128,57l-3.09.85S126,69.3,132,68.69c3.78-.39,5.57-8.53,5.57-8.53Z"/><polygon class="cls-13" points="142.17 50.52 143.03 55.6 141.79 56.03 142.86 66.52 144.65 49.58 142.17 50.52"/><path class="cls-14" d="M145.06,57.34l-9,.49a0,0,0,0,0-.05.05l.67,12.54a.06.06,0,0,0,.06,0l9-.48a.06.06,0,0,0,.05-.06l-.67-12.54A.05.05,0,0,0,145.06,57.34Z"/><rect class="cls-15" x="138.85" y="56.97" width="3.7" height="0.79" transform="translate(-2.89 7.67) rotate(-3.09)"/><path class="cls-15" d="M141.29,56.94a.61.61,0,1,0-.58.64A.61.61,0,0,0,141.29,56.94Z"/><path class="cls-10" d="M148.62,66.5a18.16,18.16,0,0,0-2.37-.87c-.67-.14-1.22-.77-1.42-.42s.88,1.08.88,1.08-1.34.39-1.77.44-1.17.35-1.15.67,2.06-.09,2.06-.09-1.69.51-1.74.81,2.2,0,2.2,0a11.61,11.61,0,0,0-1.94.62c-.11.16.09.31.77.31a6.82,6.82,0,0,0,1.39-.19s-1.26.42-1.39.52-.25.34.77.23A10.66,10.66,0,0,0,149,68.1Z"/><polygon class="cls-14" points="145.52 65 145.59 66.33 144.33 66.16 144.23 65.05 144.62 64.52 145.52 65"/><path class="cls-16" d="M149.32,69.53a.09.09,0,0,1-.08-.06l-.77-3.32a.07.07,0,0,1,0-.08l5.62-2.75-1.25-3.71a.06.06,0,0,1,0-.09.07.07,0,0,1,.1,0l1.28,3.77a.08.08,0,0,1,0,.09l-5.63,2.76.74,3.19,4.87-.63a.08.08,0,0,1,.09.07.08.08,0,0,1-.07.08l-4.93.64Z"/><rect class="cls-7" x="100.06" y="74.81" width="28.93" height="43.56"/><path class="cls-1" d="M111.53,84.31A4,4,0,1,0,106,85.68,4,4,0,0,0,111.53,84.31Z"/><path class="cls-3" d="M110,79h0a.67.67,0,0,0-.92.23L106,84.44a.68.68,0,0,0,.23.92h0a.68.68,0,0,0,.93-.23l3.11-5.2A.67.67,0,0,0,110,79Z"/><path class="cls-1" d="M125.43,83a4,4,0,1,0-4.71,3.15A4,4,0,0,0,125.43,83Z"/><path class="cls-3" d="M122.25,78.54h0a.68.68,0,0,0-.79.53l-1.19,6a.66.66,0,0,0,.52.79h0a.67.67,0,0,0,.79-.53l1.2-5.94A.69.69,0,0,0,122.25,78.54Z"/><path class="cls-1" d="M124.06,92.53a4,4,0,1,0,.53,5.65A4,4,0,0,0,124.06,92.53Z"/><path class="cls-3" d="M118.61,93.22h0a.67.67,0,0,0,.09,1L123.36,98a.66.66,0,0,0,.94-.09h0a.67.67,0,0,0-.09-1l-4.65-3.86A.67.67,0,0,0,118.61,93.22Z"/><path class="cls-1" d="M111.53,93.9a4,4,0,1,0-1.89,5.35A4,4,0,0,0,111.53,93.9Z"/><path class="cls-3" d="M106.31,92.22h0a.67.67,0,0,0-.32.9l2.6,5.47a.66.66,0,0,0,.89.32h0a.67.67,0,0,0,.32-.9l-2.6-5.47A.66.66,0,0,0,106.31,92.22Z"/><path class="cls-1" d="M111.75,108.6a4,4,0,1,0-2.67,5A4,4,0,0,0,111.75,108.6Z"/><path class="cls-3" d="M106.84,106.14h0a.67.67,0,0,0-.45.84l1.74,5.81a.67.67,0,0,0,.84.45h0a.68.68,0,0,0,.45-.84l-1.74-5.81A.68.68,0,0,0,106.84,106.14Z"/><path class="cls-1" d="M125.06,110.61a4,4,0,1,0-4.76,3.07A4,4,0,0,0,125.06,110.61Z"/><path class="cls-3" d="M122,106.13h0a.67.67,0,0,0-.8.52l-1.28,5.93a.67.67,0,0,0,.51.8h0a.67.67,0,0,0,.8-.52l1.28-5.93A.67.67,0,0,0,122,106.13Z"/><polygon class="cls-10" points="79.2 65.75 75.38 65.19 77.61 63.11 79.61 62.46 80.74 63.55 79.2 65.75"/><path class="cls-10" d="M62.92,112.6s.93,5.44,1,5.5a3,3,0,0,1-.34.65l-1.47.27-1.33-.62s-.77-4.39-.91-5.07S62.92,112.6,62.92,112.6Z"/><path class="cls-6" d="M60.75,118.4a3.8,3.8,0,0,0,3.13-.39s5.61,2.12,5.44,3.72c0,0,.24.48-2.19.38s-6.22-.21-6.32-.27S60.23,122,60.75,118.4Z"/><path class="cls-10" d="M46.25,112.6s-1.44,5.44-1.4,5.5-.34.65-.34.65l-1.46.27-1.34-.62a41.22,41.22,0,0,0,.59-5.16C42.16,112.56,46.25,112.6,46.25,112.6Z"/><path class="cls-6" d="M41.71,118.4a3.8,3.8,0,0,0,3.13-.39s5.62,2.12,5.45,3.72c0,0,.24.48-2.2.38s-6.21-.21-6.32-.27S41.2,122,41.71,118.4Z"/><path class="cls-17" d="M61.41,78.58l2.94,37.24h-5S54,86.39,53.22,86.26s-6.16,29.56-6.16,29.56H41.27l3-38.2Z"/><path class="cls-18" d="M50,49.56s7.71.91,9.33,2,2.06,19.54,2.06,19.54l.26,8.17s-10.12,3.44-18.35,0l-.43-8.17s-3.85-18.67-1.19-19.44S50,49.56,50,49.56Z"/><path class="cls-11" d="M54.19,42.25s.3-.56.6-.37c.75.48.11,1.26-.35,1.46Z"/><path class="cls-10" d="M54.17,40.27h0c0-.06,0-.12,0-.17a4.34,4.34,0,0,0-8.66.37A4.4,4.4,0,0,0,46,42.63c.5,1,.93,1.81,1.36,2.5a6.24,6.24,0,0,1,1,3.83L48.27,50c2.78,1.18,3.87-.25,3.87-.25L52,47.85a.48.48,0,0,1,.41-.51h0C55.7,46.82,54.3,41.76,54.17,40.27Z"/><path class="cls-17" d="M49.92,43a.4.4,0,1,0-.37.44A.4.4,0,0,0,49.92,43Z"/><path class="cls-17" d="M53.43,41.91a.4.4,0,0,0-.44-.36.4.4,0,0,0,.07.8A.4.4,0,0,0,53.43,41.91Z"/><path class="cls-17" d="M48.42,42.46a.25.25,0,0,1-.12,0,.24.24,0,0,1-.11-.32,1.26,1.26,0,0,1,1.68-.56.24.24,0,1,1-.17.44.81.81,0,0,0-1.09.33A.24.24,0,0,1,48.42,42.46Z"/><path class="cls-17" d="M52.14,41.48a.19.19,0,0,1-.13,0,.24.24,0,0,1-.11-.32,1.27,1.27,0,0,1,1.69-.56.24.24,0,0,1,.13.31.24.24,0,0,1-.31.13.79.79,0,0,0-1.08.33A.22.22,0,0,1,52.14,41.48Z"/><polygon class="cls-6" points="45.15 41.23 46.59 44.06 47.36 43.83 47.49 40 45.15 41.23"/><path class="cls-10" d="M47.47,43.72a.61.61,0,0,0-.36-.27,1.09,1.09,0,0,0-1.18.22c-.48.58.71,1.89,1.71,1.1C47.64,44.77,47.91,44.44,47.47,43.72Z"/><path class="cls-11" d="M52.12,44.23a.82.82,0,0,1-.74.05.09.09,0,0,1,0-.1.08.08,0,0,1,.1,0,.66.66,0,0,0,.77-.18.27.27,0,0,0,.08-.15s-.06-.11-.15-.18a2.11,2.11,0,0,1-.7-1.23.07.07,0,0,1,0-.08.07.07,0,0,1,.09.05,1.89,1.89,0,0,0,.65,1.15c.11.1.2.18.2.28a.31.31,0,0,1-.12.25A.79.79,0,0,1,52.12,44.23Z"/><path class="cls-7" d="M50.56,45.11a6,6,0,0,0,2.66-.52s-.14,1.29-1.09,1.47S50.56,45.11,50.56,45.11Z"/><path class="cls-6" d="M53.32,38.65s.66.38,1,3c0,0-.06-2.95-.41-3.24S53.32,38.65,53.32,38.65Z"/><path class="cls-6" d="M46.27,35.79c.87-1,2.45-.89,3.48-1.68a6.21,6.21,0,0,1-1.32,1.77L53,34.55a9.42,9.42,0,0,1-1.53,1.29,19.24,19.24,0,0,0,3.56,0,.71.71,0,0,1,0,.63,4.57,4.57,0,0,1-2.1,2.76,3.29,3.29,0,0,1-1.08.21c-1.45.08-3.06-.28-4.27.55-.55.38-1.25,1.71-2,1.51S43.6,38.8,46.27,35.79Z"/><path class="cls-7" d="M58.47,51.17c3.9.9,6.64,7.85,8.15,9.63s11,1.44,11,1.44l-2.17,3.39s-10.42,3.2-13.8-.7S58.47,51.17,58.47,51.17Z"/><path class="cls-7" d="M52.14,49.77S56.81,61.94,57.82,67,60.57,93.8,60.57,93.8h3L61.68,61.67l-3.21-10.5S56.76,50.29,52.14,49.77Z"/><path class="cls-7" d="M48.27,50V95.08H41.91l1-24-2.12-11.2.13-7.65S41,51,48.27,50Z"/><polygon class="cls-8" points="82.01 62.25 73.67 68.2 57.92 79.44 49.69 85.31 42.51 76.14 49.9 69.2 64.05 55.92 71.4 49.02 82.01 62.25"/><polygon class="cls-2" points="44.37 89.51 37.19 80.34 42.7 75.99 49.88 85.16 44.37 89.51"/><polygon class="cls-7" points="38.88 81.25 38.49 80.75 42.8 77.35 43.19 77.84 38.88 81.25"/><polygon class="cls-7" points="40.21 82.95 39.83 82.46 44.14 79.06 44.53 79.55 40.21 82.95"/><polygon class="cls-7" points="41.55 84.66 41.16 84.17 45.48 80.76 45.87 81.26 41.55 84.66"/><polygon class="cls-7" points="42.89 86.37 42.5 85.87 46.81 82.47 47.2 82.97 42.89 86.37"/><polygon class="cls-7" points="44.22 88.08 43.84 87.58 48.15 84.18 48.54 84.67 44.22 88.08"/><polygon class="cls-1" points="73.67 68.2 57.92 79.44 49.9 69.2 64.05 55.92 73.67 68.2"/><polygon class="cls-9" points="83.75 60.9 73.26 47.5 71.38 48.99 81.86 62.38 83.75 60.9"/><path class="cls-10" d="M41.9,72.38s2.07,1.05,2.78,1.48,1.72.32,1.63.8-1.69.25-1.69.25.89,1.44,1.23,1.85.77,1.27.49,1.55-1.77-1.78-1.77-1.78,1.09,1.85.89,2.15-1.93-1.84-1.93-1.84A14.56,14.56,0,0,1,44.76,79c0,.24-.34.21-.95-.36a8.07,8.07,0,0,1-1.09-1.31,16,16,0,0,1,.82,1.62c0,.2-.06.5-.87-.44a12.49,12.49,0,0,1-2.49-4.64Z"/><path class="cls-7" d="M41.71,51.68c-.26.18-.53.37-.8.59-4.38,3.5-8.54,11.67-7.55,13.91s6.43,8.38,6.43,8.38L43,72.81s-3.13-5.74-3.32-7.38,2.24-4.82,2.24-4.82Z"/><path class="cls-10" d="M79.2,65.76s-1.39-2.27-1.1-2.51,1.77,1.27,1.76,1.24-1.3-1.86-1-2.3,1.9,1.36,1.9,1.36-1.33-1.63-1.12-1.92,1.65,1.12,1.75,1-1.23-1.22-1-1.6,2.17,1.13,2.12,1.64a.65.65,0,0,1-.57.56s-.18.84-.63,1c0,0-.64,1-1.12.78C80.18,65,80,66,79.2,65.76Z"/><path class="cls-1" d="M93.31,118.73v-1.1h-.9a10.39,10.39,0,0,0-5.33-1.2,10.21,10.21,0,0,0-5.38,1.24,5.71,5.71,0,0,1-.87,0V119c0,1.41,2.8,2.54,6.25,2.54s6.26-1.13,6.26-2.54A1,1,0,0,0,93.31,118.73Z"/><ellipse class="cls-7" cx="87.08" cy="117.63" rx="6.26" ry="2.54"/><path class="cls-1" d="M91.92,118H82.37a.6.6,0,0,1-.61-.6h0a.61.61,0,0,1,.61-.61h9.55a.61.61,0,0,1,.61.61h0A.61.61,0,0,1,91.92,118Z"/></g></g></svg>