<svg xmlns="http://www.w3.org/2000/svg" xmlns:xlink="http://www.w3.org/1999/xlink" viewBox="0 0 1920 299.27"><defs><style>.cls-1{fill:url(#linear-gradient);}.cls-2{fill:url(#linear-gradient-2);}.cls-3{fill:url(#linear-gradient-3);}.cls-4{fill:url(#linear-gradient-4);}.cls-5{fill:#fff;}</style><linearGradient id="linear-gradient" x1="200.96" y1="-69.9" x2="200.96" y2="213.58" gradientUnits="userSpaceOnUse"><stop offset="0.01" stop-color="#c5daff"/><stop offset="0.46" stop-color="#c5daff" stop-opacity="0.6"/><stop offset="0.99" stop-color="#c5daff" stop-opacity="0"/></linearGradient><linearGradient id="linear-gradient-2" x1="803.84" y1="-80.01" x2="803.84" y2="191" xlink:href="#linear-gradient"/><linearGradient id="linear-gradient-3" x1="1406.72" y1="-111.25" x2="1406.72" y2="172.23" xlink:href="#linear-gradient"/><linearGradient id="linear-gradient-4" x1="1764.06" y1="-114.22" x2="1764.06" y2="164.06" xlink:href="#linear-gradient"/></defs><title>pic_city_1</title><g id="Layer_2" data-name="Layer 2"><g id="Layer_1-2" data-name="Layer 1"><polygon class="cls-1" points="386.88 56.29 372.32 56.29 372.32 30.49 359.06 30.49 359.06 0 353.4 0 353.4 30.49 340.13 30.49 340.13 56.29 325.58 56.29 325.58 72.15 310.52 72.15 310.52 104.53 246.45 104.53 246.45 128.66 206.78 128.66 206.78 45.55 162.1 45.55 162.1 114.35 132.26 114.35 132.26 45.55 66.83 66.41 66.83 83.67 0 83.67 0 299.27 66.83 299.27 76.8 299.27 121.59 299.27 132.26 299.27 162.1 299.27 187.03 299.27 200.59 299.27 206.78 299.27 246.45 299.27 275.29 299.27 310.52 299.27 311.88 299.27 401.93 299.27 401.93 72.15 386.88 72.15 386.88 56.29"/><polygon class="cls-2" points="1190.54 56.29 1175.98 56.29 1175.98 30.49 1162.72 30.49 1162.72 0 1157.06 0 1157.06 30.49 1143.79 30.49 1143.79 56.29 1129.24 56.29 1129.24 72.15 1114.19 72.15 1114.19 104.53 1050.11 104.53 1050.11 128.66 1010.45 128.66 1010.45 45.55 965.76 45.55 965.76 114.35 935.92 114.35 935.92 45.55 870.49 66.41 870.49 83.67 804.02 83.67 804.02 72.15 788.97 72.15 788.97 56.29 774.42 56.29 774.42 30.49 761.15 30.49 761.15 0 755.49 0 755.49 30.49 742.23 30.49 742.23 56.29 727.67 56.29 727.67 72.15 712.62 72.15 712.62 104.53 648.54 104.53 648.54 128.66 608.88 128.66 608.88 45.55 564.19 45.55 564.19 114.35 534.36 114.35 534.36 45.55 468.92 66.41 468.92 83.67 402.1 83.67 402.1 299.27 468.92 299.27 478.9 299.27 523.69 299.27 534.36 299.27 564.19 299.27 589.13 299.27 602.69 299.27 608.88 299.27 648.54 299.27 677.38 299.27 712.62 299.27 713.98 299.27 803.66 299.27 804.02 299.27 870.49 299.27 880.47 299.27 925.26 299.27 935.92 299.27 965.76 299.27 990.69 299.27 1004.25 299.27 1010.45 299.27 1050.11 299.27 1078.95 299.27 1114.19 299.27 1115.55 299.27 1205.59 299.27 1205.59 72.15 1190.54 72.15 1190.54 56.29"/><polygon class="cls-3" points="1592.63 56.29 1578.08 56.29 1578.08 30.49 1564.81 30.49 1564.81 0 1559.15 0 1559.15 30.49 1545.89 30.49 1545.89 56.29 1531.34 56.29 1531.34 72.15 1516.28 72.15 1516.28 104.53 1452.21 104.53 1452.21 128.66 1412.54 128.66 1412.54 45.55 1367.86 45.55 1367.86 114.35 1338.02 114.35 1338.02 45.55 1272.58 66.41 1272.58 83.67 1205.76 83.67 1205.76 299.27 1272.58 299.27 1282.56 299.27 1327.35 299.27 1338.02 299.27 1367.86 299.27 1392.79 299.27 1406.35 299.27 1412.54 299.27 1452.21 299.27 1481.05 299.27 1516.28 299.27 1517.64 299.27 1607.68 299.27 1607.68 72.15 1592.63 72.15 1592.63 56.29"/><polygon class="cls-4" points="1854.57 104.53 1854.57 128.66 1814.9 128.66 1814.9 45.55 1770.22 45.55 1770.22 114.35 1740.38 114.35 1740.38 45.55 1674.94 66.41 1674.94 83.67 1608.12 83.67 1608.12 299.27 1674.94 299.27 1684.92 299.27 1729.71 299.27 1740.38 299.27 1770.22 299.27 1795.15 299.27 1808.71 299.27 1814.9 299.27 1854.57 299.27 1883.4 299.27 1920 299.27 1920 104.53 1854.57 104.53"/><rect class="cls-5" x="378.89" y="140.13" width="9.08" height="15.83"/><rect class="cls-5" x="102.31" y="67.8" width="9.08" height="15.83"/><rect class="cls-5" x="351.68" y="36.66" width="9.08" height="15.83"/><rect class="cls-5" x="358" y="110.15" width="9.08" height="15.83"/><rect class="cls-5" x="154.53" y="131.18" width="9.08" height="15.83"/><rect class="cls-5" x="780.99" y="140.13" width="9.08" height="15.83"/><rect class="cls-5" x="504.4" y="67.8" width="9.08" height="15.83"/><rect class="cls-5" x="445.14" y="96.84" width="9.08" height="15.83"/><rect class="cls-5" x="753.78" y="36.66" width="9.08" height="15.83"/><rect class="cls-5" x="760.1" y="110.15" width="9.08" height="15.83"/><rect class="cls-5" x="556.63" y="131.18" width="9.08" height="15.83"/><rect class="cls-5" x="1182.56" y="140.13" width="9.08" height="15.83"/><rect class="cls-5" x="905.97" y="67.8" width="9.08" height="15.83"/><rect class="cls-5" x="846.7" y="96.84" width="9.08" height="15.83"/><rect class="cls-5" x="1155.35" y="36.66" width="9.08" height="15.83"/><rect class="cls-5" x="1161.67" y="110.15" width="9.08" height="15.83"/><rect class="cls-5" x="958.2" y="131.18" width="9.08" height="15.83"/><rect class="cls-5" x="1584.65" y="140.13" width="9.08" height="15.83"/><rect class="cls-5" x="1308.07" y="67.8" width="9.08" height="15.83"/><rect class="cls-5" x="1248.8" y="96.84" width="9.08" height="15.83"/><rect class="cls-5" x="1557.44" y="36.66" width="9.08" height="15.83"/><rect class="cls-5" x="1563.76" y="110.15" width="9.08" height="15.83"/><rect class="cls-5" x="1360.29" y="131.18" width="9.08" height="15.83"/><rect class="cls-5" x="1710.42" y="67.8" width="9.08" height="15.83"/><rect class="cls-5" x="1651.16" y="96.84" width="9.08" height="15.83"/><rect class="cls-5" x="1762.65" y="131.18" width="9.08" height="15.83"/></g></g></svg>