<svg xmlns="http://www.w3.org/2000/svg" viewBox="0 0 595 587"><defs><style>.cls-1{fill:#def3fc;fill-rule:evenodd;}.cls-2{fill:#dde8fe;}.cls-3{fill:#a7c0e8;}.cls-4{fill:#7c9af2;}.cls-5{fill:#050634;}.cls-6{fill:#191880;}.cls-7{fill:#92b5f9;}.cls-8{fill:#bacaee;}</style></defs><title>pic_reit_bg</title><g id="Layer_2" data-name="Layer 2"><g id="Layer_1-2" data-name="Layer 1"><path class="cls-1" d="M301.55,0C463.62,0,595,131.4,595,293.5S463.62,587,301.55,587,8.09,455.6,8.09,293.5,139.47,0,301.55,0Z"/><path class="cls-2" d="M304.94,247.43c8,5.25,16.47,10.32,26,13.24-10.76-.46-21.52-2.75-32.25-4.5C300.74,253.25,302.86,250.35,304.94,247.43Z"/><path class="cls-3" d="M313.36,64.32c4.19-3.77,12.61-3.22,17.69.71,5.94,4.35,6.39,12.52.46,15.77-7.13,3.68-16.09,4.47-24.45,5.93-2.8.45-4.64,2.22-6.45,3.77a206.29,206.29,0,0,0-15.51,15.35c7.87-1.41,15.49-3.82,23.89-3.71,7.47.1,14.56,6.36,14.07,12.32.06,6.34-8.4,10.89-16.05,8.18-9.32-3-17.29-8.42-25.37-13.33-6.44,6.88-12.9,13.78-18.31,21.29,6.79-.93,13.28-2.81,20.32-2.93,6.82-.19,13.89,4.57,14.93,10.21,1.94,6.88-5.9,13.18-14.43,11.09-9.56-2.43-17.54-8.09-25.81-12.77-7.51,9.16-14.86,18.43-21.68,28,11.33-2.48,22.54-6,34.89-5.56,11.09.41,21.34,10,19.64,18.71-.61,9.08-13.09,14.57-23.9,10.59-12.63-4.44-23.78-11.56-34.74-18.48-7.66,10.67-15.65,21.17-22.6,32.2,12.56-3.74,24.52-9,38.4-10,9.21-.65,19.21,4.47,23.44,11.62,4.91,7.69,2.47,17.23-5.56,21.41-5.35,3.12-12.91,3.42-19.66,1.29a200.8,200.8,0,0,1-40.92-18.14c-1.84,2.34-3.69,4.68-5.5,7-.68-.75-1.35-1.48-2-2.21a34.49,34.49,0,0,0,4.18-5.23c-10.3-9.14-20.39-18.57-28.21-29.14-3.56-4.56-5.94-10-4.62-14.93,1.35-7.18,9-12.33,17.95-12.7,11.18-.26,23.28,7,25.33,16.44,1.7,10.23-1.52,19.91-3.34,29.62,7.3-9.2,13.52-19,20.67-28.26-8.71-7.65-16.83-15.8-23.31-24.7-2.8-3.83-5.27-8.19-4.52-12.42.69-6.76,7.79-11.9,16.22-11.86,9.56-.3,19.84,6.47,21.24,14.42,1.53,8.77-1.93,16.84-3.3,25.14,4.93-4.77,8.35-10.45,12.7-15.58,2.27-2.91,5-5.61,6.59-8.86-3-4.72-7.79-8.66-10.89-13.38-3.55-5-7.78-11.16-4.33-16.23,3.77-6.8,17.53-6.26,22.89.77,5.31,6.72.42,13.77-.54,20.3,5.73-5.89,11.05-12.05,16.25-18.28A105.08,105.08,0,0,1,266.41,92c-3.05-4.28-4.39-9.73-.84-13.41,4.53-5.36,16.17-4.51,21.25,1.61,5.55,6.07,1.15,12.9.45,19C292.48,94.5,298,90,302.68,84.88,306.22,78.05,307.22,69.93,313.36,64.32Z"/><path class="cls-3" d="M216.33,234.13c9.4-.89,19.4-3,29,1,8.07,2.89,13.41,9.12,16.82,15.41a45.16,45.16,0,0,1,.48,8.51c-5.07-3.06-11.47-5.11-17.23-3.91a15.07,15.07,0,0,0-11.55,8.74C228.91,253.74,223.7,243.54,216.33,234.13Z"/><path class="cls-4" d="M40.76,110q46.72,56.1,93.4,112.22c-26-7.06-51.93-14.06-77.87-21.19a9.53,9.53,0,0,0-6.61-.12c6.2,2.34,12.69,3.83,19.07,5.6q32.5,8.85,65,17.65c2.89.49,4.39,2.78,6,4.6,16.17,19.77,32.9,39.27,48.93,59.11-10.89-5.63-22.18-10.89-34.15-14.35-28.39-8.79-58.07-10.87-86.85-10.88C52.12,228.24,45.18,192.53,42,157.37A393.71,393.71,0,0,1,40.76,110Z"/><path class="cls-4" d="M1.17,269.29c11.67,2.39,22.76,6.84,34.09,10.42,24.13,7.61,48,15.81,72.2,23.29-.1.45-.32,1.34-.42,1.78a70.11,70.11,0,0,1,16.55,3.52c20.74,6.9,41.58,13.55,62.37,20.31-1.45,6,1.51,13.29,8.69,17,9,4.62,18.88,7.57,28.7,10.11a120.06,120.06,0,0,1-13.8,7.81c-16.53,7.27-37.17,8.7-57,4.55-29.52-6-56.12-21-79.91-37.28A459.37,459.37,0,0,1,1.17,269.29Z"/><path class="cls-5" d="M40.23,106.63a19.71,19.71,0,0,1,3.47,3.28C87.18,162.46,131,214.84,174.64,267.33c-2.85-20.69-6.6-41.38-9.88-62.07,0-1.56-1.4-4.17,1.72-3.64,4.24,22.59,7.35,45.21,11.27,67.81.33,2.16,2,4.07,3.51,5.92,4.81,5.72,9.71,11.38,14.21,17.24-2.29-1.56-4.57-3.12-6.8-4.74-16-19.84-32.76-39.34-48.93-59.11-1.61-1.82-3.11-4.11-6-4.6q-32.48-8.87-65-17.65c-6.38-1.77-12.87-3.26-19.07-5.6a9.53,9.53,0,0,1,6.61.12c25.94,7.13,51.91,14.13,77.87,21.19Q87.57,166,40.76,110,38.53,108.09,40.23,106.63Z"/><path class="cls-6" d="M358.81,177.62c3.41-2.44,9.77-1.24,12.59,2.24,2.63,3,2.18,7.25-1.18,9.06-5,2.77-11.64,2.84-17.38,4.39-5.43,3.39-9.16,8.23-13.64,12.38,6.62-1.17,13.73-4.45,20.91-1.46,7.57,3.6,5,13.49-3.28,12.84-7.34-1.17-13.46-5.69-19.49-9.39-4.35,4.73-8.53,9.56-12.67,14.42,6.4-1,13.69-4.22,20.31-.38,6.71,4.11,3.6,13.11-4.31,12.49-7-1.07-12.85-5.37-18.7-8.74-5,6.13-9.8,12.39-14.57,18.66,6.61-1.73,13.31-3.45,20.47-3.9a16.38,16.38,0,0,1,9.45,1.94c5.95,3.13,8.25,9.94,4.86,14.24-1.91,2.87-6,3.9-9.93,4.41l-1.35-.15c-9.49-2.92-17.95-8-26-13.24-2.08,2.92-4.2,5.82-6.29,8.74a128.72,128.72,0,0,0-8.59,12.75c8-2.87,16-6,25-6.85,8.09-.79,16.82,5.37,17.41,12.09,1.22,7.21-7.18,13.23-16,11.1-10.46-2.59-20.18-7.44-29.39-12.55q-7.68,11.32-15.18,22.75c10.63-2.93,21.48-5.87,33.15-6.22,8.52-.23,17.31,5.44,19.47,12.35,2.63,7.23-2.46,14.75-11,16.2-5.56,1.27-11.65-.87-16.92-3.22a155.82,155.82,0,0,1-27-15.43c-5.31,7.9-10.28,16-15.34,24,10.87-3,22-6.07,34-6.16,10.66.16,20.43,9.5,18.9,17.82-.75,8.22-11.89,13.47-21.88,10-12.12-4.25-23.23-10.71-33.41-17.77-5.63,8.91-11,17.93-16.41,27,10.16-4,20.42-8.3,32.1-9.53,10.69-1,21.83,8,21.16,16.66.06,8.09-9.76,14.08-19.75,11.73-12-2.9-23.28-8-33.93-13.72-3.54-2.05-7.75-2.46-11.68-3.45-9.82-2.54-19.74-5.49-28.7-10.11-7.18-3.71-10.14-11-8.69-17,2.36-5.37,8.53-9.4,16.13-8.91,6.2.24,12.47,3.29,16,7.81a109.74,109.74,0,0,1,13.1,21.5c.75,1.7,1.45,3.4,2.18,5.12,5.43-9.33,11.1-18.53,16.75-27.74-2.94-1.65-5.87-3.31-8.71-5.07-8-5.3-16.16-10.73-22.32-17.52-6-6.81-3.6-16.4,4.52-19.71,4.7-2.21,10.81-1.69,16.25,0,4.55,2.34,8.87,5.6,10.4,9.84,3.25,8.93,3,18,3.33,26.89q7-11.2,14.17-22.31a154.81,154.81,0,0,1-27.84-19.33c-5-4.22-7.28-10-6-15.28a15.07,15.07,0,0,1,11.55-8.74c5.76-1.2,12.16.85,17.23,3.91,2.69,2.55,5.12,5.42,6,8.64,2.51,8.32,2.53,16.69,2.7,25,4.72-6.73,9.14-13.6,13.74-20.39-7.79-6-14.07-13.12-20-20.31-3.65-5.77-2.26-13.08,4.45-15.73,7.72-3.65,20,1.28,22.12,9,1.52,6.66-.64,13-1.64,19.38,4.55-5.94,8.92-12,13.26-18-6.71-5.68-12.88-11.94-17.16-18.9-3.32-5.34,0-11.79,6.62-13,6.72-1.63,15.41,2.83,16.83,8.82,1.1,6.3-1.26,12.15-2.6,18,4.55-5.74,9-11.55,13.55-17.28-4.23-4.44-8.48-9-10.8-14.25C308,206.1,311.2,202,316,201.65c4.79-.54,10.22,2.86,10.83,6.91.26,3.85-1.38,7.35-2.34,10.94,3.7-4.23,7.38-8.48,11.18-12.65-3.85-4.34-8-8.73-10.07-13.75-1.47-3.7,1.52-7.48,5.94-7.95,4.66-.68,10.11,2.5,10.93,6.48.45,3.57-1,6.86-1.91,10.18,2.43-2.44,4.94-4.8,7.56-7.1C354.11,190.29,352.91,182.12,358.81,177.62Z"/><path class="cls-7" d="M43.7,109.91c13.07,5.32,25.22,12.3,37.62,18.71,43,23.47,84.87,50.29,116.8,84,.68.73,1.35,1.46,2,2.21a184.73,184.73,0,0,1,16.18,19.31c7.37,9.41,12.58,19.61,17.53,29.77-1.26,5.24,1,11.06,6,15.28,0,1.63,0,3.26-.06,4.91-5.44-1.69-11.55-2.21-16.25,0-8.12,3.31-10.52,12.9-4.52,19.71,6.16,6.79,14.33,12.22,22.32,17.52-1.51,5-3.22,10-5.07,14.95-1.67,4.27-1.41,9.32-5.15,12.74a109.74,109.74,0,0,0-13.1-21.5c-3.49-4.52-9.76-7.57-16-7.81-7.6-.49-13.77,3.54-16.13,8.91-20.79-6.76-41.63-13.41-62.37-20.31A70.11,70.11,0,0,0,107,304.78c.1-.44.32-1.33.42-1.78-24.17-7.48-48.07-15.68-72.2-23.29-11.33-3.58-22.42-8-34.09-10.42L0,269a16.43,16.43,0,0,1,3.74-1.33,578.07,578.07,0,0,1,63.93-5.07c28.78,0,58.46,2.09,86.85,10.88,12,3.46,23.26,8.72,34.15,14.35,2.23,1.62,4.51,3.18,6.8,4.74-4.5-5.86-9.4-11.52-14.21-17.24-1.52-1.85-3.18-3.76-3.51-5.92-3.92-22.6-7-45.22-11.27-67.81-3.12-.53-1.76,2.08-1.72,3.64,3.28,20.69,7,41.38,9.88,62.07C131,214.84,87.18,162.46,43.7,109.91Z"/><path class="cls-8" d="M262.16,250.56l3,1.42c5.91,7.19,12.19,14.29,20,20.31-4.6,6.79-9,13.66-13.74,20.39-.17-8.28-.19-16.65-2.7-25-.9-3.22-3.33-6.09-6-8.64A45.16,45.16,0,0,0,262.16,250.56Z"/><path class="cls-8" d="M239.88,279.18a154.81,154.81,0,0,0,27.84,19.33q-7.19,11.12-14.17,22.31c-.34-8.91-.08-18-3.33-26.89-1.53-4.24-5.85-7.5-10.4-9.84C239.84,282.44,239.86,280.81,239.88,279.18Z"/><path class="cls-8" d="M241.37,321.32c2.84,1.76,5.77,3.42,8.71,5.07-5.65,9.21-11.32,18.41-16.75,27.74-.73-1.72-1.43-3.42-2.18-5.12,3.74-3.42,3.48-8.47,5.15-12.74C238.15,331.34,239.86,326.36,241.37,321.32Z"/></g></g></svg>