<svg xmlns="http://www.w3.org/2000/svg" viewBox="0 0 215 130"><defs><style>.cls-1{fill:#e4eefd;fill-rule:evenodd;}.cls-2{fill:#b9caef;}.cls-3{fill:#131375;}.cls-4{fill:#7c9af2;}</style></defs><title>pic_n_4_empty</title><g id="Layer_2" data-name="Layer 2"><g id="Layer_1-2" data-name="Layer 1"><path class="cls-1" d="M107,0c44.15,0,66.3,23.63,67.3,71.59,1.36,65.65-30.13,45.85-67.3,45.85s-68.56,13.48-67.3-45.85C40.67,24.62,60.83,0,107,0Z"/><path class="cls-2" d="M24.46,123c0,3.89,36.95,7,82.51,7s82.52-3.16,82.52-7-37-7-82.52-7-82.51,3.16-82.51,7Z"/><path class="cls-3" d="M25.49,104.65C-.31,81.33,16,42.28,21.55,30.86a.93.93,0,0,0-.22-1.21c-.34-.21-.82,0-1,.48C17.88,35,12.1,48,10.38,62.75c-1.29,11-.1,20.65,3.5,28.85C12.62,89.37,8.6,83.41,3,86.08c.35,1.69,1.45,5.79,4.37,7.43,1.92,1.08,4.32.93,7.14-.45a42.72,42.72,0,0,0,9.91,13.15.52.52,0,0,0,.19.11.77.77,0,0,0,.88-.39A1,1,0,0,0,25.49,104.65Z"/><path class="cls-3" d="M14.46,44.23l.17-.8c0-.17,2.35-12-3.7-14.68-.72,1.75-2.26,6.21-1.3,10A7.86,7.86,0,0,0,14.46,44.23Z"/><path class="cls-4" d="M18.6,38.21l-.4.71a7.83,7.83,0,0,0,7.22-.87c3.22-2.22,5-6.59,5.61-8.37C24.72,27.66,18.69,38.06,18.6,38.21Z"/><path class="cls-4" d="M25.71,23.85c.17-.08,9.6-4.65,9.83-13a12.79,12.79,0,0,0-7.83,4.61,14.52,14.52,0,0,0-2.64,8.66Z"/><path class="cls-3" d="M20.42,29.28l.16-.79c0-.18,2.35-12-3.7-14.69-.71,1.75-2.25,6.21-1.3,10A7.86,7.86,0,0,0,20.42,29.28Z"/><path class="cls-3" d="M10.53,60.59l0-.79c0-.17-.46-11.73-7.19-12C3,49.59,2.5,54.19,4.37,57.32,5.6,59.38,7.67,60.48,10.53,60.59Z"/><path class="cls-4" d="M13.57,82.64l-.26.78a9.31,9.31,0,0,0,7.13-3c2.81-3.05,3.71-7.62,4-9.46C17.59,71,13.63,82.45,13.57,82.64Z"/><path class="cls-3" d="M9.8,75.81c-.05-.16-2.92-10.7-9.8-8.9.07,1.8.52,6.2,3.06,8.51,1.68,1.53,4,1.9,6.92,1.11Z"/><path class="cls-4" d="M14.26,52.63l-.4.71a7.82,7.82,0,0,0,7.23-.88c3.23-2.23,5-6.58,5.61-8.37C20.39,42.08,14.35,52.47,14.26,52.63Z"/><path class="cls-4" d="M12.21,67.7l-.38.73a8,8,0,0,0,7.24-1.24c3.16-2.37,4.79-6.79,5.35-8.6C18,56.93,12.31,67.51,12.21,67.7Z"/><path class="cls-4" d="M28.08,88c-6.53,1.56-7.21,13.68-7.22,13.84l0,.82a8.59,8.59,0,0,0,6-4.53C28.72,94.54,28.34,89.87,28.08,88Z"/><path class="cls-3" d="M189.51,104.65c25.8-23.32,9.54-62.37,3.94-73.79a.93.93,0,0,1,.22-1.21c.34-.21.82,0,1.05.48,2.4,4.9,8.18,17.89,9.9,32.62,1.29,11,.1,20.65-3.5,28.85,1.26-2.23,5.28-8.19,10.84-5.52-.35,1.69-1.45,5.79-4.37,7.43-1.92,1.08-4.32.93-7.14-.45a42.72,42.72,0,0,1-9.91,13.15.52.52,0,0,1-.19.11.77.77,0,0,1-.88-.39A1,1,0,0,1,189.51,104.65Z"/><path class="cls-3" d="M200.54,44.23l-.17-.8c0-.17-2.35-12,3.7-14.68.72,1.75,2.26,6.21,1.3,10A7.86,7.86,0,0,1,200.54,44.23Z"/><path class="cls-4" d="M196.4,38.21l.4.71a7.83,7.83,0,0,1-7.22-.87c-3.22-2.22-5-6.59-5.61-8.37C190.28,27.66,196.31,38.06,196.4,38.21Z"/><path class="cls-4" d="M189.29,23.85c-.17-.08-9.6-4.65-9.83-13a12.79,12.79,0,0,1,7.83,4.61,14.52,14.52,0,0,1,2.64,8.66Z"/><path class="cls-3" d="M194.58,29.28l-.16-.79c0-.18-2.35-12,3.7-14.69.71,1.75,2.25,6.21,1.3,10A7.86,7.86,0,0,1,194.58,29.28Z"/><path class="cls-3" d="M204.47,60.59l0-.79c0-.17.46-11.73,7.19-12,.31,1.84.82,6.44-1.05,9.57C209.4,59.38,207.33,60.48,204.47,60.59Z"/><path class="cls-4" d="M201.43,82.64l.26.78a9.31,9.31,0,0,1-7.13-3c-2.81-3.05-3.71-7.62-4-9.46C197.41,71,201.37,82.45,201.43,82.64Z"/><path class="cls-3" d="M205.2,75.81c.05-.16,2.92-10.7,9.8-8.9-.07,1.8-.52,6.2-3.06,8.51-1.68,1.53-4,1.9-6.92,1.11Z"/><path class="cls-4" d="M200.74,52.63l.4.71a7.82,7.82,0,0,1-7.23-.88c-3.23-2.23-5-6.58-5.61-8.37C194.61,42.08,200.65,52.47,200.74,52.63Z"/><path class="cls-4" d="M202.79,67.7l.38.73a8,8,0,0,1-7.24-1.24c-3.16-2.37-4.79-6.79-5.35-8.6C197,56.93,202.69,67.51,202.79,67.7Z"/><path class="cls-4" d="M186.92,88c6.53,1.56,7.21,13.68,7.22,13.84l0,.82a8.59,8.59,0,0,1-6-4.53C186.28,94.54,186.66,89.87,186.92,88Z"/></g></g></svg>