<svg xmlns="http://www.w3.org/2000/svg" viewBox="0 0 1208 1208"><defs><style>.cls-1{fill:#def3fc;fill-rule:evenodd;}.cls-2{fill:#dde8fe;}.cls-3{fill:#a7c0e8;}.cls-4{fill:#7c9af2;}.cls-5{fill:#191880;}.cls-6{fill:#92b5f9;}.cls-7{fill:#bacaee;}</style></defs><title>pic_banner_big</title><g id="Layer_2" data-name="Layer 2"><g id="Layer_1-2" data-name="Layer 1"><path class="cls-1" d="M595.79,0C266.74,0,0,270.42,0,604s266.74,604,595.79,604,595.78-270.42,595.78-604S924.83,0,595.79,0Z"/><path class="cls-2" d="M588.9,509.19c-16.27,10.8-33.44,21.23-52.71,27.24,21.84-.93,43.7-5.65,65.47-9.25C597.43,521.17,593.13,515.2,588.9,509.19Z"/><path class="cls-3" d="M571.8,132.37c-8.51-7.75-25.6-6.63-35.91,1.45-12.07,9-13,25.77-.93,32.46,14.47,7.57,32.66,9.2,49.62,12.21,5.69.93,9.42,4.56,13.11,7.76,10.95,10.19,21.85,20.47,31.49,31.57-16-2.9-31.45-7.84-48.5-7.63-15.17.21-29.57,13.09-28.57,25.37-.12,13,17,22.39,32.58,16.82,18.93-6.11,35.1-17.33,51.51-27.42,13.07,14.15,26.18,28.35,37.17,43.81-13.78-1.93-27-5.79-41.26-6-13.83-.39-28.19,9.41-30.31,21-3.93,14.16,12,27.11,29.3,22.82,19.42-5,35.61-16.65,52.41-26.27,15.24,18.83,30.16,37.91,44,57.58-23-5.11-45.77-12.32-70.84-11.46-22.52.86-43.33,20.53-39.88,38.52,1.24,18.67,26.57,30,48.53,21.79,25.63-9.14,48.28-23.79,70.53-38,15.54,22,31.76,43.57,45.89,66.27-25.51-7.71-49.79-18.48-78-20.67-18.7-1.33-39,9.2-47.59,23.93-10,15.82-5,35.44,11.29,44,10.86,6.42,26.21,7,39.91,2.65,29.27-9,57.05-22.24,83.07-37.32,3.75,4.8,7.5,9.62,11.18,14.49,1.38-1.55,2.74-3,4.11-4.55a69.76,69.76,0,0,1-8.47-10.77c20.91-18.8,41.39-38.22,57.26-60,7.23-9.39,12.07-20.5,9.38-30.73-2.73-14.79-18.23-25.38-36.44-26.14-22.71-.52-47.27,14.51-51.43,33.83-3.45,21.06,3.09,41,6.78,61-14.82-18.94-27.44-39.07-42-58.16,17.68-15.75,34.16-32.52,47.33-50.84,5.68-7.88,10.7-16.85,9.17-25.55-1.4-13.91-15.82-24.49-32.93-24.41-19.41-.61-40.28,13.3-43.12,29.68-3.11,18,3.92,34.65,6.7,51.73-10-9.81-17-21.5-25.78-32.07-4.62-6-10.08-11.54-13.39-18.22,6.12-9.71,15.81-17.84,22.1-27.53,7.23-10.24,15.81-23,8.8-33.42-7.65-14-35.59-12.87-46.47,1.59-10.78,13.84-.85,28.35,1.11,41.78-11.65-12.12-22.45-24.8-33-37.63,9.56-10.28,18.64-20.9,25.73-32.31,6.2-8.82,8.91-20,1.71-27.61-9.21-11-32.84-9.29-43.14,3.31-11.27,12.49-2.35,26.55-.91,39.08-10.58-9.69-21.76-19-31.3-29.47C586.29,160.62,584.27,143.92,571.8,132.37Z"/><path class="cls-3" d="M768.79,481.83c-19.08-1.83-39.37-6.18-58.88,2.1-16.4,5.93-27.24,18.75-34.17,31.71a94.52,94.52,0,0,0-1,17.5c10.3-6.3,23.29-10.5,35-8a30.64,30.64,0,0,1,23.44,18C743.26,522.18,753.83,501.19,768.79,481.83Z"/><path class="cls-4" d="M1205.63,554.19c-23.7,4.91-46.21,14.06-69.21,21.44-49,15.66-97.53,32.53-146.6,47.92.21.93.67,2.75.87,3.66a140.16,140.16,0,0,0-33.61,7.25c-42.11,14.2-84.41,27.89-126.62,41.8,2.93,12.28-3.06,27.35-17.64,35-18.2,9.51-38.34,15.57-58.28,20.81,9,5.67,18,11.47,28,16.06,33.55,15,75.47,17.91,115.62,9.36,60-12.41,114-43.21,162.24-76.72A935.7,935.7,0,0,0,1205.63,554.19Z"/><path class="cls-5" d="M479.53,365.53c-6.94-5-19.85-2.54-25.56,4.6-5.34,6.12-4.44,14.93,2.38,18.66,10.2,5.69,23.65,5.83,35.29,9,11,7,18.6,16.93,27.7,25.48-13.44-2.41-27.88-9.16-42.45-3-15.38,7.42-10.22,27.76,6.65,26.43,14.91-2.42,27.34-11.72,39.57-19.32,8.83,9.72,17.33,19.66,25.73,29.67-13-2-27.81-8.68-41.23-.78-13.63,8.46-7.32,27,8.75,25.69,14.21-2.2,26.08-11.05,38-18,10.16,12.62,19.89,25.5,29.59,38.4-13.43-3.56-27-7.09-41.57-8-6.41-.45-13.44.52-19.19,4-12.07,6.43-16.75,20.44-9.87,29.3,3.89,5.9,12.25,8,20.16,9.09.69-.07,2.06-.24,2.75-.33,19.27-6,36.44-16.44,52.71-27.24,4.23,6,8.53,12,12.76,18,6.12,8.58,12.44,17.08,17.45,26.23-16.17-5.91-32.44-12.3-50.73-14.09-16.43-1.63-34.16,11-35.36,24.89-2.48,14.84,14.57,27.21,32.57,22.83,21.23-5.34,41-15.3,59.68-25.82,10.38,15.52,20.7,31.11,30.8,46.81-21.57-6-43.6-12.07-67.3-12.8-17.3-.48-35.14,11.2-39.53,25.42-5.34,14.88,5,30.35,22.36,33.33,11.28,2.61,23.65-1.79,34.36-6.61,19.37-9,38-19.4,54.78-31.77,10.79,16.26,20.87,32.9,31.15,49.45-22.07-6.19-44.71-12.49-69.11-12.66-21.65.31-41.47,19.54-38.36,36.66,1.51,16.91,24.12,27.72,44.41,20.58,24.6-8.74,47.15-22,67.82-36.57C708.09,691.4,719.06,710,730,728.56c-20.62-8.19-41.46-17.08-65.16-19.61-21.7-2-44.32,16.41-43,34.29-.12,16.65,19.82,29,40.1,24.13,24.29-6,47.25-16.5,68.88-28.23,7.19-4.22,15.73-5.07,23.71-7.09,19.94-5.24,40.08-11.3,58.28-20.81,14.58-7.63,20.57-22.7,17.64-35-4.8-11-17.32-19.35-32.75-18.35-12.6.49-25.31,6.77-32.4,16.07-11.06,13.94-19.4,29.06-26.61,44.26-1.51,3.5-2.94,7-4.41,10.52-11-19.18-22.55-38.13-34-57.07,6-3.4,11.92-6.81,17.68-10.44,16.24-10.9,32.82-22.09,45.32-36.06,12.18-14,7.31-33.75-9.17-40.56-9.55-4.55-22-3.48-33,0-9.23,4.82-18,11.53-21.12,20.25-6.6,18.37-6.07,37-6.77,55.35q-14.15-23.06-28.76-45.92A315,315,0,0,0,721,574.53c10.25-8.69,14.79-20.66,12.22-31.45a30.64,30.64,0,0,0-23.44-18c-11.69-2.46-24.68,1.74-35,8-5.48,5.25-10.4,11.16-12.22,17.78-5.1,17.12-5.14,34.35-5.5,51.38-9.57-13.85-18.54-28-27.89-41.95,15.82-12.39,28.56-27,40.58-41.8,7.41-11.86,4.57-26.91-9-32.37-15.68-7.51-40.65,2.63-44.91,18.54-3.08,13.71,1.3,26.8,3.33,39.88C609.89,532.38,601,520,592.21,507.53,605.84,495.84,618.36,483,627,468.64c6.75-11-.07-24.28-13.43-26.8-13.65-3.36-31.29,5.81-34.17,18.14-2.24,13,2.56,25,5.28,37.15-9.25-11.81-18.26-23.76-27.51-35.57,8.59-9.13,17.22-18.6,21.91-29.32,3.59-8.1-2.94-16.63-12.72-17.27-9.72-1.11-20.76,5.9-22,14.23-.54,7.92,2.8,15.13,4.75,22.52-7.52-8.72-15-17.45-22.71-26,7.82-8.93,16.29-18,20.44-28.3,3-7.62-3.07-15.39-12-16.35-9.46-1.41-20.54,5.14-22.2,13.33-.91,7.34,2.11,14.11,3.88,20.94-4.95-5-10-9.87-15.36-14.59C489.06,391.6,491.5,374.8,479.53,365.53Z"/><path class="cls-6" d="M1119.27,226.18c-26.54,10.95-51.2,25.31-76.37,38.52C955.55,313,870.6,368.19,805.76,437.54c-1.37,1.5-2.73,3-4.11,4.55a376.11,376.11,0,0,0-32.86,39.74c-15,19.36-25.53,40.35-35.59,61.25,2.57,10.79-2,22.76-12.22,31.45,0,3.36.09,6.72.13,10.1,11-3.48,23.44-4.55,33,0,16.48,6.81,21.35,26.55,9.17,40.56-12.5,14-29.08,25.16-45.32,36.06,3.07,10.37,6.54,20.62,10.29,30.77,3.4,8.79,2.87,19.17,10.46,26.22,7.21-15.2,15.55-30.32,26.61-44.26,7.09-9.3,19.8-15.58,32.4-16.07,15.43-1,27.95,7.3,32.75,18.35,42.21-13.91,84.51-27.6,126.62-41.8a140.16,140.16,0,0,1,33.61-7.25c-.2-.91-.66-2.73-.87-3.66,49.07-15.39,97.61-32.26,146.6-47.92,23-7.38,45.51-16.53,69.21-21.44l2.37-.56c-2.45-1-4.8-2.29-7.59-2.74a1154.54,1154.54,0,0,0-129.8-10.43c-58.42,0-118.68,4.29-176.33,22.37-24.3,7.13-47.21,17.95-69.34,29.53-4.51,3.34-9.14,6.55-13.8,9.77,9.15-12.06,19.09-23.71,28.87-35.48,3.07-3.81,6.44-7.74,7.12-12.18,8-46.51,14.26-93.07,22.87-139.56,6.35-1.08,3.57,4.29,3.49,7.51-6.66,42.57-14.28,85.15-20,127.72C942,442.11,1031,334.33,1119.27,226.18Z"/><path class="cls-7" d="M675.74,515.64l-6,2.91c-12,14.8-24.76,29.41-40.58,41.8,9.35,14,18.32,28.1,27.89,41.95.36-17,.4-34.26,5.5-51.38,1.82-6.62,6.74-12.53,12.22-17.78A94.52,94.52,0,0,1,675.74,515.64Z"/><path class="cls-7" d="M721,574.53a315,315,0,0,1-56.52,39.78q14.58,22.88,28.76,45.92c.7-18.34.17-37,6.77-55.35,3.1-8.72,11.89-15.43,21.12-20.25C721.07,581.25,721,577.89,721,574.53Z"/><path class="cls-7" d="M718,661.25c-5.76,3.63-11.7,7-17.68,10.44,11.47,18.94,23,37.89,34,57.07,1.47-3.53,2.9-7,4.41-10.52-7.59-7-7.06-17.43-10.46-26.22C724.49,681.87,721,671.62,718,661.25Z"/></g></g></svg>