<svg xmlns="http://www.w3.org/2000/svg" viewBox="0 0 903 874"><defs><style>.cls-1{fill:#f4fbff;}</style></defs><title>pic_left_1</title><g id="Layer_2" data-name="Layer 2"><g id="Layer_1-2" data-name="Layer 1"><path class="cls-1" d="M79.84,415.55C13.46,521.34-12.28,567.29,5.45,681.66a41.86,41.86,0,0,0,3,9.82C99.26,881.05,286.68,912.36,414.23,834a48.45,48.45,0,0,1,30.22-6.93,95.77,95.77,0,0,0,94.37-50.75l.21-.39a47.86,47.86,0,0,1,54.32-24.59c40.56,10.47,81.77,14,133.29,4.69A57.63,57.63,0,0,0,733.3,754C963.71,643,943,376.89,770,285.58l-.89-.47A118.41,118.41,0,0,1,709,208.27c-31.47-128-155.76-232-339.29-203.53a35.18,35.18,0,0,0-9.86,3.06c-104.2,50-100.72,87.22-177,211.92"/></g></g></svg>