<svg xmlns="http://www.w3.org/2000/svg" viewBox="0 0 35 35"><defs><style>.cls-1{fill:#00abd8;}</style></defs><title>quote_man</title><g id="Layer_2" data-name="Layer 2"><g id="Layer_1-2" data-name="Layer 1"><path class="cls-1" d="M17.5,35A17.5,17.5,0,1,0,0,17.5,17.52,17.52,0,0,0,17.5,35Zm0-2.69A14.76,14.76,0,0,1,7,28a14.8,14.8,0,0,1,21,0A14.76,14.76,0,0,1,17.5,32.31ZM12.12,15.52A5.38,5.38,0,1,1,17.5,20.9,5.39,5.39,0,0,1,12.12,15.52ZM17.5,2.69A14.8,14.8,0,0,1,29.71,25.87a17.43,17.43,0,0,0-7-4.17,8.08,8.08,0,1,0-10.38,0,17.43,17.43,0,0,0-7,4.17A14.8,14.8,0,0,1,17.5,2.69Z"/></g></g></svg>