<svg xmlns="http://www.w3.org/2000/svg" viewBox="0 0 69 53"><defs><style>.cls-1{fill:#d7dfe5;}</style></defs><title>quote</title><g id="Layer_2" data-name="Layer 2"><g id="Layer_1-2" data-name="Layer 1"><path class="cls-1" d="M1.28,48.47h0A4.47,4.47,0,0,1,5,44.08a23.69,23.69,0,0,0,9.44-4.17C18.61,37,20.76,33.32,20.76,29c0-3.94-3.76-3.79-6.75-3.49a12.43,12.43,0,0,1-12-19c5.37-8.63,18.87-8.25,25-.83,8.82,10.68,5.75,30.07-4.07,39.16A32.07,32.07,0,0,1,6.5,52.94,4.56,4.56,0,0,1,1.28,48.47Zm36.82,0h0a4.47,4.47,0,0,1,3.68-4.39,23.65,23.65,0,0,0,9.43-4.17C55.43,37,57.58,33.32,57.58,29c0-3.94-3.76-3.79-6.75-3.49a12.46,12.46,0,0,1-12-19.08c5.37-8.64,18.87-8.26,25-.83,8.82,10.67,5.75,30.06-4.06,39.15a31.94,31.94,0,0,1-16.42,8.1A4.46,4.46,0,0,1,38.1,48.47Z"/></g></g></svg>