<svg  class="main-svg-sprite main-svg-sprite--icons" xmlns="http://www.w3.org/2000/svg" xmlns:xlink="http://www.w3.org/1999/xlink"><symbol viewBox="0 0 26 10" id="arrow" xmlns="http://www.w3.org/2000/svg"><g data-name="Layer 2"><path d="M20.34.23a.6.6 0 00-.87-.08.63.63 0 00-.08.88l.08.08 4.43 3.28H.59a.63.63 0 00-.59.67.62.62 0 00.59.59H23.9l-4.44 3.28a.66.66 0 000 .89.62.62 0 00.87 0l5.49-4.36a.62.62 0 000-.87z" data-name="Layer 1"/></g></symbol><symbol viewBox="0 0 13 7" id="arrow_drop" xmlns="http://www.w3.org/2000/svg"><g data-name="Layer 2"><path d="M6.58 7A.79.79 0 007 6.79l5.63-5.2a.92.92 0 00.23-1.21.76.76 0 00-1.11-.23.86.86 0 00-.14.13L6.5 5 1.39.28A.76.76 0 00.26.23a.91.91 0 000 1.23.8.8 0 00.13.13L6 6.79a.78.78 0 00.58.21z" data-name="Layer 1"/></g></symbol><symbol viewBox="0 0 30 30" id="close" xmlns="http://www.w3.org/2000/svg"><g data-name="Layer 2"><path d="M15 0a15 15 0 1015 15A15 15 0 0015 0zm6.66 19.37a1.66 1.66 0 01.15 2.44 1.53 1.53 0 01-1.09.47 1.92 1.92 0 01-1.35-.62L15 17.29l-4.37 4.37a1.69 1.69 0 01-2.44.15 1.66 1.66 0 01.15-2.44L12.71 15l-4.37-4.37a1.66 1.66 0 01-.15-2.44 1.69 1.69 0 012.44.15L15 12.71l4.37-4.37a1.69 1.69 0 012.44-.15 1.66 1.66 0 01-.15 2.44L17.29 15z" data-name="Layer 1"/></g></symbol><symbol viewBox="0 0 18 18" id="lk" xmlns="http://www.w3.org/2000/svg"><g data-name="Layer 2"><path d="M9 18a9 9 0 10-9-9 9 9 0 009 9zm0-1.38a7.58 7.58 0 01-5.39-2.25 7.6 7.6 0 0110.78 0A7.58 7.58 0 019 16.62zM6.23 8A2.77 2.77 0 119 10.75 2.77 2.77 0 016.23 8zM9 1.38a7.61 7.61 0 016.28 11.92 9.11 9.11 0 00-3.61-2.14 4.15 4.15 0 10-5.34 0 9.11 9.11 0 00-3.61 2.14A7.61 7.61 0 019 1.38z" data-name="Layer 1"/></g></symbol><symbol viewBox="0 0 11 13" id="location" xmlns="http://www.w3.org/2000/svg"><defs><style>.ecls-1{fill:#b2b2b2;fill-rule:evenodd}</style></defs><g id="eLayer_2" data-name="Layer 2"><path class="ecls-1" d="M5.47 13C7.38 10.86 11 8.36 11 5.4a5.5 5.5 0 00-11 0c0 2.96 3.62 5.46 5.47 7.6zm0-9.84A2.27 2.27 0 113.2 5.4a2.29 2.29 0 012.27-2.24z" id="eLayer_1-2" data-name="Layer 1"/></g></symbol><symbol viewBox="0 0 24 24" id="menu" xmlns="http://www.w3.org/2000/svg"><path d="M3 18h18v-2H3v2zm0-5h18v-2H3v2zm0-7v2h18V6H3z"/></symbol><symbol viewBox="0 0 20 20" id="ok" xmlns="http://www.w3.org/2000/svg"><defs><style>.gcls-1{fill:#009b3a}</style></defs><g id="gLayer_2" data-name="Layer 2"><g id="gLayer_1-2" data-name="Layer 1"><path class="gcls-1" d="M10 20A10 10 0 100 10a10 10 0 0010 10zm0-17.8A7.8 7.8 0 112.2 10 7.82 7.82 0 0110 2.2z"/><path class="gcls-1" d="M14.54 7.91l-1.56-1.56-4.31 4.3-1.65-1.64-1.56 1.55 3.21 3.21 5.87-5.86z"/></g></g></symbol><symbol viewBox="0 0 18 18" id="question" xmlns="http://www.w3.org/2000/svg"><defs><style>.hcls-1{fill:#fa7167}</style></defs><g id="hLayer_2" data-name="Layer 2"><g id="hLayer_1-2" data-name="Layer 1"><path class="hcls-1" d="M15.37 2.64A9 9 0 002.63 15.36 9 9 0 1015.37 2.64zm-1.11 11.61A7.43 7.43 0 019 16.44a7.34 7.34 0 01-5.26-2.19 7.44 7.44 0 1110.52 0z"/><path class="hcls-1" d="M7.71 13.13a1 1 0 001.89 0 .95.95 0 00-1.89 0zM9 4.2c-1.86 0-3.62.85-3.62 2.87h1.47C6.85 6 8 5.53 9 5.53s2.1.27 2.1 1.51c0 .92-.8 1.12-1.51 1.45-1 .4-1.66.91-1.66 2.75H9.4c0-.9.18-1.23.8-1.54.8-.47 2.42-.73 2.42-2.66S10.86 4.2 9 4.2z"/></g></g></symbol><symbol viewBox="0 0 12 23" id="scroll" xmlns="http://www.w3.org/2000/svg"><defs><style>.icls-1{fill:#134469}</style></defs><g id="iLayer_2" data-name="Layer 2"><g id="iLayer_1-2" data-name="Layer 1"><path class="icls-1" d="M6 1.55A4.57 4.57 0 001.5 6.2v6.2A4.58 4.58 0 006 17.06a4.58 4.58 0 004.5-4.66V6.2A4.57 4.57 0 006 1.55zM6 0a6.11 6.11 0 016 6.2v6.2a6.11 6.11 0 01-6 6.21 6.11 6.11 0 01-6-6.21V6.2A6.11 6.11 0 016 0z"/><path class="icls-1" d="M5.25 4.65a.75.75 0 111.5 0v4.14a.75.75 0 11-1.5 0zM6.37 22.9a.74.74 0 01-1-.29.79.79 0 01.28-1.06l3.5-2.07a.74.74 0 011 .29.79.79 0 01-.28 1.06z"/><path class="icls-1" d="M6.37 21.55a.79.79 0 01.28 1.06.74.74 0 01-1 .29l-3.5-2.07a.79.79 0 01-.28-1.06.74.74 0 011-.29z"/></g></g></symbol><symbol viewBox="0 0 32 32" id="search" xmlns="http://www.w3.org/2000/svg"><path d="M19.427 20.427a8.5 8.5 0 112-2l5.585 5.585c.55.55.546 1.431 0 1.976l-.023.023a1.398 1.398 0 01-1.976 0l-5.585-5.585zM14.5 20a6.5 6.5 0 100-13 6.5 6.5 0 000 13z"/></symbol><symbol viewBox="0 0 17 17" id="soc_inst" xmlns="http://www.w3.org/2000/svg"><g data-name="Layer 2"><g data-name="Layer 1"><path d="M8.5 4.08a4.39 4.39 0 104.39 4.39A4.4 4.4 0 008.5 4.08zm0 7.2a2.81 2.81 0 112.81-2.81 2.83 2.83 0 01-2.81 2.81z"/><circle cx="13.06" cy="3.98" r=".99"/><path d="M15.63 1.41A4.87 4.87 0 0012 0H5a4.7 4.7 0 00-5 5v7a4.91 4.91 0 001.44 3.66A5 5 0 005 17h7a5 5 0 003.59-1.34A4.89 4.89 0 0017 12V5a4.9 4.9 0 00-1.37-3.59zM15.49 12a3.37 3.37 0 01-1 2.5 3.57 3.57 0 01-2.5.89H5a3.57 3.57 0 01-2.5-.89 3.45 3.45 0 01-.92-2.5V5a3.42 3.42 0 01.92-2.5A3.5 3.5 0 015 1.58h7.06a3.46 3.46 0 012.51.92 3.56 3.56 0 01.92 2.5v7z"/></g></g></symbol><symbol viewBox="0 0 17 15" id="soc_teleg" xmlns="http://www.w3.org/2000/svg"><g data-name="Layer 2"><path d="M17 1.37l-2.61 12.72c-.2.9-.7 1.13-1.42.7l-3.91-3-1.88 1.88a1 1 0 01-.79.4l.28-4.18L13.92 3c.31-.3-.07-.46-.49-.17l-9 5.94L.61 7.5c-.83-.28-.85-.88.18-1.31L15.87.08c.7-.28 1.31.16 1.13 1.29z" data-name="Layer 1"/></g></symbol><symbol viewBox="0 0 16 16" id="star" xmlns="http://www.w3.org/2000/svg"><g data-name="Layer 2"><path d="M16 5.92a.43.43 0 00-.34-.27l-5-.69L8.29.23A.42.42 0 007.91 0a.43.43 0 00-.38.25l-2.17 4.8-5 .84a.43.43 0 00-.36.29.41.41 0 00.1.42l3.7 3.66-.8 5.26a.41.41 0 00.17.41.42.42 0 00.45 0l4.45-2.53 4.51 2.39a.43.43 0 00.45 0 .4.4 0 00.16-.41l-.93-5.24 3.58-3.77a.42.42 0 00.16-.45z" data-name="Layer 1"/></g></symbol></svg>