<svg xmlns="http://www.w3.org/2000/svg" viewBox="0 0 172 145"><defs><style>.cls-1{fill:#fd8369;}.cls-2{fill:#ea6552;}.cls-3{fill:#8fdef6;}.cls-4{fill:#cccbca;}.cls-5{fill:#fff;}.cls-6{fill:#d9d8d7;}.cls-7{fill:#343b43;}.cls-8{fill:#bf4336;}.cls-9{fill:#134469;}</style></defs><title>step_4</title><g id="Layer_2" data-name="Layer 2"><g id="Layer_1-2" data-name="Layer 1"><ellipse class="cls-1" cx="72.29" cy="72.5" rx="72.29" ry="72.5"/><path class="cls-2" d="M144.08,80.94,110.73,47.49a3.77,3.77,0,0,0-2.57-1h-5.67l-3.77-3.79H42.09v3.79H36.42a3.79,3.79,0,0,0-3.77,3.78v44.5a3.67,3.67,0,0,0,.71,2.18l47.41,47.56A72.41,72.41,0,0,0,144.08,80.94Z"/><rect class="cls-3" x="42.09" y="42.68" width="56.63" height="3.79"/><rect class="cls-2" x="42.09" y="98.53" width="17.93" height="3.79"/><path class="cls-4" d="M111.93,94.75a3.79,3.79,0,0,1-3.77,3.78H40.77A3.79,3.79,0,0,1,37,94.75V50.25a3.79,3.79,0,0,1,3.78-3.78h67.39a3.79,3.79,0,0,1,3.77,3.78Z"/><path class="cls-5" d="M108.16,94.75a3.79,3.79,0,0,1-3.78,3.78h-68a3.79,3.79,0,0,1-3.77-3.78V50.25a3.79,3.79,0,0,1,3.77-3.78h68a3.79,3.79,0,0,1,3.78,3.78Z"/><path class="cls-4" d="M38.07,95.22H36.42a.47.47,0,0,1-.47-.47V93.09h.94v1.18h1.18Z"/><path class="cls-4" d="M36.89,89.92H36V86.75h.94Zm0-6.33H36V80.42h.94Zm0-6.34H36V74.08h.94Zm0-6.33H36V67.75h.94Zm0-6.34H36V61.41h.94Zm0-6.33H36V55.08h.94Z"/><path class="cls-4" d="M36.89,51.91H36V50.25a.47.47,0,0,1,.47-.47h1.65v.95H36.89Z"/><path class="cls-4" d="M99.33,50.73H95.92v-.95h3.41Zm-6.81,0h-3.4v-.95h3.4Zm-6.8,0H82.31v-.95h3.41Zm-6.81,0h-3.4v-.95h3.4Zm-6.81,0H68.7v-.95h3.4Zm-6.8,0H61.9v-.95h3.4Zm-6.81,0h-3.4v-.95h3.4Zm-6.8,0H48.28v-.95h3.41Zm-6.81,0h-3.4v-.95h3.4Z"/><path class="cls-4" d="M104.85,51.91h-.94V50.73h-1.18v-.95h1.65a.47.47,0,0,1,.47.47Z"/><path class="cls-4" d="M104.85,89.92h-.94V86.75h.94Zm0-6.33h-.94V80.42h.94Zm0-6.34h-.94V74.08h.94Zm0-6.33h-.94V67.75h.94Zm0-6.34h-.94V61.41h.94Zm0-6.33h-.94V55.08h.94Z"/><path class="cls-4" d="M104.38,95.22h-1.65v-1h1.18V93.09h.94v1.66A.47.47,0,0,1,104.38,95.22Z"/><path class="cls-4" d="M99.33,95.22H95.92v-1h3.41Zm-6.81,0h-3.4v-1h3.4Zm-6.8,0H82.31v-1h3.41Zm-6.81,0h-3.4v-1h3.4Zm-6.81,0H68.7v-1h3.4Zm-6.8,0H61.9v-1h3.4Zm-6.81,0h-3.4v-1h3.4Zm-6.8,0H48.28v-1h3.41Zm-6.81,0h-3.4v-1h3.4Z"/><rect class="cls-5" x="108.16" y="67.29" width="3.78" height="10.41"/><path class="cls-6" d="M94.47,67.29a5.15,5.15,0,0,0-3.67,1.53,5.21,5.21,0,0,0,0,7.36,5.15,5.15,0,0,0,3.67,1.53h13.69V67.29Z"/><path class="cls-7" d="M96.83,72.5a2.36,2.36,0,1,1-2.36-2.37A2.37,2.37,0,0,1,96.83,72.5Z"/><path class="cls-8" d="M80.74,72.79A13.42,13.42,0,1,1,67.33,59.33,13.43,13.43,0,0,1,80.74,72.79Z"/><path class="cls-5" d="M69.54,75.22a5.32,5.32,0,0,0,3.94-1.33,5.13,5.13,0,0,0,1.31-3.74,5.08,5.08,0,0,0-1.32-3.74,5.28,5.28,0,0,0-3.93-1.34H63V73.3H60.72v1.92H63v1.84H60.72V79H63v3.27h2.28V79H71.4V77.06H65.25V75.22ZM65.25,67h3.52a4.24,4.24,0,0,1,2.85.8,3.51,3.51,0,0,1,0,4.69,4.18,4.18,0,0,1-2.85.81H65.25Z"/><ellipse class="cls-9" cx="142.09" cy="115" rx="29.91" ry="30"/><path class="cls-5" d="M137,108.77a5.15,5.15,0,0,1,2.12,2,5.93,5.93,0,0,1,.76,3,6.45,6.45,0,0,1-.78,3.17,5.61,5.61,0,0,1-2.19,2.21,6.89,6.89,0,0,1-6.31.09,5.23,5.23,0,0,1-2.12-2,5.9,5.9,0,0,1-.78-3.06,6.33,6.33,0,0,1,.78-3.14,5.61,5.61,0,0,1,2.19-2.21,6.42,6.42,0,0,1,3.25-.81A6.34,6.34,0,0,1,137,108.77Zm-4.69.34a4.77,4.77,0,0,0-.95,2,11.9,11.9,0,0,0-.35,3,11,11,0,0,0,.38,3.13,3.94,3.94,0,0,0,1,1.8,2.13,2.13,0,0,0,1.45.57,1.85,1.85,0,0,0,1.4-.68,5.13,5.13,0,0,0,1-2,12,12,0,0,0,.34-3,10.47,10.47,0,0,0-.38-3.11,3.85,3.85,0,0,0-1-1.8,2.13,2.13,0,0,0-1.46-.57A1.86,1.86,0,0,0,132.28,109.11Z"/><path class="cls-5" d="M151.57,119a19.82,19.82,0,0,0-2.19-.11v3.89h-2.55v-3.9h-6v-.46L149,108h.36v8.62h.17a3.27,3.27,0,0,0,.89-.09.68.68,0,0,0,.41-.29,1.9,1.9,0,0,0,.17-.61h.47C151.49,117.23,151.51,118.35,151.57,119Zm-4.74-7.5-4,5.12h4Z"/><path class="cls-5" d="M156.57,117.09a1.59,1.59,0,0,1,.51,1.24,1.56,1.56,0,0,1-.51,1.24,2.26,2.26,0,0,1-2.73,0,1.59,1.59,0,0,1-.5-1.24,1.62,1.62,0,0,1,.5-1.24,2.3,2.3,0,0,1,2.73,0Z"/></g></g></svg>