<svg xmlns="http://www.w3.org/2000/svg" viewBox="0 0 172 145"><defs><style>.cls-1{fill:#8fdef6;}.cls-2{fill:#70c9e9;}.cls-3{fill:#fff;}.cls-4{fill:#fd8369;}.cls-5{fill:#134469;}</style></defs><title>step_2</title><g id="Layer_2" data-name="Layer 2"><g id="Layer_1-2" data-name="Layer 1"><ellipse class="cls-1" cx="72.29" cy="72.5" rx="72.29" ry="72.5"/><path class="cls-2" d="M143.73,83.65c-14-14.05-41.69-41.82-41.84-41.94a4,4,0,0,0-3-1.43h0l0,2.34c.18,0,9.09,9.12,9.09,9.12h-.85L95.15,40.28h-3.7v2.34l9.11,9.13H99L87.76,40.28h-3.7v2.34l9.11,9.13H91.6L80.37,40.28h-3.7v2.34l9.11,9.13H84.21L73,40.28h-3.7v2.34l9.1,9.12H76.82L65.59,40.28h-3.7v2.34L71,51.75H69.43L58.2,40.28H54.5v2.34l9.11,9.13H62L50.81,40.28h-3.7v2.34l9.11,9.13H54.65L43.42,40.28h-3.7v2.34l9.11,9.13H47.26L36,40.28h-.59a4,4,0,0,0-3.55,2.21l11.25,11a2.73,2.73,0,0,0-.22,1.07v1.25l-9.11-9.14H31.48v3.71L42.92,61.65v1.57l-9.11-9.14H31.48v3.71L42.92,69.06v1.57L33.81,61.5H31.48v3.7L42.92,76.47v1.58l-9.11-9.14H31.48v3.7L42.92,83.88v1.58l-9.11-9.14H31.48V80L42.92,91.29v1.32h-.05l-9.06-8.88H31.48v3.7L42.92,98.7v.89a2.33,2.33,0,0,1-.46-.08s0-.05,0-.08h0s-8.49-8.36-8.55-8.59l-2.26.58A4,4,0,0,0,33,93.52c.15.18,46,46.16,50.47,50.62A72.45,72.45,0,0,0,143.73,83.65ZM101.08,51.74h0Zm-7.39,0h0Zm-7.39,0h0ZM42.91,56.33h0Zm0,7.41h0Zm0,14.82h0Zm0,7.42h0Zm6.44-34.23Zm7.39,0Zm7.39,0Zm7.39,0h0Z"/><path class="cls-3" d="M98.86,94.41h-.57V92.08h.57a1.65,1.65,0,0,0,1.46-.93l2.1,1A4,4,0,0,1,98.86,94.41Zm-4.27,0H90.9V92.08h3.69Zm-7.38,0h-3.7V92.08h3.7Zm-7.39,0h-3.7V92.08h3.7Zm-7.39,0h-3.7V92.08h3.7Zm-7.39,0h-3.7V92.08H65Zm-7.39,0H54V92.08h3.7Zm-7.39,0h-3.7V92.08h3.7Zm-7.39,0h-3.7V92.08h3.7Zm-7.39,0h0a4,4,0,0,1-3.85-3l2.26-.58a1.65,1.65,0,0,0,1.59,1.24ZM102.82,88h-2.33V84.3h2.33Zm-69-.57H31.48v-3.7h2.33Zm69-6.84h-2.33v-3.7h2.33Zm-69-.57H31.48v-3.7h2.33Zm69-6.84h-2.33v-3.7h2.33Zm-69-.57H31.48v-3.7h2.33Zm69-6.84h-2.33V62.06h2.33Zm-69-.57H31.48V61.5h2.33Zm69-6.84h-2.33V54.65h2.33Zm-69-.57H31.48V54.08h2.33Zm69-6.84h-2.33V47.24h2.33Zm-69-.57H31.48V46.67h2.33Zm66.63-6.54a1.64,1.64,0,0,0-1.58-1.22l0-2.34h0a4,4,0,0,1,3.83,3ZM34,43.53l-2.09-1a4,4,0,0,1,3.55-2.21H36v2.34h-.59A1.66,1.66,0,0,0,34,43.53Zm61.17-.91h-3.7V40.28h3.7Zm-7.39,0h-3.7V40.28h3.7Zm-7.39,0h-3.7V40.28h3.7Zm-7.39,0h-3.7V40.28H73Zm-7.39,0h-3.7V40.28h3.7Zm-7.39,0H54.5V40.28h3.7Zm-7.39,0h-3.7V40.28h3.7Zm-7.39,0h-3.7V40.28h3.7Z"/><path class="cls-3" d="M45.72,103.55a2.81,2.81,0,0,1-2.8-2.8V54.56a2.82,2.82,0,0,1,2.8-2.81h63.41a2.82,2.82,0,0,1,2.8,2.81v46.19a2.81,2.81,0,0,1-2.8,2.8Z"/><rect class="cls-4" x="48.06" y="56.91" width="58.73" height="41.49"/><path class="cls-3" d="M73.25,65.77l-2,4H65.6a2.82,2.82,0,0,0-2.82,2.82V87.17A2.82,2.82,0,0,0,65.6,90H89a2.81,2.81,0,0,0,2.82-2.83V72.63A2.81,2.81,0,0,0,89,69.81H83.32l-2-4Zm4,7.27a6.87,6.87,0,1,1-6.85,6.86A6.87,6.87,0,0,1,77.28,73Zm0,2.42a4.45,4.45,0,1,0,4.43,4.44A4.42,4.42,0,0,0,77.28,75.46Z"/><ellipse class="cls-5" cx="142.09" cy="115" rx="29.91" ry="30"/><path class="cls-3" d="M136.59,110.77a5.27,5.27,0,0,1,2.12,2,6,6,0,0,1,.76,3,6.45,6.45,0,0,1-.78,3.17,5.79,5.79,0,0,1-2.2,2.22,6.91,6.91,0,0,1-6.3.08,5.25,5.25,0,0,1-2.13-2,6,6,0,0,1-.77-3.06,6.33,6.33,0,0,1,.78-3.14,5.54,5.54,0,0,1,2.19-2.21,6.89,6.89,0,0,1,6.33-.08Zm-4.69.34a4.77,4.77,0,0,0-1,2,11.93,11.93,0,0,0-.34,3,11,11,0,0,0,.38,3.13,3.85,3.85,0,0,0,1,1.8,2.15,2.15,0,0,0,1.46.57,1.84,1.84,0,0,0,1.39-.68,4.86,4.86,0,0,0,1-2,12,12,0,0,0,.35-3,10.86,10.86,0,0,0-.38-3.11,4,4,0,0,0-1-1.8,2.15,2.15,0,0,0-1.46-.57A1.83,1.83,0,0,0,131.9,111.11Z"/><path class="cls-3" d="M146.48,110a5.24,5.24,0,0,1,2,.33,2.73,2.73,0,0,1,1.27,1,2.5,2.5,0,0,1,.45,1.51,3.16,3.16,0,0,1-.93,2.25,18.93,18.93,0,0,1-2.66,2.19,16.53,16.53,0,0,0-2.29,1.82H149a3.22,3.22,0,0,0,.89-.09.72.72,0,0,0,.41-.29,1.8,1.8,0,0,0,.17-.61h.46q0,2.6.09,3.72a24,24,0,0,0-3.27-.11h-6.39v-.42c.21-.21.84-.8,1.89-1.76a14.37,14.37,0,0,0,2.51-2.93,5.62,5.62,0,0,0,.94-3c0-1.5-.68-2.25-2.05-2.25a3.14,3.14,0,0,0-1.63.42,4.26,4.26,0,0,0-1.3,1.28l-.38-.22A5.5,5.5,0,0,1,146.48,110Z"/><path class="cls-3" d="M156.25,119.09a1.59,1.59,0,0,1,.51,1.24,1.56,1.56,0,0,1-.51,1.24,2.26,2.26,0,0,1-2.73,0,1.59,1.59,0,0,1-.5-1.24,1.62,1.62,0,0,1,.5-1.24,2.3,2.3,0,0,1,2.73,0Z"/></g></g></svg>