<svg xmlns="http://www.w3.org/2000/svg" viewBox="0 0 172 145"><defs><style>.cls-1{fill:#8fdef6;}.cls-2{fill:#70c9e9;}.cls-3{fill:#fff;}.cls-4{fill:#e6e5e5;}.cls-5{fill:#fd8369;}.cls-6{fill:#ea6552;}.cls-7{fill:#e24f3b;}.cls-8{fill:#cccbca;}.cls-9{fill:#495057;}.cls-10{fill:#343b43;}.cls-11{fill:#134469;}</style></defs><title>step_1</title><g id="Layer_2" data-name="Layer 2"><g id="Layer_1-2" data-name="Layer 1"><ellipse class="cls-1" cx="72.29" cy="72.5" rx="72.29" ry="72.5"/><path class="cls-2" d="M143.63,84.18,92.34,32.74H44.77a2.71,2.71,0,0,0-2,.83,2.77,2.77,0,0,0-.83,2v73.9a2.77,2.77,0,0,0,.83,2l33.36,33.46A72.37,72.37,0,0,0,143.63,84.18Z"/><path class="cls-3" d="M102.6,43v66.42a2.78,2.78,0,0,1-2.79,2.81h-55a2.8,2.8,0,0,1-2.8-2.81V35.55a2.8,2.8,0,0,1,2.8-2.81H92.34Z"/><path class="cls-4" d="M102.6,43H95.14a2.79,2.79,0,0,1-2-.82,2.84,2.84,0,0,1-.82-2V32.74Z"/><polygon class="cls-5" points="77.83 94.64 75.19 91.99 102.61 64.5 105.24 67.14 77.83 94.64"/><polygon class="cls-6" points="80.47 97.28 77.83 94.64 105.24 67.14 107.88 69.79 80.47 97.28"/><polygon class="cls-7" points="83.1 99.93 80.47 97.28 107.88 69.79 110.52 72.43 83.1 99.93"/><polygon class="cls-4" points="83.11 99.93 75.89 101.86 73.26 99.22 75.19 91.99 83.11 99.93"/><polygon class="cls-8" points="83.11 99.93 80.47 97.28 75.01 100.98 75.89 101.86 83.11 99.93"/><polygon class="cls-9" points="75.89 101.86 72.29 102.83 73.26 99.22 75.89 101.86"/><polygon class="cls-4" points="113.16 69.79 110.52 67.14 107.88 69.78 110.52 72.43 113.16 69.79"/><polygon class="cls-3" points="110.52 67.14 105.24 61.85 102.61 64.5 107.88 69.79 110.52 67.14"/><path class="cls-10" d="M113.77,69.17l-.62.61-2.63-2.64.61-.62a5.6,5.6,0,0,0,1.09-6.38,5.61,5.61,0,0,1,1.55,9Z"/><path class="cls-9" d="M111.13,66.52l-.61.62-5.28-5.29.61-.62a5.58,5.58,0,0,1,6.37-1.09,5.6,5.6,0,0,1-1.09,6.38Z"/><rect class="cls-9" x="52.24" y="55.62" width="40.11" height="3.15"/><rect class="cls-9" x="52.24" y="68.21" width="38.5" height="3.15"/><rect class="cls-9" x="52.24" y="61.92" width="40.11" height="3.15"/><rect class="cls-6" x="52.24" y="43.03" width="20.06" height="3.15"/><rect class="cls-9" x="52.24" y="49.33" width="40.11" height="3.15"/><rect class="cls-9" x="52.24" y="99.68" width="7.12" height="3.15"/><rect class="cls-9" x="52.24" y="74.5" width="32.22" height="3.15"/><rect class="cls-9" x="52.24" y="93.39" width="13.4" height="3.15"/><rect class="cls-9" x="52.24" y="80.8" width="25.95" height="3.15"/><rect class="cls-9" x="52.24" y="87.09" width="19.67" height="3.15"/><ellipse class="cls-11" cx="142.09" cy="115" rx="29.91" ry="30"/><path class="cls-3" d="M138.12,110.77a5.15,5.15,0,0,1,2.12,2,5.93,5.93,0,0,1,.77,3,6.45,6.45,0,0,1-.79,3.17,5.7,5.7,0,0,1-2.19,2.22,6.93,6.93,0,0,1-6.31.08,5.23,5.23,0,0,1-2.12-2,5.9,5.9,0,0,1-.77-3.06,6.43,6.43,0,0,1,.77-3.14,5.67,5.67,0,0,1,2.19-2.21A6.45,6.45,0,0,1,135,110,6.34,6.34,0,0,1,138.12,110.77Zm-4.69.34a4.89,4.89,0,0,0-1,2,11.93,11.93,0,0,0-.34,3,10.61,10.61,0,0,0,.38,3.13,3.85,3.85,0,0,0,1,1.8,2.13,2.13,0,0,0,1.46.57,1.84,1.84,0,0,0,1.39-.68,4.86,4.86,0,0,0,1-2,12,12,0,0,0,.35-3,10.86,10.86,0,0,0-.38-3.11,3.94,3.94,0,0,0-1-1.8,2.13,2.13,0,0,0-1.45-.57A1.87,1.87,0,0,0,133.43,111.11Z"/><path class="cls-3" d="M148.34,120.6a.91.91,0,0,0,.49.51,2.31,2.31,0,0,0,.93.15v.46c-1.58-.06-2.59-.09-3-.09s-1.71,0-3.77.09v-.46a2.51,2.51,0,0,0,1.56-.4,1.68,1.68,0,0,0,.51-1.41v-5.37a4.6,4.6,0,0,0-.19-1.56,1.05,1.05,0,0,0-.62-.65,4.12,4.12,0,0,0-1.34-.16v-.49a17.34,17.34,0,0,0,3.14-.28,6.86,6.86,0,0,0,2.17-.83v9.47A2.53,2.53,0,0,0,148.34,120.6Z"/><path class="cls-3" d="M154.72,119.09a1.62,1.62,0,0,1,.5,1.24,1.59,1.59,0,0,1-.5,1.24,2,2,0,0,1-1.38.46,1.93,1.93,0,0,1-1.36-.46,1.59,1.59,0,0,1-.5-1.24,1.62,1.62,0,0,1,.5-1.24,2,2,0,0,1,1.36-.45A2,2,0,0,1,154.72,119.09Z"/></g></g></svg>