<svg xmlns="http://www.w3.org/2000/svg" viewBox="0 0 172 145"><defs><style>.cls-1{fill:#8fdef6;}.cls-2{fill:#70c9e9;}.cls-3{fill:#f5b540;}.cls-4{fill:#fff;}.cls-5{fill:#ea6552;}.cls-6{fill:#d9d8d7;}.cls-7{fill:#fece66;}.cls-8{fill:#134469;}</style></defs><title>step_3</title><g id="Layer_2" data-name="Layer 2"><g id="Layer_1-2" data-name="Layer 1"><ellipse class="cls-1" cx="72.29" cy="72.5" rx="72.29" ry="72.5"/><path class="cls-2" d="M144.23,79.57,99.76,35a2.76,2.76,0,0,0-2-.82h-51A2.8,2.8,0,0,0,44,37V65l-5.8,4.2v41.63l34,34.15h.05A72.37,72.37,0,0,0,144.23,79.57Z"/><polygon class="cls-3" points="72.29 44.51 38.2 69.22 38.2 110.86 106.38 110.86 106.38 69.22 72.29 44.51"/><path class="cls-4" d="M46.8,34.15A2.8,2.8,0,0,0,44,37V90.5h56.58V37a2.8,2.8,0,0,0-2.8-2.8Z"/><rect class="cls-5" x="50.53" y="42.71" width="24.98" height="25.05"/><path class="cls-4" d="M63,63.19A8,8,0,1,1,71,55.24a.94.94,0,0,1-1.87,0,6.06,6.06,0,1,0-3,5.27.93.93,0,0,1,1.28.34A1,1,0,0,1,67,62.13,8,8,0,0,1,63,63.19Z"/><path class="cls-4" d="M63,59.68a4.44,4.44,0,1,1,4.43-4.44A4.44,4.44,0,0,1,63,59.68Zm0-7a2.57,2.57,0,1,0,2.57,2.57A2.57,2.57,0,0,0,63,52.67Z"/><path class="cls-4" d="M68.27,59.68A2.66,2.66,0,0,1,65.59,57V55.24a.93.93,0,1,1,1.86,0V57a.8.8,0,0,0,.24.57.83.83,0,0,0,1.16,0,.79.79,0,0,0,.23-.57V55.24a.94.94,0,1,1,1.87,0V57a2.71,2.71,0,0,1-.78,1.9A2.67,2.67,0,0,1,68.27,59.68Z"/><rect class="cls-6" x="78.28" y="59.42" width="15.77" height="2.78"/><rect class="cls-6" x="78.28" y="64.98" width="15.77" height="2.78"/><rect class="cls-6" x="50.53" y="70.55" width="43.52" height="2.78"/><rect class="cls-6" x="50.53" y="76.11" width="24.98" height="2.78"/><rect class="cls-6" x="78.28" y="53.85" width="15.77" height="2.79"/><rect class="cls-6" x="78.28" y="48.28" width="15.77" height="2.79"/><rect class="cls-6" x="78.28" y="42.71" width="15.77" height="2.78"/><polygon class="cls-7" points="106.38 69.22 106.38 110.86 72.29 90.04 106.38 69.22"/><polygon class="cls-7" points="72.29 90.04 38.2 110.86 38.2 69.22 72.29 90.04"/><polygon class="cls-3" points="106.38 110.86 38.2 110.86 72.29 90.04 106.38 110.86"/><ellipse class="cls-8" cx="142.09" cy="115" rx="29.91" ry="30"/><path class="cls-4" d="M137,108.77a5.15,5.15,0,0,1,2.12,2,5.93,5.93,0,0,1,.76,3,6.45,6.45,0,0,1-.78,3.17,5.61,5.61,0,0,1-2.19,2.21,6.89,6.89,0,0,1-6.31.09,5.23,5.23,0,0,1-2.12-2,5.9,5.9,0,0,1-.78-3.06,6.33,6.33,0,0,1,.78-3.14,5.61,5.61,0,0,1,2.19-2.21,6.42,6.42,0,0,1,3.25-.81A6.34,6.34,0,0,1,137,108.77Zm-4.69.34a4.77,4.77,0,0,0-.95,2,11.9,11.9,0,0,0-.35,3,11,11,0,0,0,.38,3.13,3.94,3.94,0,0,0,1,1.8,2.13,2.13,0,0,0,1.45.57,1.85,1.85,0,0,0,1.4-.68,5.13,5.13,0,0,0,1-2,12,12,0,0,0,.34-3,10.47,10.47,0,0,0-.38-3.11,3.85,3.85,0,0,0-1-1.8,2.13,2.13,0,0,0-1.46-.57A1.86,1.86,0,0,0,132.28,109.11Z"/><path class="cls-4" d="M143.39,108.79a5,5,0,0,1,2.85-.75,5.54,5.54,0,0,1,1.93.31,3,3,0,0,1,1.33.87,2,2,0,0,1,.49,1.35,2.54,2.54,0,0,1-.54,1.55,4.61,4.61,0,0,1-1.56,1.28,8.19,8.19,0,0,1-2.36.8h.38a7.47,7.47,0,0,1,2.51.39,3.86,3.86,0,0,1,1.73,1.14,2.74,2.74,0,0,1,.63,1.82,3.78,3.78,0,0,1-1.38,2.87,9.4,9.4,0,0,1-3.54,1.94,14.33,14.33,0,0,1-4.39.69v-.44a7.77,7.77,0,0,0,2.84-.65,5.84,5.84,0,0,0,2.3-1.73,4.14,4.14,0,0,0,.9-2.66,3.94,3.94,0,0,0-.28-1.53,2.54,2.54,0,0,0-.79-1.07,2.35,2.35,0,0,0-1.23-.45,3.26,3.26,0,0,1-1.13.34c-.27,0-.41-.1-.41-.3a.38.38,0,0,1,.2-.36,1,1,0,0,1,.5-.12,1.86,1.86,0,0,1,.36,0,3.58,3.58,0,0,0,.4,0,3.5,3.5,0,0,0,1.7-3,1.92,1.92,0,0,0-.51-1.46,2.06,2.06,0,0,0-1.44-.47,3.12,3.12,0,0,0-1.62.43A3.48,3.48,0,0,0,142,111l-.4-.2A5.61,5.61,0,0,1,143.39,108.79Z"/><path class="cls-4" d="M155.87,117.09a1.62,1.62,0,0,1,.5,1.24,1.59,1.59,0,0,1-.5,1.24,2,2,0,0,1-1.37.46,1.9,1.9,0,0,1-1.36-.46,1.56,1.56,0,0,1-.51-1.24,1.59,1.59,0,0,1,.51-1.24,1.94,1.94,0,0,1,1.36-.45A2,2,0,0,1,155.87,117.09Z"/></g></g></svg>