<svg xmlns="http://www.w3.org/2000/svg" viewBox="0 0 100 39"><defs><style>.cls-1{fill:#fd8369;}.cls-2{fill:#fff;}</style></defs><title>step_arrow</title><g id="Layer_2" data-name="Layer 2"><g id="Layer_1-2" data-name="Layer 1"><rect class="cls-1" y="18.5" width="100" height="2"/><circle class="cls-2" cx="50" cy="19.5" r="18.55"/><path class="cls-1" d="M50,39A19.5,19.5,0,1,1,69.5,19.5,19.53,19.53,0,0,1,50,39ZM50,1.9A17.6,17.6,0,1,0,67.6,19.5,17.63,17.63,0,0,0,50,1.9Z"/><path d="M54.06,19.21a.89.89,0,0,0-.3-.54l-6.14-5.42a1.07,1.07,0,0,0-1.42,0,.89.89,0,0,0,0,1.32h0l5.41,4.77-5.16,5.05a.88.88,0,0,0,0,1.31,1.06,1.06,0,0,0,1.42,0L53.79,20A.91.91,0,0,0,54.06,19.21Z"/></g></g></svg>