<svg id="Layer_1" data-name="Layer 1" xmlns="http://www.w3.org/2000/svg" viewBox="0 0 473.24 444.53"><defs><style>.cls-1{fill:#1b3954;}.cls-2{fill:#cae7ff;}.cls-3{fill:#339cbc;}.cls-4{fill:#4077a0;}.cls-5{fill:#070707;}.cls-6{fill:#131416;}.cls-7{fill:#1a1e23;}.cls-8{fill:#11171c;}.cls-9{fill:#0f1114;}.cls-10{fill:#d9f1ff;}.cls-11{fill:#fff;}.cls-12{fill:#00d0ff;stroke:#1b3954;stroke-miterlimit:10;stroke-width:10px;}.cls-13{fill:#d8b2ba;}.cls-14{fill:#16ade1;}.cls-15{fill:#292858;}.cls-16{fill:#1395b7;}.cls-17{fill:#11a6ce;}.cls-18{fill:#3e4c56;}</style></defs><title>Illustration</title><path class="cls-1" d="M134.5,497.57s32.95-21.71,44.72-39.43S196.29,429,196.29,429s17.06,12.57,37.66,19.43,41.19,8,47.08,8.57l5.88.57A239.14,239.14,0,0,1,298.5,512c1.39,15.06,2.27,24.65-.25,37.5-4.75,24.18-18,41.7-24.37,50.12-2.37,3.13-11.81,15.18-23.45,29.38h0s-44.73-16-58.85-26.29a98.19,98.19,0,0,1-13.08-11.29c-10-10.4-16.14-21-24-39A468,468,0,0,1,134.5,497.57Z" transform="translate(-81.02 -222.16)"/><circle class="cls-2" cx="231.36" cy="226.24" r="212.43"/><path class="cls-3" d="M363,324.7c-3.38-3.67-1-11.38,3.86-26.79A150.07,150.07,0,0,1,380.12,268a144.43,144.43,0,0,1,18.74-26.28c8.12-9,19.82-19.56,19.84-19.58h0l10.47,7.22c11.17,7.72,21.49,20.46,23.7,23.18a157.38,157.38,0,0,1,21.49,36.07c5.24,12.25,10.47,28.85,10.47,28.85h0c-9.63,8.68-13.78,12.89-13.78,12.89-3.83,3.88-4.87,5.43-12.67,14.94-14.81,18.05-14.16,16.25-18.74,22.67-7.53,10.55-11.3,15.83-12.69,21-.19.69-.58,2.22-1.09,2.21-1.59,0-3.51-15.25-3.3-29.88.12-8.76-1.75-17.67,0-26.28.33-1.64,1.37-6.33-1.11-8.24-1.78-1.38-4.61-.71-5.51-.52C409.1,327.76,371.44,333.8,363,324.7Z" transform="translate(-81.02 -222.16)"/><path class="cls-1" d="M146.42,536.57c-1.45-1.64-5.91-6.8-12.5-7.5a11.63,11.63,0,0,0-8.5,2,10.13,10.13,0,0,0-4,7,9.59,9.59,0,0,0,1.58,6.08,11.87,11.87,0,0,0,5.42,3.92c1,.45,2.25.85,3.33,1.23,2.62.93,3.68,1.06,3.67,1.27,0,.58-8-1.46-15.09,2.08-1.15.58-6.81,3.41-7.41,8.42-.39,3.19,1.45,5.78,2.25,6.92,5.26,7.45,15.49,6.92,16,11.5a6.25,6.25,0,0,1-.67,3c-1.24,2.82-3.15,2.56-4.08,4.58-1.57,3.41,1.81,8.6,4.1,11.08.17.19.31.33.4.42a20,20,0,0,0,11,5.5c1.71.35,8.21,1.56,14.5-1.5,2.58-1.26,3.33-2.36,8-5,5-2.8,4.61-1.83,6.33-3.2.13-.11.5-.41.67-.3.57.38-3.06,4.64-3.5,10a14.75,14.75,0,0,0,2,8.5,15,15,0,0,0,8.5,6.5c.68.2,7.13,2,12-1.5,1.74-1.26,3-3.34,5.5-7.5,1.69-2.81,2.82-5.11,3-5.5C204.11,593.26,161.91,554.18,146.42,536.57Z" transform="translate(-81.02 -222.16)"/><path class="cls-4" d="M213.84,370.82c-.76-1.11-8-11.62-18.17-25.24-13.67-18.32-20.5-27.48-29.59-36.84-8.05-8.28-4.5-3.26-32.71-28.27-9.45-8.37-39.7-33.39-42.57-31.79-.87.48-2.65,9.25-3.24,11.12-1.3,4.15-4.85,27.21-5.59,53-.9,31.48-1.35,47.23-.52,62.08,1.52,27.09,3.82,63.19,19.73,106,4.7,12.65,12,31.91,27,54.52,19.24,29,39.95,46.59,52.43,57,24.24,20.28,36.35,30.42,43.61,28.77C265.05,611.88,243.73,414.54,213.84,370.82Z" transform="translate(-81.02 -222.16)"/><path class="cls-4" d="M427.33,370.82c-3.37,4.45-5.51,7.35-5.9,7.89-29.89,41-51.21,226.08-10.38,234.79,3.77.81,8.85-1.38,16.28-6.34l1.32-.89c.36.65.77,1.36,1.23,2.12,2.5,4.16,3.76,6.24,5.5,7.5,4.86,3.52,11.31,1.7,12,1.5a15,15,0,0,0,8.5-6.5,14.78,14.78,0,0,0,2-8.5c-.45-5.36-4.07-9.62-3.5-10,.16-.11.53.19.66.29,1.73,1.37,1.38.41,6.34,3.21,4.66,2.63,5.41,3.74,8,5,6.29,3.06,12.78,1.84,14.5,1.5a20,20,0,0,0,11-5.5l.39-.42c2.29-2.48,5.68-7.67,4.11-11.08-.93-2-2.85-1.76-4.09-4.58a6.26,6.26,0,0,1-.66-3c.5-4.58,10.74-4.06,16-11.5.8-1.14,2.63-3.74,2.25-6.92-.61-5-6.27-7.84-7.42-8.42a23.1,23.1,0,0,0-10.64-2.14c.59-.7,1.19-1.4,1.78-2.12.27-.1.53-.21.78-.32a11.85,11.85,0,0,0,5.41-3.92,9.56,9.56,0,0,0,1.61-5.73q1.35-1.82,2.69-3.71c15-21.2,22.3-39.27,27-51.13,15.91-40.14,18.21-74,19.72-99.4.84-13.93.39-28.7-.52-58.22-.73-24.17-4.28-45.8-5.58-49.69-.59-1.75-2.37-10-3.24-10.43-2.87-1.5-33.12,22-42.57,29.82-28.21,23.45-24.67,18.75-32.71,26.51-9.09,8.78-15.93,17.37-29.59,34.55C434.7,361.2,430.48,366.68,427.33,370.82Z" transform="translate(-81.02 -222.16)"/><path class="cls-5" d="M119.56,315.7c2.46,13.36,37.39,137,53.06,169" transform="translate(-81.02 -222.16)"/><path class="cls-6" d="M139.57,381.36c6.68-7.55,15.91-46.89,16.54-56.94" transform="translate(-81.02 -222.16)"/><path class="cls-7" d="M145.2,405.22c-9.84-.85-20.12-1.86-28.38-7.26" transform="translate(-81.02 -222.16)"/><path class="cls-7" d="M164.57,458.79c-9.83-.86-20.11-1.86-28.37-7.26" transform="translate(-81.02 -222.16)"/><path class="cls-8" d="M129.8,352.47a41.84,41.84,0,0,1-16.26-16.69" transform="translate(-81.02 -222.16)"/><path class="cls-9" d="M174.52,520c-10.78-3.46-44.39-27.52-49.45-35.71" transform="translate(-81.02 -222.16)"/><path class="cls-9" d="M194.64,567.52c-10.78-3.47-44.38-27.53-49.44-35.72" transform="translate(-81.02 -222.16)"/><path class="cls-9" d="M402.83,355.56c10.78-3.46,44.38-27.52,49.45-35.71" transform="translate(-81.02 -222.16)"/><path class="cls-5" d="M403.48,455.58c.39-13.58,15.88-141.15,26.45-175.13" transform="translate(-81.02 -222.16)"/><path class="cls-6" d="M492.21,435.7c-6.68-7.55-15.91-46.88-16.54-56.94" transform="translate(-81.02 -222.16)"/><rect class="cls-10" x="116.41" y="83.5" width="229.91" height="297.83"/><rect class="cls-11" x="146.76" y="160.29" width="156.46" height="7.39"/><rect class="cls-11" x="146.76" y="190.47" width="156.46" height="7.39"/><rect class="cls-11" x="146.76" y="218.15" width="156.46" height="7.39"/><rect class="cls-11" x="146.76" y="250.6" width="156.46" height="7.39"/><path class="cls-5" d="M528.73,317.71c-2.47,13.36-37.4,137-53.06,169" transform="translate(-81.02 -222.16)"/><path class="cls-9" d="M473.76,522c10.79-3.46,44.39-27.53,49.45-35.71" transform="translate(-81.02 -222.16)"/><path class="cls-9" d="M453.64,569.52c10.78-3.46,44.38-27.52,49.44-35.71" transform="translate(-81.02 -222.16)"/><path class="cls-12" d="M148,501.5s28-19,38-34.5,14.5-25.5,14.5-25.5,14.5,11,32,17,35,7,40,7.5l5,.5s14.5,68.5,11,81-16,40-20.5,45-21.5,24-21.5,24-38-14-50-23-22-20.5-31.5-44S148,501.5,148,501.5Z" transform="translate(-81.02 -222.16)"/><polygon class="cls-11" points="112.9 302.83 125.4 290.33 142.9 315.83 164.4 265.83 179.4 265.83 143.9 345.33 112.9 302.83"/><path class="cls-13" d="M410.17,655.67c-2.82-.28-4.73-.44-6.17.83-.09.08-1.63,1.48-1.33,3,.2,1,1.11,1.55,5.66,3.67,2.77,1.28,4.15,1.92,4.84,2.16,3.28,1.14,5.59,1.94,7.66.84,1.38-.74,2.62-6.67,1.5-8.17C421.51,656.89,420.63,656.69,410.17,655.67Z" transform="translate(-81.02 -222.16)"/><path class="cls-1" d="M384,361.5c.8,2.26,3.08,3.44,5.36,4.62A17.53,17.53,0,0,0,396,368s.33,2.5,1,7.5c1.35,4.81,2.61,8.68,3.57,11.48a10.14,10.14,0,0,0,1.68,3.44c2.18,2.69,6.73,4.82,9.58,3.33C413,393.17,413,392.43,418,383h0a30.81,30.81,0,0,1,3-6c1.65-2.46,2.28-2.24,3-4a9.93,9.93,0,0,0,.5-5c-.23-2.13-.84-3.06-2.5-7-1.89-4.47-1.91-5.2-2.24-5.69,0,0-.12-.16-.26-.31-3.27-3.39-10.17-5.17-10.17-5.17-6-1.54-9.24-2.38-13.33-1.33-1.81.46-1.47.33-5,2C385.73,353,382.72,357.86,384,361.5Z" transform="translate(-81.02 -222.16)"/><path class="cls-13" d="M423,631.83c1.56-1.37,4.56-1.48,5.83-.16.16.16.25.3.84,2.16,1.05,3.35,1.15,4.12,1.16,4.84,0,1.19,0,1.79-.33,2.33-1,1.49-4.21,1.57-6.17.33C421.33,639.42,420.58,634,423,631.83Z" transform="translate(-81.02 -222.16)"/><path class="cls-13" d="M386.66,364.59a130.19,130.19,0,0,0-2.33,13.16,56.69,56.69,0,0,0-.16,6.67c0,2.7.11,4,1,5.08.61.78,1.41,1.16,3,1.92a31.66,31.66,0,0,0,4.41,1.66,5.91,5.91,0,0,1,2.75,1.34,2.22,2.22,0,0,1,.75,1.33c.07.75-.48,1-.62,2.1a5.71,5.71,0,0,0,.05,1.39c.11.86.26.85.32,1.43a4.91,4.91,0,0,1-1,3.24l-.07.09c-.56.68-1.06.62-1.92,1.5s-1.39,1.88-1.15,2.15,1.18-.5,3.07-1.32c2.31-1,2.66-.6,5.67-1.75,1.48-.56,1.56-.72,3.08-1.25.85-.29,1.11-.34,3.17-1,1.72-.55,1.6-.53,2.08-.66a9.61,9.61,0,0,1,3.75-.59c1.72.22,2.42,1.18,2.83.84.14-.12.22-.35-.66-3.59-.33-1.2-.48-1.67-.59-2-.42-1.29-.64-1.66-.83-2.25-.82-2.48.27-4.44-.25-4.66s-1.39,2-3.92,3.08a5.42,5.42,0,0,1-2.25.42,3,3,0,0,1-1.91-.59c-.25-.21-.27-.32-.67-.66a13,13,0,0,0-1.08-.75,3.21,3.21,0,0,1-1.17-1.67,10.93,10.93,0,0,1,0-1.25,13.08,13.08,0,0,1,.08-1.75,7,7,0,0,1,.34-1.25c.22-.64.31-.63.5-1.17a4.79,4.79,0,0,0,.33-1.75c0-.58-.15-.57-.17-1.33,0-.41,0-.54,0-1.08a8.13,8.13,0,0,0-.08-.92,3.62,3.62,0,0,0-.25-1.08c-.14-.26-.41-.54-1.92-.92a17.7,17.7,0,0,0-2.25-.42c-1,.12-1.33-.21-1.41-.33s-.1-.3-.09-1.33c0-.42,0-.84,0-1.25v-1.17c0-.89.09-.94.09-1.42a12.28,12.28,0,0,0-.34-2.08c.25-.08.55.89.42.67A2.67,2.67,0,0,0,396,368a9.17,9.17,0,0,0-1.08-.33c-.62-.18-.93-.26-1.25-.34-1.51-.34-1.62-.1-2.25-.41s-.46-.46-1.25-.92a7.45,7.45,0,0,0-1.34-.58Z" transform="translate(-81.02 -222.16)"/><path class="cls-1" d="M387.25,489.75c0-9.87,5-1,10.52-.11s9.64.47,15.56-.14c6.94-.71,10.41-1.07,14.29-2.86,5.32-2.47,7.07-5.31,9.32-4.53,2.76.95,3.22,6.3,3.56,10.72,1.1,14.43-3.35,41.13-3.75,50.42-.38,8.64-.81,14.45-1.5,24-1.51,20.93-8,65-8,65a9.89,9.89,0,0,1-5-.5c-2.62-1.06-3.91-110.9-4.17-113.71,0-.15-.05-.45-.08-.79a25.41,25.41,0,0,0-.5-4c-.3,0-1.23,9.92-1.25,22.5,0,2.38,8.76,121.06,5.08,123.08-1,.54-3,.59-7.08.67-.44,0-11.15-51.41-16.5-85-2-12.74-5.95-20.2-8.5-37.25C388.17,530.07,387.25,492.12,387.25,489.75Z" transform="translate(-81.02 -222.16)"/><path class="cls-14" d="M390.42,408.7c-2,1.79-1.8,2.12-4.59,4.59-5.42,4.8-7.22,4.42-10.91,8.16a23.91,23.91,0,0,0-5.92,9.34c-.86,2.59-1,4.65-1.08,8.58-.19,7.52-.05,13.15,0,15.67.22,12.18-.6,12.25,0,20.16.39,5.23.63,3.63,1.58,12.59,1.2,11.39.78,13.61,2.42,19.5,1.33,4.8,2.07,5,2.58,8.58s.28,7.25,2.33,8.25l.11,0a3.18,3.18,0,0,0,1.14.2c1.3,0,9.28,2.33,11.08,0,.6-.78-.09-1.3-2-8a55.61,55.61,0,0,1-1.92-9.17c0-.21-.06-.93-.17-1.92-.17-1.44-.38-2.49-.5-3.16-.77-4.45,0-7-.16-13.08-.21-9.16-2.18-14.92-.5-15.59a1.44,1.44,0,0,1,1.08.17c.8.38,1.36,1.29,2,6.92.39,3.4.57,5.13.25,6.33-.36,1.36,2.39,3.59,4.25,3.5,3.64-.17,1.87.55,11.25,1.33a57.46,57.46,0,0,0,10.58.34,39.45,39.45,0,0,0,6.67-1.17c.89-.24,2.43-.8,5.5-1.92,4.44-1.61,5.48-1.55,7.92-2.83,0,0,3.31-1.73,4.14-4.12a2.26,2.26,0,0,0,.13-.75,2.21,2.21,0,0,0-.31-1.06c-.6-1.06-.47-4.36-.44-5,.07-2-.16-4.05-.19-6.07-.08-5.47-.11-8.2-.17-9.17-.11-1.85-.37-5-.25-8.83a30.4,30.4,0,0,1,1-5.25c.35-1.4.56-1.95,1-2.08,1-.29,2.4,1.66,3.25,2.83a15,15,0,0,1,1.67,2.92,17.9,17.9,0,0,1,1.17,4c.14.78.08.73.41,4.75.11,1.3.16,1.86.25,3.08a27.53,27.53,0,0,1,.17,3.58,12.28,12.28,0,0,1-.58,3.34,12.93,12.93,0,0,1-1.92,3.5c-1.2,1.69-1.63,1.8-2.92,3.41-1.62,2-2.42,3-2.75,4.42-.22.94.07.75.84,6.33,0,.14.22,1.6.66,3.5a7.83,7.83,0,0,0,.92,2.59c.35.56,1.05,1.68,2,1.83,1.32.21,2.61-1.54,3.33-2.58,3.55-5.08,5.38-10.09,7.42-14.34s2.18-3.33,3.5-6.33A38.86,38.86,0,0,0,458.83,457c.15-4.34-2.39-11.34-7.5-25.17-2.16-5.87-3.08-8.09-5.16-10.75a26.37,26.37,0,0,0-10.5-8.33c-6.24-2.61-11.2-1.43-14.34-4.25a38.78,38.78,0,0,1-4.41-4.84c-.47-.61-.52-.73-.67-.91C413.29,399.11,399.43,400.72,390.42,408.7Z" transform="translate(-81.02 -222.16)"/><path class="cls-15" d="M371.62,536.12a2.28,2.28,0,0,0,1.5,1.13,2,2,0,0,0,1.26-.25c1-.64.54-1.93,1.37-3.62a5,5,0,0,1,2-2.26c1-.5,2-.46,4.5.13,3.66.85,5.52,1.15,6,1.75s.4.85.75,6.25c.17,2.58.27,3.89,1.25,4.75.57.5,1.56,1,2.13.62.77-.48.34-2.26-.26-5.62-1.16-6.55-.71-6.37-1.24-7.25-2.42-4-10.21-5.38-15-2.37C373.05,531.14,370.85,534.67,371.62,536.12Z" transform="translate(-81.02 -222.16)"/><path class="cls-13" d="M376.58,523.51s-.87,8.78,2,9.91a12.46,12.46,0,0,0,5.38.83l4.17-.29s3.54-.13,4-1.5.95-1.42-.55-3.29-.45-5.84-4-5.88S376.58,523.51,376.58,523.51Z" transform="translate(-81.02 -222.16)"/><path class="cls-14" d="M361.75,534.5c-2.69,1.69-3.78,4.25-5.37,8.75-3,8.55-4.55,12.82-5.5,18.63-1.64,9.91-.22,13-.89,15.85a2.35,2.35,0,0,0,.13,1.65c.61,1.08,2.3,1.2,2.76,1.24.86.09.74.25,10.24,4.88,6.3,3.07,11.42,5.47,15.76,7.5,0,0,2.37,1.65,8.62,4a3.64,3.64,0,0,0,1.25.25c1.28,0,1.88-.71,3.37-1.5,1.87-1,2.11-.49,3.88-1.5,1.6-.92,1.3-1.27,2.38-1.75,2.5-1.12,4.89.5,5.62-.5.18-.25,0-.38-.12-1.75a14.09,14.09,0,0,1,0-1.87c.07-2-.12-8.15-.13-8.63A156.21,156.21,0,0,0,402,561.62c-1.34-8.66-2-7.89-1.88-11.24.08-2.79.58-5.9-1-6.88-.68-.43-1.21-.11-3.12-.25a18.51,18.51,0,0,1-4.5-1c-3.35-1-4.14-2-7.75-3.63-4.47-2-4.74-1.07-9.13-3.12-3.19-1.49-3.51-2.18-5.5-2.5A11.48,11.48,0,0,0,361.75,534.5Z" transform="translate(-81.02 -222.16)"/><path class="cls-1" d="M360.75,536.62c-1,2.39.17,4.6,1.37,7.88,1.27,3.45,2,7.09,3,10.62,1.77,6.18,2,7.41,3.38,8.13,1.65.87,3.49.22,6.62-.87,2.28-.8,3-1.38,9.5-5.38,3.72-2.27,5-3,6.26-4.88.27-.41,2.33-3.49,1.24-5.12a2.25,2.25,0,0,0-1.26-.85,179.14,179.14,0,0,1-18.61-7.4c-5.05-2.54-7.82-5.38-10-4.13A3.86,3.86,0,0,0,360.75,536.62Z" transform="translate(-81.02 -222.16)"/><path class="cls-16" d="M365.88,559.62c-2.59,1.57-.76,10.38-.76,10.38h0s2.09,1.21,3.13.62c.53-.3.63-1,.75-1.5.77-3.38,3.37-4.08,3.25-5.87C372.1,561,367.73,558.5,365.88,559.62Z" transform="translate(-81.02 -222.16)"/><path class="cls-17" d="M388.88,596c-6-2.38,7.55-49.26,4.5-50.25a1.32,1.32,0,0,0-1,.37c0,.14,3.48-1.63,5.62-1,4.4,1.32,1.62,12.38,5,31,1.18,6.49,3.13,14.06.38,15.63a2.83,2.83,0,0,1-1.63.25C395.07,591.72,391,596.86,388.88,596Z" transform="translate(-81.02 -222.16)"/><path class="cls-1" d="M411.74,420a209.77,209.77,0,0,1,5.38,39.75" transform="translate(-81.02 -222.16)"/><path class="cls-1" d="M386.39,435.47l-4.64,1.91a2.11,2.11,0,0,0,1.32.33c.24,2.5.48,5,.67,7.5a204.57,204.57,0,0,1,.23,28.12" transform="translate(-81.02 -222.16)"/><path class="cls-1" d="M435,430.32a14.38,14.38,0,0,0,3.59-.16c-1.13,1.33-1.16,3.27-.88,5a19.42,19.42,0,0,1,.63,5.17" transform="translate(-81.02 -222.16)"/><path class="cls-18" d="M406.34,510.17l10.39-.09c4.3,0,8.78-.12,12.6-2.1" transform="translate(-81.02 -222.16)"/><rect class="cls-11" x="368.03" y="543.4" width="4.39" height="12.58" transform="translate(139.15 -318) rotate(20.87)"/><rect class="cls-11" x="363.69" y="548.33" width="12.48" height="4.04" transform="translate(139.36 -317.86) rotate(20.87)"/></svg>