<svg id="Layer_1" data-name="Layer 1" xmlns="http://www.w3.org/2000/svg" viewBox="0 0 473.24 438.67"><defs><style>.cls-3{fill:#1b3954}.cls-5{fill:#070707}.cls-6{fill:#131416}.cls-7{fill:#1a1e23}.cls-8{fill:#11171c}.cls-9{fill:#0f1114}.cls-12{fill:#16ade1}.cls-13{fill:#14c3f2}.cls-14{fill:#00d0ff;stroke:#1b3954;stroke-miterlimit:10;stroke-width:5px}.cls-15{fill:#fff}.cls-16{fill:#d8b2ba}</style></defs><circle cx="231.36" cy="226.24" r="212.43" fill="#cae7ff"/><path d="M358.2 270.53c-3.38-3.66-1-11.37 3.86-26.79a150.32 150.32 0 0113.23-29.88A144.43 144.43 0 01394 187.58c8.12-9 19.82-19.57 19.84-19.58l10.47 7.21c11.17 7.73 21.49 20.47 23.7 23.19a157.13 157.13 0 0121.49 36.07c5.24 12.24 10.47 28.85 10.47 28.85-9.63 8.68-13.78 12.88-13.78 12.88-3.83 3.88-4.87 5.43-12.67 14.94-14.82 18.06-14.16 16.26-18.74 22.67-7.53 10.56-11.3 15.83-12.69 21-.19.69-.58 2.22-1.09 2.21-1.59 0-3.51-15.26-3.31-29.88.13-8.76-1.74-17.68 0-26.28.34-1.64 1.38-6.33-1.1-8.25-1.78-1.38-4.62-.71-5.51-.51-6.81 1.49-44.47 7.53-52.88-1.57z" transform="translate(-76.18 -168)" fill="#339cbc"/><path class="cls-3" d="M141.59 482.41c-1.45-1.65-5.91-6.8-12.5-7.5a11.63 11.63 0 00-8.5 2 10.13 10.13 0 00-4 7 9.6 9.6 0 001.58 6.08 11.94 11.94 0 005.42 3.92c1 .44 2.24.84 3.32 1.23 2.63.93 3.69 1.06 3.68 1.27-.05.58-8-1.46-15.09 2.08-1.15.58-6.81 3.4-7.41 8.42-.39 3.18 1.45 5.78 2.25 6.91 5.25 7.45 15.49 6.92 16 11.5a6.19 6.19 0 01-.67 3c-1.24 2.83-3.15 2.57-4.08 4.59-1.57 3.4 1.81 8.6 4.1 11.08l.4.42a20 20 0 0011 5.5c1.71.34 8.21 1.56 14.5-1.5 2.58-1.26 3.33-2.37 8-5 4.95-2.8 4.61-1.84 6.33-3.21.13-.1.5-.4.67-.29.57.37-3.06 4.63-3.5 10a14.7 14.7 0 002 8.5 15 15 0 008.5 6.5c.68.2 7.13 2 12-1.5 1.73-1.26 3-3.34 5.5-7.5 1.69-2.81 2.82-5.11 3-5.5 5.19-11.32-37.01-50.41-52.5-68z" transform="translate(-76.18 -168)"/><path d="M209 316.66c-.76-1.11-8-11.63-18.17-25.24-13.67-18.32-20.5-27.48-29.6-36.85-8-8.27-4.49-3.26-32.7-28.26-9.45-8.37-39.7-33.4-42.57-31.8-.87.49-2.65 9.25-3.24 11.12-1.3 4.16-4.85 27.22-5.59 53-.9 31.49-1.35 47.23-.52 62.09 1.52 27.08 3.82 63.18 19.73 106 4.7 12.64 12 31.91 27 54.51 19.24 29 40 46.59 52.43 57 24.23 20.29 36.36 30.43 43.62 28.77 40.83-9.28 19.51-206.62-10.39-250.34zm290.57 165.92q1.35-1.81 2.69-3.71c15-21.2 22.3-39.27 27-51.13 15.91-40.14 18.21-74 19.72-99.4.84-13.93.39-28.7-.52-58.22-.73-24.17-4.28-45.8-5.58-49.69-.59-1.75-2.37-10-3.24-10.43-2.87-1.5-33.12 22-42.57 29.82-28.21 23.45-24.67 18.75-32.71 26.51-9.09 8.78-15.93 17.37-29.59 34.55-4.89 6.16-9.12 11.64-12.27 15.78-3.37 4.45-5.51 7.35-5.9 7.89-29.89 41-51.21 226.08-10.38 234.79 3.77.81 8.85-1.38 16.28-6.34l1.32-.89c.36.65.77 1.36 1.23 2.12 2.5 4.16 3.76 6.24 5.5 7.5 4.86 3.52 11.31 1.7 12 1.5a15 15 0 008.5-6.5 14.78 14.78 0 002-8.5c-.45-5.36-4.07-9.62-3.5-10 .16-.11.53.19.66.29 1.73 1.37 1.38.41 6.34 3.21 4.66 2.63 5.41 3.74 8 5 6.29 3.06 12.78 1.84 14.5 1.5a20 20 0 0011-5.5l.39-.42c2.29-2.48 5.68-7.67 4.11-11.08-.93-2-2.85-1.76-4.09-4.58a6.26 6.26 0 01-.66-3c.5-4.58 10.74-4.06 16-11.5.8-1.14 2.63-3.74 2.25-6.92-.61-5-6.27-7.84-7.42-8.42a23.1 23.1 0 00-10.63-2.14c.59-.7 1.19-1.4 1.78-2.12.27-.1.53-.21.78-.32a11.85 11.85 0 005.41-3.92 9.56 9.56 0 001.6-5.73z" transform="translate(-76.18 -168)" fill="#4077a0"/><path class="cls-5" d="M114.72 261.54c2.47 13.36 37.4 137 53.06 169" transform="translate(-76.18 -168)"/><path class="cls-6" d="M134.74 327.19c6.68-7.54 15.91-46.88 16.54-56.94" transform="translate(-76.18 -168)"/><path class="cls-7" d="M140.37 351.06c-9.84-.86-20.12-1.86-28.38-7.26m47.75 60.82c-9.83-.85-20.12-1.85-28.38-7.26" transform="translate(-76.18 -168)"/><path class="cls-8" d="M125 298.3a41.78 41.78 0 01-16.26-16.69" transform="translate(-76.18 -168)"/><path class="cls-9" d="M169.69 465.85c-10.79-3.46-44.39-27.53-49.45-35.71m69.57 83.21c-10.78-3.46-44.38-27.52-49.44-35.71M398 301.4c10.78-3.46 44.38-27.53 49.45-35.71" transform="translate(-76.18 -168)"/><path class="cls-5" d="M398.65 401.41c.38-13.58 15.88-141.15 26.45-175.12" transform="translate(-76.18 -168)"/><path class="cls-6" d="M487.37 381.53c-6.68-7.54-15.9-46.88-16.54-56.94" transform="translate(-76.18 -168)"/><path fill="#d9f1ff" d="M116.41 83.5h229.91v297.83H116.41z"/><path d="M494 394.24l-1-.24" transform="translate(-76.18 -168)"/><path class="cls-5" d="M523.89 263.55c-2.46 13.35-37.39 137-53.06 169" transform="translate(-76.18 -168)"/><path class="cls-6" d="M503.88 329.2c-6.68-7.55-15.91-46.88-16.54-56.94" transform="translate(-76.18 -168)"/><path class="cls-7" d="M498.25 353.06c9.84-.85 20.12-1.85 28.38-7.26m-47.75 60.83c9.83-.85 20.11-1.86 28.37-7.26" transform="translate(-76.18 -168)"/><path class="cls-8" d="M513.65 300.31a41.78 41.78 0 0016.26-16.69" transform="translate(-76.18 -168)"/><path class="cls-9" d="M468.93 467.85c10.78-3.46 44.39-27.52 49.45-35.71m-69.57 83.22c10.78-3.46 44.38-27.53 49.44-35.71" transform="translate(-76.18 -168)"/><path d="M396.42 265c-3.05-1-9.84 10.69-23.42 34-8.24 14.15-7.8 14.84-12 20.5-5.81 7.83-12.09 15.39-28 26 0 0-19.72 16.08-31.5 19.5-4.84 1.4-7.26 2.11-8.67 1.88-.2 0-.65-.11-.83.12-.61.76 1.84 4.72 5 6 2.68 1.09 5.21 0 9-1.5 11.69-4.58 9.11-2.51 15.5-5.5 1.52-.71 7.39-3.5 17.5-10.5 8.92-6.18 13.38-9.27 17.95-13.88 9.33-9.44 7.79-13 17.59-23.53 8.64-9.26 10.57-7.79 15.46-14.09 11.6-15 10.64-37.67 6.42-39z" transform="translate(-76.18 -168)" fill="#c9a9b1"/><path class="cls-12" d="M131.48 373.22h51v37h-51zm81.34-1h51v37h-51z"/><path class="cls-13" d="M175.61 444.23c-1-.27.8-6.25-.28-14.9-.83-6.73-2.2-5.64-3.66-13.33-1.89-9.91-1.35-20.81-1.67-27.06 0-.72-.15-2.87-.16-5.79 0-1.89 0-4.09.16-6.54.69-12.86 1.05-19.29 4.33-22.12 6.11-5.29 20.16 2.51 38.07 12.45 10.49 5.83 19.37 20.63 19.86 23.81 0 .19.07.31.07.37 1.64 12.4-34.72 12.22-49.33 37.36-4.24 7.3-6.24 16.07-7.39 15.75z" transform="translate(-76.18 -168)"/><path class="cls-12" d="M187.39 404.61c-2-.39-2.38-7-2.83-15.4a40.5 40.5 0 010-4.36c.27-4.52.42-6.75 1.67-7.83 2.87-2.47 10.87 2.56 13.73 4.36a28.23 28.23 0 017.7 7.19c.78 1 .86 1.16.9 1.41.52 3.67-11.49 4.82-19 13.21-.56.63-1.35 1.58-2.17 1.42z" transform="translate(-76.18 -168)"/><circle class="cls-14" cx="195.06" cy="219.29" r="27.78"/><path class="cls-15" d="M278 378.61c-.83-2.9-2.35-5.57-6.3-5.61a4.8 4.8 0 00-5.11 4.92c0 2.58 1.43 4.05 4.88 5.52 5.2 2.07 8.83 4.33 8.78 8.93 0 5.06-4.23 8.28-9.1 8.28a22.46 22.46 0 01-7.69-1.52c-.23-1.06-.83-4.1-1.19-6.35l1.42-.37c1.06 3.54 3.27 6.72 7.59 6.72 3.13-.05 5.39-1.89 5.39-5.15 0-2.63-1.43-4.7-5.2-6.31-5.48-2.34-8.15-4.51-8.15-8.69s3.13-7.45 8.88-7.45a29.07 29.07 0 016.26.82c.28 1.71.51 3.55.87 5.94zm-6.07-10.4h1.56l-2.67 36.53h-1.65z" transform="translate(-76.18 -168)"/><ellipse class="cls-13" cx="194.66" cy="303.93" rx="101.01" ry="93.62"/><circle cx="178.82" cy="264.52" r="5.19"/><circle cx="208.94" cy="264.7" r="5.19"/><ellipse class="cls-15" cx="195.68" cy="315.34" rx="28.29" ry="30.01"/><path class="cls-3" d="M186.48 305.51h5.7v21.67h-5.7zm12.56.32h5.7v21.67h-5.7z"/><circle class="cls-14" cx="201.89" cy="123.96" r="30.42"/><path class="cls-15" d="M284.66 284.16c-.83-2.89-2.35-5.56-6.31-5.61a4.8 4.8 0 00-5.1 4.92c0 2.58 1.42 4 4.87 5.53 5.2 2.07 8.84 4.32 8.79 8.92 0 5.06-4.23 8.28-9.11 8.28a22.22 22.22 0 01-7.68-1.52c-.23-1.06-.83-4.09-1.2-6.35l1.43-.36c1.06 3.54 3.26 6.71 7.59 6.71 3.13 0 5.38-1.88 5.38-5.15 0-2.62-1.42-4.69-5.2-6.3-5.47-2.35-8.14-4.51-8.14-8.7s3.13-7.45 8.88-7.45a28.33 28.33 0 016.26.83c.27 1.7.5 3.54.87 5.93zm-6.08-10.39h1.57l-2.67 36.53h-1.66z" transform="translate(-76.18 -168)"/><path class="cls-16" d="M290.5 302c.65 2.88 2.78 4.65 10.25 9.5 4.15 2.69 6.47 4.07 8.75 5.5 6.65 4.16 5.7 4.47 14.5 10 18.83 11.84 16.55 11.46 19.5 12.5 11.63 4.09 22.37 1.19 26.5 0 6.76-1.95 21.55-7.83 21-14.5-.52-6.35-14.8-11.56-16.5-9.5-.46.56.3 1.33 0 2.59-.78 3.69-8.2 5.48-13 5.91-5.5.49-11.91-1.84-24.5-6.5-12.84-4.75-19.31-7.18-21.5-9.5-6-6.33-4.78-12-10.75-14.5-4.28-1.78-10.68-1.25-13.25 2.5a8.12 8.12 0 00-1 6z" transform="translate(-76.18 -168)"/><path class="cls-3" d="M374.75 220.25l-15.5-.25a5 5 0 00-.25-2.25 5.91 5.91 0 00-2-2.5c-2.1-1.88-1.93-7.75.75-11.63a12 12 0 0113.13-4.37c2.1-4 5.4-8.59 10.12-9.25 4-.56 5.45 2.18 11.12 3.62 9.62 2.46 14.08-4 19.5-.62 7.57 4.72 8.18 14.68 8.38 18 .74 12.16-6.8 17.74-5.12 27.62.19 1.14.82 4.22-.88 6.13s-4.93 1.65-5.35 1.61c-6.12-.57-3.92-13.06-12.53-19.24-1.8-1.29-4.2-2.11-9-3.74a78 78 0 00-12.37-3.13z" transform="translate(-76.18 -168)"/><path class="cls-16" d="M398 254.5a5.77 5.77 0 00-.38-3.88 5.35 5.35 0 00-2.87-2.62c-2.82-.91-4.33 2-9.13 2.38-1.93.16-4.2.35-5.37-1-1.76-2-.12-6.48-1.87-8.5a6.34 6.34 0 00-1.09-1c-.47-.29-1.21-.73-2.15-1.2-1.95-1-2.18-.79-2.39-1.15-1-1.62 3.51-5.46 3.63-9a14.46 14.46 0 00-.08-1.77c-.24-1.63-.88-2.42-.92-5.73s-.09-5.81 1.62-7.5a6.67 6.67 0 017.38-1.12c2.45 1.35 1.74 3.91 4.12 5.12 2.77 1.41 5.58-1.1 6.88.25s-1.48 5 .12 7c1 1.31 3.56 1.58 4.5.63 1.22-1.24-1-3.73.12-5.63 1.24-2.07 6.19-3 8.76-.37s1.47 7.21-.5 8.74c-.8.63-1.92.87-2.63 2.13a5.86 5.86 0 00-.5 2.25 7 7 0 000 2.5c.16.75.38 1.8 1.13 2.12s1.41-.43 2-.12c.77.41.56 2.23.5 2.88-.45 4.43.93 4.89.5 7.87-.68 4.63-4.85 9.65-8.26 9.13a4.75 4.75 0 01-3.12-2.41z" transform="translate(-76.18 -168)"/><path class="cls-5" d="M391.5 264.5c-.86-1.35 2.46-4.8 6.5-9 4.53-4.71 15-14.12 19-11.5 2 1.33 1.53 5.25 1.5 5.5-1.5 11.18-25.07 18.04-27 15z" transform="translate(-76.18 -168)"/><path class="cls-16" d="M451.28 542.1a8.42 8.42 0 001.64 9.39c2.44 2.51 6.31 3.35 9.08 2 5-2.43 5.81-11.7 1.5-14.83-3.36-2.43-9.97-1.21-12.22 3.44zM400 547.44c1.61 1.91.43 5.74-1 8-5 8-20.26 8.65-22 5-1.36-2.82 5.13-9.14 11.28-12 .82-.32 9.13-4.08 11.72-1z" transform="translate(-76.18 -168)"/><path class="cls-3" d="M395.05 362.19c-3.3 3.5-1 7.59-.79 20.62a84.15 84.15 0 01-.64 13.61c-1.81 12.78-3.68 18.54-6.44 30.72a162.2 162.2 0 00-3.44 49.86c.74 7.93 1.48 8.54 2.71 17.36a201.64 201.64 0 01.05 53.64c3 1 10.06 3 13.5-.52 2-2.05 1.89-5.05 2-8.77.2-6.92 2.14-13.7 2.5-20.62 1.8-34.81 2.7-52.21 5.5-66q7-15 14-30.05c2.58-.8 3.83-.41 4.5.15 2.76 2.34.21 11.65 1.5 15.47 1.22 3.61 2.25 3.1 3.5 6.7 2 5.65.52 10 0 14.95-.64 6 .72 7.1 3 20.63 1 5.9.52 4.4 3 25.78 2.83 24.37 3.72 28.59 7.5 31.45 5.52 4.16 14.46 4.7 16.5 1.54.95-1.46.22-3.42-.5-5.67-2-6.34-2.16-13.19-4-19.59-2-6.85-2.65-15.74-4-33.51-1.11-14.58-.91-18.34-2-47.95-.59-15.91-1.16-28.59-2-47.44-1.26-28.12-1.44-27.4-1.3-28.08s.59-2.89-.16-3.3c-1.2-.66-4.55 4-6 5.6-10.54 11.4-39.54-6.14-48.49 3.42z" transform="translate(-76.18 -168)"/><path d="M392 272.5c-1.68-1-15.64 14.79-24.49 36.2a18.44 18.44 0 005 3.77 8.57 8.57 0 004.85.8c4.12-.76 6.25-5.92 7.65-9.3.6-1.46.57-1.69 2.32-9 1.6-6.69 1.06-7.93 2.18-13 1.56-7.11 3.07-9.11 2.49-9.47z" transform="translate(-76.18 -168)" fill="#11a6ce"/><path class="cls-12" d="M375 315a28.21 28.21 0 0010-11c6.17-12.67-2.44-22.94 4.5-34.5 1.63-2.72 4.92-5.31 11.5-10.5 10.05-7.93 15.08-11.89 19.5-11 1.6.32 5.75 1.74 14.5 30 5.37 17.34 8.05 26 8.5 34.5.71 13.42-2.15 18.14 2 27 3.77 8 9.32 11 8 15.5-1 3.42-5.34 5-14 8a89 89 0 01-20.5 5c-10.82 1.32-23.74 2.9-26.5-2.5-1.07-2.1.35-3.67 1.5-8.5a41.38 41.38 0 00-1.5-23.5c-4.1-10.67-13.32-16.31-17.5-18.5z" transform="translate(-76.18 -168)"/><path d="M419.26 278.19c-6.36 22.3-16.66 43.68-26.75 55.56" transform="translate(-76.18 -168)" fill="#0e0f0f"/><path class="cls-13" d="M364.5 444.23c.95-.27-.8-6.25.28-14.9.83-6.73 2.2-5.64 3.66-13.33 1.89-9.91 1.35-20.81 1.67-27.06 0-.72.15-2.87.17-5.79 0-1.89 0-4.09-.17-6.54-.69-12.86-1.05-19.29-4.33-22.12-6.11-5.29-20.16 2.51-38.07 12.45-10.49 5.83-19.37 20.63-19.86 23.81 0 .19-.07.31-.07.37-1.64 12.4 34.72 12.22 49.33 37.36 4.24 7.3 6.24 16.07 7.39 15.75z" transform="translate(-76.18 -168)"/><path class="cls-12" d="M352.72 404.61c2-.39 2.38-7 2.83-15.4a40.5 40.5 0 000-4.36c-.27-4.52-.42-6.75-1.67-7.83-2.87-2.47-10.87 2.56-13.73 4.36a28.23 28.23 0 00-7.7 7.19c-.78 1-.86 1.16-.9 1.41-.52 3.67 11.49 4.82 19 13.21.56.63 1.35 1.58 2.17 1.42z" transform="translate(-76.18 -168)"/></svg>82,1.32-23.74,2.9-26.5-2.5-1.07-2.1.35-3.67,1.5-8.5a41.38,41.38,0,0,0-1.5-23.5C388.4,322.83,379.18,317.19,375,315Z" transform="translate(-76.18 -168)"/><path class="cls-18" d="M419.26,278.19c-6.36,22.3-16.66,43.68-26.75,55.56" transform="translate(-76.18 -168)"/><path class="cls-13" d="M364.5,444.23c.95-.27-.8-6.25.28-14.9.83-6.73,2.2-5.64,3.66-13.33,1.89-9.91,1.35-20.81,1.67-27.06,0-.72.15-2.87.17-5.79,0-1.89,0-4.09-.17-6.54-.69-12.86-1.05-19.29-4.33-22.12-6.11-5.29-20.16,2.51-38.07,12.45-10.49,5.83-19.37,20.63-19.86,23.81,0,.19-.07.31-.07.37-1.64,12.4,34.72,12.22,49.33,37.36C361.35,435.78,363.35,444.55,364.5,444.23Z" transform="translate(-76.18 -168)"/><path class="cls-12" d="M352.72,404.61c2-.39,2.38-7,2.83-15.4a40.5,40.5,0,0,0,0-4.36c-.27-4.52-.42-6.75-1.67-7.83-2.87-2.47-10.87,2.56-13.73,4.36a28.23,28.23,0,0,0-7.7,7.19c-.78,1-.86,1.16-.9,1.41-.52,3.67,11.49,4.82,19,13.21C351.11,403.82,351.9,404.77,352.72,404.61Z" transform="translate(-76.18 -168)"/></svg>