<svg xmlns="http://www.w3.org/2000/svg" viewBox="0 0 443.53 516.39"><defs><style>.cls-2{fill:#1b3954}.cls-3{fill:#4077a0}.cls-4{fill:#16ade1}.cls-5{fill:#89b6d7}.cls-6{fill:none;stroke:#000;stroke-miterlimit:10;stroke-width:.5px}.cls-9{fill:#fff}.cls-11{fill:#d8b2ba}.cls-12{fill:#14c3f2}</style></defs><circle cx="222.11" cy="303.96" r="212.43" fill="#cae7ff" id="Layer_1" data-name="Layer 1"/><g id="Layer_2" data-name="Layer 2"><path class="cls-2" d="M148.32 488.73c-20-1.85-30.08.31-38.32 5.77-2.28 1.5-14.37 9.5-15.5 22.5-.2 2.24-.9 10.35 4 15 3.27 3.1 7.46 3.17 7.5 5s-4.21 2.11-9 6c-2 1.65-6.79 5.52-7 11-.22 5.72 4.64 9.81 5.5 10.5 4.83 3.91 10.69 3.53 18 3a23.21 23.21 0 008.5-2c5.61-2.54 7.06-6.06 9-5.5 3.06.89-.13 9.84 4.5 16 5.2 6.92 18.76 8.29 24 3.5 2-1.82 4.62-6.2 7.5-11 2.13-3 6.93-3.08 9.5-1 2.91 2.36 6.2 2.71 9 3a24.23 24.23 0 0014-3c2.68-1.45 4.51-3.13 8.17-6.5 2.58-2.38 4.42-4.38 6.33-6.5 7.32-8.14 11-12.22 12-14.28 4-8 1.64-16.8 1-19.22-6.87-25.78-61-30.64-78.68-32.27zm317.76 3.18c20-1.84 30.08.31 38.32 5.77 2.28 1.51 14.37 9.53 15.5 22.5.2 2.24.9 10.35-4 15-3.27 3.1-7.46 3.17-7.5 5s4.21 2.11 9 6c2 1.65 6.79 5.52 7 11 .22 5.72-4.64 9.81-5.5 10.5-4.83 3.91-10.69 3.53-18 3a23.21 23.21 0 01-8.5-2c-5.61-2.54-7.06-6.06-9-5.5-3.06.89.13 9.84-4.5 16-5.2 6.93-18.75 8.29-24 3.5-2-1.82-4.62-6.2-7.5-11-2.13-3-6.93-3.08-9.5-1-2.91 2.37-6.2 2.71-9 3a24.06 24.06 0 01-14-3c-2.68-1.45-4.51-3.13-8.16-6.5a87.82 87.82 0 01-6.34-6.5c-7.32-8.14-11-12.21-12-14.28-4-8-1.64-16.8-1-19.22 6.87-25.78 60.96-30.64 78.68-32.27z" transform="translate(-85.43 -90.28)"/><path class="cls-3" d="M451.7 391.43a436.53 436.53 0 007.7-70.25c1.89-67.55-12.83-105.92-12.53-117.1 0-.36.06-1.7-.47-1.9-1.89-.71-9 14-11.5 19-39.46 81-50 156.12-50 156.12-5.7 40.79-12.87 92.1.46 96.88 4.99 1.82 20.04-.24 66.34-82.75z" transform="translate(-85.43 -90.28)"/><path class="cls-4" d="M421.81 520.18c32.48-9.45 51-34 65.59-53.5 38.81-51.63 35.64-96.32 41.46-110.27a.88.88 0 000-.73c-1.75-3.15-41 9.84-71.5 31.5-33.89 24.12-49.19 53.56-64.5 83-10.83 20.85-19.8 38.58-12.5 48 8.92 11.47 36.33 3.49 41.45 2z" transform="translate(-85.43 -90.28)"/><path class="cls-5" d="M393.4 478.68c.75-.2 9-2.35 14 2.5 4.28 4.17 3.26 10.69 2.5 15.5-.72 4.57-3.19 12.37-7.26 15.17-.08.06-.84.58-.74.83.35.87 9.36-4.34 14-1.5 3.39 2.07 4.62 8.51 3 13.5-4.16 12.85-27.17 16.15-26.5 18.72.36 1.37 6.56-.58 11 3.28 2.27 2 4.44 5.77 3.34 8.5-2.21 5.47-16.12 3.31-16.84 7-.39 2 3.63 2.81 5.11 7a12.34 12.34 0 01-4.61 13.49c-6.68 4.38-15.85-1.82-16.5-2.28-4.48-3.12-6-7.25-7.5-6.72-1.63.6.5 5.73-2 11-1.76 3.72-6 7.87-10 7.5-7.25-.67-11.08-15.84-12-19.5-.51-2-.79-3.74-.79-3.74-1-6.15-.34-10.71-.71-10.76s.11 7.73-4.5 11.5c-3 2.44-7.93 3.07-11 1-2.7-1.82-3.89-5.69-3.5-13 1.86-34.9 21-55 21-55 19.1-20 43.18-23.28 50.5-23.99z" transform="translate(-85.43 -90.28)"/></g><path class="cls-6" d="M439.47 260c-5.24 51.37-10.71 103.62-30.78 151.2" transform="translate(-85.43 -90.28)" id="Layer_29" data-name="Layer 29"/><path class="cls-6" d="M421.44 393.93a55.64 55.64 0 0120.12-11.22m-28.83-5.29a184.53 184.53 0 01-7.29-24.91M422.57 337l-3.65-24m15.7 46.56a171.54 171.54 0 0117.21-27.69m-22.71-40.4a177 177 0 00-5.63-18.47m18.02 34.5a42.83 42.83 0 016.93-17" transform="translate(-85.43 -90.28)" id="Layer_31" data-name="Layer 31"/><path class="cls-6" d="M497.31 395.41A97.7 97.7 0 01486 414.65c-6.06 8-13.3 15-20.51 22-17.43 16.85-35.52 34.13-58.19 42.74m15.2-2.92a42 42 0 0023-4.52m3.39-10.34q16.78-4.56 33.27-10.14m.71-19.74a89.21 89.21 0 0019.36-12.46m-25.12-.79L474 396m-26.67 51.53q-1.56-10.47-2.39-21M415.5 469.5a231.81 231.81 0 006-23.5" transform="translate(-85.43 -90.28)" id="Layer_30" data-name="Layer 30"/><path class="cls-3" d="M162.7 389.24A438.61 438.61 0 01155 319c-1.89-67.55 12.83-105.93 12.53-117.11 0-.35-.06-1.69.47-1.89 1.89-.71 9 14 11.5 19 39.47 81 50 156.12 50 156.12 5.7 40.79 12.87 92.09-.46 96.88-4.99 1.78-20.04-.24-66.34-82.76z" transform="translate(-85.43 -90.28)" id="Layer_5" data-name="Layer 5"/><g id="Layer_32" data-name="Layer 32"><path d="M198.36 372a122.64 122.64 0 016.7-25.46m-23.83 11.81a66.09 66.09 0 00-17.31-18.24M186.26 321a75.93 75.93 0 018.79-26.44" transform="translate(-85.43 -90.28)" fill="none"/><path class="cls-6" d="M183 355.49A108.72 108.72 0 00164 334m25.2.44a53.46 53.46 0 018.39-19.38m-8.83 82.13A43.16 43.16 0 00174 385.44m33 20.07a87.71 87.71 0 0112-22m-22.37-16.97l9.59-29.63m-21-37.74a85.48 85.48 0 009.48-31.1" transform="translate(-85.43 -90.28)"/></g><path d="M91.67 165.11c5 70.16 13.56 141.58 43.61 205.17" stroke-width=".25" stroke="#000" stroke-miterlimit="10" fill="none" id="Layer_25" data-name="Layer 25"/><path class="cls-4" d="M192.59 518c-32.48-9.45-51-34-65.59-53.5-38.81-51.63-35.63-96.32-41.46-110.27a.92.92 0 010-.73c1.75-3.16 41.05 9.83 71.5 31.5 33.89 24.12 49.2 53.56 64.5 83 10.84 20.85 19.8 38.57 12.5 48-8.92 11.47-36.33 3.49-41.45 2z" transform="translate(-85.43 -90.28)" id="Layer_4" data-name="Layer 4"/><path class="cls-6" d="M103.59 375.94a818.93 818.93 0 0064.14 73.12c11.37 11.48 23.29 22.88 30.77 37.2" transform="translate(-85.43 -90.28)" id="Layer_26" data-name="Layer 26"/><path class="cls-6" d="M127 381.5a58.31 58.31 0 004.52 22.5m26.48-5.5a84.4 84.4 0 003.58 26m27.01 7.01a204.41 204.41 0 00-1.09 28M176 482.47q-15-5.85-30.52-10.45M146 442a107.2 107.2 0 00-23.5-8" transform="translate(-85.43 -90.28)" id="Layer_33" data-name="Layer 33"/><path class="cls-5" d="M221 476.5c-.75-.21-9-2.36-14 2.5-4.28 4.17-3.26 10.69-2.5 15.5.72 4.57 3.19 12.37 7.26 15.17.08.05.84.57.74.83-.35.86-9.35-4.34-14-1.5-3.38 2.07-4.62 8.51-3 13.5 4.16 12.84 27.17 16.15 26.5 18.72-.35 1.37-6.55-.59-11 3.28-2.26 2-4.43 5.76-3.33 8.5 2.2 5.47 16.11 3.31 16.83 7 .39 2-3.63 2.8-5.11 7a12.34 12.34 0 004.61 13.5c6.68 4.38 15.85-1.82 16.5-2.28 4.48-3.12 6-7.26 7.5-6.72 1.64.6-.49 5.73 2 11 1.76 3.72 6 7.87 10 7.5 7.25-.67 11.08-15.85 12-19.5.51-2 .79-3.74.79-3.74 1-6.15.34-10.71.71-10.76s-.1 7.73 4.5 11.5c3 2.43 7.93 3.07 11 1 2.7-1.82 3.89-5.7 3.5-13-1.86-34.9-21-55-21-55-19.05-20.01-43.18-23.29-50.5-24z" transform="translate(-85.43 -90.28)" id="Layer_3" data-name="Layer 3"/><path class="cls-9" d="M256 264.5c10.19-4.47 24.65 6.13 31.5 14.5 12.34 15.07 11.28 36.67 1.75 51.56-7 10.92-22.29 24.1-32.85 20-20.02-7.83-21.04-77-.4-86.06z" transform="translate(-85.43 -90.28)" id="Layer_15" data-name="Layer 15"/><path class="cls-9" d="M334 229c1.14-.84 3.1-.06 4.5.5 4.53 1.82 4.93 5 10 8.5 2.35 1.63 4.28 3 6.5 2.5 2.06-.44 3.41-2.23 5.5-5 .22-.3 2.84-3.76 3-4.92v-.08c.39-.17 3.59 6 5 9a65.21 65.21 0 015 16c4.16 21.87 6.53 50.53 10 73.5 3.68 24.33 7 31.56 2 36-6.73 6-23.28 2.12-31.5-7.5-5.66-6.61-4.92-13.06-6-30-1.81-28.36-4.13-64.63-12-85-.95-2.5-4.63-11.5-2-13.5z" transform="translate(-85.43 -90.28)" id="Layer_17" data-name="Layer 17"/><path d="M336 228.5c-.27 1.1 1.66 2.17 6.5 5.5 9 6.2 10.14 7.84 13 7.5 3.87-.46 6.18-4 6.5-4.5 1.11-1.76 1.11-4.07 1.09-8.7a.39.39 0 00-.09-.3c-.59-.54-3.1 2.58-6.5 3.5-2.86.77-5.51-.24-7.5-1-3.74-1.43-4-3-7-3.5-2.55-.41-5.68.23-6 1.5z" transform="translate(-85.43 -90.28)" fill="#070707" id="Layer_18" data-name="Layer 18"/><path class="cls-2" d="M355 242c.19.85 1.06 1.21 1.92 3.23a13.13 13.13 0 01.58 1.77 14.2 14.2 0 010 6c-.87 4.09-.52 8.35-1 12.5-.71 6.13-.26 10.93.5 19 1.32 14.07 3.44 13.75 5.09 26.5.11.88.37 3 .91 3 1.15.08 2.64-9.25 3-11.5 3.06-19.13 2.53-41.82-1.5-51a24.41 24.41 0 01-2.44-7.76c-.53-4.34.56-6.57-.56-7.24-1.78-1.06-7.03 3.11-6.5 5.5z" transform="translate(-85.43 -90.28)" id="Layer_19" data-name="Layer 19"/><path class="cls-11" d="M337 197c-.25 6.46 3.22 12.52 3.5 13 2 3.35 3.57 4.19 3.5 6.5-.13 4.36-6 6-5.5 9 .33 2.09 3.38 3.19 7 4.5 2.38.86 3.77 1.31 13.5 2.5a16.3 16.3 0 001-6c-.13-4.59-2.26-6.56-1-8.75s5-3.24 5-3.25a10.78 10.78 0 004.5-3.5 11.23 11.23 0 002-5.5c.71-5.27-2.82-6.82-2.5-11.5a4.42 4.42 0 00-.75-3.25 4.57 4.57 0 00-1.63-1c-2.4-1.45.74-7.82-1.12-10.63-2.21-3.33-12-2.38-18.62 2.26A20.71 20.71 0 00337 197zm64.83-75.17c-4.41-2.47-4.1-9.91-3.66-20.33.21-5.12.48-10.59 2.66-11.17 1.93-.5 4.46 3 5.5 4.5 1.93 2.7 2.71 5.35 4.17 10.34a42.4 42.4 0 011.17 4.5c.8 4.4 1.51 8.27-.5 10.66s-6.43 3.14-9.34 1.5z" transform="translate(-85.43 -90.28)" id="Layer_22" data-name="Layer 22"/><path class="cls-12" d="M366.5 230c1.62-2.12 5.39-.45 9.88-1.5 3.1-.73 6.26-2.7 12.12-11 6.16-8.73 10.73-15.21 13.5-25.5 3.87-14.38-1.67-14.33 1.5-36.5 1.41-9.87 3.18-14.57 1-22-1.59-5.4-4.22-8.71-2.5-11.5 0 0 1.1-1.79 13-4 1.16 2.67 2.59 6.23 4 10.5a128.83 128.83 0 015 21.5 140.31 140.31 0 011 30.5c-.67 9-1.86 23.42-9 40.5-7 16.8-10.53 25.2-18.38 29.62-3.75 2.12-11.14 5-12.12 10.88-.19 1.16 0 2.61.5 5.5 1.06 6.64 2.24 7.3 3 12 .91 5.66-.57 6.16.5 13 .51 3.28.83 3 1.5 7a90.49 90.49 0 011 11.5c.49 10.13.21 9.23.5 12 .59 5.64 1.37 5.6 3 14 1.06 5.45.78 5.7 2.5 16.5 1 6.53 1.56 9.79 1.76 10.21a1.6 1.6 0 01.24 1.29c-1 2.24-13.5 1.84-16-4.5-1.07-2.7.13-5.61.5-6.5 2.63-6.32 1.68-15.66-6.5-60.5-6.6-36.22-9.91-54.32-10-54.5-.57-1.06-3.36-6.07-1.5-8.5z" transform="translate(-85.43 -90.28)" id="Layer_20" data-name="Layer 20"/><path class="cls-2" d="M321.5 195.5c1.37 6.73 7.27 11.28 9.5 13 4.87 3.76 12.5 7 12.5 7s3.74-3.68 3-5.5c-.51-1.25-2.64-.41-5-2s-3.83-4.63-3-6.5c1-2.21 5.5-3 5.5-3 4.05 3.21 4.5 3 4.5 3 1.09-.51.37-4.42-.5-9-1.14-6-2.07-8-1-9s3 .63 7 .5a16.09 16.09 0 008.5-3 19.53 19.53 0 006.5-8 24.73 24.73 0 002.5-8.5c.3-2.38.75-5.94-.5-6.5s-2.63 3-7 5-6.8.24-9 2.5-.64 5-2.5 6.5c-2.58 2.14-6.91-2-12-2-9.43-.06-21.36 13.9-19 25.5z" transform="translate(-85.43 -90.28)" id="Layer_21" data-name="Layer 21"/><path class="cls-12" d="M322 254c-.52 0 .06 8.27-3 19-1.82 6.38-5.29 14.86-7 14.5-1.47-.31-.42-6.87 0-25.5.35-15.49-.22-18.35 2.5-22.5 4.61-7 14.54-11.5 19.5-8.5 2 1.21 2.75 3.36 4 8.5 2.35 9.67 3.52 14.51 4 22 .56 8.74 1.87 15.66 4.5 29.5 3 16 5.18 19.78 6.5 33 1.26 12.66 1.81 19.06-2 22-6.14 4.74-20.94-.65-25.5-10a17.79 17.79 0 01-1.5-9s.21-5.78 0-48c-.07-14.82-1.42-25-2-25z" transform="translate(-85.43 -90.28)" id="Layer_16" data-name="Layer 16"/><path class="cls-2" d="M296.5 281c5.9-1.4 13.67 12.74 15.5 16 1.4 2.49 15.44 27.41 5.08 37.76-6.26 6.26-20.26 5.93-26.08-.76-1.79-2.06-3.11-5.07-2-20 1.45-19.46 2.36-31.78 7.5-33z" transform="translate(-85.43 -90.28)" id="Layer_14" data-name="Layer 14"/><path class="cls-12" d="M199.69 196.87v37.44h6.78v-41.05h-6.78v3.61z" id="Layer_13" data-name="Layer 13"/><path class="cls-2" d="M263 208c-1.93-1.8-7.37-6.88-6-12 .89-3.32 4.47-6 8-6.5 5.49-.75 7.38 4.34 15.5 5 4 .32 3.88-.88 7.5-.5 8.95.95 14.56 8.85 15 9.5 0 0 2.18 3.6 3.5 17.5 2.28 4.57 2.38 4.77 2.5 5 2.77 5.36 4 5.47 5 8 2.64 6.52-3.55 10.39-1 17.5.83 2.31 1.39 1.64 4.5 6.5 2.82 4.41 5.28 8.25 6 12.5 1.1 6.46-1.78 14.1-7.5 19a22.06 22.06 0 01-36-13c-1.19-7.86 4-9.45 5.5-21.5 1.09-8.87-.76-15.9-2.5-22.5-2.43-9.22-3.65-13.84-8-17.5s-7.08-2.4-12-7z" transform="translate(-85.43 -90.28)" id="Layer_10" data-name="Layer 10"/><path class="cls-11" d="M260.71 267a36 36 0 004.79 16c1.86 3.17 4.58 7.8 7.5 7.5 4.32-.45 6.48-11.38 7-14 1.69-8.52 9.16-21.6 10.5-28.5 0 0 .1-.52.5-9.5l4.5-3c2.08-3.75.76-8.05-2-9.5s-6.42.25-8 2.3c-1.1 1.39-1.08 2.72-1.47 2.7-.8-.05-2-5.6-1-11.5 1.19-7.14 4.84-10.49 3.5-12-1-1.09-2.85.71-9.5 1.5-4.11.49-11 .71-13.31-.81a.94.94 0 00-.72-.19c-1.1.25-.78 3.63-1.5 6.5-.88 3.47-2.74 4-4.5 7-4.17 7.11-.81 16.28 0 18.5 1.24 3.38 2.25 6.13 5 8 3.73 2.53 7.85 1.52 8.5 3.5.43 1.32-1.09 2.72-3 5a52.66 52.66 0 00-6.79 10.5z" transform="translate(-85.43 -90.28)" id="Layer_9" data-name="Layer 9"/><path class="cls-2" d="M253 263.5c-2.14-2.88-7.64-3-11.5-1.5-2.09.8-5.56 2.78-9.5 11-3.42 7.13-4.39 13.1-5.5 20.5-2.53 16.84-3.9 30.68-2.56 56.07.35 6.65 1.24 10 3.35 12.13 2.92 3 8.21 4.71 11.21 2.8 3.74-2.38 2.43-9.42 1.5-20.5-1.68-19.87-.66-35-.5-35s6.08 49.25 2.5 60c-.22.66-1.19 3.34 0 4.48 1.38 1.36 5.15-.14 6.85-1.1 8.49-4.79 8.68-20.43 8.69-26.88 0-9.56-1.62-10.46-3.5-24.5-3.38-25.25-5.07-37.87-1.5-48 .74-2.21 2.54-6.7.46-9.5z" transform="translate(-85.43 -90.28)" id="Layer_11" data-name="Layer 11"/><path class="cls-12" d="M252 263.5a5 5 0 014 1c1.64 1.62 1 4.69.77 5.76-1.2 6.13.62 12.5.23 18.74-.32 5.07 0 11.86.57 25.43.95 21.95 1.43 32.93 2.43 36.57.55 2 1.93 6.63.5 7.5s-5.31-2.83-6.5-4c-8.87-8.72-5.29-58.6-2-91z" transform="translate(-85.43 -90.28)" id="Layer_12" data-name="Layer 12"/><g id="Layer_8" data-name="Layer 8"><path class="cls-4" d="M306.22 300.62v264.26s-86-41.89-91.08-120.13l-5-78.23s46.74-10.5 71.43-38.2z" transform="translate(-85.43 -90.28)"/><path class="cls-4" d="M305.78 300.62v264.26s86-41.89 91.08-120.13l5-78.23s-46.74-10.5-71.43-38.2z" transform="translate(-85.43 -90.28)"/></g><path class="cls-2" d="M306 322.39v223.4s-72.74-35.42-77-101.56l-4.26-66.13s39.51-8.88 60.38-32.3z" transform="translate(-85.43 -90.28)" id="Layer_6" data-name="Layer 6"/><path class="cls-12" d="M306.69 323.1v222.69s72.5-35.3 76.75-101.23l4.25-65.92s-39.39-8.86-60.2-32.2z" transform="translate(-85.43 -90.28)" id="Layer_7" data-name="Layer 7"/></svg>