<?xml version="1.0" standalone="no"?>
<!DOCTYPE svg PUBLIC "-//W3C//DTD SVG 20010904//EN"
 "http://www.w3.org/TR/2001/REC-SVG-20010904/DTD/svg10.dtd">
<svg version="1.0" xmlns="http://www.w3.org/2000/svg"
 width="400.000000pt" height="400.000000pt" viewBox="0 0 400.000000 400.000000"
 preserveAspectRatio="xMidYMid meet">
<metadata>
Created by potrace 1.11, written by Peter Selinger 2001-2013
</metadata>
<g transform="translate(0.000000,400.000000) scale(0.100000,-0.100000)"
fill="#000000" stroke="none">
<path d="M3079 2868 c0 -2 -2 -14 -4 -28 -19 -144 -37 -270 -40 -290 -2 -14
-7 -43 -10 -65 -4 -22 -8 -51 -10 -65 -3 -14 -7 -43 -10 -65 -22 -143 -44
-267 -50 -273 -3 -3 -5 48 -6 114 -1 65 -2 160 -4 209 -2 50 -6 171 -9 269 -3
99 -7 180 -8 182 -2 1 -34 -3 -73 -9 l-70 -12 2 -460 c2 -253 3 -551 3 -662
l0 -203 54 0 c97 0 99 2 130 142 15 67 30 134 32 146 3 13 21 101 40 195 20
95 36 182 36 195 0 12 5 25 10 28 7 4 9 -112 6 -333 l-4 -339 65 17 c36 10 69
19 73 19 4 0 6 289 5 643 l-2 642 -77 3 c-43 2 -78 2 -79 0z"/>
<path d="M3403 2766 c-1 -114 -13 -576 -17 -631 -2 -27 -7 -95 -10 -150 -12
-190 -17 -219 -38 -236 -15 -12 -21 -30 -23 -67 -1 -27 1 -55 4 -61 4 -6 39 6
93 32 90 43 92 45 102 118 19 135 35 264 42 347 2 26 6 70 8 97 3 28 8 95 11
150 10 148 13 186 18 192 3 2 17 -3 31 -12 24 -16 26 -23 27 -94 3 -152 2
-438 -2 -533 -1 -54 -1 -100 2 -103 7 -6 105 96 137 141 21 31 21 37 20 355
-2 304 -3 324 -21 338 -11 9 -24 21 -31 26 -36 34 -188 115 -261 140 -93 32
-92 32 -92 -49z"/>
<path d="M2632 2798 l-64 -19 7 -310 6 -309 -30 0 c-31 0 -31 1 -32 53 -1 28
-2 99 -4 157 -2 58 -4 167 -4 243 l-1 138 -22 -7 c-13 -4 -46 -18 -74 -31
l-51 -24 3 -282 c2 -269 4 -284 25 -323 l22 -41 -22 -29 c-20 -28 -22 -42 -24
-257 -2 -126 0 -230 5 -233 4 -3 37 -7 73 -10 58 -5 65 -3 66 13 0 10 2 99 4
198 2 99 3 192 4 206 1 22 6 26 29 25 l27 -1 0 -222 c-1 -253 -12 -224 90
-227 l50 -1 2 90 c8 403 8 399 -15 437 l-22 36 22 37 c19 34 21 50 20 169 -4
292 -13 531 -20 537 -4 3 -36 -3 -70 -13z"/>
<path d="M2250 2636 c-28 -15 -191 -70 -257 -86 l-43 -11 0 -382 c-1 -210 -1
-425 -2 -477 l-1 -95 72 -10 71 -11 0 181 0 182 30 1 30 1 2 -187 3 -186 64
-13 c35 -7 67 -11 70 -7 6 6 9 1056 3 1092 -5 25 -8 26 -42 8z m-100 -346 c0
-106 -4 -170 -10 -171 -47 -6 -45 -14 -48 156 -1 87 0 165 2 172 3 7 17 13 31
13 l25 0 0 -170z"/>
<path d="M642 2622 c-10 -7 -14 -111 -19 -500 l-6 -490 59 -8 c33 -4 104 -8
159 -8 l100 -1 0 53 c0 30 -2 55 -5 57 -3 2 -26 6 -50 9 -25 4 -57 9 -72 12
l-28 6 0 133 0 134 53 -5 c28 -3 60 -7 70 -9 15 -3 17 7 17 91 l0 94 -42 1
c-24 1 -47 2 -53 4 -5 1 -18 3 -27 3 -16 2 -17 15 -15 140 l3 137 77 -2 c67
-2 77 0 78 15 0 9 1 36 3 60 2 53 -2 59 -39 66 -59 11 -250 17 -263 8z"/>
<path d="M424 2581 c-82 -28 -213 -94 -226 -115 -4 -6 -8 -151 -8 -323 l0
-311 39 -34 c22 -18 64 -48 95 -66 70 -43 205 -89 215 -74 3 6 6 118 6 250 -1
267 -3 274 -69 306 -20 9 -58 19 -84 22 -26 3 -52 7 -57 8 -8 3 -13 131 -6
167 0 4 44 15 96 25 l95 18 0 72 c0 40 -3 75 -7 77 -5 3 -44 -7 -89 -22z m-30
-598 c-1 -76 -2 -141 -3 -145 -1 -9 -53 13 -63 27 -4 5 -7 65 -7 133 l1 122
37 0 36 0 -1 -137z"/>
<path d="M1019 2588 c0 -2 -2 -60 -4 -131 -3 -117 -2 -128 16 -137 10 -6 19
-9 19 -6 0 2 25 -2 55 -9 30 -7 55 -10 56 -6 1 3 2 40 3 81 1 41 6 75 11 74 6
0 22 -4 37 -8 l27 -8 -3 -138 c-2 -77 -7 -143 -10 -148 -3 -5 -30 -5 -63 -1
-33 5 -60 4 -63 -1 -3 -5 -5 -42 -5 -82 l1 -73 54 -1 c30 -1 61 -2 68 -3 9 -1
12 -36 12 -141 l0 -139 -32 -9 c-31 -8 -33 -7 -38 22 -3 17 -4 53 -3 79 l3 48
-77 -3 -76 -3 1 -110 c0 -60 1 -114 1 -119 1 -4 60 -6 131 -3 115 4 133 7 148
25 80 94 79 91 80 242 1 133 0 135 -25 157 l-25 22 26 31 c25 31 26 35 26 169
0 135 0 138 -29 182 -44 65 -81 96 -131 107 -25 6 -72 17 -105 26 -58 15 -84
19 -86 14z"/>
<path d="M3885 2326 c0 -129 3 -237 6 -241 11 -11 69 68 89 123 25 66 21 168
-8 235 -21 47 -69 117 -81 117 -3 0 -6 -105 -6 -234z"/>
<path d="M1735 2509 c-33 -3 -93 -5 -133 -5 l-72 1 0 -442 c0 -347 3 -443 13
-444 6 -1 37 -2 67 -4 30 -1 93 -6 140 -10 47 -4 96 -8 110 -8 l25 -2 0 239
c0 209 -2 242 -17 267 -22 35 -84 68 -140 73 l-43 4 -1 83 c0 46 2 90 4 97 2
6 18 12 36 12 17 0 55 3 84 6 l52 7 0 69 0 69 -32 -3 c-18 -2 -60 -5 -93 -9z
m-3 -511 c3 -11 3 -221 -1 -279 -1 -11 -8 -15 -24 -12 -23 5 -23 7 -25 136 0
73 2 140 4 150 6 20 40 23 46 5z"/>
<path d="M69 2333 c-48 -69 -72 -140 -65 -191 6 -45 53 -150 86 -192 l20 -25
0 228 c0 125 -2 227 -5 227 -2 0 -18 -21 -36 -47z"/>
<path d="M3733 1655 c-10 -11 -3 -22 35 -59 26 -25 53 -46 60 -46 13 0 17 26
4 32 -4 2 -22 22 -40 46 -37 46 -41 48 -59 27z"/>
<path d="M3638 1579 c-16 -11 -28 -28 -27 -37 0 -10 22 -46 48 -82 53 -72 70
-77 109 -34 l22 26 -37 51 c-20 29 -44 62 -53 74 -19 28 -28 28 -62 2z m79
-96 c21 -25 30 -53 19 -53 -8 0 -86 113 -86 124 1 10 17 -7 67 -71z"/>
<path d="M3841 1536 c-9 -10 -8 -16 4 -26 19 -16 41 1 32 24 -8 20 -21 20 -36
2z"/>
<path d="M3530 1505 c-10 -12 -9 -20 4 -40 17 -26 21 -45 8 -45 -5 0 -16 16
-25 35 -18 37 -34 45 -43 21 -5 -13 75 -176 86 -176 3 0 11 4 19 9 12 8 11 15
-7 45 -14 24 -17 36 -9 36 7 0 21 -16 31 -35 18 -32 21 -34 35 -20 14 13 14
18 2 38 -8 12 -27 48 -43 79 -32 65 -41 73 -58 53z"/>
<path d="M1334 1439 c-4 -7 -9 -33 -11 -58 -2 -25 -5 -58 -7 -73 -1 -15 -5
-31 -9 -34 -12 -13 -8 -34 7 -34 35 0 44 26 49 148 1 12 4 22 9 22 4 0 8 -35
10 -77 2 -63 6 -78 20 -81 21 -4 24 11 20 114 l-3 84 -39 0 c-21 0 -42 -5 -46
-11z"/>
<path d="M1489 1433 c-1 -10 -2 -55 -3 -100 l-1 -83 36 0 c19 0 39 3 42 7 10
10 -13 32 -27 27 -8 -3 -12 3 -11 18 1 13 9 24 18 26 16 3 25 43 10 41 -23 -4
-30 3 -26 26 3 13 8 24 12 23 20 -2 30 4 25 17 -9 22 -74 20 -75 -2z"/>
<path d="M1637 1443 c-4 -3 -7 -31 -7 -60 0 -50 2 -55 28 -66 22 -9 28 -18 27
-40 -2 -27 18 -47 32 -34 3 3 7 47 10 98 3 67 1 94 -8 100 -21 13 -29 0 -29
-46 0 -24 -4 -47 -10 -50 -6 -4 -10 15 -10 49 0 40 -4 56 -13 56 -8 0 -17 -3
-20 -7z"/>
<path d="M3363 1434 c-34 -14 -37 -40 -6 -46 10 -2 25 -30 39 -68 17 -49 27
-66 43 -68 27 -4 26 -2 -6 86 -21 58 -24 75 -13 82 14 9 5 30 -13 29 -7 0 -26
-7 -44 -15z"/>
<path d="M1805 1430 c-3 -5 -8 -43 -10 -86 -3 -42 -8 -80 -11 -85 -2 -4 5 -13
16 -19 17 -9 23 -6 40 22 10 18 22 45 25 60 4 16 11 26 16 22 5 -3 7 -8 5 -12
-2 -4 -7 -28 -10 -53 -5 -41 -4 -47 13 -52 20 -5 30 18 29 63 0 8 3 42 6 75 6
59 5 61 -18 63 -20 1 -27 -6 -43 -43 -10 -25 -21 -45 -25 -45 -6 0 -2 51 7 77
4 13 -33 25 -40 13z"/>
<path d="M2005 1403 c-8 -8 -15 -31 -15 -51 -1 -20 -5 -56 -9 -80 -7 -37 -6
-44 11 -53 10 -6 33 -9 51 -7 28 3 32 7 35 41 3 32 1 37 -17 37 -16 0 -21 -6
-21 -25 0 -14 -5 -25 -11 -25 -13 0 -3 117 12 140 8 11 9 7 6 -17 -2 -24 1
-33 15 -36 21 -6 30 5 33 44 2 18 -3 30 -14 35 -32 13 -62 12 -76 -3z"/>
<path d="M3202 1384 c-16 -12 -16 -16 1 -86 10 -40 21 -81 23 -90 6 -21 44
-24 44 -4 0 8 -5 27 -10 41 -8 20 -7 26 2 23 7 -3 16 -19 20 -36 9 -33 15 -37
35 -24 8 5 8 21 -3 62 -9 30 -17 63 -19 73 -11 49 -16 56 -46 55 -16 -1 -37
-7 -47 -14z m48 -26 c0 -7 3 -24 6 -38 5 -19 4 -22 -5 -14 -16 14 -24 64 -11
64 5 0 10 -6 10 -12z"/>
<path d="M2160 1363 c-1 -15 -7 -57 -15 -93 -7 -36 -12 -67 -10 -69 2 -2 22
-7 45 -11 44 -8 51 -3 59 40 11 61 6 85 -17 95 -16 7 -22 17 -20 35 2 19 -2
26 -19 28 -19 3 -23 -1 -23 -25z m46 -85 c-3 -13 -6 -33 -6 -46 0 -13 -4 -20
-10 -17 -5 3 -8 16 -6 28 3 12 5 30 5 40 1 9 6 17 12 17 7 0 9 -9 5 -22z"/>
<path d="M3077 1363 l-38 -4 5 -90 c2 -49 1 -89 -3 -89 -4 0 -8 -7 -8 -15 0
-8 8 -15 17 -15 33 0 41 24 36 106 -6 85 7 84 18 -1 12 -85 16 -93 37 -88 13
4 17 12 14 27 -2 11 -7 39 -10 61 -13 90 -18 115 -24 113 -3 -1 -23 -3 -44 -5z"/>
<path d="M2399 1343 c0 -4 -2 -17 -4 -28 -3 -11 -7 -53 -11 -92 l-7 -73 47 0
c50 0 52 2 59 62 5 39 -6 58 -35 58 -18 0 -23 17 -10 35 4 6 16 10 27 10 11 0
21 7 23 16 2 12 -8 16 -43 18 -25 1 -45 -2 -46 -6z m43 -133 c-5 -38 -22 -40
-18 -2 4 33 4 32 14 32 5 0 7 -13 4 -30z"/>
<path d="M2552 1263 c-1 -43 -4 -88 -7 -100 -3 -18 1 -23 18 -24 12 -1 29 -2
37 -3 15 -1 30 12 30 27 0 4 -9 7 -20 7 -14 0 -20 7 -20 24 0 15 7 26 20 29
11 3 20 10 20 15 0 5 -9 12 -20 15 -11 3 -20 13 -20 22 0 9 9 19 20 22 19 5
22 11 19 31 -1 4 -18 8 -38 10 l-36 3 -3 -78z"/>
<path d="M2705 1326 c-11 -8 -14 -30 -12 -93 1 -46 7 -87 14 -94 6 -6 25 -9
44 -7 28 3 34 8 40 35 3 17 3 37 -1 44 -10 15 -42 4 -39 -13 3 -23 -1 -38 -8
-38 -5 0 -8 34 -9 75 -1 41 3 75 7 75 5 0 9 -13 9 -30 0 -23 4 -30 20 -30 17
0 20 7 20 40 0 25 -5 40 -12 41 -7 1 -23 3 -35 4 -13 1 -30 -3 -38 -9z"/>
<path d="M2853 1324 c-3 -7 -2 -30 1 -51 3 -21 5 -59 6 -84 0 -38 4 -48 20
-52 14 -4 20 0 21 11 1 18 -2 95 -4 127 -1 11 2 22 8 25 9 5 12 -16 14 -113 1
-44 3 -48 24 -45 12 2 21 9 19 16 -2 10 -5 59 -12 175 0 13 -92 4 -97 -9z"/>
</g>
</svg>
