<svg id="enter" xmlns="http://www.w3.org/2000/svg" width="29.602" height="29.602" viewBox="0 0 29.602 29.602">
  <path id="Path_29" data-name="Path 29" d="M12.642,209.85H.925a.925.925,0,0,1,0-1.85H12.642a.925.925,0,0,1,0,1.85Zm0,0" transform="translate(0 -195.974)" fill="#FFFFFF"/>
  <path id="Path_30" data-name="Path 30" d="M123.6,139.086a.926.926,0,0,1-.654-1.58l3.972-3.971-3.972-3.97a.925.925,0,1,1,1.309-1.309l4.625,4.625a.926.926,0,0,1,0,1.309l-4.625,4.625A.924.924,0,0,1,123.6,139.086Zm0,0" transform="translate(-115.58 -120.585)" fill="#FFFFFF"/>
  <path id="Path_31" data-name="Path 31" d="M301.135,29.68a2.469,2.469,0,0,1-2.467-2.467V5.012a2.483,2.483,0,0,1,1.67-2.342L307.748.2A2.493,2.493,0,0,1,311,2.545v22.2a2.483,2.483,0,0,1-1.669,2.341l-7.413,2.472A2.581,2.581,0,0,1,301.135,29.68Zm7.4-27.751a.726.726,0,0,0-.221.032l-7.379,2.461a.636.636,0,0,0-.417.591v22.2a.65.65,0,0,0,.837.585l7.379-2.461a.638.638,0,0,0,.417-.591V2.545A.618.618,0,0,0,308.535,1.928Zm0,0" transform="translate(-281.4 -0.078)" fill="#FFFFFF"/>
  <path id="Path_32" data-name="Path 32" d="M171.593,6.167a.925.925,0,0,1-.925-.925V3.392A3.4,3.4,0,0,1,174.06,0h13.876a.925.925,0,0,1,0,1.85H174.06a1.544,1.544,0,0,0-1.542,1.542v1.85A.925.925,0,0,1,171.593,6.167Zm0,0" transform="translate(-160.801)" fill="#FFFFFF"/>
  <path id="Path_33" data-name="Path 33" d="M178.993,347.5H174.06a3.4,3.4,0,0,1-3.392-3.392v-1.85a.925.925,0,0,1,1.85,0v1.85a1.544,1.544,0,0,0,1.542,1.542h4.934a.925.925,0,1,1,0,1.85Zm0,0" transform="translate(-160.801 -321.598)" fill="#FFFFFF"/>
</svg>
