<svg version="1.1" id="Capa_1" xmlns="http://www.w3.org/2000/svg" xmlns:xlink="http://www.w3.org/1999/xlink" x="0" y="0" width="95.939" height="95.939" viewBox="0 0 95.939 95.939" xml:space="preserve"><path d="M62.819 47.97l32.533-32.534a2 2 0 000-2.828L83.333.586a2.002 2.002 0 00-2.828 0L47.97 33.121 15.435.586c-.75-.75-2.078-.75-2.828 0L.587 12.608a2 2 0 000 2.828L33.121 47.97.587 80.504a2 2 0 000 2.828l12.02 12.021a2 2 0 002.828 0L47.97 62.818l32.535 32.535a2 2 0 002.828 0l12.02-12.021a2 2 0 000-2.828L62.819 47.97z"/></svg>.97l32.533-32.534c0.781-0.781,0.781-2.047,0-2.828L83.333,0.586C82.958,0.211,82.448,0,81.919,0
		c-0.53,0-1.039,0.211-1.414,0.586L47.97,33.121L15.435,0.586c-0.75-0.75-2.078-0.75-2.828,0L0.587,12.608
		c-0.781,0.781-0.781,2.047,0,2.828L33.121,47.97L0.587,80.504c-0.781,0.781-0.781,2.047,0,2.828l12.02,12.021
		c0.375,0.375,0.884,0.586,1.414,0.586c0.53,0,1.039-0.211,1.414-0.586L47.97,62.818l32.535,32.535
		c0.375,0.375,0.884,0.586,1.414,0.586c0.529,0,1.039-0.211,1.414-0.586l12.02-12.021c0.781-0.781,0.781-2.048,0-2.828L62.819,47.97
		z"/>
</g>
<g>
</g>
<g>
</g>
<g>
</g>
<g>
</g>
<g>
</g>
<g>
</g>
<g>
</g>
<g>
</g>
<g>
</g>
<g>
</g>
<g>
</g>
<g>
</g>
<g>
</g>
<g>
</g>
<g>
</g>
</svg>
