<svg fill="#f31d1d" version="1.1" id="Layer_1" xmlns="http://www.w3.org/2000/svg" xmlns:xlink="http://www.w3.org/1999/xlink" x="0" y="0" viewBox="0 0 512 512" xml:space="preserve"><path d="M21.333 21.333h213.333v96c0 5.891 4.776 10.667 10.667 10.667h96v74.667h21.333v-85.333a10.349 10.349 0 00-.576-2.859 11.1 11.1 0 00-.245-1.184 10.672 10.672 0 00-2.443-3.584L252.875 3.125A10.747 10.747 0 00245.333 0H10.667C4.776 0 0 4.776 0 10.667v448c0 5.891 4.776 10.667 10.667 10.667H224V448H21.333V21.333zM256 36.427l70.219 70.24H256v-70.24z"/><path d="M373.333 234.667c-76.583 0-138.667 62.083-138.667 138.667S296.75 512 373.333 512 512 449.917 512 373.333c-.082-76.549-62.117-138.584-138.667-138.666zm0 256C308.532 490.667 256 438.135 256 373.333S308.532 256 373.333 256s117.333 52.532 117.333 117.333c-.07 64.773-52.56 117.263-117.333 117.334z"/><path d="M438.453 308.213c-4.165-4.164-10.917-4.164-15.083 0l-50.037 50.037-50.059-50.048c-4.237-4.093-10.99-3.976-15.083.261-3.993 4.134-3.993 10.688 0 14.821l50.037 50.048-50.059 50.037c-4.237 4.093-4.354 10.846-.261 15.083s10.846 4.354 15.083.261c.089-.086.176-.173.261-.261l50.08-50.037 50.059 50.048c4.237 4.093 10.99 3.976 15.083-.261 3.993-4.134 3.993-10.688 0-14.821l-50.069-50.048 50.059-50.037c4.161-4.168 4.156-10.92-.011-15.083z"/></svg>.134-3.993,10.688,0,14.821l50.037,50.048l-50.059,50.037
				c-4.237,4.093-4.354,10.846-0.261,15.083s10.846,4.354,15.083,0.261c0.089-0.086,0.176-0.173,0.261-0.261l50.08-50.037
				l50.059,50.048c4.237,4.093,10.99,3.976,15.083-0.261c3.993-4.134,3.993-10.688,0-14.821l-50.069-50.048l50.059-50.037
				C442.625,319.128,442.62,312.376,438.453,308.213z"/>
		</g>
	</g>
</g>
<g>
</g>
<g>
</g>
<g>
</g>
<g>
</g>
<g>
</g>
<g>
</g>
<g>
</g>
<g>
</g>
<g>
</g>
<g>
</g>
<g>
</g>
<g>
</g>
<g>
</g>
<g>
</g>
<g>
</g>
</svg>
