<svg xmlns="http://www.w3.org/2000/svg" width="29.751" height="29.602" viewBox="0 0 29.751 29.602">
  <g id="edit" transform="translate(0 -0.261)">
    <path id="Path_39" data-name="Path 39" d="M27.459,54.865a.741.741,0,0,0-.741.741v6.579A2.225,2.225,0,0,1,24.5,64.408H3.7a2.225,2.225,0,0,1-2.223-2.223V42.877A2.225,2.225,0,0,1,3.7,40.654h6.579a.741.741,0,1,0,0-1.482H3.7a3.709,3.709,0,0,0-3.7,3.7V62.186a3.709,3.709,0,0,0,3.7,3.7H24.5a3.709,3.709,0,0,0,3.7-3.7V55.606A.741.741,0,0,0,27.459,54.865Zm0,0" transform="translate(0 -36.028)" fill="#196b9c"/>
    <path id="Path_40" data-name="Path 40" d="M128.08,1.237a3.334,3.334,0,0,0-4.715,0L110.145,14.456a.741.741,0,0,0-.19.326l-1.738,6.276a.741.741,0,0,0,.912.912l6.276-1.739a.741.741,0,0,0,.326-.19L128.949,6.822a3.338,3.338,0,0,0,0-4.715Zm-16.32,13.7L122.579,4.119l3.489,3.489L115.249,18.427Zm-.7,1.4,2.788,2.788-3.856,1.068ZM127.9,5.775l-.786.786-3.489-3.489.786-.786a1.852,1.852,0,0,1,2.619,0l.87.869A1.855,1.855,0,0,1,127.9,5.775Zm0,0" transform="translate(-100.173)" fill="#196b9c"/>
  </g>
</svg>
