<svg xmlns="http://www.w3.org/2000/svg" width="29.751" height="29.602" viewBox="0 0 29.751 29.602"><g id="edit" transform="translate(0 -.261)" fill="#196b9c"><path id="Path_39" data-name="Path 39" d="M27.459 54.865a.741.741 0 00-.741.741v6.579a2.225 2.225 0 01-2.218 2.223H3.7a2.225 2.225 0 01-2.223-2.223V42.877A2.225 2.225 0 013.7 40.654h6.579a.741.741 0 100-1.482H3.7a3.709 3.709 0 00-3.7 3.7v19.314a3.709 3.709 0 003.7 3.7h20.8a3.709 3.709 0 003.7-3.7v-6.58a.741.741 0 00-.741-.741zm0 0" transform="translate(0 -36.028)"/><path id="Path_40" data-name="Path 40" d="M128.08 1.237a3.334 3.334 0 00-4.715 0l-13.22 13.219a.741.741 0 00-.19.326l-1.738 6.276a.741.741 0 00.912.912l6.276-1.739a.741.741 0 00.326-.19l13.218-13.219a3.338 3.338 0 000-4.715zm-16.32 13.7l10.819-10.818 3.489 3.489-10.819 10.819zm-.7 1.4l2.788 2.788-3.856 1.068zM127.9 5.775l-.786.786-3.489-3.489.786-.786a1.852 1.852 0 012.619 0l.87.869a1.855 1.855 0 010 2.62zm0 0" transform="translate(-100.173)"/></g></svg>