<?xml version="1.0" encoding="utf-8"?>
<!-- Generator: Adobe Illustrator 16.0.0, SVG Export Plug-In . SVG Version: 6.00 Build 0)  -->
<!DOCTYPE svg PUBLIC "-//W3C//DTD SVG 1.1//EN" "http://www.w3.org/Graphics/SVG/1.1/DTD/svg11.dtd">
<svg version="1.1" id="Layer_1" xmlns="http://www.w3.org/2000/svg" xmlns:xlink="http://www.w3.org/1999/xlink" x="0px" y="0px"
	 width="612px" height="792px" viewBox="0 0 612 792" enable-background="new 0 0 612 792" xml:space="preserve">
<g>
	<g>
		<g>
			<path fill="#FF0000" d="M607.926,205.347L496.653,94.074c-2.608-2.607-6.14-4.074-9.835-4.074H55.636
				C24.966,90,0,114.951,0,145.637v500.728c0,30.684,24.966,55.637,55.637,55.637h500.729c30.671,0,55.637-24.952,55.637-55.637
				V215.182C612,211.488,610.533,207.955,607.926,205.347z M139.092,117.818h306.001v166.909c0,15.335-12.47,27.818-27.818,27.818
				H166.909c-15.349,0-27.817-12.483-27.817-27.818V117.818z M500.728,674.182H111.272V423.819h389.456V674.182z M584.182,646.365
				c0,15.335-12.47,27.817-27.817,27.817h-27.818V409.908c0-7.688-6.221-13.909-13.909-13.909H97.364
				c-7.688,0-13.909,6.222-13.909,13.909v264.273H55.636c-15.349,0-27.817-12.482-27.817-27.817V145.637
				c0-15.335,12.47-27.818,27.817-27.818h55.637v166.909c-0.001,30.685,24.965,55.636,55.636,55.636h250.364
				c30.671,0,55.637-24.951,55.637-55.637V117.818h8.15l103.122,103.124V646.365z"/>
			<path fill="#FF0000" d="M347.728,284.727h55.637c7.688,0,13.909-6.221,13.909-13.909V159.545c0-7.688-6.221-13.909-13.909-13.909
				h-55.637c-7.688,0-13.909,6.221-13.909,13.909v111.272C333.819,278.506,340.04,284.727,347.728,284.727z M361.636,173.454h27.817
				v83.455h-27.817V173.454z"/>
		</g>
	</g>
</g>
</svg>
