<?xml version="1.0" encoding="utf-8"?>
<!-- Generator: Adobe Illustrator 16.0.0, SVG Export Plug-In . SVG Version: 6.00 Build 0)  -->
<!DOCTYPE svg PUBLIC "-//W3C//DTD SVG 1.1//EN" "http://www.w3.org/Graphics/SVG/1.1/DTD/svg11.dtd">
<svg version="1.1" id="Слой_1" xmlns="http://www.w3.org/2000/svg" xmlns:xlink="http://www.w3.org/1999/xlink" x="0px" y="0px"
	 width="401px" height="401px" viewBox="0 0 401 401" enable-background="new 0 0 401 401" xml:space="preserve">
<path fill="#D14942" d="M370.107,250.906c-5.516,0-9.986,4.471-9.986,9.986v88.674c-0.02,16.541-13.42,29.945-29.961,29.961H49.935
	c-16.541-0.016-29.941-13.42-29.961-29.961V89.315c0.02-16.537,13.42-29.941,29.961-29.961h88.673c5.517,0,9.987-4.471,9.987-9.987
	c0-5.512-4.471-9.987-9.987-9.987H49.935C22.369,39.412,0.031,61.75,0,89.315V349.57c0.031,27.565,22.369,49.903,49.936,49.935
	H330.16c27.565-0.031,49.903-22.369,49.935-49.935v-88.678C380.094,255.377,375.624,250.906,370.107,250.906z"/>
<path fill="#FF0000" d="M376.138,13.684c-17.551-17.551-46.006-17.551-63.558,0L134.407,191.857
	c-1.222,1.221-2.103,2.735-2.563,4.397l-23.431,84.589c-0.963,3.467,0.016,7.182,2.56,9.729c2.548,2.544,6.262,3.523,9.729,2.563
	l84.589-23.435c1.662-0.46,3.176-1.342,4.396-2.563L387.858,88.96c17.523-17.563,17.523-45.995,0-63.558L376.138,13.684z
	 M156.168,198.349L301.989,52.523l47.028,47.029L203.192,245.377L156.168,198.349z M146.773,217.199l37.572,37.576l-51.971,14.399
	L146.773,217.199z M373.735,74.838L363.144,85.43l-47.033-47.033l10.596-10.591c9.749-9.749,25.557-9.749,35.306,0l11.723,11.719
	C383.469,49.286,383.469,65.082,373.735,74.838z"/>
</svg>
