<svg width="21" height="20" viewBox="0 0 21 20" fill="none" xmlns="http://www.w3.org/2000/svg">
<path d="M20.0005 7.66999C19.9373 7.48708 19.8224 7.32642 19.6698 7.20749C19.5171 7.08857 19.3333 7.01649 19.1405 6.99999L13.4505 6.16999L10.9005 0.999993C10.8186 0.830922 10.6907 0.688335 10.5316 0.588566C10.3724 0.488798 10.1883 0.435883 10.0005 0.435883C9.81261 0.435883 9.62855 0.488798 9.46938 0.588566C9.3102 0.688335 9.18235 0.830922 9.10047 0.999993L6.55047 6.15999L0.860466 6.99999C0.675388 7.0263 0.50139 7.10396 0.358216 7.22415C0.215042 7.34435 0.108426 7.50227 0.0504657 7.67999C-0.00258931 7.85367 -0.00735037 8.03851 0.0366935 8.21469C0.0807373 8.39086 0.171923 8.55172 0.300466 8.67999L4.43047 12.68L3.43047 18.36C3.39477 18.5475 3.41346 18.7412 3.48434 18.9184C3.55522 19.0956 3.67532 19.2489 3.83047 19.36C3.98168 19.4681 4.16004 19.5319 4.34551 19.5443C4.53099 19.5566 4.71624 19.5171 4.88047 19.43L10.0005 16.76L15.1005 19.44C15.2408 19.5192 15.3993 19.5605 15.5605 19.56C15.7723 19.5607 15.9789 19.4942 16.1505 19.37C16.3056 19.2589 16.4257 19.1056 16.4966 18.9284C16.5675 18.7512 16.5862 18.5575 16.5505 18.37L15.5505 12.69L19.6805 8.68999C19.8248 8.56767 19.9316 8.4069 19.9882 8.22634C20.0448 8.04579 20.0491 7.85287 20.0005 7.66999Z" fill="#EFC262"/>
</svg>
