<svg width="20" height="18" viewBox="0 0 20 18" fill="none" xmlns="http://www.w3.org/2000/svg">
<path d="M19.1668 6.86418C19.109 6.69651 19.0037 6.54924 18.8637 6.44022C18.7238 6.33121 18.5553 6.26513 18.3785 6.25001L13.1627 5.48918L10.8252 0.750011C10.7501 0.595029 10.6329 0.464325 10.487 0.37287C10.3411 0.281416 10.1724 0.23291 10.0002 0.23291C9.82798 0.23291 9.65926 0.281416 9.51335 0.37287C9.36744 0.464325 9.25024 0.595029 9.17518 0.750011L6.83768 5.48001L1.62185 6.25001C1.45219 6.27412 1.2927 6.34531 1.16145 6.45549C1.03021 6.56567 0.932479 6.71043 0.879349 6.87334C0.830716 7.03255 0.826351 7.20199 0.866725 7.36348C0.907098 7.52497 0.990686 7.67243 1.10852 7.79001L4.89435 11.4567L3.97768 16.6633C3.94496 16.8352 3.96209 17.0128 4.02707 17.1753C4.09204 17.3377 4.20213 17.4781 4.34435 17.58C4.48297 17.6791 4.64646 17.7376 4.81648 17.7489C4.98649 17.7603 5.15631 17.724 5.30685 17.6442L10.0002 15.1967L14.6752 17.6533C14.8038 17.7259 14.9491 17.7638 15.0968 17.7633C15.291 17.764 15.4804 17.7031 15.6377 17.5892C15.7799 17.4873 15.89 17.3469 15.955 17.1844C16.0199 17.022 16.0371 16.8444 16.0043 16.6725L15.0877 11.4658L18.8735 7.79918C19.0059 7.68705 19.1037 7.53967 19.1556 7.37416C19.2075 7.20866 19.2114 7.03181 19.1668 6.86418Z" fill="#D2D2D2"/>
</svg>
