<svg width="24" height="25" viewBox="0 0 24 25" fill="none" xmlns="http://www.w3.org/2000/svg">
<path d="M5.00293 20.5C5.00293 21.603 5.89993 22.5 7.00293 22.5H17.0029C18.1059 22.5 19.0029 21.603 19.0029 20.5V8.5H21.0029V6.5H17.0029V4.5C17.0029 3.397 16.1059 2.5 15.0029 2.5H9.00293C7.89993 2.5 7.00293 3.397 7.00293 4.5V6.5H3.00293V8.5H5.00293V20.5ZM9.00293 4.5H15.0029V6.5H9.00293V4.5ZM8.00293 8.5H17.0029L17.0039 20.5H7.00293V8.5H8.00293Z" fill="#9C9C9C"/>
<path d="M9.00293 10.5H11.0029V18.5H9.00293V10.5ZM13.0029 10.5H15.0029V18.5H13.0029V10.5Z" fill="#9C9C9C"/>
</svg>
