<svg width="25" height="11" viewBox="0 0 25 11" fill="none" xmlns="http://www.w3.org/2000/svg">
<path d="M17.995 0.00462134C17.8462 -0.00911619 17.6962 0.00785179 17.5541 0.0544814C17.4138 0.100562 17.2841 0.174649 17.173 0.272275C16.95 0.463766 16.8102 0.735212 16.7836 1.02877C16.7568 1.32404 16.8468 1.61804 17.034 1.84736L17.0496 1.86648L17.1728 1.99019L20.4021 4.39042H1.57184L1.55658 4.39136C1.40866 4.40049 1.26398 4.43885 1.13087 4.50425C0.997747 4.56964 0.878801 4.66078 0.780857 4.77244C0.682913 4.88409 0.607895 5.01407 0.560112 5.1549C0.512814 5.2943 0.49312 5.44163 0.502123 5.58859C0.516289 5.86534 0.632162 6.12705 0.827427 6.32307C1.02376 6.52016 1.28625 6.63668 1.56359 6.64986L1.57536 6.65042H20.3994L17.1539 9.05725L17.1211 9.0933C16.9267 9.30704 16.819 9.586 16.819 9.87542C16.819 10.1648 16.9267 10.4438 17.1211 10.6575L17.13 10.6674L17.1395 10.6767C17.3482 10.883 17.6294 10.9986 17.9223 10.9986C18.205 10.9986 18.4768 10.8909 18.6831 10.6978L24.158 6.33298L24.1793 6.31123C24.3848 6.10171 24.5 5.81946 24.5 5.52542C24.5 5.23138 24.3848 4.94913 24.1793 4.73961L24.1581 4.71802L18.7147 0.370327C18.6307 0.275257 18.5309 0.195373 18.4195 0.134364C18.2883 0.0625109 18.1439 0.0183588 17.995 0.00462134Z" fill="white"/>
</svg>
