<svg width="56" height="56" viewBox="0 0 56 56" fill="none" xmlns="http://www.w3.org/2000/svg">
<mask id="mask0" mask-type="alpha" maskUnits="userSpaceOnUse" x="0" y="0" width="56" height="56">
<circle cx="28" cy="28" r="28" fill="#8FDEF6"/>
</mask>
<g mask="url(#mask0)">
<g style="mix-blend-mode:multiply">
<path d="M12.0007 38.9992L9.0004 20.4992L13.0001 14.0004L23.5007 12.4986L42.0007 8.49956L59.5011 31.9999L46.5011 52.4999L28.5011 59.4999L14.0008 44.9986L12.0007 38.9992Z" fill="#134469" fill-opacity="0.1"/>
</g>
</g>
<path d="M16.8374 14.7786C16.7783 14.4807 16.9719 14.1914 17.2698 14.1323L42.6173 9.10712C42.9151 9.04807 43.2044 9.24165 43.2635 9.53951L49.485 40.9212C49.5441 41.2191 49.3505 41.5084 49.0526 41.5675L23.7051 46.5927C23.4073 46.6517 23.118 46.4581 23.0589 46.1603L16.8374 14.7786Z" fill="#00ABD8"/>
<path fill-rule="evenodd" clip-rule="evenodd" d="M15.7456 14.6036L6.67996 17.6689C6.15678 17.8458 5.87606 18.4133 6.05296 18.9365L15.1044 45.7062C15.2813 46.2293 15.8488 46.5101 16.372 46.3332L21.619 44.559L15.7714 15.0633C15.7406 14.9081 15.7328 14.7537 15.7456 14.6036ZM29.6289 11.7567L38.4401 37.8158C38.617 38.339 38.3363 38.9066 37.8131 39.0835L22.6696 44.2038L16.85 14.8494C16.7911 14.5522 16.9848 14.2634 17.2826 14.2044L29.6289 11.7567ZM29.2063 10.7219C28.949 10.4168 28.522 10.2836 28.1211 10.4192L24.4183 11.6712L29.2063 10.7219Z" fill="#00ABD8"/>
<rect x="21.127" y="18.4385" width="19.793" height="1.09961" transform="rotate(-9.86619 21.127 18.4385)" fill="#00ABD8"/>
<rect x="21.8809" y="22.7705" width="19.793" height="1.09961" transform="rotate(-9.86619 21.8809 22.7705)" fill="#00ABD8"/>
<rect x="22.6348" y="27.1045" width="19.793" height="1.09961" transform="rotate(-9.86619 22.6348 27.1045)" fill="#00ABD8"/>
<rect x="23.3887" y="31.4385" width="19.793" height="1.09961" transform="rotate(-9.86619 23.3887 31.4385)" fill="#00ABD8"/>
<path fill-rule="evenodd" clip-rule="evenodd" d="M48.6162 43.0825V43.3574H48.5299C47.9392 44.29 44.3875 45.0068 40.0942 45.0068C35.801 45.0068 32.2493 44.29 31.6586 43.3574H31.5723V43.0825V41.1582H40.0942H48.6162V43.0825Z" fill="#00ABD8"/>
<path d="M48.1178 41.4201C48.1179 41.4201 48.1177 41.4209 48.1171 41.4226C48.1174 41.4209 48.1177 41.4201 48.1178 41.4201ZM48.0726 41.381C48.0945 41.4052 48.1061 41.4225 48.112 41.4331C48.1061 41.4437 48.0945 41.461 48.0726 41.4852C48.0118 41.5522 47.8986 41.6409 47.711 41.7411C47.3368 41.9409 46.7623 42.1362 46.0101 42.3061C44.5136 42.644 42.4218 42.8574 40.0942 42.8574C37.7666 42.8574 35.6748 42.644 34.1784 42.3061C33.4262 42.1362 32.8517 41.9409 32.4774 41.7411C32.2899 41.6409 32.1767 41.5522 32.1159 41.4852C32.094 41.461 32.0824 41.4437 32.0765 41.4331C32.0824 41.4225 32.094 41.4052 32.1159 41.381C32.1767 41.314 32.2899 41.2253 32.4774 41.1252C32.8517 40.9254 33.4262 40.73 34.1784 40.5601C35.6748 40.2222 37.7666 40.0088 40.0942 40.0088C42.4218 40.0088 44.5136 40.2222 46.0101 40.5601C46.7623 40.73 47.3368 40.9254 47.711 41.1252C47.8986 41.2253 48.0118 41.314 48.0726 41.381ZM32.0707 41.4201C32.0707 41.4201 32.0711 41.4209 32.0714 41.4226C32.0708 41.4209 32.0706 41.4201 32.0707 41.4201ZM32.0707 41.4461C32.0706 41.4461 32.0708 41.4453 32.0714 41.4436C32.0711 41.4453 32.0707 41.4461 32.0707 41.4461ZM48.1171 41.4436C48.1177 41.4453 48.1179 41.4461 48.1178 41.4461C48.1177 41.4461 48.1174 41.4453 48.1171 41.4436Z" fill="#00ABD8" stroke="white"/>
<path d="M15.8374 13.7786C15.7783 13.4807 15.9719 13.1914 16.2698 13.1323L41.6173 8.10712C41.9151 8.04807 42.2044 8.24165 42.2635 8.53951L48.485 39.9212C48.5441 40.2191 48.3505 40.5084 48.0526 40.5675L22.7051 45.5927C22.4073 45.6517 22.118 45.4581 22.0589 45.1603L15.8374 13.7786Z" fill="white"/>
<path fill-rule="evenodd" clip-rule="evenodd" d="M14.7456 13.6036L5.67996 16.6689C5.15678 16.8458 4.87606 17.4133 5.05296 17.9365L14.1044 44.7062C14.2813 45.2293 14.8488 45.5101 15.372 45.3332L20.619 43.559L14.7714 14.0633C14.7406 13.9081 14.7328 13.7537 14.7456 13.6036ZM28.6289 10.7567L37.4401 36.8158C37.617 37.339 37.3363 37.9066 36.8131 38.0835L21.6696 43.2038L15.85 13.8494C15.7911 13.5522 15.9848 13.2634 16.2826 13.2044L28.6289 10.7567ZM28.2063 9.72193C27.949 9.4168 27.522 9.2836 27.1211 9.41917L23.4183 10.6712L28.2063 9.72193Z" fill="white"/>
<mask id="path-13-inside-1" fill="white">
<path fill-rule="evenodd" clip-rule="evenodd" d="M48.1294 48.3388L48.084 48.6099L47.9989 48.5957C47.2623 49.418 43.641 49.5388 39.4067 48.8303C35.1723 48.1217 31.7876 46.8285 31.3589 45.8112L31.2738 45.797L31.3191 45.5259L31.6367 43.6279L40.0418 45.0344L48.4469 46.4409L48.1294 48.3388Z"/>
</mask>
<path fill-rule="evenodd" clip-rule="evenodd" d="M48.1294 48.3388L48.084 48.6099L47.9989 48.5957C47.2623 49.418 43.641 49.5388 39.4067 48.8303C35.1723 48.1217 31.7876 46.8285 31.3589 45.8112L31.2738 45.797L31.3191 45.5259L31.6367 43.6279L40.0418 45.0344L48.4469 46.4409L48.1294 48.3388Z" fill="#FFEC8B"/>
<path d="M48.1294 48.3388L48.6225 48.4213L48.1294 48.3388ZM48.084 48.6099L48.0015 49.1031L48.4946 49.1856L48.5771 48.6924L48.084 48.6099ZM47.9989 48.5957L48.0814 48.1025L47.81 48.0571L47.6264 48.2621L47.9989 48.5957ZM31.3589 45.8112L31.8196 45.6171L31.7128 45.3635L31.4414 45.3181L31.3589 45.8112ZM31.2738 45.797L30.7806 45.7145L30.6981 46.2076L31.1912 46.2901L31.2738 45.797ZM31.3191 45.5259L30.826 45.4433L31.3191 45.5259ZM31.6367 43.6279L31.7192 43.1348L31.2261 43.0523L31.1436 43.5454L31.6367 43.6279ZM40.0418 45.0344L39.9593 45.5275L40.0418 45.0344ZM48.4469 46.4409L48.9401 46.5234L49.0226 46.0302L48.5295 45.9477L48.4469 46.4409ZM47.6362 48.2563L47.5908 48.5274L48.5771 48.6924L48.6225 48.4213L47.6362 48.2563ZM48.1665 48.1168L48.0814 48.1025L47.9163 49.0888L48.0015 49.1031L48.1665 48.1168ZM47.6264 48.2621C47.5527 48.3444 47.3228 48.4792 46.8301 48.5913C46.3638 48.6975 45.7448 48.7656 44.9999 48.7872C43.5128 48.8305 41.5821 48.6873 39.4892 48.3371L39.3241 49.3234C41.4655 49.6817 43.4627 49.8324 45.029 49.7868C45.8108 49.7641 46.4999 49.6921 47.052 49.5664C47.5777 49.4468 48.0768 49.2581 48.3713 48.9293L47.6264 48.2621ZM39.4892 48.3371C37.3962 47.9869 35.5241 47.4937 34.1321 46.9687C33.4349 46.7057 32.8718 46.4398 32.4654 46.1876C32.036 45.9212 31.8626 45.7189 31.8196 45.6171L30.8981 46.0054C31.0696 46.4122 31.48 46.753 31.9381 47.0373C32.4193 47.3359 33.0474 47.6283 33.7792 47.9043C35.2453 48.4573 37.1827 48.9651 39.3241 49.3234L39.4892 48.3371ZM31.4414 45.3181L31.3563 45.3038L31.1912 46.2901L31.2764 46.3044L31.4414 45.3181ZM31.7669 45.8795L31.8123 45.6084L30.826 45.4433L30.7806 45.7145L31.7669 45.8795ZM31.8123 45.6084L32.1299 43.7104L31.1436 43.5454L30.826 45.4433L31.8123 45.6084ZM31.5542 44.1211L39.9593 45.5275L40.1243 44.5413L31.7192 43.1348L31.5542 44.1211ZM39.9593 45.5275L48.3644 46.934L48.5295 45.9477L40.1243 44.5413L39.9593 45.5275ZM47.9538 46.3583L47.6362 48.2563L48.6225 48.4213L48.9401 46.5234L47.9538 46.3583Z" fill="#00ABD8" mask="url(#path-13-inside-1)"/>
<path d="M47.9114 46.6158C47.9115 46.6158 47.9112 46.6166 47.9103 46.6181C47.9109 46.6165 47.9113 46.6158 47.9114 46.6158ZM47.8732 46.5698C47.8909 46.5973 47.8995 46.6162 47.9036 46.6277C47.8959 46.6372 47.8817 46.6523 47.8561 46.6725C47.785 46.7286 47.6587 46.7974 47.4572 46.8652C47.0552 47.0005 46.4563 47.0984 45.6863 47.1417C44.1547 47.228 42.0563 47.0933 39.7607 46.7092C37.465 46.325 35.4371 45.7693 34.017 45.1891C33.3031 44.8974 32.7687 44.6099 32.4326 44.351C32.2641 44.2214 32.1671 44.1152 32.1182 44.039C32.1006 44.0115 32.092 43.9926 32.0879 43.9811C32.0955 43.9716 32.1098 43.9565 32.1354 43.9363C32.2064 43.8802 32.3327 43.8114 32.5342 43.7436C32.9363 43.6083 33.5351 43.5104 34.3051 43.467C35.8368 43.3807 37.9351 43.5155 40.2308 43.8996C42.5265 44.2838 44.5544 44.8395 45.9745 45.4197C46.6884 45.7114 47.2228 45.9989 47.5589 46.2577C47.7273 46.3874 47.8244 46.4936 47.8732 46.5698ZM32.0843 43.9673C32.0844 43.9674 32.0846 43.9682 32.0846 43.9699C32.0843 43.9682 32.0843 43.9673 32.0843 43.9673ZM32.08 43.993C32.08 43.993 32.0803 43.9922 32.0812 43.9907C32.0806 43.9923 32.0801 43.993 32.08 43.993ZM47.9068 46.6389C47.9072 46.6406 47.9072 46.6415 47.9071 46.6414C47.907 46.6414 47.9069 46.6406 47.9068 46.6389Z" fill="#FFEC8B" stroke="#00ABD8"/>
<rect x="20.127" y="17.4385" width="19.793" height="1.09961" transform="rotate(-9.86619 20.127 17.4385)" fill="#00ABD8"/>
<rect x="20.8809" y="21.7705" width="19.793" height="1.09961" transform="rotate(-9.86619 20.8809 21.7705)" fill="#00ABD8"/>
<rect x="21.6348" y="26.1045" width="19.793" height="1.09961" transform="rotate(-9.86619 21.6348 26.1045)" fill="#00ABD8"/>
<rect x="22.3887" y="30.4385" width="19.793" height="1.09961" transform="rotate(-9.86619 22.3887 30.4385)" fill="#00ABD8"/>
<mask id="path-20-inside-2" fill="white">
<path fill-rule="evenodd" clip-rule="evenodd" d="M47.6162 42.0825V42.3574H47.5299C46.9392 43.29 43.3875 44.0068 39.0942 44.0068C34.801 44.0068 31.2493 43.29 30.6586 42.3574H30.5723V42.0825V40.1582H39.0942H47.6162V42.0825Z"/>
</mask>
<path fill-rule="evenodd" clip-rule="evenodd" d="M47.6162 42.0825V42.3574H47.5299C46.9392 43.29 43.3875 44.0068 39.0942 44.0068C34.801 44.0068 31.2493 43.29 30.6586 42.3574H30.5723V42.0825V40.1582H39.0942H47.6162V42.0825Z" fill="#FFEC8B"/>
<path d="M47.6162 42.3574V42.8574H48.1162V42.3574H47.6162ZM47.5299 42.3574V41.8574H47.2548L47.1075 42.0899L47.5299 42.3574ZM30.6586 42.3574L31.081 42.0899L30.9337 41.8574H30.6586V42.3574ZM30.5723 42.3574H30.0723V42.8574H30.5723V42.3574ZM30.5723 40.1582V39.6582H30.0723V40.1582H30.5723ZM47.6162 40.1582H48.1162V39.6582H47.6162V40.1582ZM47.1162 42.0825V42.3574H48.1162V42.0825H47.1162ZM47.6162 41.8574H47.5299V42.8574H47.6162V41.8574ZM47.1075 42.0899C47.0484 42.1832 46.8439 42.3541 46.3765 42.546C45.934 42.7277 45.3348 42.897 44.6037 43.0413C43.1441 43.3294 41.2163 43.5068 39.0942 43.5068V44.5068C41.2654 44.5068 43.2601 44.3258 44.7973 44.0224C45.5647 43.8709 46.2324 43.6861 46.7562 43.4711C47.255 43.2663 47.7161 42.9979 47.9523 42.625L47.1075 42.0899ZM39.0942 43.5068C36.9722 43.5068 35.0444 43.3294 33.5848 43.0413C32.8537 42.897 32.2545 42.7277 31.812 42.546C31.3445 42.3541 31.1401 42.1832 31.081 42.0899L30.2362 42.625C30.4724 42.9979 30.9335 43.2663 31.4322 43.4711C31.956 43.6861 32.6238 43.8709 33.3911 44.0224C34.9284 44.3258 36.9231 44.5068 39.0942 44.5068V43.5068ZM30.6586 41.8574H30.5723V42.8574H30.6586V41.8574ZM31.0723 42.3574V42.0825H30.0723V42.3574H31.0723ZM31.0723 42.0825V40.1582H30.0723V42.0825H31.0723ZM30.5723 40.6582H39.0942V39.6582H30.5723V40.6582ZM39.0942 40.6582H47.6162V39.6582H39.0942V40.6582ZM47.1162 40.1582V42.0825H48.1162V40.1582H47.1162Z" fill="#00ABD8" mask="url(#path-20-inside-2)"/>
<path d="M47.1178 40.4201C47.1179 40.4201 47.1177 40.4209 47.1171 40.4226C47.1174 40.4209 47.1177 40.4201 47.1178 40.4201ZM47.0726 40.381C47.0945 40.4052 47.1061 40.4225 47.112 40.4331C47.1061 40.4437 47.0945 40.461 47.0726 40.4852C47.0118 40.5522 46.8986 40.6409 46.711 40.7411C46.3368 40.9409 45.7623 41.1362 45.0101 41.3061C43.5136 41.644 41.4218 41.8574 39.0942 41.8574C36.7666 41.8574 34.6748 41.644 33.1784 41.3061C32.4262 41.1362 31.8517 40.9409 31.4774 40.7411C31.2899 40.6409 31.1767 40.5522 31.1159 40.4852C31.094 40.461 31.0824 40.4437 31.0765 40.4331C31.0824 40.4225 31.094 40.4052 31.1159 40.381C31.1767 40.314 31.2899 40.2253 31.4774 40.1252C31.8517 39.9254 32.4262 39.73 33.1784 39.5601C34.6748 39.2222 36.7666 39.0088 39.0942 39.0088C41.4218 39.0088 43.5136 39.2222 45.0101 39.5601C45.7623 39.73 46.3368 39.9254 46.711 40.1252C46.8986 40.2253 47.0118 40.314 47.0726 40.381ZM31.0707 40.4201C31.0707 40.4201 31.0711 40.4209 31.0714 40.4226C31.0708 40.4209 31.0706 40.4201 31.0707 40.4201ZM31.0707 40.4461C31.0706 40.4461 31.0708 40.4453 31.0714 40.4436C31.0711 40.4453 31.0707 40.4461 31.0707 40.4461ZM47.1171 40.4436C47.1177 40.4453 47.1179 40.4461 47.1178 40.4461C47.1177 40.4461 47.1174 40.4453 47.1171 40.4436Z" fill="#FFEC8B" stroke="#00ABD8"/>
<mask id="path-23-inside-3" fill="white">
<path fill-rule="evenodd" clip-rule="evenodd" d="M49.0122 41.8261L48.9668 42.0972L48.8817 42.083C48.1451 42.9053 44.5238 43.0261 40.2895 42.3176C36.0551 41.609 32.6704 40.3158 32.2417 39.2985L32.1566 39.2843L32.2019 39.0132L32.5195 37.1152L40.9246 38.5217L49.3298 39.9282L49.0122 41.8261Z"/>
</mask>
<path fill-rule="evenodd" clip-rule="evenodd" d="M49.0122 41.8261L48.9668 42.0972L48.8817 42.083C48.1451 42.9053 44.5238 43.0261 40.2895 42.3176C36.0551 41.609 32.6704 40.3158 32.2417 39.2985L32.1566 39.2843L32.2019 39.0132L32.5195 37.1152L40.9246 38.5217L49.3298 39.9282L49.0122 41.8261Z" fill="#FFEC8B"/>
<path d="M49.0122 41.8261L48.519 41.7436L49.0122 41.8261ZM48.9668 42.0972L48.8843 42.5904L49.3774 42.6729L49.4599 42.1798L48.9668 42.0972ZM48.8817 42.083L48.9642 41.5898L48.6928 41.5444L48.5092 41.7494L48.8817 42.083ZM32.2417 39.2985L32.7024 39.1044L32.5956 38.8508L32.3242 38.8054L32.2417 39.2985ZM32.1566 39.2843L31.6634 39.2018L31.5809 39.6949L32.0741 39.7774L32.1566 39.2843ZM32.2019 39.0132L32.6951 39.0957L32.2019 39.0132ZM32.5195 37.1152L32.6021 36.6221L32.1089 36.5396L32.0264 37.0327L32.5195 37.1152ZM40.9246 38.5217L40.8421 39.0148L40.9246 38.5217ZM49.3298 39.9282L49.8229 40.0107L49.9054 39.5175L49.4123 39.435L49.3298 39.9282ZM48.519 41.7436L48.4736 42.0147L49.4599 42.1798L49.5053 41.9086L48.519 41.7436ZM49.0493 41.6041L48.9642 41.5898L48.7992 42.5761L48.8843 42.5904L49.0493 41.6041ZM48.5092 41.7494C48.4355 41.8317 48.2057 41.9665 47.7129 42.0786C47.2466 42.1848 46.6276 42.2529 45.8827 42.2745C44.3956 42.3178 42.4649 42.1746 40.372 41.8244L40.2069 42.8107C42.3483 43.169 44.3455 43.3197 45.9118 43.2741C46.6936 43.2514 47.3827 43.1794 47.9348 43.0537C48.4606 42.9341 48.9596 42.7454 49.2541 42.4166L48.5092 41.7494ZM40.372 41.8244C38.279 41.4742 36.407 40.981 35.0149 40.456C34.3177 40.193 33.7546 39.9271 33.3482 39.6749C32.9188 39.4085 32.7454 39.2062 32.7024 39.1044L31.7809 39.4927C31.9524 39.8995 32.3628 40.2403 32.8209 40.5246C33.3021 40.8232 33.9302 41.1156 34.662 41.3916C36.1281 41.9446 38.0655 42.4524 40.2069 42.8107L40.372 41.8244ZM32.3242 38.8054L32.2391 38.7912L32.0741 39.7774L32.1592 39.7917L32.3242 38.8054ZM32.6497 39.3668L32.6951 39.0957L31.7088 38.9306L31.6634 39.2018L32.6497 39.3668ZM32.6951 39.0957L33.0127 37.1978L32.0264 37.0327L31.7088 38.9306L32.6951 39.0957ZM32.437 37.6084L40.8421 39.0148L41.0072 38.0286L32.6021 36.6221L32.437 37.6084ZM40.8421 39.0148L49.2472 40.4213L49.4123 39.435L41.0072 38.0286L40.8421 39.0148ZM48.8366 39.8456L48.519 41.7436L49.5053 41.9086L49.8229 40.0107L48.8366 39.8456Z" fill="#00ABD8" mask="url(#path-23-inside-3)"/>
<path d="M48.7942 40.1031C48.7943 40.1031 48.794 40.1039 48.7931 40.1054C48.7937 40.1038 48.7942 40.1031 48.7942 40.1031ZM48.7561 40.0571C48.7737 40.0846 48.7823 40.1035 48.7864 40.115C48.7788 40.1245 48.7645 40.1396 48.7389 40.1598C48.6679 40.2159 48.5415 40.2847 48.3401 40.3525C47.938 40.4878 47.3391 40.5857 46.5692 40.6291C45.0375 40.7154 42.9391 40.5806 40.6435 40.1965C38.3478 39.8123 36.3199 39.2566 34.8998 38.6764C34.1859 38.3847 33.6515 38.0972 33.3154 37.8384C33.1469 37.7087 33.0499 37.6025 33.001 37.5263C32.9834 37.4988 32.9748 37.4799 32.9707 37.4684C32.9783 37.4589 32.9926 37.4438 33.0182 37.4236C33.0892 37.3675 33.2155 37.2987 33.417 37.2309C33.8191 37.0956 34.418 36.9977 35.1879 36.9543C36.7196 36.8681 38.8179 37.0028 41.1136 37.3869C43.4093 37.7711 45.4372 38.3268 46.8573 38.907C47.5712 39.1987 48.1056 39.4862 48.4417 39.745C48.6101 39.8747 48.7072 39.9809 48.7561 40.0571ZM32.9671 37.4546C32.9672 37.4547 32.9674 37.4555 32.9674 37.4572C32.9671 37.4555 32.9671 37.4546 32.9671 37.4546ZM32.9628 37.4803C32.9628 37.4803 32.9631 37.4795 32.964 37.478C32.9634 37.4796 32.9629 37.4803 32.9628 37.4803ZM48.7896 40.1262C48.79 40.1279 48.79 40.1288 48.7899 40.1288C48.7899 40.1287 48.7897 40.1279 48.7896 40.1262Z" fill="#FFEC8B" stroke="#00ABD8"/>
</svg>
