<svg width="18" height="21" viewBox="0 0 18 21" fill="none" xmlns="http://www.w3.org/2000/svg">
<path d="M16.8892 8.605C16.6731 8.09567 16.4089 7.60813 16.1002 7.149L14.4422 8.268C14.92 8.97833 15.2552 9.77476 15.4292 10.613C15.6064 11.4868 15.6064 12.3872 15.4292 13.261C15.3423 13.6831 15.2137 14.0954 15.0452 14.492C14.8814 14.8817 14.6794 15.2541 14.4422 15.604C13.9682 16.303 13.3655 16.9054 12.6662 17.379C11.9565 17.8566 11.1607 18.1918 10.3232 18.366C9.44986 18.541 8.5505 18.541 7.67718 18.366C6.42024 18.1078 5.26683 17.486 4.36018 16.578C3.76127 15.9787 3.28325 15.2699 2.95218 14.49C2.78513 14.0934 2.65719 13.6815 2.57018 13.26C2.3062 11.9586 2.43928 10.6079 2.95218 9.383C3.28198 8.60328 3.75979 7.89489 4.35918 7.297C4.95829 6.69911 5.66638 6.2215 6.44518 5.89C6.84018 5.723 7.25518 5.594 7.67518 5.508C7.78218 5.486 7.89118 5.476 7.99918 5.459V8.5L12.9992 4.5L7.99918 0.5V3.438C7.75607 3.46491 7.5142 3.50195 7.27418 3.549C6.17833 3.77356 5.13749 4.21191 4.21118 4.839C2.56566 5.94902 1.35671 7.59605 0.790919 9.49862C0.225129 11.4012 0.337623 13.4412 1.10918 15.27C1.53872 16.2882 2.16192 17.2134 2.94418 17.994C3.72537 18.7737 4.64912 19.396 5.66518 19.827C7.26252 20.5028 9.02761 20.6768 10.7262 20.326C12.0858 20.045 13.3569 19.4381 14.4303 18.5574C15.5036 17.6767 16.3471 16.5486 16.8882 15.27C17.1082 14.75 17.2772 14.209 17.3882 13.662C17.62 12.5237 17.62 11.3503 17.3882 10.212C17.2743 9.66144 17.1071 9.12325 16.8892 8.605Z" fill="#00ABD8"/>
</svg>
