<svg width="56" height="56" viewBox="0 0 56 56" fill="none" xmlns="http://www.w3.org/2000/svg">
<mask id="mask0" mask-type="alpha" maskUnits="userSpaceOnUse" x="0" y="0" width="56" height="56">
<circle cx="28" cy="28" r="28" fill="#8FDEF6"/>
</mask>
<g mask="url(#mask0)">
<g style="mix-blend-mode:multiply">
<path d="M11.9997 38.9992L8.99943 20.4992L12.9991 14.0004L23.4997 12.4986L41.9998 8.49956L59.5001 31.9999L46.5001 52.4999L28.5001 59.4999L13.9999 44.9986L11.9997 38.9992Z" fill="#134469" fill-opacity="0.1"/>
</g>
</g>
<path d="M16.8374 14.7786C16.7783 14.4807 16.9719 14.1914 17.2698 14.1323L42.6173 9.10712C42.9151 9.04807 43.2044 9.24165 43.2635 9.53951L49.485 40.9212C49.5441 41.2191 49.3505 41.5084 49.0526 41.5675L23.7051 46.5927C23.4073 46.6517 23.118 46.4581 23.0589 46.1603L16.8374 14.7786Z" fill="#00ABD8"/>
<path fill-rule="evenodd" clip-rule="evenodd" d="M15.7456 14.6036L6.67996 17.6689C6.15678 17.8458 5.87606 18.4133 6.05296 18.9365L15.1044 45.7062C15.2813 46.2293 15.8488 46.5101 16.372 46.3332L21.619 44.559L15.7714 15.0633C15.7406 14.9081 15.7328 14.7537 15.7456 14.6036ZM29.6289 11.7567L38.4401 37.8158C38.617 38.339 38.3363 38.9066 37.8131 39.0835L22.6696 44.2038L16.85 14.8494C16.7911 14.5522 16.9848 14.2634 17.2826 14.2044L29.6289 11.7567ZM29.2063 10.7219C28.949 10.4168 28.522 10.2836 28.1211 10.4192L24.4183 11.6712L29.2063 10.7219Z" fill="#00ABD8"/>
<rect x="21.127" y="18.4385" width="19.793" height="1.09961" transform="rotate(-9.86619 21.127 18.4385)" fill="#00ABD8"/>
<rect x="21.8809" y="22.7705" width="19.793" height="1.09961" transform="rotate(-9.86619 21.8809 22.7705)" fill="#00ABD8"/>
<rect x="22.6348" y="27.1045" width="19.793" height="1.09961" transform="rotate(-9.86619 22.6348 27.1045)" fill="#00ABD8"/>
<rect x="23.3887" y="31.4385" width="19.793" height="1.09961" transform="rotate(-9.86619 23.3887 31.4385)" fill="#00ABD8"/>
<path d="M15.8374 13.7786C15.7783 13.4807 15.9719 13.1914 16.2698 13.1323L41.6173 8.10712C41.9151 8.04807 42.2044 8.24165 42.2635 8.53951L48.485 39.9212C48.5441 40.2191 48.3505 40.5084 48.0526 40.5675L22.7051 45.5927C22.4073 45.6517 22.118 45.4581 22.0589 45.1603L15.8374 13.7786Z" fill="white"/>
<path fill-rule="evenodd" clip-rule="evenodd" d="M14.7456 13.6036L5.67996 16.6689C5.15678 16.8458 4.87606 17.4133 5.05296 17.9365L14.1044 44.7062C14.2813 45.2293 14.8488 45.5101 15.372 45.3332L20.619 43.559L14.7714 14.0633C14.7406 13.9081 14.7328 13.7537 14.7456 13.6036ZM28.6289 10.7567L37.4401 36.8158C37.617 37.339 37.3363 37.9066 36.8131 38.0835L21.6696 43.2038L15.85 13.8494C15.7911 13.5522 15.9848 13.2634 16.2826 13.2044L28.6289 10.7567ZM28.2063 9.72193C27.949 9.4168 27.522 9.2836 27.1211 9.41917L23.4183 10.6712L28.2063 9.72193Z" fill="white"/>
<rect x="20.127" y="17.4385" width="19.793" height="1.09961" transform="rotate(-9.86619 20.127 17.4385)" fill="#00ABD8"/>
<rect x="20.8809" y="21.7705" width="19.793" height="1.09961" transform="rotate(-9.86619 20.8809 21.7705)" fill="#00ABD8"/>
<rect x="21.6348" y="26.1045" width="19.793" height="1.09961" transform="rotate(-9.86619 21.6348 26.1045)" fill="#00ABD8"/>
<rect x="22.3887" y="30.4385" width="19.793" height="1.09961" transform="rotate(-9.86619 22.3887 30.4385)" fill="#00ABD8"/>
<ellipse cx="36.5002" cy="41.7695" rx="9.42308" ry="9.69231" fill="white"/>
<path d="M40.7514 37.7574C40.9149 37.3424 40.711 36.8734 40.296 36.7099C39.8809 36.5464 39.412 36.7503 39.2485 37.1653L36.2886 44.6789L33.3057 40.566C33.0438 40.2049 32.5387 40.1245 32.1776 40.3864C31.8165 40.6483 31.7361 41.1533 31.998 41.5144L35.8461 46.8202C36.0193 47.059 36.3089 47.1844 36.6015 47.1473C36.8942 47.1102 37.1433 46.9165 37.2514 46.642L40.7514 37.7574Z" fill="#67EC64"/>
<path fill-rule="evenodd" clip-rule="evenodd" d="M36.5 52.5385C42.299 52.5385 47 47.7169 47 41.7692C47 35.8215 42.299 31 36.5 31C30.701 31 26 35.8215 26 41.7692C26 47.7169 30.701 52.5385 36.5 52.5385ZM36.5 51C41.4706 51 45.5 46.8672 45.5 41.7692C45.5 36.6712 41.4706 32.5385 36.5 32.5385C31.5294 32.5385 27.5 36.6712 27.5 41.7692C27.5 46.8672 31.5294 51 36.5 51Z" fill="#67EC64"/>
</svg>
