<svg width="24" height="24" viewBox="0 0 24 24" fill="none" xmlns="http://www.w3.org/2000/svg">
<path fill-rule="evenodd" clip-rule="evenodd" d="M11.2801 9.52918L8.81007 11.9992L11.2801 14.4692C11.3538 14.5378 11.4129 14.6206 11.4539 14.7126C11.4948 14.8046 11.5169 14.904 11.5187 15.0047C11.5204 15.1054 11.5019 15.2054 11.4642 15.2988C11.4265 15.3922 11.3703 15.477 11.2991 15.5482C11.2279 15.6194 11.1431 15.6756 11.0497 15.7133C10.9563 15.751 10.8563 15.7695 10.7556 15.7678C10.6548 15.766 10.5555 15.744 10.4635 15.703C10.3715 15.662 10.2887 15.6029 10.2201 15.5292L7.22007 12.5292C7.07962 12.3886 7.00073 12.1979 7.00073 11.9992C7.00073 11.8004 7.07962 11.6098 7.22007 11.4692L10.2201 8.46918C10.2887 8.39549 10.3715 8.33639 10.4635 8.2954C10.5555 8.2544 10.6548 8.23236 10.7556 8.23059C10.8563 8.22881 10.9563 8.24733 11.0497 8.28505C11.1431 8.32278 11.2279 8.37892 11.2991 8.45014C11.3703 8.52136 11.4265 8.60619 11.4642 8.69958C11.5019 8.79297 11.5204 8.893 11.5187 8.9937C11.5169 9.0944 11.4948 9.19372 11.4539 9.28572C11.4129 9.37771 11.3538 9.46052 11.2801 9.52918Z" fill="#9C9C9C"/>
<path fill-rule="evenodd" clip-rule="evenodd" d="M3.75 2C3.28587 2 2.84075 2.18437 2.51256 2.51256C2.18437 2.84075 2 3.28587 2 3.75V20.25C2 21.216 2.784 22 3.75 22H20.25C20.7141 22 21.1592 21.8156 21.4874 21.4874C21.8156 21.1592 22 20.7141 22 20.25V3.75C22 3.28587 21.8156 2.84075 21.4874 2.51256C21.1592 2.18437 20.7141 2 20.25 2H3.75ZM3.5 3.75C3.5 3.6837 3.52634 3.62011 3.57322 3.57322C3.62011 3.52634 3.6837 3.5 3.75 3.5H15V20.5H3.75C3.6837 20.5 3.62011 20.4737 3.57322 20.4268C3.52634 20.3799 3.5 20.3163 3.5 20.25V3.75ZM16.5 20.5V3.5H20.25C20.3163 3.5 20.3799 3.52634 20.4268 3.57322C20.4737 3.62011 20.5 3.6837 20.5 3.75V20.25C20.5 20.3163 20.4737 20.3799 20.4268 20.4268C20.3799 20.4737 20.3163 20.5 20.25 20.5H16.5Z" fill="#9C9C9C"/>
</svg>
