<svg width="24" height="11" viewBox="0 0 24 11" fill="none" xmlns="http://www.w3.org/2000/svg">
<path d="M6.50496 0.00462134C6.65378 -0.00911619 6.80382 0.00785179 6.94587 0.0544814C7.08624 0.100562 7.21587 0.174649 7.32698 0.272275C7.55004 0.463766 7.68984 0.735212 7.71642 1.02877C7.74316 1.32404 7.65323 1.61804 7.46602 1.84736L7.4504 1.86648L7.32717 1.99019L4.09791 4.39042H22.9282L22.9434 4.39136C23.0913 4.40049 23.236 4.43885 23.3691 4.50425C23.5023 4.56964 23.6212 4.66078 23.7191 4.77244C23.8171 4.88409 23.8921 5.01407 23.9399 5.1549C23.9872 5.2943 24.0069 5.44163 23.9979 5.58859C23.9837 5.86534 23.8678 6.12705 23.6726 6.32307C23.4762 6.52016 23.2138 6.63668 22.9364 6.64986L22.9246 6.65042H4.10065L7.34611 9.05725L7.37889 9.0933C7.57328 9.30704 7.68105 9.586 7.68105 9.87542C7.68105 10.1648 7.57328 10.4438 7.37889 10.6575L7.36996 10.6674L7.36052 10.6767C7.1518 10.883 6.87064 10.9986 6.57774 10.9986C6.29498 10.9986 6.02318 10.8909 5.81692 10.6978L0.34203 6.33298L0.320694 6.31123C0.115189 6.10171 0 5.81946 0 5.52542C0 5.23138 0.115189 4.94913 0.320694 4.73961L0.341875 4.71802L5.78532 0.370327C5.86927 0.275257 5.96911 0.195373 6.0805 0.134364C6.21169 0.0625109 6.35614 0.0183588 6.50496 0.00462134Z" fill="#00ABD8"/>
</svg>
