<svg width="84" height="84" viewBox="0 0 84 84" fill="none" xmlns="http://www.w3.org/2000/svg">
<circle cx="42" cy="42" r="39" stroke="#FA7167" stroke-width="6"/>
<path fill-rule="evenodd" clip-rule="evenodd" d="M55.7893 28.7107C54.6177 27.5391 52.7182 27.5391 51.5467 28.7107L42.0003 38.2571L32.4543 28.7112C31.2828 27.5396 29.3833 27.5396 28.2117 28.7112C27.0401 29.8827 27.0401 31.7822 28.2117 32.9538L37.7576 42.4997L28.2121 52.0452C27.0406 53.2168 27.0406 55.1163 28.2121 56.2879C29.3837 57.4594 31.2832 57.4594 32.4548 56.2879L42.0003 46.7424L51.5462 56.2883C52.7178 57.4599 54.6173 57.4599 55.7889 56.2883C56.9604 55.1168 56.9604 53.2173 55.7889 52.0457L46.2429 42.4997L55.7893 32.9534C56.9609 31.7818 56.9609 29.8823 55.7893 28.7107Z" fill="#FA7167"/>
</svg>
