<svg width="281" height="871" viewBox="0 0 281 871" fill="none" xmlns="http://www.w3.org/2000/svg">
<g clip-path="url(#clip0)">
<path fill-rule="evenodd" clip-rule="evenodd" d="M124.2 317.988C55.6509 150.097 -136.037 69.5756 -303.959 138.138C-471.881 206.7 -552.431 398.375 -483.882 566.266C-415.332 734.157 -223.64 814.688 -55.7185 746.126C112.203 677.564 192.754 485.889 124.2 317.988Z" fill="#DEF3FC"/>
<path d="M95.5196 272.607C96.07 268.832 92.599 264.296 88.4782 262.91C83.798 261.197 79.0273 264.011 79.4231 268.571C80.0272 273.969 82.9461 279.312 85.2624 284.569C86.0602 286.315 85.754 288.016 85.5605 289.617C84.876 294.497 83.9338 299.336 82.7377 304.116C80.5772 299.154 79.0738 293.957 75.8582 289.267C72.9973 285.097 66.8096 283.454 63.6366 285.968C60.043 288.314 60.6564 294.788 65.0549 298.079C70.2437 302.202 76.2888 304.656 82.0878 307.364C80.6305 313.574 79.1694 319.803 76.9705 325.67C74.9451 321.497 73.5674 317.135 70.992 313.125C68.5385 309.212 63.2031 307.017 59.6359 308.549C55.0324 310.039 54.4274 316.82 58.807 320.84C63.7649 325.312 69.9489 327.682 75.6897 330.583C73.3499 338.252 70.888 345.872 68.0582 353.307C65.2013 345.994 62.9754 338.358 58.0909 331.567C53.6964 325.475 44.4466 323.302 40.179 327.53C35.2937 331.282 36.8869 340.373 43.1871 344.967C50.4296 350.414 58.6261 354.021 66.6385 357.596C63.5045 365.917 60.5901 374.359 56.9867 382.415C54.3778 373.936 52.8503 365.225 48.2025 357.032C45.1109 351.6 38.4727 347.89 32.8574 348.192C26.6826 348.313 22.2253 353.269 22.8856 359.361C23.1369 363.546 25.8062 367.917 29.5401 370.919C37.435 377.268 46.015 382.715 55.1202 387.157C54.493 389.072 53.8696 390.992 53.2424 392.883C53.9201 392.984 54.5828 393.088 55.238 393.18C55.5557 391.699 56.0167 390.253 56.6145 388.862C65.6296 391.232 74.7292 393.375 83.6186 393.811C87.5236 394.104 91.4812 393.402 93.7624 390.808C97.2997 387.352 97.3283 381.109 94.1766 375.929C90.1257 369.535 81.4937 365.445 75.407 367.834C69.0067 370.718 64.7634 376.166 59.9775 380.836C62.4188 373.27 65.6034 366.088 68.1347 358.584C75.7136 360.618 83.3526 362.132 90.7984 362.44C94.0068 362.579 97.3899 362.334 99.4909 360.323C103.039 357.396 103.269 351.468 100.081 346.734C96.6613 341.237 88.9886 337.989 83.9852 340.185C78.4711 342.616 75.2246 347.594 71.064 351.482C71.8998 346.914 73.8151 342.856 75.0714 338.479C75.8582 336.108 76.3541 333.557 77.5877 331.441C81.3725 331.359 85.3901 332.578 89.2124 332.552C93.3615 332.674 98.4192 332.744 99.9796 328.897C102.394 324.221 96.9242 316.673 90.9522 316.294C85.1736 315.826 83.0386 321.227 79.721 324.219C80.8873 318.78 82.3596 313.471 83.9163 308.203C88.4123 309.055 92.9798 309.47 97.5555 309.444C101.111 309.555 104.684 308.263 105.424 304.882C106.742 300.318 101.894 294.081 96.5392 293.518C91.0367 292.67 88.8416 297.713 85.6686 300.397C86.3598 295.698 86.822 290.9 87.9488 286.341C90.4668 281.783 94.6649 278.172 95.5196 272.607Z" fill="#A7C0E8"/>
<path d="M36.3025 391.01C33.2747 385.381 30.7088 378.957 24.8517 375.051C20.1941 371.591 14.6803 370.922 9.85721 371.363C8.11089 372.179 6.44566 373.158 4.88375 374.288C8.51075 375.994 12.0682 378.83 13.5548 382.524C14.2869 384.074 14.6169 385.782 14.5144 387.493C14.4119 389.203 13.8802 390.86 12.9683 392.311C20.5343 391.287 28.2354 390.392 36.3025 391.01Z" fill="#A7C0E8"/>
<path d="M172.134 443.297C139.375 439.795 106.617 436.303 73.8604 432.821C87.5983 444.815 101.276 456.792 115.031 468.726C116.292 469.608 117.196 470.913 117.58 472.404C113.934 469.79 110.658 466.694 107.266 463.765C95.8087 453.777 84.3605 443.782 72.9216 433.78C71.5606 432.337 69.7077 432.352 68.0781 432.128C50.8719 430.443 33.6075 428.34 16.4144 426.76C23.674 430.78 30.8754 435.165 37.3182 440.608C52.9277 453.298 65.2422 469.235 76.0528 485.441C101.27 481.29 123.989 471.792 144.987 460.383C154.371 455.238 163.436 449.532 172.134 443.297Z" fill="#7C9AF2"/>
<path d="M97.2773 525.4C91.5499 519.725 84.8798 515.149 78.6097 510.111C65.2641 499.377 51.6839 489.011 38.3852 478.189C38.1693 478.414 37.7506 478.872 37.5403 479.093C35.1413 476.106 32.3892 473.419 29.3443 471.093C17.6713 462.002 6.10165 452.76 -5.51121 443.588C-8.34633 446.658 -13.5637 447.727 -18.349 445.076C-24.3301 441.742 -29.701 437.284 -34.8184 432.707C-34.7939 436.288 -34.5327 439.864 -34.0364 443.412C-31.9253 455.452 -24.9817 467.614 -15.1994 477.225C-0.73703 491.6 17.6983 500.95 35.7996 508.238C55.6492 516.052 76.2503 521.804 97.2773 525.4Z" fill="#7C9AF2"/>
<path d="M174.231 442.329C173.214 441.961 172.156 441.718 171.08 441.606C125.158 436.845 79.2031 431.829 33.2542 426.955C45.9778 420.793 59.0393 415.137 71.9244 409.217C72.803 408.631 74.7987 408.44 73.3288 406.881C59.0132 412.974 45.1049 419.715 30.9038 425.992C29.5633 426.617 27.8605 426.393 26.2516 426.237C21.224 425.676 16.1963 425.041 11.2062 424.706C12.9447 425.41 14.6793 426.109 16.429 426.757C33.6108 428.32 50.8864 430.439 68.0927 432.124C69.7222 432.348 71.5752 432.333 72.9362 433.777C84.3963 443.753 95.8445 453.748 107.281 463.762C110.673 466.691 113.949 469.787 117.595 472.4C117.211 470.909 116.307 469.605 115.045 468.722C101.291 456.789 87.5978 444.789 73.875 432.818C106.637 436.242 139.389 439.735 172.133 443.296C173.409 443.655 174.108 443.333 174.231 442.329Z" fill="#050634"/>
<path d="M14.6399 289.543C14.734 286.706 11.6703 283.575 8.65152 283.293C5.97438 282.938 3.74951 284.787 3.99149 287.359C4.30847 291.215 6.76193 294.981 8.0439 298.796C8.1731 303.128 6.84734 307.046 6.1918 311.127C4.36542 306.959 3.54355 301.723 -0.836186 298.801C-5.70593 295.889 -10.3116 301.05 -6.83688 305.469C-3.42219 309.164 1.42136 310.914 5.76926 312.922C4.73823 317.148 3.58705 321.315 2.40396 325.472C0.564425 321.492 -0.358832 316.177 -5.00709 313.89C-9.84121 311.653 -13.7429 316.784 -10.4239 321.006C-7.19322 324.547 -2.57495 326.228 1.51949 328.258C-0.0560455 333.376 -1.7799 338.429 -3.52064 343.47C-5.02785 339.097 -6.57447 334.678 -9.00912 330.476C-10.0597 328.514 -11.6767 326.913 -13.6497 325.882C-17.6465 323.706 -22.3457 324.967 -23.495 328.491C-24.3944 330.644 -23.439 333.334 -22.2508 335.739L-21.6595 336.443C-16.4519 340.692 -10.4144 343.55 -4.44077 346.117C-5.30455 348.385 -6.14205 350.668 -7.00208 352.941C-8.12795 356.226 -9.44912 359.44 -10.9585 362.566C-12.3455 356.983 -13.586 351.302 -16.4861 345.913C-19.0784 341.06 -25.8256 338.456 -29.8321 340.646C-34.3512 342.666 -34.5883 349.657 -30.0772 353.826C-24.6914 358.745 -18.3104 362.399 -11.9744 365.668C-14.3029 371.385 -16.6744 377.082 -19.0892 382.759C-21.4298 375.672 -23.8473 368.457 -28.0315 361.752C-31.1007 356.867 -37.5944 354.045 -42.2973 355.422C-47.357 356.655 -49.6817 362.345 -47.2922 367.7C-45.9201 371.308 -42.4283 373.935 -39.1262 376.021C-33.1799 379.779 -26.8726 382.933 -20.2985 385.436C-22.7546 391.393 -25.451 397.233 -28.0573 403.087C-30.4485 395.838 -32.8979 388.416 -37.3525 381.624C-41.4447 375.679 -50.3735 373.683 -54.4853 377.668C-58.8336 381.177 -57.6083 389.423 -51.9032 393.747C-44.9592 398.978 -37.1495 402.81 -29.351 405.893C-32.2559 412.41 -35.3203 418.821 -38.3979 425.273C-39.9593 418.049 -41.3893 410.655 -45.0816 403.615C-48.5317 397.218 -57.7833 394.323 -62.4095 397.951C-66.9887 400.955 -66.6758 408.735 -61.6016 413.479C-55.4629 419.149 -48.3555 423.588 -41.1353 427.439C-38.6516 428.664 -36.8401 430.881 -34.807 432.723C-29.6896 437.3 -24.3037 441.78 -18.3375 445.092C-13.5523 447.744 -8.3349 446.674 -5.49978 443.605C-3.36117 440.259 -3.40772 435.271 -6.53702 431.174C-8.9999 427.772 -13.0718 425.386 -16.943 425.094C-22.6268 424.672 -28.3404 424.904 -33.971 425.788C-35.2101 426.004 -36.4304 426.247 -37.6733 426.482C-34.4568 419.921 -31.4036 413.273 -28.3373 406.633C-26.3042 407.67 -24.2691 408.697 -22.2116 409.636C-16.2229 412.152 -10.1009 414.709 -3.96376 415.63C2.12458 416.452 6.62508 411.5 5.44091 405.684C4.92114 402.207 2.33434 398.961 -0.659914 396.531C-3.68614 394.847 -7.14421 393.638 -10.1068 394.368C-16.3568 395.89 -21.3716 399.436 -26.5028 402.587C-24.0492 397.156 -21.6338 391.703 -19.2566 386.23C-12.4731 389.811 -5.31698 392.635 2.08311 394.654C6.3372 395.886 10.4488 395 12.9422 392.297C13.8541 390.846 14.3858 389.189 14.4883 387.478C14.5908 385.768 14.2608 384.059 13.5287 382.51C12.0421 378.815 8.48462 375.98 4.85763 374.273C2.41142 373.715 -0.1174 373.424 -2.26145 374.137C-7.89001 375.847 -12.6119 378.978 -17.3563 382.002C-15.3377 376.817 -13.1276 371.749 -11.0302 366.608C-4.72604 368.743 1.64203 369.608 7.91812 370.248C12.5384 370.138 16.1339 366.61 15.1073 361.836C14.2648 356.118 6.87767 351.052 1.73346 352.756C-2.58843 354.4 -5.3485 357.997 -8.56659 360.956C-6.92912 356.163 -5.15648 351.426 -3.40637 346.729C2.31205 348.376 8.15442 349.501 13.6815 349.299C17.9357 349.164 20.3222 344.872 18.5183 340.689C16.9135 336.292 11.1389 333.072 7.23192 334.521C3.27048 336.267 0.861497 339.793 -1.93043 342.744C-0.405607 338.026 1.19618 333.338 2.71536 328.624C6.80427 329.34 10.9683 330.021 14.7964 329.357C17.6745 328.854 18.7824 325.513 17.1774 322.678C15.6833 319.777 11.7296 317.995 9.21942 319.172C6.9533 320.471 5.59764 322.709 3.936 324.597C4.92943 320.925 5.94162 317.257 6.86372 313.551C10.7536 314.09 14.7844 314.779 18.389 314.06C21.0249 313.499 22.0315 310.396 20.6368 307.73C19.2703 304.85 15.433 302.974 12.8834 304.007C10.7037 305.093 9.39496 307.145 7.86663 308.904C8.32864 306.62 8.71557 304.32 9.0274 301.981C9.2681 296.947 14.3204 294.556 14.6399 289.543Z" fill="#191880"/>
<path d="M171.081 441.608C163.177 436.243 154.684 432.02 146.418 427.443C117.055 412.034 86.2293 398.52 55.2546 393.192C54.5881 393.083 53.9254 392.98 53.2589 392.895C47.6576 391.889 41.9942 391.266 36.3081 391.031C28.2409 390.413 20.5398 391.308 12.9588 392.334C10.4804 395.011 6.3538 395.923 2.09971 394.691C1.18162 395.303 0.263524 395.915 -0.643311 396.569C2.35095 398.998 4.93774 402.244 5.45751 405.721C6.64168 411.538 2.14118 416.49 -3.94715 415.667C-10.0843 414.747 -16.21 412.184 -22.195 409.673C-24.4443 412.401 -26.6186 415.241 -28.7121 418.141C-30.4902 420.685 -33.4322 422.435 -33.9544 425.825C-28.3238 424.942 -22.6102 424.709 -16.9263 425.132C-13.0702 425.401 -8.9983 427.787 -6.52042 431.212C-3.39111 435.308 -3.34457 440.297 -5.48319 443.642C6.12967 452.814 17.6993 462.055 29.3723 471.147C32.4108 473.464 35.1583 476.139 37.5552 479.115C37.7655 478.894 38.1842 478.436 38.4001 478.21C51.6875 489.016 65.279 499.399 78.6246 510.133C84.8947 515.17 91.5478 519.757 97.2922 525.422L97.8798 525.95C97.7676 525.058 97.5476 524.183 97.2248 523.344C90.8831 510.325 83.8236 497.668 76.0789 485.432C65.2739 469.222 52.9538 453.289 37.3442 440.598C30.8902 435.138 23.7001 430.771 16.4405 426.751C14.6908 426.103 12.9562 425.405 11.2177 424.7C16.2078 425.035 21.2355 425.67 26.2631 426.232C27.8758 426.393 29.5748 426.611 30.9153 425.986C45.1164 419.709 59.0135 412.952 73.3404 406.876C74.8102 408.434 72.8296 408.648 71.9359 409.211C59.0508 415.131 46.0006 420.804 33.2657 426.949C79.2034 431.83 125.158 436.847 171.081 441.608Z" fill="#92B5F9"/>
<path d="M9.84253 371.366L7.91641 370.21C1.64783 369.58 -4.70897 368.709 -11.0319 366.57C-13.1293 371.71 -15.3469 376.767 -17.358 381.964C-12.6305 378.951 -7.90861 375.82 -2.26314 374.099C-0.111589 373.397 2.41723 373.688 4.85593 374.234C6.42427 373.124 8.09387 372.163 9.84253 371.366Z" fill="#BACAEE"/>
<path d="M2.08661 394.66C-5.31349 392.641 -12.4696 389.816 -19.2531 386.236C-21.6291 391.719 -24.0445 397.171 -26.4993 402.593C-21.3531 399.439 -16.3308 395.88 -10.1033 394.373C-7.14072 393.643 -3.68265 394.852 -0.656424 396.537C0.265429 395.906 1.17602 395.283 2.08661 394.66Z" fill="#BACAEE"/>
</g>
<defs>
<clipPath id="clip0">
<rect width="656.714" height="691.309" fill="white" transform="matrix(-0.378003 -0.925804 -0.925804 0.378003 280.257 608.948)"/>
</clipPath>
</defs>
</svg>
