<svg width="10" height="16" viewBox="0 0 10 16" fill="none" xmlns="http://www.w3.org/2000/svg">
<path d="M0.0120611 7.67155C0.0516567 7.41288 0.182027 7.177 0.379587 7.00655L7.90154 0.331886C8.14136 0.118071 8.4508 0 8.77135 0C9.0919 0 9.40133 0.118071 9.64115 0.331886C9.75414 0.434638 9.84445 0.560056 9.90626 0.70005C9.96807 0.840043 10 0.991505 10 1.14467C10 1.29783 9.96807 1.44929 9.90626 1.58929C9.84445 1.72928 9.75414 1.8547 9.64115 1.95745L3.01349 7.83164L9.33488 14.0507C9.44757 14.1523 9.5377 14.2767 9.5994 14.4156C9.6611 14.5546 9.69299 14.7051 9.69299 14.8573C9.69299 15.0095 9.6611 15.16 9.5994 15.2989C9.5377 15.4379 9.44757 15.5623 9.33488 15.6639C9.09629 15.8803 8.78639 16 8.46508 16C8.14376 16 7.83386 15.8803 7.59528 15.6639L0.342832 8.64443C0.214465 8.52057 0.117455 8.36762 0.0599108 8.19837C0.00236702 8.02912 -0.0140409 7.84848 0.0120611 7.67155Z" fill="#515151"/>
</svg>
