<svg width="255" height="337" viewBox="0 0 255 337" fill="none" xmlns="http://www.w3.org/2000/svg">
<g clip-path="url(#clip0)">
<path fill-rule="evenodd" clip-rule="evenodd" d="M255 337C210.389 337 167.604 319.247 136.059 287.647C104.514 256.048 86.7925 213.189 86.7925 168.5C86.7925 123.811 104.514 80.9524 136.059 49.3525C167.604 17.7526 210.389 -5.40257e-06 255 -7.3526e-06" fill="#E2E8F4"/>
<path d="M128.145 66.2769C132.861 60.9064 137.454 55.1821 140.219 48.4575C139.543 56.4131 137.285 64.1687 135.503 71.9551C133.045 70.0623 130.572 68.1542 128.145 66.2769Z" fill="#DDE8FE"/>
<path d="M114.366 130.799C113.844 123.705 112.292 116.011 116.01 109.255C118.698 103.577 124.197 100.315 129.712 98.4837C132.167 98.488 134.618 98.6939 137.039 99.0992C134.274 102.531 132.431 107.07 133.23 111.41C133.597 113.465 134.442 115.406 135.696 117.074C136.95 118.742 138.579 120.091 140.45 121.012C131.571 123.613 122.661 126.321 114.366 130.799Z" fill="#A7C0E8"/>
<path d="M2.90332 247.318C35.8997 228.391 68.9115 209.474 101.939 190.567C95.1795 209.032 88.4666 227.637 81.6614 246.133C81.2861 246.891 81.0705 247.717 81.0282 248.562C80.9859 249.407 81.1178 250.251 81.4157 251.042C83.4405 246.625 85.2201 242.099 86.7461 237.485C92.3991 222.097 97.9907 206.555 103.644 191.105C104.135 189.013 106.148 188.151 107.761 187.166C125.196 177.379 142.416 167.161 159.913 157.467C154.592 164.855 150.148 172.839 146.671 181.257C138.253 201.415 135.734 223.266 134.981 244.671C104.98 252.365 74.0575 253.412 43.7187 251.75C30.0466 250.976 16.4234 249.497 2.90332 247.318Z" fill="#7C9AF2"/>
<path d="M138.975 294.99C141.325 286.573 145.458 278.817 148.837 270.831C156.026 253.735 163.707 236.869 170.773 219.727C171.157 219.85 171.925 220.127 172.309 220.25C172.879 216.126 174.049 212.108 175.781 208.324C182.264 193.659 188.531 178.902 194.906 164.191C197.538 165.141 200.406 165.214 203.083 164.399C205.76 163.584 208.102 161.924 209.761 159.667C213.786 153.374 216.962 146.575 219.208 139.447C221.565 143.025 223.69 146.751 225.568 150.603C231.324 164.2 232.177 179.379 227.979 193.536C222.019 214.833 208.44 232.945 193.8 248.795C177.343 266.237 158.949 281.736 138.975 294.99Z" fill="#7C9AF2"/>
<path d="M-1.62778e-07 247.318C0.869638 246.456 1.85139 245.716 2.91867 245.118C49.2795 218.742 95.5175 192.059 141.848 165.576C123.967 165.33 106.055 165.761 88.1593 165.853C86.8229 165.699 84.534 166.423 85.087 164.145C104.642 163.576 124.197 163.837 143.752 163.499C145.607 163.302 147.382 162.64 148.914 161.575C153.968 158.636 158.976 155.636 164.137 152.943C162.724 154.481 161.326 156.02 159.867 157.467C142.37 167.146 125.15 177.379 107.714 187.166C106.102 188.151 104.089 189.012 103.598 191.105C97.9446 206.493 92.353 222.035 86.7 237.485C85.189 242.098 83.4249 246.624 81.4157 251.042C81.1249 250.248 81.0008 249.402 81.051 248.557C81.1012 247.713 81.3247 246.887 81.7075 246.133C88.5126 227.667 95.2256 209.094 101.985 190.567C68.9166 209.432 35.8895 228.35 2.90331 247.318C1.78193 248.272 0.798795 248.288 -1.62778e-07 247.318Z" fill="#050634"/>
<path d="M109.681 51.0885C114.842 55.5049 120.096 59.7982 125.365 64.0607C123.865 58.951 122.922 53.6934 122.554 48.3802C122.338 45.9511 123.003 43.5254 124.428 41.5478C125.097 40.5842 125.953 39.7656 126.946 39.1407C127.938 38.5159 129.045 38.0976 130.202 37.9109C131.359 37.7242 132.542 37.7729 133.68 38.054C134.817 38.3352 135.887 38.8431 136.825 39.5474C139.236 41.3016 140.02 44.487 140.358 47.4415L140.189 48.4417C137.424 55.1663 132.831 60.8907 128.115 66.2612C130.572 68.1385 133.015 70.0466 135.473 71.9394C138.918 74.7418 142.507 77.3614 146.226 79.7873C143.968 73.5398 141.494 67.2152 140.988 60.3983C140.527 54.243 146.057 48.4879 151.863 48.811C158.1 48.811 163.047 55.6741 160.988 62.0294C158.484 69.5234 154.06 76.2019 149.421 82.4803C155.76 87.1582 162.15 91.7747 168.592 96.3296C166.349 88.0969 164.107 79.6796 164.107 70.9392C164.179 67.8065 165.329 64.7948 167.36 62.4121C169.392 60.0294 172.182 58.4214 175.259 57.8592C178.396 57.3948 181.589 58.1899 184.143 60.0717C186.698 61.9535 188.408 64.7698 188.9 67.9077C189.852 72.1856 187.84 76.4789 185.689 80.2182C181.755 86.8312 177.064 92.9612 171.71 98.4839C178.377 103.347 185.198 107.963 191.988 112.656C189.683 104.208 187.379 95.5602 187.594 86.6043C188.009 78.6794 196.304 72.478 203.416 74.5708C210.467 76.1096 214.692 84.9423 211.45 91.9901C207.296 100.415 201.837 108.127 195.275 114.841C202.771 120.027 210.452 125.152 218.133 130.183C214.968 122.182 211.527 114.041 210.775 105.209C210.237 97.1297 218.21 89.8204 225.675 91.3592C232.634 92.2363 237.534 100.238 235.245 107.409C232.228 115.905 227.945 123.894 222.541 131.107C220.683 133.507 220.222 136.6 219.269 139.416C217.024 146.544 213.847 153.343 209.822 159.636C208.164 161.893 205.821 163.553 203.145 164.368C200.468 165.184 197.6 165.111 194.968 164.16C192.593 162.967 190.633 161.086 189.339 158.762C188.046 156.437 187.481 153.777 187.717 151.127C187.907 148.848 188.658 146.652 189.902 144.735C191.145 142.818 192.844 141.239 194.845 140.14C200.833 136.988 207.162 134.536 213.709 132.83C215.245 132.476 216.673 132.153 218.163 131.799C210.283 126.69 202.51 121.412 194.737 116.165C193.201 118.165 191.665 120.15 190.129 122.059C185.351 127.414 180.466 132.83 174.46 136.693C173.004 137.539 171.386 138.065 169.712 138.238C168.038 138.411 166.346 138.226 164.749 137.695C163.152 137.164 161.685 136.299 160.446 135.158C159.208 134.017 158.225 132.626 157.563 131.076C155.796 127.321 156.395 122.828 157.993 118.965C160.128 115.888 163.047 112.995 166.733 112.349C174.506 110.948 182.294 112.179 189.975 112.933C183.667 108.625 177.389 104.26 171.142 99.8381C166.144 106.697 160.307 112.9 153.768 118.304C151.986 119.89 149.818 120.978 147.483 121.459C145.148 121.94 142.728 121.796 140.465 121.043C138.594 120.122 136.966 118.773 135.712 117.105C134.457 115.437 133.612 113.496 133.245 111.441C132.37 107.024 134.29 102.485 137.055 99.1302C139.256 97.2963 141.909 96.0897 144.736 95.6371C151.956 94.7138 159.16 95.6371 166.242 96.4681C160.573 92.1902 154.782 88.1123 149.068 83.9113C143.6 88.828 137.548 93.0505 131.049 96.4834C125.995 98.5454 119.743 96.6681 117.638 91.3592C114.704 85.2039 119.266 76.602 125.964 75.9711C131.74 75.6017 137.163 77.9254 142.6 79.4026C137.608 75.3402 132.539 71.3854 127.454 67.4768C122.511 71.9216 116.862 75.51 110.741 78.0946C109.596 78.4996 108.377 78.6509 107.168 78.5379C105.96 78.4249 104.79 78.0505 103.74 77.4403C102.689 76.8302 101.784 75.999 101.086 75.004C100.388 74.0091 99.9135 72.8742 99.696 71.6778C98.467 66.4766 102.538 60.5214 107.73 60.1521C113.183 60.0444 118.16 62.4757 123.199 64.153C118.375 60.1059 113.491 56.1358 108.682 52.0887C104.886 54.935 100.624 57.0961 96.086 58.4748C95.2445 58.6336 94.3785 58.607 93.5483 58.3967C92.7181 58.1865 91.9435 57.7977 91.2784 57.2574C90.6133 56.717 90.0736 56.0381 89.6968 55.2678C89.32 54.4974 89.1152 53.6542 89.0966 52.7965C88.9601 51.0178 89.5283 49.2568 90.6783 47.8946C91.8283 46.5324 93.4675 45.6786 95.2411 45.518C98.5439 45.7642 101.524 47.3953 104.581 48.5186C101.048 45.2717 97.4839 42.0402 93.9969 38.7318C90.1565 41.117 86.3161 43.7176 81.892 44.6716C81.1046 44.781 80.3032 44.7282 79.5369 44.5163C78.7706 44.3045 78.0555 43.938 77.4356 43.4395C76.8157 42.941 76.304 42.3209 75.9318 41.6172C75.5596 40.9135 75.3348 40.1411 75.2713 39.3473C75.0805 37.5867 75.5891 35.8215 76.6872 34.4335C77.7853 33.0456 79.3846 32.1463 81.1393 31.9303C84.2116 32.0072 87.0074 33.4691 89.8493 34.5154C87.8011 32.4637 85.8297 30.3196 83.9351 28.0832C80.2791 23.1282 73.1821 23.0975 69.5107 18.1887C69.0582 17.4424 68.7571 16.614 68.6249 15.751C68.4927 14.888 68.5319 14.0073 68.7403 13.1595C68.9487 12.3117 69.3221 11.5134 69.8392 10.8105C70.3563 10.1076 71.0068 9.51393 71.7535 9.06349C72.3888 8.67227 73.0952 8.41121 73.8319 8.29539C74.5686 8.17958 75.3209 8.21133 76.0453 8.38879C76.7696 8.56627 77.4517 8.88594 78.0518 9.32928C78.652 9.77263 79.1584 10.3309 79.5417 10.9716C81.7845 15.0341 81.6616 19.9737 82.8598 24.4208C85.6249 28.8526 89.6957 32.1149 93.152 35.9927C92.3225 30.93 89.6803 25.221 92.4454 20.2507C95.7481 15.0187 104.182 18.0502 103.413 24.1592C102.2 29.4989 98.1598 33.546 94.811 37.6085C98.7743 41.3786 102.814 45.0563 106.9 48.6879C106.209 43.8099 103.628 38.0085 107.1 33.5306" fill="#7C9AF2"/>
<path d="M2.91845 245.117C7.83412 235.992 14.163 227.744 19.9697 219.235C41.2913 189.874 65.4856 161.775 95.3175 141.848C95.9627 141.432 96.6079 141.001 97.2684 140.586C102.71 136.9 108.409 133.609 114.32 130.737C122.615 126.321 131.524 123.613 140.434 121.089C142.696 121.842 145.117 121.986 147.452 121.505C149.787 121.024 151.955 119.936 153.737 118.35L157.962 118.95C156.425 122.813 155.765 127.306 157.531 131.061C158.193 132.61 159.176 134.002 160.415 135.143C161.654 136.284 163.121 137.148 164.718 137.679C166.315 138.21 168.007 138.396 169.681 138.223C171.355 138.05 172.973 137.523 174.429 136.677C180.435 132.861 185.32 127.444 190.098 122.043C194.384 123.751 198.639 125.598 202.832 127.537C206.458 129.26 210.805 129.645 213.585 132.815C207.039 134.52 200.71 136.973 194.721 140.124C192.72 141.224 191.022 142.803 189.778 144.72C188.535 146.637 187.784 148.833 187.594 151.111C187.358 153.762 187.923 156.422 189.216 158.746C190.509 161.071 192.47 162.952 194.844 164.145C188.469 178.856 182.202 193.613 175.719 208.278C173.987 212.062 172.817 216.08 172.248 220.204C171.879 220.081 171.111 219.804 170.712 219.681C163.645 236.823 155.965 253.689 148.775 270.785C145.457 278.817 141.325 286.573 138.975 294.99L138.714 295.821C138.227 294.896 137.876 293.907 137.669 292.882C135.756 276.885 134.858 260.782 134.981 244.671C135.734 223.235 138.314 201.384 146.625 181.226C150.102 172.808 154.545 164.824 159.866 157.436C161.402 155.897 162.724 154.451 164.137 152.912C158.975 155.605 153.968 158.605 148.914 161.544C147.377 162.612 145.597 163.274 143.737 163.468C124.182 163.807 104.627 163.468 85.0715 164.114C84.5338 166.392 86.8227 165.653 88.1438 165.822C106.04 165.73 123.951 165.299 141.909 165.545C95.5172 192.059 49.2793 218.742 2.91845 245.117Z" fill="#92B5F9"/>
<path d="M129.712 98.4841L131.002 96.4528C137.496 93.0188 143.543 88.7963 149.006 83.8808C154.72 88.0817 160.512 92.1596 166.18 96.4375C159.052 95.6219 151.848 94.6832 144.674 95.6065C141.847 96.0591 139.194 97.2657 136.993 99.0996C134.587 98.6967 132.152 98.4909 129.712 98.4841Z" fill="#BACAEE"/>
<path d="M153.752 118.35C160.292 112.947 166.128 106.743 171.126 99.8843C177.373 104.306 183.651 108.671 189.959 112.98C182.279 112.226 174.49 110.994 166.717 112.395C163.031 113.041 160.112 115.903 157.977 119.012L153.752 118.35Z" fill="#BACAEE"/>
<path d="M190.067 122.044C191.603 120.136 193.139 118.151 194.675 116.15C202.448 121.397 210.221 126.676 218.102 131.784C216.565 132.138 215.121 132.462 213.647 132.815C210.789 129.645 206.442 129.261 202.894 127.537C198.608 125.598 194.353 123.752 190.067 122.044Z" fill="#BACAEE"/>
</g>
<defs>
<clipPath id="clip0">
<rect width="337" height="255" fill="white" transform="translate(0 337) rotate(-90)"/>
</clipPath>
</defs>
</svg>
