<svg width="56" height="56" viewBox="0 0 56 56" fill="none" xmlns="http://www.w3.org/2000/svg">
<mask id="mask0" mask-type="alpha" maskUnits="userSpaceOnUse" x="0" y="0" width="56" height="56">
<circle cx="28" cy="28" r="28" fill="#8FDEF6"/>
</mask>
<g mask="url(#mask0)">
<g style="mix-blend-mode:multiply">
<path d="M10.5 43.001L15 18.501V16.001L33.5 8.50098L45 22.001L48 20.501L57 33.001L52.3704 46.1488L34.2222 57.5562L21 56.001L10.5 43.001Z" fill="#134469" fill-opacity="0.1"/>
</g>
</g>
<path d="M32 15H10V44H32V15Z" fill="white"/>
<path d="M28 15H10V44H28V15Z" fill="#8FDEF6" fill-opacity="0.16"/>
<path d="M32.5163 14.2461H9V14.9377H32.5163V14.2461Z" fill="#00ABD8"/>
<path d="M32.6256 12.8633H9.0332V13.5918H32.6256V12.8633Z" fill="#00ABD8"/>
<path d="M32.0555 13.5547H9.46143V14.2463H32.0555V13.5547Z" fill="#F0F0F0"/>
<path d="M14.8054 16.9414H11.2964V20.4504H14.8054V16.9414Z" fill="#00ABD8"/>
<path opacity="0.2" d="M14.805 16.9414H11.605V20.4504H14.805V16.9414Z" fill="white"/>
<path d="M20.1198 16.9414H16.6108V20.4504H20.1198V16.9414Z" fill="#00ABD8"/>
<path opacity="0.2" d="M20.1195 16.9414H16.9194V20.4504H20.1195V16.9414Z" fill="white"/>
<path d="M25.4314 16.9414H21.9224V20.4504H25.4314V16.9414Z" fill="#00ABD8"/>
<path opacity="0.2" d="M25.4315 16.9414H22.2314V20.4504H25.4315V16.9414Z" fill="white"/>
<path d="M14.8054 22.1084H11.2964V25.6174H14.8054V22.1084Z" fill="#00ABD8"/>
<path opacity="0.2" d="M14.805 22.1084H11.605V25.6174H14.805V22.1084Z" fill="white"/>
<path d="M20.1198 22.1084H16.6108V25.6174H20.1198V22.1084Z" fill="#00ABD8"/>
<path opacity="0.2" d="M20.1195 22.1084H16.9194V25.6174H20.1195V22.1084Z" fill="white"/>
<path d="M25.4314 22.1084H21.9224V25.6174H25.4314V22.1084Z" fill="#00ABD8"/>
<path opacity="0.2" d="M25.4315 22.1084H22.2314V25.6174H25.4315V22.1084Z" fill="white"/>
<path d="M14.8054 31.5664H11.2964V35.0754H14.8054V31.5664Z" fill="#00ABD8"/>
<path opacity="0.2" d="M14.805 31.5664H11.605V35.0754H14.805V31.5664Z" fill="white"/>
<path d="M20.1198 31.5664H16.6108V35.0754H20.1198V31.5664Z" fill="#00ABD8"/>
<path opacity="0.2" d="M20.1195 31.5664H16.9194V35.0754H20.1195V31.5664Z" fill="white"/>
<path d="M25.4314 31.5664H21.9224V35.0754H25.4314V31.5664Z" fill="#00ABD8"/>
<path opacity="0.2" d="M25.4315 31.5664H22.2314V35.0754H25.4315V31.5664Z" fill="white"/>
<path d="M14.8054 36.7334H11.2964V40.2424H14.8054V36.7334Z" fill="#00ABD8"/>
<path opacity="0.2" d="M14.805 36.7334H11.605V40.2424H14.805V36.7334Z" fill="white"/>
<path d="M20.1198 36.7334H16.6108V40.2424H20.1198V36.7334Z" fill="#00ABD8"/>
<path opacity="0.2" d="M20.1195 36.7334H16.9194V40.2424H20.1195V36.7334Z" fill="white"/>
<path d="M25.4314 36.7334H21.9224V40.2424H25.4314V36.7334Z" fill="#00ABD8"/>
<path opacity="0.2" d="M25.4315 36.7334H22.2314V40.2424H25.4315V36.7334Z" fill="white"/>
<path opacity="0.2" d="M32.355 28.084H9.52344V28.4091H32.355V28.084Z" fill="white"/>
<path opacity="0.2" d="M32.6223 12.8633H28.2026V13.5895H32.6223V12.8633Z" fill="black"/>
<path d="M48 20H33V44H48V20Z" fill="white"/>
<path d="M45 20H33V44H45V20Z" fill="#8FDEF6" fill-opacity="0.16"/>
<path d="M44 23H34V25H44V23Z" fill="#00ABD8" fill-opacity="0.5"/>
<path d="M44 27H34V29H44V27Z" fill="#00ABD8" fill-opacity="0.5"/>
<path d="M44 31H34V33H44V31Z" fill="#00ABD8" fill-opacity="0.5"/>
<path d="M44 35H34V37H44V35Z" fill="#00ABD8" fill-opacity="0.5"/>
<path d="M44 39H34V41H44V39Z" fill="#00ABD8" fill-opacity="0.5"/>
<path d="M48.0002 22.7129H46.5132V25.0392H48.0002V22.7129Z" fill="#33BCE0" fill-opacity="0.29"/>
<path d="M48.0002 26.5176H46.5132V28.8438H48.0002V26.5176Z" fill="#33BCE0" fill-opacity="0.29"/>
<path d="M48.0002 30.2178H46.5132V32.544H48.0002V30.2178Z" fill="#33BCE0" fill-opacity="0.29"/>
<path d="M48.0002 34.1318H46.5132V36.4581H48.0002V34.1318Z" fill="#33BCE0" fill-opacity="0.29"/>
<path d="M48.0002 37.9365H46.5132V40.2628H48.0002V37.9365Z" fill="#33BCE0" fill-opacity="0.29"/>
<path d="M20.6134 8.25943C20.4417 8.30711 20.2908 8.40059 20.1811 8.52715C20.0714 8.65372 20.0082 8.80724 20.0002 8.96683V15.786C19.9939 16.4691 20.1699 17.1438 20.5137 17.7547C20.8575 18.3657 21.3594 18.8956 21.9782 19.301L26.4832 21.8758C26.632 21.957 26.8031 22 26.9777 22C27.1523 22 27.3235 21.957 27.4722 21.8758L32.0217 19.301C32.6411 18.8961 33.1434 18.3663 33.4873 17.7552C33.8312 17.1441 34.0069 16.4692 33.9998 15.786V8.98441C33.9935 8.82145 33.9293 8.66443 33.8165 8.53581C33.7037 8.40718 33.5481 8.31352 33.3718 8.26822C27.9124 6.59858 25.7266 6.55904 20.6134 8.25943Z" fill="#FF9391"/>
<path d="M33.3851 8.26866C30.718 7.43898 28.8293 7.03073 27 7V22C27.1754 21.999 27.347 21.955 27.4957 21.8727L32.0168 19.2915C32.6378 18.887 33.1413 18.3576 33.4861 17.7471C33.8308 17.1365 34.0069 16.4622 33.9998 15.7796V8.9842C33.9945 8.82304 33.9323 8.66741 33.8221 8.5391C33.7118 8.41078 33.559 8.31622 33.3851 8.26866Z" fill="#FA7167"/>
<path d="M28 9H26V19H28V9Z" fill="white"/>
<path d="M32 15V13H22V15H32Z" fill="white"/>
</svg>
