<svg width="56" height="56" viewBox="0 0 56 56" fill="none" xmlns="http://www.w3.org/2000/svg">
<mask id="mask0" mask-type="alpha" maskUnits="userSpaceOnUse" x="0" y="0" width="56" height="56">
<circle cx="28" cy="28" r="28" fill="#8FDEF6"/>
</mask>
<g mask="url(#mask0)">
<g style="mix-blend-mode:multiply">
<path d="M7.5 35L13 32.001L16.5 27.001L21 23.001L15 16H22L25.5 15L42 15.5L47.5 22.5L57 35L52.3704 46.1488L34.2222 57.5562L24.5 57L7.5 35Z" fill="#134469" fill-opacity="0.1"/>
</g>
</g>
<path d="M44.6007 36.698L44.5833 36.9643H44.8502H47.8725C49.3985 36.9643 50.5256 35.5388 50.1908 34.0448L48.4703 26.3671C48.3428 25.7982 47.9078 25.3488 47.3441 25.2068C47.0169 25.1244 46.7491 24.8862 46.6274 24.5674L43.8475 17.2845C43.495 16.3609 42.6136 15.75 41.629 15.75H10.1266C8.81227 15.75 7.75 16.8231 7.75 18.1429V34.5714C7.75 35.8912 8.81227 36.9643 10.1266 36.9643H11.556H11.8229L11.8055 36.698C11.7981 36.5854 11.7944 36.4717 11.7944 36.3571C11.7944 33.5348 14.0646 31.25 16.861 31.25C19.6574 31.25 21.9276 33.5348 21.9276 36.3571C21.9276 36.4717 21.9239 36.5854 21.9165 36.698L21.8991 36.9643H22.166H34.2402H34.5071L34.4897 36.698C34.4823 36.5854 34.4786 36.4717 34.4786 36.3571C34.4786 33.5348 36.7488 31.25 39.5452 31.25C42.3416 31.25 44.6118 33.5348 44.6118 36.3571C44.6118 36.4717 44.6081 36.5854 44.6007 36.698ZM35.8964 18.3929H40.5477C41.0355 18.3929 41.4731 18.6991 41.643 19.1626L43.7951 25.0357H35.8964V18.3929ZM16.861 41.25C19.5457 41.25 21.7187 39.0576 21.7187 36.3571C21.7187 33.6567 19.5457 31.4643 16.861 31.4643C14.1764 31.4643 12.0033 33.6567 12.0033 36.3571C12.0033 39.0576 14.1764 41.25 16.861 41.25ZM39.5452 41.25C42.2298 41.25 44.4029 39.0576 44.4029 36.3571C44.4029 33.6567 42.2298 31.4643 39.5452 31.4643C36.8606 31.4643 34.6875 33.6567 34.6875 36.3571C34.6875 39.0576 36.8606 41.25 39.5452 41.25Z" fill="#00ABD8" stroke="#00ABD8" stroke-width="0.5"/>
<path fill-rule="evenodd" clip-rule="evenodd" d="M7 17.1429C7 15.9594 7.95213 15 9.12664 15H40.629C41.509 15 42.298 15.5461 42.6139 16.3736L45.3939 23.6566C45.5444 24.051 45.8762 24.3467 46.283 24.4492C46.7544 24.568 47.1193 24.9441 47.2263 25.4217L48.9469 33.0994C49.2472 34.4396 48.236 35.7143 46.8725 35.7143H43.8502C43.8579 35.5962 43.8618 35.4772 43.8618 35.3571C43.8618 32.3985 41.4815 30 38.5452 30C35.6089 30 33.2286 32.3985 33.2286 35.3571C33.2286 35.4772 33.2325 35.5962 33.2402 35.7143H21.166C21.1737 35.5962 21.1776 35.4772 21.1776 35.3571C21.1776 32.3985 18.7973 30 15.861 30C12.9247 30 10.5444 32.3985 10.5444 35.3571C10.5444 35.4772 10.5483 35.5962 10.556 35.7143H9.12664C7.95213 35.7143 7 34.7549 7 33.5714V17.1429ZM34.6464 17.1429H39.5477C40.1413 17.1429 40.6721 17.5155 40.8777 18.0766L43.1529 24.2857H34.6464V17.1429Z" fill="white"/>
<path d="M20.4687 35.3571C20.4687 37.9213 18.4058 40 15.861 40C13.3162 40 11.2533 37.9213 11.2533 35.3571C11.2533 32.793 13.3162 30.7143 15.861 30.7143C18.4058 30.7143 20.4687 32.793 20.4687 35.3571Z" fill="white"/>
<path d="M43.1529 35.3571C43.1529 37.9213 41.09 40 38.5452 40C36.0004 40 33.9375 37.9213 33.9375 35.3571C33.9375 32.793 36.0004 30.7143 38.5452 30.7143C41.09 30.7143 43.1529 32.793 43.1529 35.3571Z" fill="white"/>
<path d="M23 16H21V24H23V16Z" fill="#FA7167"/>
<path d="M26 21V19H18V21H26Z" fill="#FA7167"/>
<path d="M9.5 28H44.5C44.7761 28 45 27.7761 45 27.5C45 27.2239 44.7761 27 44.5 27H9.5C9.22386 27 9 27.2239 9 27.5C9 27.7761 9.22386 28 9.5 28Z" fill="#8FDEF6"/>
<path d="M35 13.5C35 12.6716 35.6716 12 36.5 12C37.3284 12 38 12.6716 38 13.5V15H35V13.5Z" fill="#FF9391"/>
<path fill-rule="evenodd" clip-rule="evenodd" d="M36.5 8.5C36.6381 8.5 36.75 8.61193 36.75 8.75L36.75 11.25C36.75 11.3881 36.6381 11.5 36.5 11.5C36.3619 11.5 36.25 11.3881 36.25 11.25L36.25 8.75C36.25 8.61193 36.3619 8.5 36.5 8.5ZM40.1768 9.82322C40.2744 9.92085 40.2744 10.0791 40.1768 10.1768L38.1768 12.1768C38.0791 12.2744 37.9208 12.2744 37.8232 12.1768C37.7256 12.0791 37.7256 11.9209 37.8232 11.8232L39.8232 9.82322C39.9208 9.72559 40.0791 9.72559 40.1768 9.82322ZM32.8232 10.1768C32.7256 10.0791 32.7256 9.92085 32.8232 9.82322C32.9209 9.72559 33.0791 9.72559 33.1768 9.82322L35.1768 11.8232C35.2744 11.9209 35.2744 12.0791 35.1768 12.1768C35.0791 12.2744 34.9209 12.2744 34.8232 12.1768L32.8232 10.1768Z" fill="#FF9391"/>
</svg>
