<svg width="24" height="25" viewBox="0 0 24 25" fill="none" xmlns="http://www.w3.org/2000/svg">
<path d="M12 9.5C11.206 9.50524 10.4459 9.82299 9.88447 10.3845C9.32299 10.9459 9.00524 11.706 9 12.5C9 14.142 10.358 15.5 12 15.5C13.641 15.5 15 14.142 15 12.5C15 10.859 13.641 9.5 12 9.5Z" fill="#9C9C9C"/>
<path d="M12.0003 5.5C4.36729 5.5 2.07329 12.117 2.05229 12.184L1.94629 12.5L2.05129 12.816C2.07329 12.883 4.36729 19.5 12.0003 19.5C19.6333 19.5 21.9273 12.883 21.9483 12.816L22.0543 12.5L21.9493 12.184C21.9273 12.117 19.6333 5.5 12.0003 5.5ZM12.0003 17.5C6.64929 17.5 4.57629 13.654 4.07429 12.5C4.57829 11.342 6.65229 7.5 12.0003 7.5C17.3513 7.5 19.4243 11.346 19.9263 12.5C19.4223 13.658 17.3483 17.5 12.0003 17.5V17.5Z" fill="#9C9C9C"/>
</svg>
