<svg width="57" height="56" viewBox="0 0 57 56" fill="none" xmlns="http://www.w3.org/2000/svg">
<mask id="mask0" mask-type="alpha" maskUnits="userSpaceOnUse" x="1" y="0" width="56" height="56">
<circle cx="29" cy="28" r="28" fill="#8FDEF6"/>
</mask>
<g mask="url(#mask0)">
<g style="mix-blend-mode:multiply">
<path d="M11.5 43.001L16 18.501L13.5 14.501L31 4.50098L46 22.001L49.5 24.001L57.5 34.001L53.3704 46.1488L35.2222 57.5562L22 56.001L11.5 43.001Z" fill="#134469" fill-opacity="0.1"/>
</g>
</g>
<path d="M24.652 17.7728L3.93433 27.0088L11.1625 43.5921L31.8802 34.3561L24.652 17.7728Z" fill="#00ABD8"/>
<path opacity="0.6" d="M24.652 17.7728L3.93433 27.0088L11.1625 43.5921L31.8802 34.3561L24.652 17.7728Z" fill="white"/>
<path d="M22.8311 14.5718L2.48999 23.4648L3.8193 26.4551L24.1604 17.5621L22.8311 14.5718Z" fill="#00ABD8"/>
<path d="M5.14514 20.8677C5.07851 20.7377 4.95953 20.6399 4.81277 20.5945C4.66601 20.5491 4.50268 20.5597 4.3565 20.6239C4.21033 20.6882 4.09249 20.8012 4.0273 20.9398C3.96212 21.0783 3.95458 21.2317 4.00624 21.3684L4.92753 23.4438C4.9576 23.512 5.00208 23.5731 5.05843 23.6236C5.11478 23.6742 5.18189 23.7131 5.25594 23.7382C5.32999 23.7634 5.40953 23.7742 5.49001 23.7701C5.57049 23.7661 5.65034 23.7472 5.72499 23.7145C5.79965 23.6819 5.86765 23.6361 5.92511 23.5799C5.98258 23.5236 6.02838 23.4579 6.05991 23.3866C6.09143 23.3153 6.10807 23.2397 6.10886 23.1642C6.10965 23.0887 6.09458 23.0148 6.06451 22.9466C6.00294 22.7969 5.20863 21.014 5.14514 20.8677Z" fill="#00ABD8"/>
<path d="M9.03499 19.1973C8.97388 19.0597 8.8554 18.954 8.70561 18.9035C8.55582 18.8531 8.38699 18.862 8.23626 18.9283C8.08553 18.9945 7.96526 19.1128 7.90189 19.257C7.83852 19.4012 7.83725 19.5595 7.89836 19.6971L8.81729 21.7738C8.84418 21.8465 8.88695 21.9124 8.943 21.9673C8.99904 22.0222 9.06718 22.0651 9.14325 22.0933C9.21931 22.1215 9.30171 22.1345 9.38539 22.1314C9.46907 22.1282 9.55228 22.1091 9.62993 22.0752C9.70759 22.0413 9.77805 21.9932 9.83701 21.934C9.89597 21.8748 9.94219 21.8056 9.97284 21.7308C10.0035 21.656 10.0179 21.577 10.0153 21.4987C10.0126 21.4205 9.99293 21.3445 9.9574 21.2756C9.89041 21.1277 9.10197 19.3452 9.03499 19.1973Z" fill="#00ABD8"/>
<path d="M12.9267 17.5225C12.8964 17.4543 12.8517 17.3933 12.7952 17.3429C12.7387 17.2925 12.6715 17.2537 12.5973 17.2288C12.5232 17.2038 12.4435 17.1931 12.363 17.1973C12.2825 17.2016 12.2027 17.2206 12.128 17.2535C12.0534 17.2863 11.9855 17.3322 11.9281 17.3886C11.8708 17.445 11.8251 17.5108 11.7937 17.5822C11.7303 17.7263 11.7291 17.8847 11.7902 18.0223L12.7098 20.1014C12.74 20.1695 12.7847 20.2305 12.8412 20.2809C12.8977 20.3313 12.9649 20.3701 13.0391 20.3951C13.1133 20.4201 13.1929 20.4308 13.2734 20.4265C13.3539 20.4223 13.4338 20.4032 13.5084 20.3704C13.583 20.3376 13.6509 20.2917 13.7083 20.2353C13.7657 20.1789 13.8113 20.1131 13.8427 20.0417C13.8741 19.9703 13.8905 19.8947 13.8911 19.8192C13.8918 19.7437 13.8765 19.6697 13.8462 19.6016C13.7835 19.4578 12.9909 17.6713 12.9267 17.5225Z" fill="#00ABD8"/>
<path d="M16.819 15.8511C16.7523 15.7211 16.6334 15.6233 16.4866 15.5779C16.3398 15.5325 16.1765 15.5431 16.0303 15.6073C15.8842 15.6716 15.7663 15.7846 15.7011 15.9232C15.6359 16.0617 15.6284 16.2151 15.6801 16.3518C15.7614 16.536 16.5208 18.2455 16.6021 18.4297C16.6324 18.4979 16.677 18.5589 16.7335 18.6093C16.79 18.6597 16.8573 18.6985 16.9314 18.7234C17.0055 18.7484 17.0851 18.7591 17.1656 18.7549C17.2461 18.7506 17.326 18.7315 17.4006 18.6987C17.4752 18.6659 17.5431 18.62 17.6004 18.5636C17.6578 18.5072 17.7035 18.4415 17.7348 18.3701C17.7662 18.2987 17.7826 18.2231 17.7832 18.1476C17.7838 18.0721 17.7686 17.9981 17.7383 17.93C17.6614 17.7882 16.8832 15.9999 16.819 15.8511Z" fill="#00ABD8"/>
<path d="M20.7083 14.1787C20.6781 14.1106 20.6334 14.0496 20.5769 13.9992C20.5204 13.9488 20.4532 13.91 20.3791 13.885C20.3049 13.86 20.2253 13.8494 20.1448 13.8536C20.0643 13.8578 19.9845 13.8769 19.9099 13.9097C19.8353 13.9425 19.7674 13.9885 19.71 14.0449C19.6527 14.1012 19.607 14.167 19.5756 14.2384C19.5443 14.3098 19.5278 14.3854 19.5272 14.4609C19.5266 14.5364 19.5419 14.6103 19.5721 14.6785L20.4915 16.7573C20.5581 16.8874 20.6771 16.9852 20.8239 17.0306C20.9706 17.0759 21.134 17.0654 21.2801 17.0012C21.4263 16.9369 21.5441 16.8238 21.6093 16.6853C21.6745 16.5468 21.6821 16.3933 21.6304 16.2567C21.5642 16.1113 20.7888 14.3222 20.7083 14.1787Z" fill="#00ABD8"/>
<g opacity="0.7">
<path opacity="0.7" d="M5.15969 20.8717C5.09362 20.7425 4.97426 20.6462 4.82627 20.6025C4.67827 20.5588 4.51293 20.5711 4.36441 20.6369C4.21588 20.7026 4.09551 20.8169 4.02815 20.9559C3.96079 21.095 3.95159 21.2483 4.00245 21.3842L4.91316 23.447C4.94288 23.5148 4.98725 23.5753 5.04373 23.6251C5.10022 23.6749 5.16772 23.7131 5.24237 23.7374C5.31702 23.7617 5.39737 23.7716 5.47882 23.7667C5.56027 23.7617 5.64124 23.742 5.7171 23.7086C5.79295 23.6751 5.86221 23.6287 5.92092 23.5718C5.97963 23.515 6.02664 23.4489 6.05926 23.3774C6.09188 23.3058 6.10948 23.2302 6.11106 23.1547C6.11263 23.0793 6.09814 23.0056 6.06842 22.9378C6.00768 22.7891 5.22242 21.0171 5.15969 20.8717Z" fill="white"/>
<path opacity="0.7" d="M9.04928 19.1973C8.98886 19.0605 8.87008 18.9562 8.71905 18.9075C8.56802 18.8587 8.39712 18.8695 8.24395 18.9373C8.09078 19.0052 7.96788 19.1246 7.90229 19.2693C7.8367 19.414 7.83379 19.5722 7.89421 19.709L8.80263 21.7731C8.82908 21.8454 8.87169 21.9107 8.92782 21.9649C8.98396 22.0192 9.05246 22.0613 9.12913 22.0886C9.2058 22.116 9.28902 22.128 9.37372 22.1239C9.45841 22.1199 9.5428 22.0999 9.62171 22.0652C9.70062 22.0304 9.77239 21.9817 9.83265 21.9219C9.89291 21.8621 9.94038 21.7925 9.97215 21.7174C10.0039 21.6423 10.0193 21.5633 10.0175 21.4851C10.0156 21.407 9.99644 21.3314 9.9612 21.2629C9.89494 21.116 9.11554 19.3442 9.04928 19.1973Z" fill="white"/>
<path opacity="0.7" d="M12.9414 17.5254C12.9115 17.4576 12.8669 17.3972 12.8103 17.3475C12.7536 17.2978 12.686 17.2597 12.6112 17.2356C12.5364 17.2115 12.456 17.2017 12.3745 17.2068C12.293 17.2119 12.212 17.2319 12.1362 17.2654C12.0604 17.299 11.9912 17.3457 11.9326 17.4026C11.8739 17.4596 11.8271 17.5258 11.7946 17.5974C11.729 17.7421 11.7261 17.9003 11.7865 18.037L12.6955 20.1035C12.7254 20.1712 12.77 20.2317 12.8266 20.2814C12.8833 20.3311 12.9509 20.3691 13.0257 20.3933C13.1005 20.4174 13.1809 20.4272 13.2624 20.4221C13.3439 20.4169 13.4249 20.397 13.5007 20.3634C13.5765 20.3298 13.6457 20.2832 13.7044 20.2263C13.763 20.1693 13.8098 20.1031 13.8423 20.0315C13.8748 19.9598 13.8922 19.8841 13.8936 19.8087C13.895 19.7332 13.8803 19.6595 13.8504 19.5918C13.7884 19.4489 13.0049 17.6733 12.9414 17.5254Z" fill="white"/>
<path opacity="0.7" d="M16.8338 15.8551C16.7677 15.7259 16.6484 15.6296 16.5003 15.5859C16.3523 15.5422 16.187 15.5545 16.0385 15.6202C15.89 15.686 15.7696 15.8003 15.7022 15.9393C15.6349 16.0784 15.6257 16.2317 15.6765 16.3676C15.7569 16.5508 16.5077 18.2497 16.588 18.4329C16.6179 18.5006 16.6624 18.561 16.7191 18.6107C16.7757 18.6605 16.8433 18.6985 16.9181 18.7226C16.9928 18.7467 17.0732 18.7565 17.1547 18.7514C17.2362 18.7463 17.3171 18.7263 17.3929 18.6928C17.4688 18.6592 17.5379 18.6126 17.5965 18.5556C17.6551 18.4987 17.702 18.4325 17.7344 18.3608C17.7669 18.2892 17.7843 18.2135 17.7857 18.1381C17.7871 18.0627 17.7724 17.989 17.7425 17.9213C17.6661 17.7805 16.8973 16.003 16.8338 15.8551Z" fill="white"/>
<path opacity="0.7" d="M20.7227 14.1806C20.6928 14.1129 20.6483 14.0525 20.5916 14.0028C20.535 13.9531 20.4674 13.915 20.3926 13.8909C20.3179 13.8668 20.2375 13.857 20.156 13.8621C20.0745 13.8672 19.9936 13.8872 19.9178 13.9207C19.842 13.9543 19.7728 14.0009 19.7142 14.0579C19.6556 14.1148 19.6087 14.181 19.5763 14.2527C19.5438 14.3243 19.5264 14.4 19.525 14.4754C19.5236 14.5508 19.5383 14.6245 19.5682 14.6922L20.4769 16.7584C20.543 16.8875 20.6624 16.9839 20.8104 17.0276C20.9584 17.0713 21.1237 17.059 21.2722 16.9932C21.4207 16.9275 21.5411 16.8132 21.6085 16.6742C21.6758 16.5351 21.685 16.3818 21.6342 16.2459C21.5687 16.1014 20.8026 14.323 20.7227 14.1806Z" fill="white"/>
</g>
<path d="M32.3193 33.6012L11.5304 42.789L3.87174 27.0255L24.6606 17.8377L32.3193 33.6012Z" fill="white"/>
<path d="M21.514 23.6408L11.3428 28.0929L10.0118 25.3771L20.1831 20.9251L21.514 23.6408Z" fill="#00ABD8"/>
<path opacity="0.6" d="M21.514 23.6408L11.3428 28.0929L10.0118 25.3771L20.1831 20.9251L21.514 23.6408Z" fill="white"/>
<path d="M11.6369 32.4742L8.882 33.6916L7.67052 31.1972L10.4281 29.9789L11.6369 32.4742Z" fill="white"/>
<path d="M15.4298 30.8438L12.6723 32.062L11.4642 29.5693L14.2191 28.3519L15.4298 30.8438Z" fill="white"/>
<path d="M13.361 35.9605L10.6035 37.1788L9.3954 34.686L12.1496 33.4661L13.361 35.9605Z" fill="#8FDEF6" fill-opacity="0.8"/>
<path d="M15.083 39.4488L12.328 40.6662L11.1166 38.1718L13.8715 36.9544L15.083 39.4488Z" fill="#8FDEF6" fill-opacity="0.8"/>
<path d="M17.1538 34.3311L14.3963 35.5494L13.1857 33.0576L15.9431 31.8393L17.1538 34.3311Z" fill="#FA7167"/>
<path d="M20.9445 32.7022L18.1903 33.9221L16.9789 31.4277L19.7338 30.2103L20.9445 32.7022Z" fill="#8FDEF6" fill-opacity="0.8"/>
<path opacity="0.2" d="M20.9445 32.7022L18.1903 33.9221L16.9789 31.4277L19.7338 30.2103L20.9445 32.7022Z" fill="white"/>
<path d="M24.7381 31.0719L21.9806 32.2902L20.7699 29.7983L23.5267 28.5776L24.7381 31.0719Z" fill="#8FDEF6" fill-opacity="0.8"/>
<path opacity="0.2" d="M24.7381 31.0719L21.9806 32.2902L20.7699 29.7983L23.5267 28.5776L24.7381 31.0719Z" fill="white"/>
<path d="M28.5284 29.4424L25.7736 30.6598L24.5629 28.1679L27.3177 26.9505L28.5284 29.4424Z" fill="#8FDEF6" fill-opacity="0.8"/>
<path opacity="0.2" d="M28.5284 29.4424L25.7736 30.6598L24.5629 28.1679L27.3177 26.9505L28.5284 29.4424Z" fill="white"/>
<path d="M18.8756 37.8164L16.1207 39.0338L14.91 36.5419L17.6649 35.3245L18.8756 37.8164Z" fill="#8FDEF6" fill-opacity="0.8"/>
<path opacity="0.2" d="M18.8756 37.8164L16.1207 39.0338L14.91 36.5419L17.6649 35.3245L18.8756 37.8164Z" fill="white"/>
<path d="M22.6695 36.1901L19.912 37.4083L18.7006 34.914L21.4581 33.6957L22.6695 36.1901Z" fill="#8FDEF6" fill-opacity="0.8"/>
<path opacity="0.2" d="M22.6695 36.1901L19.912 37.4083L18.7006 34.914L21.4581 33.6957L22.6695 36.1901Z" fill="white"/>
<path d="M26.4597 34.5591L23.7047 35.7766L22.494 33.2846L25.2482 32.0648L26.4597 34.5591Z" fill="#8FDEF6" fill-opacity="0.8"/>
<path opacity="0.2" d="M26.4597 34.5591L23.7047 35.7766L22.494 33.2846L25.2482 32.0648L26.4597 34.5591Z" fill="white"/>
<path d="M19.2225 29.213L16.4657 30.4337L15.2543 27.9394L18.0118 26.7211L19.2225 29.213Z" fill="#8FDEF6" fill-opacity="0.8"/>
<path opacity="0.2" d="M19.2225 29.213L16.4657 30.4337L15.2543 27.9394L18.0118 26.7211L19.2225 29.213Z" fill="white"/>
<path d="M23.0136 27.5884L20.2587 28.8059L19.0472 26.3115L21.8022 25.094L23.0136 27.5884Z" fill="#8FDEF6" fill-opacity="0.8"/>
<path opacity="0.2" d="M23.0136 27.5884L20.2587 28.8059L19.0472 26.3115L21.8022 25.094L23.0136 27.5884Z" fill="white"/>
<path d="M26.8064 25.9552L24.0489 27.1734L22.8382 24.6816L25.5957 23.4633L26.8064 25.9552Z" fill="#8FDEF6" fill-opacity="0.8"/>
<path opacity="0.2" d="M26.8064 25.9552L24.0489 27.1734L22.8382 24.6816L25.5957 23.4633L26.8064 25.9552Z" fill="white"/>
<path d="M30.2529 32.9317L27.4955 34.15L26.2848 31.6582L29.0422 30.4399L30.2529 32.9317Z" fill="white"/>
<path d="M29.6225 5.63361C29.6905 5.74744 29.7073 5.88465 29.6694 6.01633C29.6316 6.14801 29.542 6.26388 29.4196 6.33951C29.2948 6.41119 29.1484 6.43588 29.0114 6.40838C28.8744 6.38089 28.7574 6.30335 28.6851 6.1921L28.3442 5.64482L25.8896 7.10478C26.0618 7.37921 26.2023 7.60754 26.2306 7.65206C26.2829 7.70702 26.3209 7.77303 26.342 7.84536C26.3631 7.91769 26.3668 7.99456 26.3527 8.07049C26.3386 8.14642 26.3072 8.21954 26.2606 8.28462C26.214 8.3497 26.1534 8.40514 26.0832 8.44698C26.013 8.48882 25.9348 8.51604 25.8543 8.52668C25.7738 8.53732 25.6929 8.53113 25.6175 8.50854C25.542 8.48596 25.4738 8.44754 25.4178 8.39603C25.3617 8.34452 25.3192 8.28118 25.2932 8.21054L24.9522 7.66327L22.4977 9.12323C22.6699 9.39765 22.8103 9.62599 22.8387 9.6705C22.8797 9.78218 22.8773 9.90643 22.8319 10.0218C22.7865 10.1372 22.7009 10.2366 22.5899 10.3027C22.4789 10.3689 22.3493 10.3977 22.2236 10.3843C22.0979 10.3708 21.9839 10.3159 21.9013 10.229L21.5603 9.68171L19.1058 11.1417C19.2779 11.4161 19.4184 11.6444 19.4467 11.6889C19.499 11.7439 19.5371 11.8099 19.5582 11.8822C19.5793 11.9546 19.5829 12.0315 19.5688 12.1074C19.5548 12.1833 19.5233 12.2564 19.4767 12.3215C19.4301 12.3866 19.3696 12.442 19.2993 12.4839C19.2291 12.5257 19.1509 12.5529 19.0704 12.5636C18.9899 12.5742 18.909 12.568 18.8336 12.5454C18.7581 12.5229 18.6899 12.4844 18.6339 12.4329C18.5778 12.3814 18.5353 12.3181 18.5093 12.2474L18.1684 11.7002L15.7138 13.1601C15.8834 13.4354 16.0265 13.6629 16.0548 13.7074C16.0978 13.8196 16.0967 13.9451 16.0516 14.0618C16.0065 14.1786 15.9202 14.2792 15.8081 14.346C15.6959 14.4127 15.5649 14.4414 15.4381 14.4269C15.3113 14.4124 15.1969 14.3557 15.1148 14.2668L14.7764 13.7186L13.2201 14.6438L22.306 29.2391L39.9053 18.7625L30.8382 4.15291L29.2819 5.07813C29.4522 5.35587 29.5953 5.58334 29.6225 5.63361Z" fill="white"/>
<path d="M27.8833 8.55747L19.3809 13.6807L20.8166 16.0152L29.3191 10.892L27.8833 8.55747Z" fill="#00ABD8"/>
<path opacity="0.6" d="M27.8833 8.55747L19.3809 13.6807L20.8166 16.0152L29.3191 10.892L27.8833 8.55747Z" fill="white"/>
<path d="M20.1664 17.8324L17.8579 19.2324L19.1661 21.3733L21.4746 19.9732L20.1664 17.8324Z" fill="white"/>
<path d="M23.3524 15.9369L21.0439 17.3369L22.3521 19.4778L24.6606 18.0777L23.3524 15.9369Z" fill="#8FDEF6" fill-opacity="0.8"/>
<path d="M26.538 14.0472L24.2295 15.4473L25.5376 17.5881L27.8461 16.188L26.538 14.0472Z" fill="#8FDEF6" fill-opacity="0.8"/>
<path d="M29.7216 12.1536L27.4131 13.5537L28.7212 15.6946L31.0297 14.2945L29.7216 12.1536Z" fill="#8FDEF6" fill-opacity="0.8"/>
<path d="M32.9064 10.264L30.5979 11.6641L31.906 13.8049L34.2146 12.4048L32.9064 10.264Z" fill="#8FDEF6" fill-opacity="0.8"/>
<path d="M22.0133 20.8099L19.7048 22.21L21.013 24.3508L23.3215 22.9507L22.0133 20.8099Z" fill="#8FDEF6" fill-opacity="0.8"/>
<path d="M25.2006 18.9183L22.8921 20.3184L24.2002 22.4592L26.5087 21.0591L25.2006 18.9183Z" fill="#FF9391"/>
<path d="M28.3854 17.0247L26.0769 18.4248L27.385 20.5657L29.6935 19.1656L28.3854 17.0247Z" fill="#8FDEF6" fill-opacity="0.8"/>
<path d="M31.5724 15.1331L29.2639 16.5332L30.5721 18.674L32.8806 17.274L31.5724 15.1331Z" fill="#8FDEF6" fill-opacity="0.8"/>
<path d="M34.757 13.2376L32.4485 14.6377L33.7566 16.7785L36.0651 15.3785L34.757 13.2376Z" fill="#8FDEF6" fill-opacity="0.8"/>
<path d="M23.8659 23.7855L21.5574 25.1855L22.8655 27.3264L25.174 25.9263L23.8659 23.7855Z" fill="#8FDEF6" fill-opacity="0.8"/>
<path d="M27.0524 21.8958L24.7439 23.2959L26.052 25.4367L28.3605 24.0367L27.0524 21.8958Z" fill="#8FDEF6" fill-opacity="0.8"/>
<path d="M30.236 20.0033L27.9275 21.4033L29.2356 23.5442L31.5441 22.1441L30.236 20.0033Z" fill="#8FDEF6" fill-opacity="0.8"/>
<path opacity="0.2" d="M23.3524 15.9369L21.0439 17.3369L22.3521 19.4778L24.6606 18.0777L23.3524 15.9369Z" fill="white"/>
<path opacity="0.2" d="M26.538 14.0472L24.2295 15.4473L25.5376 17.5881L27.8461 16.188L26.538 14.0472Z" fill="white"/>
<path opacity="0.2" d="M29.7216 12.1536L27.4131 13.5537L28.7212 15.6946L31.0297 14.2945L29.7216 12.1536Z" fill="white"/>
<path opacity="0.2" d="M32.9064 10.264L30.5979 11.6641L31.906 13.8049L34.2146 12.4048L32.9064 10.264Z" fill="white"/>
<path opacity="0.2" d="M28.3854 17.0247L26.0769 18.4248L27.385 20.5657L29.6935 19.1656L28.3854 17.0247Z" fill="white"/>
<path opacity="0.2" d="M31.5724 15.1331L29.2639 16.5332L30.5721 18.674L32.8806 17.274L31.5724 15.1331Z" fill="white"/>
<path opacity="0.2" d="M34.757 13.2376L32.4485 14.6377L33.7566 16.7785L36.0651 15.3785L34.757 13.2376Z" fill="white"/>
<path opacity="0.2" d="M27.0524 21.8958L24.7439 23.2959L26.052 25.4367L28.3605 24.0367L27.0524 21.8958Z" fill="white"/>
<path opacity="0.2" d="M30.236 20.0033L27.9275 21.4033L29.2356 23.5442L31.5441 22.1441L30.236 20.0033Z" fill="white"/>
<path d="M33.4218 18.1107L31.1133 19.5107L32.4214 21.6516L34.7299 20.2515L33.4218 18.1107Z" fill="white"/>
<path d="M36.6066 16.2152L34.2981 17.6152L35.6062 19.7561L37.9147 18.356L36.6066 16.2152Z" fill="white"/>
<path d="M13.3638 14.7295L22.1323 30.0345L39.9482 18.829L22.4161 29.2593L13.3638 14.7295Z" fill="#00ABD8"/>
<path opacity="0.5" d="M13.3638 14.7295L22.1323 30.0345L39.9482 18.829L22.4161 29.2593L13.3638 14.7295Z" fill="white"/>
<path d="M49.6533 23.9892C47.5752 22.0473 44.7951 20.9741 41.9105 21.0005C39.0259 21.0268 36.2671 22.1505 34.227 24.13C32.1869 26.1096 31.0284 28.7869 31.0004 31.5867C30.9724 34.3865 32.0772 37.0851 34.0774 39.1027L41.863 46.6606L49.6533 39.0994C51.7165 37.095 52.8755 34.3776 52.8755 31.5443C52.8755 28.711 51.7165 25.9936 49.6533 23.9892ZM41.8642 36.5148C40.8528 36.5148 39.8641 36.2237 39.0231 35.6783C38.1821 35.1329 37.5267 34.3577 37.1397 33.4507C36.7527 32.5437 36.6515 31.5457 36.8489 30.5829C37.0463 29.62 37.5335 28.7357 38.2487 28.0416C38.964 27.3475 39.8753 26.8749 40.8673 26.6835C41.8593 26.4921 42.8875 26.5906 43.8219 26.9664C44.7563 27.3422 45.5548 27.9786 46.1166 28.7949C46.6783 29.6113 46.9781 30.571 46.9778 31.5527C46.9751 32.8673 46.4351 34.1271 45.4764 35.0557C44.5177 35.9844 43.2186 36.5059 41.8642 36.5059V36.5148Z" fill="#FF9391"/>
</svg>
