<svg width="56" height="56" viewBox="0 0 56 56" fill="none" xmlns="http://www.w3.org/2000/svg">
<mask id="mask0" mask-type="alpha" maskUnits="userSpaceOnUse" x="0" y="0" width="56" height="56">
<circle cx="28" cy="28" r="28" fill="#8FDEF6"/>
</mask>
<g mask="url(#mask0)">
<g style="mix-blend-mode:multiply">
<path d="M9 38.5L10.5 35.5L17.5 32.5V31.5L10 24L12 20L17.5 24L21 19.5L15 13L16.5 9.5L24 17.5L28.5 16.5L30 9L37 16.5L41 12.5L48 21L57.5 33.5L52.8704 46.6478L34.7222 58.0552L21.5 56.5L13 45L9 38.5Z" fill="#134469" fill-opacity="0.1"/>
</g>
</g>
<path d="M35.5034 18.692C33.7353 17.4482 31.6383 16.6495 29.376 16.4715V13.8163C30.3336 13.446 31.012 12.5057 31.012 11.4125C31.012 9.99576 29.8832 8.85 28.4796 8.85C27.0759 8.85 25.9471 9.99576 25.9471 11.4125C25.9471 12.5584 26.686 13.5211 27.7058 13.8536V16.4886C25.3275 16.6259 23.1243 17.4269 21.2892 18.7247L17.3322 13.7632C17.6655 13.3271 17.8627 12.7815 17.8627 12.1891C17.8627 10.7723 16.7339 9.62655 15.3303 9.62655C13.9266 9.62655 12.7979 10.7723 12.7979 12.1891C12.7979 13.6058 13.9266 14.7515 15.3303 14.7515C15.5335 14.7515 15.7299 14.7277 15.919 14.6795L19.9828 19.7835C18.7399 20.9404 17.732 22.3578 17.0289 23.9374L14.1049 22.851C14.0116 21.5154 12.9153 20.4673 11.5777 20.4673C10.1741 20.4673 9.0453 21.613 9.0453 23.0298C9.0453 24.4465 10.1741 25.5922 11.5777 25.5922C12.4381 25.5922 13.2071 25.1432 13.6627 24.4756L16.4452 25.5132C16.1192 26.6372 15.9471 27.8278 15.9471 29.0662C15.9471 30.6715 16.2392 32.2086 16.7858 33.6291L12.7081 35.5613C12.2441 35.0726 11.5925 34.7766 10.8824 34.7766C9.47878 34.7766 8.35 35.9223 8.35 37.3391C8.35 38.7558 9.47878 39.9016 10.8824 39.9016C12.286 39.9016 13.4148 38.7558 13.4148 37.3391V37.3337C13.4148 37.2569 13.4148 37.173 13.4072 37.0863L17.4953 35.1538C18.0413 36.1434 18.718 37.0514 19.4924 37.8615L16.0982 41.7233C15.7985 41.598 15.4667 41.5274 15.1258 41.5274C13.7221 41.5274 12.5934 42.6732 12.5934 44.0899C12.5934 45.5066 13.7221 46.6524 15.1258 46.6524C16.5294 46.6524 17.6582 45.5066 17.6582 44.0899C17.6582 43.6379 17.5489 43.211 17.3448 42.8443L20.7376 38.9841C21.4452 39.5361 22.2047 40.0191 23.0239 40.4172L21.8922 43.3542C20.5687 43.439 19.5156 44.5512 19.5156 45.9122C19.5156 47.329 20.6444 48.4747 22.0481 48.4747C23.4517 48.4747 24.5805 47.329 24.5805 45.9122C24.5805 45.0455 24.1586 44.2767 23.5091 43.815L24.5804 41.0364C25.7835 41.427 27.0714 41.641 28.3978 41.641C29.1371 41.641 29.8571 41.5671 30.5573 41.4456L31.3124 44.3608C30.5959 44.814 30.1189 45.6185 30.1189 46.5335C30.1189 47.9502 31.2477 49.096 32.6513 49.096C34.055 49.096 35.1837 47.9502 35.1837 46.5335C35.1837 45.2083 34.1979 44.131 32.9338 43.9818L32.1676 41.0318C34.2185 40.3671 36.0291 39.1958 37.4631 37.647L41.1852 40.6015C41.0357 40.9258 40.9574 41.2831 40.9574 41.6567C40.9574 43.0734 42.0862 44.2192 43.4898 44.2192C44.8934 44.2192 46.0222 43.0734 46.0222 41.6567C46.0222 40.24 44.8934 39.0942 43.4898 39.0942C43.0789 39.0942 42.6872 39.1969 42.34 39.3758L38.5206 36.3369C39.7316 34.6151 40.5305 32.5697 40.7624 30.3574L43.6445 30.4049C43.9158 31.5306 44.9088 32.3638 46.1074 32.3638C47.511 32.3638 48.6398 31.218 48.6398 29.8013C48.6398 28.3846 47.511 27.2388 46.1074 27.2388C45.0874 27.2388 44.2122 27.8555 43.8114 28.7282L40.8348 28.6804C40.7861 26.9696 40.3967 25.3452 39.7458 23.8695L42.6471 22.2223C43.096 22.6466 43.6943 22.9002 44.3589 22.9002C45.7625 22.9002 46.8913 21.7544 46.8913 20.3377C46.8913 18.921 45.7625 17.7752 44.3589 17.7752C42.9553 17.7752 41.8265 18.921 41.8265 20.3377C41.8265 20.4769 41.8399 20.6082 41.861 20.7361L38.961 22.3825C38.3584 21.4127 37.6329 20.5243 36.8003 19.7503L38.794 17.1326C38.9991 17.183 39.2149 17.2158 39.4407 17.2158C40.8443 17.2158 41.9731 16.0701 41.9731 14.6533C41.9731 13.2366 40.8443 12.0908 39.4407 12.0908C38.0371 12.0908 36.9083 13.2366 36.9083 14.6533C36.9083 15.2257 37.0961 15.7603 37.411 16.1866L35.5034 18.692Z" fill="#00ABD8" stroke="#00ABD8" stroke-width="0.3"/>
<path fill-rule="evenodd" clip-rule="evenodd" d="M28.7157 15.6532C31.0573 15.8085 33.225 16.6368 35.0348 17.9415L37.1002 15.2287C36.7628 14.8145 36.5583 14.2761 36.5583 13.6963C36.5583 12.3606 37.6217 11.2838 38.9407 11.2838C40.2597 11.2838 41.3231 12.3606 41.3231 13.6963C41.3231 15.032 40.2597 16.1088 38.9407 16.1088C38.6953 16.1088 38.4601 16.0674 38.2352 16.0052L36.0982 18.8112C36.998 19.6292 37.7751 20.5817 38.409 21.6275L41.5276 19.857C41.4969 19.7016 41.4765 19.5463 41.4765 19.3807C41.4765 18.045 42.5399 16.9682 43.8589 16.9682C45.1779 16.9682 46.2413 18.045 46.2413 19.3807C46.2413 20.7163 45.1779 21.7932 43.8589 21.7932C43.1943 21.7932 42.6012 21.524 42.1718 21.0787L39.0532 22.8493C39.7485 24.3817 40.1575 26.0797 40.1881 27.871L43.409 27.9228C43.7669 27.053 44.6155 26.4318 45.6074 26.4318C46.9264 26.4318 47.9898 27.5086 47.9898 28.8443C47.9898 30.1799 46.9264 31.2568 45.6074 31.2568C44.4417 31.2568 43.4806 30.4181 43.2659 29.2999L40.1268 29.2481C39.9121 31.5363 39.0838 33.6486 37.816 35.4087L41.8241 38.5978C42.1718 38.4011 42.5706 38.2872 42.9898 38.2872C44.3088 38.2872 45.3722 39.364 45.3722 40.6997C45.3722 42.0353 44.3088 43.1122 42.9898 43.1122C41.6708 43.1122 40.6074 42.0353 40.6074 40.6997C40.6074 40.3062 40.6994 39.9335 40.8732 39.6021L36.9468 36.4856C35.4847 38.1008 33.6135 39.3122 31.4867 39.9749L32.3149 43.1639C33.5522 43.2571 34.5337 44.2925 34.5337 45.5764C34.5337 46.9121 33.4704 47.9889 32.1513 47.9889C30.8323 47.9889 29.7689 46.9121 29.7689 45.5764C29.7689 44.6756 30.2597 43.8887 30.9857 43.4746L30.1677 40.3166C29.4315 40.4512 28.6748 40.534 27.8978 40.534C26.5378 40.534 25.2188 40.3062 23.9918 39.8921L22.8262 42.9154C23.4908 43.34 23.9305 44.0958 23.9305 44.9552C23.9305 46.2909 22.8671 47.3677 21.5481 47.3677C20.229 47.3677 19.1656 46.2909 19.1656 44.9552C19.1656 43.6402 20.2086 42.5738 21.4969 42.5427L22.7137 39.3847C21.8139 38.9602 20.9857 38.4321 20.2188 37.8212L16.6605 41.8697C16.8855 42.2321 17.0082 42.6669 17.0082 43.1329C17.0082 44.4686 15.9448 45.5454 14.6258 45.5454C13.3067 45.5454 12.2434 44.4686 12.2434 43.1329C12.2434 41.7972 13.3067 40.7204 14.6258 40.7204C14.9836 40.7204 15.3313 40.8032 15.638 40.9482L19.1963 36.8997C18.3579 36.0403 17.6319 35.0671 17.0593 34.0006L12.7444 36.0403C12.7648 36.1542 12.7648 36.2681 12.7648 36.382C12.7648 37.7177 11.7014 38.7945 10.3824 38.7945C9.06339 38.7945 8 37.7177 8 36.382C8 35.0464 9.06339 33.9695 10.3824 33.9695C11.0879 33.9695 11.7321 34.2802 12.1718 34.7875L16.4765 32.7478C15.9039 31.3085 15.5971 29.7451 15.5971 28.1091C15.5971 26.8356 15.7812 25.6138 16.1288 24.4645L13.1023 23.3359C12.683 24.0193 11.9264 24.4852 11.0777 24.4852C9.75869 24.4852 8.6953 23.4084 8.6953 22.0727C8.6953 20.737 9.75869 19.6602 11.0777 19.6602C12.3661 19.6602 13.4192 20.6956 13.4601 22.0002L16.6094 23.1702C17.3252 21.5136 18.3783 20.033 19.6871 18.8423L15.4744 13.5513C15.2699 13.6135 15.0552 13.6445 14.8303 13.6445C13.5112 13.6445 12.4479 12.5677 12.4479 11.232C12.4479 9.89635 13.5112 8.81952 14.8303 8.81952C16.1493 8.81952 17.2127 9.89635 17.2127 11.232C17.2127 11.8326 16.998 12.3813 16.6401 12.8058L20.7607 17.9725C22.6319 16.6161 24.9018 15.7878 27.3558 15.6739V12.7851C26.3436 12.5056 25.5971 11.5737 25.5971 10.4555C25.5971 9.11979 26.6605 8.04297 27.9796 8.04297C29.2986 8.04297 30.362 9.11979 30.362 10.4555C30.362 11.5219 29.6769 12.4331 28.726 12.7541V15.6946L28.7157 15.6532Z" fill="white"/>
</svg>
