<svg width="19" height="19" viewBox="0 0 19 19" fill="none" xmlns="http://www.w3.org/2000/svg">
<path d="M15.87 2.64147C14.1832 0.952043 11.8944 0.00187815 9.50708 2.78133e-06C7.11974 -0.00187258 4.82944 0.944695 3.14001 2.63147C1.45058 4.31825 0.500413 6.60706 0.498538 8.9944C0.496663 11.3817 1.44323 13.672 3.13001 15.3615C4.81678 17.0509 7.1056 18.0011 9.49294 18.0029C11.8803 18.0048 14.1706 17.0582 15.86 15.3715C17.5494 13.6847 18.4996 11.3959 18.5015 9.00854C18.5034 6.62121 17.5568 4.3309 15.87 2.64147ZM14.76 14.2515C14.0705 14.9446 13.2509 15.4949 12.3483 15.8707C11.4457 16.2465 10.4777 16.4405 9.50001 16.4415C8.52154 16.4455 7.55215 16.2538 6.64884 15.8777C5.74553 15.5016 4.92653 14.9487 4.24001 14.2515C3.19926 13.2111 2.49042 11.8854 2.20315 10.4421C1.91587 8.99882 2.06306 7.50276 2.62611 6.14313C3.18915 4.7835 4.14275 3.62139 5.36631 2.80376C6.58986 1.98613 8.02841 1.54972 9.50001 1.54972C10.9716 1.54972 12.4102 1.98613 13.6337 2.80376C14.8573 3.62139 15.8109 4.7835 16.3739 6.14313C16.937 7.50276 17.0841 8.99882 16.7969 10.4421C16.5096 11.8854 15.8008 13.2111 14.76 14.2515Z" fill="#134469"/>
<path d="M8.20988 13.1312C8.27789 13.3277 8.40545 13.4981 8.57483 13.6187C8.7442 13.7393 8.94696 13.8041 9.15488 13.8041C9.36281 13.8041 9.56557 13.7393 9.73494 13.6187C9.90431 13.4981 10.0319 13.3277 10.0999 13.1312C10.0758 12.8973 9.96584 12.6807 9.79129 12.5232C9.61674 12.3657 9.38999 12.2785 9.15488 12.2785C8.91978 12.2785 8.69303 12.3657 8.51848 12.5232C8.34392 12.6807 8.23397 12.8973 8.20988 13.1312ZM9.49988 4.20117C7.63988 4.20117 5.87988 5.05117 5.87988 7.07117H7.34988C7.34988 6.00117 8.49988 5.53117 9.49988 5.53117C10.4999 5.53117 11.5999 5.80117 11.5999 7.04117C11.5999 7.96117 10.7999 8.16117 10.0899 8.49117C9.08988 8.89117 8.42988 9.40117 8.42988 11.2412H9.89988C9.89988 10.3412 10.0799 10.0112 10.6999 9.70117C11.4999 9.23117 13.1199 8.97117 13.1199 7.04117C13.1199 5.11117 11.3599 4.20117 9.49988 4.20117Z" fill="#134469"/>
</svg>
