<svg width="19" height="19" viewBox="0 0 19 19" fill="none" xmlns="http://www.w3.org/2000/svg">
<path d="M16.3685 3.13952C14.6818 1.45009 12.393 0.499925 10.0056 0.49805C7.61828 0.496174 5.32797 1.44274 3.63854 3.12952C1.94911 4.8163 0.998948 7.10511 0.997073 9.49245C0.995198 11.8798 1.94177 14.1701 3.62854 15.8595C5.31532 17.5489 7.60413 18.4991 9.99147 18.501C12.3788 18.5029 14.6691 17.5563 16.3585 15.8695C18.048 14.1827 18.9981 11.8939 19 9.50659C19.0019 7.11925 18.0553 4.82895 16.3685 3.13952ZM15.2585 14.7495C14.569 15.4427 13.7494 15.993 12.8468 16.3688C11.9442 16.7446 10.9763 16.9385 9.99854 16.9395C9.02007 16.9435 8.05068 16.7518 7.14737 16.3757C6.24406 15.9996 5.42507 15.4467 4.73854 14.7495C3.69779 13.7091 2.98896 12.3834 2.70168 10.9402C2.41441 9.49687 2.5616 8.0008 3.12464 6.64118C3.68769 5.28155 4.64129 4.11943 5.86484 3.30181C7.0884 2.48418 8.52694 2.04777 9.99854 2.04777C11.4701 2.04777 12.9087 2.48418 14.1322 3.30181C15.3558 4.11943 16.3094 5.28155 16.8724 6.64118C17.4355 8.0008 17.5827 9.49687 17.2954 10.9402C17.0081 12.3834 16.2993 13.7091 15.2585 14.7495Z" fill="#9C9C9C"/>
<path d="M8.70891 13.6292C8.77691 13.8257 8.90448 13.9961 9.07385 14.1167C9.24322 14.2373 9.44598 14.3021 9.65391 14.3021C9.86183 14.3021 10.0646 14.2373 10.234 14.1167C10.4033 13.9961 10.5309 13.8257 10.5989 13.6292C10.5748 13.3954 10.4649 13.1787 10.2903 13.0212C10.1158 12.8637 9.88901 12.7766 9.65391 12.7766C9.4188 12.7766 9.19205 12.8637 9.0175 13.0212C8.84295 13.1787 8.733 13.3954 8.70891 13.6292ZM9.99891 4.69922C8.13891 4.69922 6.37891 5.54922 6.37891 7.56922H7.84891C7.84891 6.49922 8.99891 6.02922 9.99891 6.02922C10.9989 6.02922 12.0989 6.29922 12.0989 7.53922C12.0989 8.45922 11.2989 8.65922 10.5889 8.98922C9.58891 9.38922 8.92891 9.89922 8.92891 11.7392H10.3989C10.3989 10.8392 10.5789 10.5092 11.1989 10.1992C11.9989 9.72922 13.6189 9.46922 13.6189 7.53922C13.6189 5.60922 11.8589 4.69922 9.99891 4.69922Z" fill="#9C9C9C"/>
</svg>
