<svg width="56" height="56" viewBox="0 0 56 56" fill="none" xmlns="http://www.w3.org/2000/svg">
<mask id="mask0" mask-type="alpha" maskUnits="userSpaceOnUse" x="0" y="0" width="56" height="56">
<circle cx="28" cy="28" r="28" fill="#8FDEF6"/>
</mask>
<g mask="url(#mask0)">
<g style="mix-blend-mode:multiply">
<path d="M13 40.5L10.5 35.5L10 24L18 12L30 9L34.5 11L41 12.5L48 21L57.5 33.5L52.8704 46.6478L34.7222 58.0552L26 57.5L17.5 46L13 40.5Z" fill="#134469" fill-opacity="0.1"/>
</g>
</g>
<ellipse cx="28.5" cy="28" rx="17.5" ry="18" fill="white"/>
<path fill-rule="evenodd" clip-rule="evenodd" d="M48 28C48 39.0457 39.2696 48 28.5 48C17.7304 48 9 39.0457 9 28C9 16.9543 17.7304 8 28.5 8C39.2696 8 48 16.9543 48 28ZM45.2143 28C45.2143 37.4677 37.731 45.1429 28.5 45.1429C19.269 45.1429 11.7857 37.4677 11.7857 28C11.7857 18.5323 19.269 10.8571 28.5 10.8571C37.731 10.8571 45.2143 18.5323 45.2143 28Z" fill="#FF9391"/>
<path fill-rule="evenodd" clip-rule="evenodd" d="M21.4493 20.4493C20.8503 21.0484 20.8503 22.0197 21.4493 22.6187L26.3306 27.5001L21.4493 32.3814C20.8502 32.9805 20.8502 33.9518 21.4493 34.5508C22.0484 35.1499 23.0197 35.1499 23.6187 34.5508L28.5001 29.6695L33.3813 34.5507C33.9803 35.1498 34.9516 35.1498 35.5507 34.5507C36.1498 33.9516 36.1498 32.9803 35.5507 32.3812L30.6695 27.5001L35.5507 22.6189C36.1498 22.0198 36.1498 21.0485 35.5507 20.4495C34.9516 19.8504 33.9803 19.8504 33.3812 20.4495L28.5001 25.3306L23.6188 20.4493C23.0197 19.8502 22.0484 19.8502 21.4493 20.4493Z" fill="#FF9391"/>
</svg>
