<?xml version="1.0" encoding="utf-8"?>
<!-- Generator: Adobe Illustrator 15.0.0, SVG Export Plug-In . SVG Version: 6.00 Build 0)  -->
<!DOCTYPE svg PUBLIC "-//W3C//DTD SVG 1.1//EN" "http://www.w3.org/Graphics/SVG/1.1/DTD/svg11.dtd">
<svg version="1.1" id="Слой_1" xmlns="http://www.w3.org/2000/svg" xmlns:xlink="http://www.w3.org/1999/xlink" x="0px" y="0px"
	 width="32px" height="32px" viewBox="0 0 32 32" enable-background="new 0 0 32 32" xml:space="preserve">
<path fill="#FFFFFF" d="M32,31H0V4h16v2H2v23h28V15h2V31z"/>
<path fill="#FFFFFF" d="M17.12,21.537l-1.885-3.771l-3.773-1.885L23.051,4.293l1.414,1.414l-9.626,9.625l1.888,0.943l0.941,1.885
	l9.625-9.625l1.414,1.414L17.12,21.537z"/>
<path fill="#FFFFFF" d="M30.121,8.535l-5.656-5.656l0.706-0.707C25.926,1.416,26.932,1,27.999,1c1.069,0,2.073,0.416,2.829,1.172
	C31.583,2.925,31.999,3.928,32,4.996c0.001,1.07-0.415,2.076-1.172,2.832L30.121,8.535z M27.48,3.067l2.451,2.45
	C29.979,5.351,30,5.176,30,4.998c0-0.534-0.208-1.035-0.585-1.411C28.91,3.082,28.15,2.888,27.48,3.067z"/>
<path fill="#FFFFFF" d="M7.192,25.807l2.754-8.26l1.897,0.633l-1.489,4.467l4.466-1.488l0.633,1.896L7.192,25.807z"/>
</svg>
